%TF.GenerationSoftware,KiCad,Pcbnew,7.0.5*%
%TF.CreationDate,2023-09-16T15:28:57-07:00*%
%TF.ProjectId,PCF8574DIOI2C,50434638-3537-4344-9449-4f4932432e6b,rev?*%
%TF.SameCoordinates,Original*%
%TF.FileFunction,Copper,L2,Bot*%
%TF.FilePolarity,Positive*%
%FSLAX46Y46*%
G04 Gerber Fmt 4.6, Leading zero omitted, Abs format (unit mm)*
G04 Created by KiCad (PCBNEW 7.0.5) date 2023-09-16 15:28:57*
%MOMM*%
%LPD*%
G01*
G04 APERTURE LIST*
%TA.AperFunction,ComponentPad*%
%ADD10R,1.700000X1.700000*%
%TD*%
%TA.AperFunction,ComponentPad*%
%ADD11O,1.700000X1.700000*%
%TD*%
%TA.AperFunction,ComponentPad*%
%ADD12C,5.600000*%
%TD*%
%TA.AperFunction,ComponentPad*%
%ADD13R,3.000000X3.000000*%
%TD*%
%TA.AperFunction,ComponentPad*%
%ADD14C,3.000000*%
%TD*%
%TA.AperFunction,ViaPad*%
%ADD15C,0.700000*%
%TD*%
%TA.AperFunction,Conductor*%
%ADD16C,1.000000*%
%TD*%
%TA.AperFunction,Conductor*%
%ADD17C,0.300000*%
%TD*%
%TA.AperFunction,Conductor*%
%ADD18C,0.500000*%
%TD*%
G04 APERTURE END LIST*
D10*
%TO.P,J7,1,Pin_1*%
%TO.N,GND*%
X114300000Y-99075000D03*
D11*
%TO.P,J7,2,Pin_2*%
%TO.N,Net-(J7-Pin_2)*%
X114300000Y-101615000D03*
%TO.P,J7,3,Pin_3*%
%TO.N,+5V*%
X114300000Y-104155000D03*
%TD*%
D10*
%TO.P,J5,1,Pin_1*%
%TO.N,GND*%
X127365000Y-114300000D03*
D11*
%TO.P,J5,2,Pin_2*%
%TO.N,Net-(J5-Pin_2)*%
X129905000Y-114300000D03*
%TO.P,J5,3,Pin_3*%
%TO.N,+5V*%
X132445000Y-114300000D03*
%TD*%
D12*
%TO.P,J2,1,Pin_1*%
%TO.N,GND*%
X158750000Y-50800000D03*
%TD*%
D10*
%TO.P,J8,1,Pin_1*%
%TO.N,GND*%
X114300000Y-82565000D03*
D11*
%TO.P,J8,2,Pin_2*%
%TO.N,Net-(J8-Pin_2)*%
X114300000Y-85105000D03*
%TO.P,J8,3,Pin_3*%
%TO.N,+5V*%
X114300000Y-87645000D03*
%TD*%
D13*
%TO.P,J15,1,Pin_1*%
%TO.N,GND*%
X123190000Y-50800000D03*
D14*
%TO.P,J15,2,Pin_2*%
%TO.N,Net-(J15-Pin_2)*%
X128270000Y-50800000D03*
%TD*%
D10*
%TO.P,J14,1,Pin_1*%
%TO.N,GND*%
X158750000Y-69850000D03*
D11*
%TO.P,J14,2,Pin_2*%
%TO.N,Net-(J14-Pin_2)*%
X158750000Y-67310000D03*
%TO.P,J14,3,Pin_3*%
%TO.N,+5V*%
X158750000Y-64770000D03*
%TD*%
D10*
%TO.P,J13,1,Pin_1*%
%TO.N,GND*%
X158750000Y-85090000D03*
D11*
%TO.P,J13,2,Pin_2*%
%TO.N,Net-(J13-Pin_2)*%
X158750000Y-82550000D03*
%TO.P,J13,3,Pin_3*%
%TO.N,+5V*%
X158750000Y-80010000D03*
%TD*%
D10*
%TO.P,J12,1,Pin_1*%
%TO.N,GND*%
X144475000Y-114300000D03*
D11*
%TO.P,J12,2,Pin_2*%
%TO.N,Net-(J12-Pin_2)*%
X147015000Y-114300000D03*
%TO.P,J12,3,Pin_3*%
%TO.N,+5V*%
X149555000Y-114300000D03*
%TD*%
D10*
%TO.P,J11,1,Pin_1*%
%TO.N,GND*%
X114300000Y-64785000D03*
D11*
%TO.P,J11,2,Pin_2*%
%TO.N,Net-(J11-Pin_2)*%
X114300000Y-67325000D03*
%TO.P,J11,3,Pin_3*%
%TO.N,+5V*%
X114300000Y-69865000D03*
%TD*%
D12*
%TO.P,J3,1,Pin_1*%
%TO.N,GND*%
X114300000Y-114300000D03*
%TD*%
%TO.P,J1,1,Pin_1*%
%TO.N,GND*%
X114300000Y-50800000D03*
%TD*%
D10*
%TO.P,J9,1,Pin_1*%
%TO.N,GND*%
X138435000Y-50800000D03*
D11*
%TO.P,J9,2,Pin_2*%
%TO.N,/I2CConnector/VI2C*%
X140975000Y-50800000D03*
%TO.P,J9,3,Pin_3*%
%TO.N,Net-(D18-A)*%
X143515000Y-50800000D03*
%TO.P,J9,4,Pin_4*%
%TO.N,Net-(D17-A)*%
X146055000Y-50800000D03*
%TO.P,J9,5,Pin_5*%
%TO.N,/I2CConnector/INT*%
X148595000Y-50800000D03*
%TD*%
D12*
%TO.P,J4,1,Pin_1*%
%TO.N,GND*%
X158750000Y-114300000D03*
%TD*%
D10*
%TO.P,J6,1,Pin_1*%
%TO.N,GND*%
X158750000Y-101600000D03*
D11*
%TO.P,J6,2,Pin_2*%
%TO.N,Net-(J6-Pin_2)*%
X158750000Y-99060000D03*
%TO.P,J6,3,Pin_3*%
%TO.N,+5V*%
X158750000Y-96520000D03*
%TD*%
D15*
%TO.N,GND*%
X126000000Y-86500000D03*
X115000000Y-90500000D03*
X153500000Y-64000000D03*
X142500000Y-101000000D03*
X140000000Y-59500000D03*
X131500000Y-106000000D03*
X132500000Y-69500000D03*
X143500000Y-81000000D03*
X127500000Y-83000000D03*
X140337500Y-55837500D03*
X137500000Y-101000000D03*
X148000000Y-75500000D03*
X142000000Y-73500000D03*
X148000000Y-67000000D03*
X154500000Y-104500000D03*
X138000000Y-94500000D03*
X162500000Y-79500000D03*
X140000000Y-71500000D03*
X134750000Y-82250000D03*
X147000000Y-96500000D03*
X147500000Y-83725000D03*
X147000000Y-101000000D03*
X153250000Y-52250000D03*
X135500000Y-98000000D03*
X142000000Y-67500000D03*
X143250000Y-92250000D03*
X150500000Y-99500000D03*
X136500000Y-78000000D03*
X137500000Y-107250000D03*
X159500000Y-76500000D03*
X145000000Y-107250000D03*
X124500000Y-67500000D03*
X127500000Y-91500000D03*
X112500000Y-108000000D03*
X124500000Y-78000000D03*
X133000000Y-90500000D03*
X148250000Y-107250000D03*
X116000000Y-72500000D03*
X128250000Y-78000000D03*
X116500000Y-107000000D03*
X150250000Y-54000000D03*
X135000000Y-112500000D03*
X138750000Y-63250000D03*
X145750000Y-54250000D03*
X129250000Y-72750000D03*
%TO.N,+5V*%
X129687500Y-65937500D03*
X141500000Y-78000000D03*
X152000000Y-104500000D03*
X126250000Y-81250000D03*
X131750000Y-62500000D03*
X141750000Y-58250000D03*
X145750000Y-75250000D03*
X144750000Y-57750000D03*
X126000000Y-76250000D03*
%TO.N,Net-(D17-A)*%
X145500000Y-60500000D03*
X148250000Y-63500000D03*
%TO.N,Net-(D18-A)*%
X142500000Y-64500000D03*
X142000000Y-60000000D03*
%TO.N,/PCF8574/HighSideGate3/IN*%
X133250000Y-96000000D03*
X128000000Y-95250000D03*
%TO.N,/PCF8574/HighSideGate5/IN*%
X129500000Y-83750000D03*
X140000000Y-87500000D03*
%TO.N,/PCF8574/HighSideGate6/IN*%
X130500000Y-81250000D03*
X142250000Y-86250000D03*
%TO.N,/PCF8574/HighSideGate7/IN*%
X142250000Y-98250000D03*
X141500000Y-87500000D03*
%TO.N,/PCF8574/HighSideGate4/IN*%
X145250000Y-82250000D03*
X144000000Y-87750000D03*
%TO.N,/I2CConnector/INT*%
X134500000Y-88250000D03*
X133750000Y-74250000D03*
X152338750Y-58838750D03*
X137500000Y-70000000D03*
X144500000Y-63250000D03*
X131250000Y-87000000D03*
%TO.N,/EEPROMI2C/SCL*%
X151250000Y-69500000D03*
X146500000Y-71250000D03*
%TO.N,/EEPROMI2C/SDA*%
X139125000Y-70375000D03*
X136750000Y-74500000D03*
%TO.N,/PCF8574/A1*%
X132500000Y-93000000D03*
X127500000Y-93250000D03*
%TD*%
D16*
%TO.N,GND*%
X114300000Y-58700000D02*
X110750000Y-62250000D01*
X140337500Y-52702500D02*
X138435000Y-50800000D01*
X113185000Y-82565000D02*
X114300000Y-82565000D01*
X110750000Y-62250000D02*
X110750000Y-79015000D01*
X139750000Y-82250000D02*
X142000000Y-80000000D01*
X114300000Y-99075000D02*
X114075000Y-99075000D01*
X151500000Y-54000000D02*
X153250000Y-52250000D01*
X148250000Y-107250000D02*
X145000000Y-107250000D01*
X148865000Y-85090000D02*
X158750000Y-85090000D01*
X147500000Y-81250000D02*
X147500000Y-83725000D01*
X142000000Y-74000000D02*
X140000000Y-76000000D01*
X140000000Y-62000000D02*
X138750000Y-63250000D01*
X114075000Y-99075000D02*
X110750000Y-95750000D01*
X142000000Y-73500000D02*
X142000000Y-74000000D01*
X112175000Y-99075000D02*
X110500000Y-100750000D01*
X140000000Y-71500000D02*
X142000000Y-73500000D01*
X144475000Y-107775000D02*
X145000000Y-107250000D01*
X145000000Y-107250000D02*
X137500000Y-107250000D01*
X146250000Y-80000000D02*
X147500000Y-81250000D01*
X145250000Y-54750000D02*
X145750000Y-54250000D01*
X140337500Y-54750000D02*
X140337500Y-52702500D01*
X124500000Y-78000000D02*
X128250000Y-78000000D01*
X110750000Y-95750000D02*
X110750000Y-85000000D01*
X110500000Y-110500000D02*
X114300000Y-114300000D01*
X140337500Y-54750000D02*
X145250000Y-54750000D01*
X140000000Y-59500000D02*
X140000000Y-62000000D01*
X134750000Y-82250000D02*
X139750000Y-82250000D01*
X110750000Y-85000000D02*
X113185000Y-82565000D01*
X131500000Y-76000000D02*
X129250000Y-73750000D01*
X110750000Y-79015000D02*
X114300000Y-82565000D01*
X140337500Y-55837500D02*
X140337500Y-54750000D01*
X140000000Y-76000000D02*
X131500000Y-76000000D01*
X114300000Y-99075000D02*
X112175000Y-99075000D01*
X110500000Y-100750000D02*
X110500000Y-110500000D01*
X145750000Y-54250000D02*
X150000000Y-54250000D01*
X150000000Y-54250000D02*
X150250000Y-54000000D01*
X114300000Y-50800000D02*
X114300000Y-58700000D01*
X129250000Y-73750000D02*
X129250000Y-72750000D01*
X144475000Y-114300000D02*
X144475000Y-107775000D01*
X147500000Y-83725000D02*
X148865000Y-85090000D01*
X150250000Y-54000000D02*
X151500000Y-54000000D01*
X142000000Y-80000000D02*
X146250000Y-80000000D01*
%TO.N,+5V*%
X152000000Y-111855000D02*
X149555000Y-114300000D01*
X141500000Y-78000000D02*
X143000000Y-78000000D01*
X126000000Y-69625000D02*
X126000000Y-76250000D01*
X160020000Y-64770000D02*
X161750000Y-66500000D01*
X132445000Y-116055000D02*
X132445000Y-114300000D01*
X158750000Y-64770000D02*
X160020000Y-64770000D01*
X128750000Y-81250000D02*
X126250000Y-81250000D01*
X144750000Y-57750000D02*
X144250000Y-58250000D01*
X120695000Y-81250000D02*
X114300000Y-87645000D01*
X152000000Y-104500000D02*
X152000000Y-111855000D01*
X126250000Y-81250000D02*
X120695000Y-81250000D01*
X144250000Y-58250000D02*
X141750000Y-58250000D01*
X139750000Y-79750000D02*
X130250000Y-79750000D01*
X141500000Y-78000000D02*
X156740000Y-78000000D01*
X161750000Y-66500000D02*
X161750000Y-77010000D01*
X135395000Y-117250000D02*
X132445000Y-114300000D01*
X156740000Y-78000000D02*
X158750000Y-80010000D01*
X129687500Y-65937500D02*
X129687500Y-64562500D01*
X114300000Y-104155000D02*
X114300000Y-108050000D01*
X130500000Y-77750000D02*
X129000000Y-76250000D01*
X129687500Y-64562500D02*
X131750000Y-62500000D01*
X125760000Y-69865000D02*
X114300000Y-69865000D01*
X143000000Y-78000000D02*
X145750000Y-75250000D01*
X152000000Y-103270000D02*
X152000000Y-104500000D01*
X130500000Y-79750000D02*
X130500000Y-77750000D01*
X161750000Y-77010000D02*
X158750000Y-80010000D01*
X129687500Y-65937500D02*
X126000000Y-69625000D01*
X131750000Y-62500000D02*
X134250000Y-62500000D01*
X114300000Y-108050000D02*
X123750000Y-117500000D01*
X126000000Y-69625000D02*
X125760000Y-69865000D01*
X123750000Y-117500000D02*
X131000000Y-117500000D01*
X139250000Y-57500000D02*
X141000000Y-57500000D01*
X141000000Y-57500000D02*
X141750000Y-58250000D01*
X131000000Y-117500000D02*
X132445000Y-116055000D01*
X129000000Y-76250000D02*
X126000000Y-76250000D01*
X149555000Y-114300000D02*
X149555000Y-115695000D01*
X134250000Y-62500000D02*
X139250000Y-57500000D01*
X149555000Y-115695000D02*
X148000000Y-117250000D01*
X148000000Y-117250000D02*
X135395000Y-117250000D01*
X141500000Y-78000000D02*
X139750000Y-79750000D01*
X130250000Y-79750000D02*
X128750000Y-81250000D01*
X158750000Y-96520000D02*
X152000000Y-103270000D01*
%TO.N,Net-(D17-A)*%
X145500000Y-60750000D02*
X148250000Y-63500000D01*
X145500000Y-60500000D02*
X145500000Y-60750000D01*
%TO.N,Net-(D18-A)*%
X142000000Y-60000000D02*
X142000000Y-64000000D01*
X142000000Y-64000000D02*
X142500000Y-64500000D01*
D17*
%TO.N,/PCF8574/HighSideGate3/IN*%
X133250000Y-96000000D02*
X132500000Y-95250000D01*
X132500000Y-95250000D02*
X128000000Y-95250000D01*
%TO.N,/PCF8574/HighSideGate5/IN*%
X137500000Y-85000000D02*
X140000000Y-87500000D01*
X129500000Y-83750000D02*
X130750000Y-85000000D01*
X130750000Y-85000000D02*
X137500000Y-85000000D01*
%TO.N,/PCF8574/HighSideGate6/IN*%
X139000000Y-84500000D02*
X132250000Y-84500000D01*
X132250000Y-84500000D02*
X130500000Y-82750000D01*
X142250000Y-86250000D02*
X140750000Y-86250000D01*
X130500000Y-82750000D02*
X130500000Y-81250000D01*
X140750000Y-86250000D02*
X139000000Y-84500000D01*
%TO.N,/PCF8574/HighSideGate7/IN*%
X142250000Y-88250000D02*
X142250000Y-98250000D01*
X141500000Y-87500000D02*
X142250000Y-88250000D01*
%TO.N,/PCF8574/HighSideGate4/IN*%
X144000000Y-86000000D02*
X144000000Y-87750000D01*
X145250000Y-84750000D02*
X144000000Y-86000000D01*
X145250000Y-82250000D02*
X145250000Y-84750000D01*
%TO.N,/I2CConnector/INT*%
X145411250Y-58838750D02*
X152338750Y-58838750D01*
X144250000Y-60000000D02*
X145411250Y-58838750D01*
X137500000Y-70500000D02*
X137500000Y-70000000D01*
X144250000Y-63000000D02*
X144250000Y-60000000D01*
X144500000Y-63250000D02*
X144250000Y-63000000D01*
X133750000Y-74250000D02*
X137500000Y-70500000D01*
X133250000Y-87000000D02*
X134500000Y-88250000D01*
X131250000Y-87000000D02*
X133250000Y-87000000D01*
D18*
%TO.N,/EEPROMI2C/SCL*%
X151250000Y-69500000D02*
X149500000Y-71250000D01*
X149500000Y-71250000D02*
X146500000Y-71250000D01*
D17*
%TO.N,/EEPROMI2C/SDA*%
X139125000Y-70375000D02*
X136750000Y-72750000D01*
X136750000Y-72750000D02*
X136750000Y-74500000D01*
%TO.N,/PCF8574/A1*%
X132500000Y-93000000D02*
X127750000Y-93000000D01*
X127750000Y-93000000D02*
X127500000Y-93250000D01*
%TD*%
%TA.AperFunction,Conductor*%
%TO.N,GND*%
G36*
X158751132Y-44450542D02*
G01*
X159017225Y-44460498D01*
X159227583Y-44468764D01*
X159232032Y-44469102D01*
X159485974Y-44497715D01*
X159711099Y-44524360D01*
X159715303Y-44525006D01*
X159963451Y-44571958D01*
X160188986Y-44616819D01*
X160192853Y-44617721D01*
X160435652Y-44682779D01*
X160658288Y-44745569D01*
X160661911Y-44746713D01*
X160898532Y-44829511D01*
X161116363Y-44909873D01*
X161119661Y-44911200D01*
X161348568Y-45011071D01*
X161349704Y-45011581D01*
X161560484Y-45108752D01*
X161563428Y-45110207D01*
X161784014Y-45226790D01*
X161785262Y-45227469D01*
X161988027Y-45341023D01*
X161990662Y-45342587D01*
X162196667Y-45472028D01*
X162201743Y-45475218D01*
X162203185Y-45476152D01*
X162396495Y-45605318D01*
X162398867Y-45606984D01*
X162599333Y-45754935D01*
X162600874Y-45756110D01*
X162783553Y-45900123D01*
X162785549Y-45901767D01*
X162974378Y-46064267D01*
X162976007Y-46065721D01*
X163146852Y-46223648D01*
X163148594Y-46225324D01*
X163324674Y-46401404D01*
X163326362Y-46403159D01*
X163484277Y-46573991D01*
X163485738Y-46575628D01*
X163648223Y-46764440D01*
X163649883Y-46766456D01*
X163793868Y-46949099D01*
X163795063Y-46950665D01*
X163943014Y-47151131D01*
X163944680Y-47153503D01*
X164073834Y-47346795D01*
X164074780Y-47348255D01*
X164207390Y-47559301D01*
X164208988Y-47561993D01*
X164322508Y-47764698D01*
X164323228Y-47766022D01*
X164439777Y-47986542D01*
X164441259Y-47989541D01*
X164538414Y-48200288D01*
X164538936Y-48201451D01*
X164638796Y-48430333D01*
X164640138Y-48433668D01*
X164720486Y-48651463D01*
X164803284Y-48888086D01*
X164804436Y-48891735D01*
X164867221Y-49114353D01*
X164932270Y-49357118D01*
X164933188Y-49361057D01*
X164978039Y-49586534D01*
X165024989Y-49834677D01*
X165025640Y-49838917D01*
X165052279Y-50063983D01*
X165080894Y-50317950D01*
X165081237Y-50322459D01*
X165089521Y-50533300D01*
X165090480Y-50558942D01*
X165099457Y-50798868D01*
X165099500Y-50801152D01*
X165099500Y-114298847D01*
X165099457Y-114301132D01*
X165095388Y-114409903D01*
X165089521Y-114566699D01*
X165081237Y-114777539D01*
X165080894Y-114782048D01*
X165052279Y-115036015D01*
X165025640Y-115261081D01*
X165024989Y-115265321D01*
X164978039Y-115513464D01*
X164933192Y-115738927D01*
X164932270Y-115742880D01*
X164867221Y-115985645D01*
X164804436Y-116208263D01*
X164803284Y-116211912D01*
X164720486Y-116448535D01*
X164640138Y-116666330D01*
X164638796Y-116669665D01*
X164538936Y-116898547D01*
X164538414Y-116899710D01*
X164441259Y-117110457D01*
X164439769Y-117113472D01*
X164323228Y-117333976D01*
X164322508Y-117335300D01*
X164208988Y-117538005D01*
X164207390Y-117540697D01*
X164074780Y-117751743D01*
X164073834Y-117753203D01*
X163944680Y-117946495D01*
X163943014Y-117948867D01*
X163795063Y-118149333D01*
X163793868Y-118150899D01*
X163649906Y-118333515D01*
X163648210Y-118335574D01*
X163485743Y-118524364D01*
X163484277Y-118526007D01*
X163326362Y-118696839D01*
X163324674Y-118698594D01*
X163148594Y-118874674D01*
X163146839Y-118876362D01*
X162976007Y-119034277D01*
X162974364Y-119035743D01*
X162785574Y-119198210D01*
X162783515Y-119199906D01*
X162600899Y-119343868D01*
X162599333Y-119345063D01*
X162398867Y-119493014D01*
X162396495Y-119494680D01*
X162203203Y-119623834D01*
X162201743Y-119624780D01*
X161990697Y-119757390D01*
X161988005Y-119758988D01*
X161785300Y-119872508D01*
X161783976Y-119873228D01*
X161563472Y-119989769D01*
X161560457Y-119991259D01*
X161349710Y-120088414D01*
X161348547Y-120088936D01*
X161119665Y-120188796D01*
X161116330Y-120190138D01*
X160898535Y-120270486D01*
X160661912Y-120353284D01*
X160658263Y-120354436D01*
X160435645Y-120417221D01*
X160192880Y-120482270D01*
X160188927Y-120483192D01*
X159963464Y-120528039D01*
X159715321Y-120574989D01*
X159711081Y-120575640D01*
X159486015Y-120602279D01*
X159232048Y-120630894D01*
X159227538Y-120631237D01*
X159016889Y-120639513D01*
X158853648Y-120645621D01*
X158751132Y-120649457D01*
X158748848Y-120649500D01*
X114301152Y-120649500D01*
X114298867Y-120649457D01*
X114191409Y-120645436D01*
X114033109Y-120639513D01*
X113822460Y-120631237D01*
X113817950Y-120630894D01*
X113563983Y-120602279D01*
X113338917Y-120575640D01*
X113334677Y-120574989D01*
X113086534Y-120528039D01*
X112861057Y-120483188D01*
X112857118Y-120482270D01*
X112614353Y-120417221D01*
X112391735Y-120354436D01*
X112388086Y-120353284D01*
X112151463Y-120270486D01*
X111933668Y-120190138D01*
X111930333Y-120188796D01*
X111701451Y-120088936D01*
X111700288Y-120088414D01*
X111489541Y-119991259D01*
X111486542Y-119989777D01*
X111351687Y-119918504D01*
X111266022Y-119873228D01*
X111264698Y-119872508D01*
X111061993Y-119758988D01*
X111059313Y-119757397D01*
X110937545Y-119680885D01*
X110848255Y-119624780D01*
X110846795Y-119623834D01*
X110653503Y-119494680D01*
X110651131Y-119493014D01*
X110450665Y-119345063D01*
X110449099Y-119343868D01*
X110266456Y-119199883D01*
X110264440Y-119198223D01*
X110075628Y-119035738D01*
X110073991Y-119034277D01*
X109903159Y-118876362D01*
X109901404Y-118874674D01*
X109725324Y-118698594D01*
X109723648Y-118696852D01*
X109565721Y-118526007D01*
X109564255Y-118524364D01*
X109545661Y-118502757D01*
X109401767Y-118335549D01*
X109400123Y-118333553D01*
X109256110Y-118150874D01*
X109254935Y-118149333D01*
X109249063Y-118141377D01*
X109106979Y-117948860D01*
X109105318Y-117946495D01*
X109084743Y-117915703D01*
X108976152Y-117753185D01*
X108975218Y-117751743D01*
X108972028Y-117746667D01*
X108842587Y-117540662D01*
X108841023Y-117538027D01*
X108727469Y-117335262D01*
X108726790Y-117334014D01*
X108610207Y-117113428D01*
X108608752Y-117110484D01*
X108511581Y-116899704D01*
X108511062Y-116898547D01*
X108411202Y-116669665D01*
X108409873Y-116666363D01*
X108329507Y-116448521D01*
X108277434Y-116299706D01*
X108246713Y-116211911D01*
X108245569Y-116208288D01*
X108182779Y-115985652D01*
X108117721Y-115742853D01*
X108116819Y-115738986D01*
X108071958Y-115513451D01*
X108025006Y-115265303D01*
X108024360Y-115261099D01*
X107997715Y-115035974D01*
X107969102Y-114782032D01*
X107968764Y-114777581D01*
X107960489Y-114566983D01*
X107950542Y-114301131D01*
X107950500Y-114298848D01*
X107950500Y-104155000D01*
X112944341Y-104155000D01*
X112964936Y-104390403D01*
X112964938Y-104390413D01*
X113026094Y-104618655D01*
X113026096Y-104618659D01*
X113026097Y-104618663D01*
X113125965Y-104832829D01*
X113125965Y-104832830D01*
X113125967Y-104832834D01*
X113261501Y-105026395D01*
X113261506Y-105026402D01*
X113263180Y-105028076D01*
X113263681Y-105028993D01*
X113264982Y-105030544D01*
X113264670Y-105030805D01*
X113296665Y-105089399D01*
X113299499Y-105115757D01*
X113299499Y-108036509D01*
X113299479Y-108038079D01*
X113297243Y-108126359D01*
X113297243Y-108126367D01*
X113308064Y-108186739D01*
X113308718Y-108191404D01*
X113314925Y-108252430D01*
X113314927Y-108252444D01*
X113325208Y-108285213D01*
X113327079Y-108292837D01*
X113333142Y-108326652D01*
X113333142Y-108326655D01*
X113355894Y-108383612D01*
X113357474Y-108388051D01*
X113375841Y-108446588D01*
X113375844Y-108446595D01*
X113392509Y-108476619D01*
X113395879Y-108483714D01*
X113408622Y-108515614D01*
X113408627Y-108515624D01*
X113442377Y-108566833D01*
X113444818Y-108570863D01*
X113474588Y-108624498D01*
X113474589Y-108624499D01*
X113474591Y-108624502D01*
X113496968Y-108650567D01*
X113501693Y-108656835D01*
X113514263Y-108675906D01*
X113520598Y-108685519D01*
X113563978Y-108728899D01*
X113567169Y-108732343D01*
X113607131Y-108778892D01*
X113607130Y-108778892D01*
X113634299Y-108799923D01*
X113640186Y-108805107D01*
X118449238Y-113614158D01*
X123032986Y-118197906D01*
X123034051Y-118198997D01*
X123083179Y-118250679D01*
X123094940Y-118263052D01*
X123094947Y-118263058D01*
X123129053Y-118286795D01*
X123145303Y-118298106D01*
X123149044Y-118300926D01*
X123196593Y-118339698D01*
X123227045Y-118355604D01*
X123233756Y-118359671D01*
X123261951Y-118379295D01*
X123318332Y-118403490D01*
X123322567Y-118405501D01*
X123376951Y-118433909D01*
X123409973Y-118443356D01*
X123417365Y-118445989D01*
X123448940Y-118459539D01*
X123448941Y-118459540D01*
X123462054Y-118462234D01*
X123509055Y-118471892D01*
X123513595Y-118473006D01*
X123572582Y-118489886D01*
X123606841Y-118492494D01*
X123614609Y-118493585D01*
X123648255Y-118500500D01*
X123648259Y-118500500D01*
X123709601Y-118500500D01*
X123714308Y-118500678D01*
X123741597Y-118502757D01*
X123775475Y-118505337D01*
X123775475Y-118505336D01*
X123775476Y-118505337D01*
X123809559Y-118500996D01*
X123817389Y-118500500D01*
X130986507Y-118500500D01*
X130988069Y-118500519D01*
X131025283Y-118501462D01*
X131076358Y-118502757D01*
X131076358Y-118502756D01*
X131076363Y-118502757D01*
X131136753Y-118491932D01*
X131141412Y-118491280D01*
X131183607Y-118486988D01*
X131202438Y-118485074D01*
X131235227Y-118474786D01*
X131242840Y-118472918D01*
X131276653Y-118466858D01*
X131333621Y-118444101D01*
X131338053Y-118442524D01*
X131396588Y-118424159D01*
X131426627Y-118407484D01*
X131433708Y-118404122D01*
X131465617Y-118391377D01*
X131516854Y-118357608D01*
X131520851Y-118355187D01*
X131574502Y-118325409D01*
X131600568Y-118303030D01*
X131606843Y-118298300D01*
X131607145Y-118298101D01*
X131635519Y-118279402D01*
X131678917Y-118236002D01*
X131682336Y-118232834D01*
X131728895Y-118192866D01*
X131749931Y-118165688D01*
X131755101Y-118159818D01*
X133143001Y-116771918D01*
X133144014Y-116770931D01*
X133208053Y-116710059D01*
X133218634Y-116694855D01*
X133273084Y-116651077D01*
X133342561Y-116643686D01*
X133405006Y-116675030D01*
X133408090Y-116678010D01*
X134677986Y-117947906D01*
X134679051Y-117948997D01*
X134714252Y-117986028D01*
X134739940Y-118013052D01*
X134739947Y-118013058D01*
X134774053Y-118036795D01*
X134790303Y-118048106D01*
X134794044Y-118050926D01*
X134841593Y-118089698D01*
X134872045Y-118105604D01*
X134878758Y-118109672D01*
X134906951Y-118129295D01*
X134963329Y-118153489D01*
X134967578Y-118155507D01*
X135021951Y-118183909D01*
X135049489Y-118191788D01*
X135054974Y-118193358D01*
X135062368Y-118195990D01*
X135093942Y-118209540D01*
X135093945Y-118209540D01*
X135093946Y-118209541D01*
X135154022Y-118221887D01*
X135158600Y-118223010D01*
X135160704Y-118223612D01*
X135217582Y-118239887D01*
X135251839Y-118242495D01*
X135259614Y-118243586D01*
X135293255Y-118250500D01*
X135293259Y-118250500D01*
X135354598Y-118250500D01*
X135359304Y-118250678D01*
X135386595Y-118252757D01*
X135420475Y-118255337D01*
X135420475Y-118255336D01*
X135420476Y-118255337D01*
X135454559Y-118250996D01*
X135462389Y-118250500D01*
X147986507Y-118250500D01*
X147988069Y-118250519D01*
X148025283Y-118251462D01*
X148076358Y-118252757D01*
X148076358Y-118252756D01*
X148076363Y-118252757D01*
X148136753Y-118241932D01*
X148141412Y-118241280D01*
X148183607Y-118236988D01*
X148202438Y-118235074D01*
X148235227Y-118224786D01*
X148242840Y-118222918D01*
X148276653Y-118216858D01*
X148333621Y-118194101D01*
X148338053Y-118192524D01*
X148396588Y-118174159D01*
X148426627Y-118157484D01*
X148433708Y-118154122D01*
X148465617Y-118141377D01*
X148516854Y-118107608D01*
X148520851Y-118105187D01*
X148574502Y-118075409D01*
X148600568Y-118053030D01*
X148606843Y-118048300D01*
X148607145Y-118048101D01*
X148635519Y-118029402D01*
X148678892Y-117986027D01*
X148682350Y-117982823D01*
X148685613Y-117980020D01*
X148728895Y-117942866D01*
X148749928Y-117915691D01*
X148755098Y-117909821D01*
X150252982Y-116411936D01*
X150253995Y-116410949D01*
X150318053Y-116350059D01*
X150353099Y-116299706D01*
X150355938Y-116295941D01*
X150359612Y-116291435D01*
X150394698Y-116248407D01*
X150410601Y-116217960D01*
X150414674Y-116211239D01*
X150419489Y-116204320D01*
X150434295Y-116183049D01*
X150458492Y-116126660D01*
X150460498Y-116122435D01*
X150488909Y-116068049D01*
X150498357Y-116035022D01*
X150500988Y-116027633D01*
X150514540Y-115996058D01*
X150526895Y-115935930D01*
X150527999Y-115931429D01*
X150544886Y-115872418D01*
X150547494Y-115838157D01*
X150548585Y-115830389D01*
X150555500Y-115796743D01*
X150555500Y-115735398D01*
X150555679Y-115730688D01*
X150557034Y-115712897D01*
X150560337Y-115669524D01*
X150555997Y-115635442D01*
X150555500Y-115627603D01*
X150555500Y-115260758D01*
X150575185Y-115193719D01*
X150591819Y-115173077D01*
X150592164Y-115172732D01*
X150593495Y-115171401D01*
X150729035Y-114977830D01*
X150828903Y-114763663D01*
X150890063Y-114535408D01*
X150901043Y-114409901D01*
X150926495Y-114344834D01*
X150936882Y-114333037D01*
X152697984Y-112571935D01*
X152698995Y-112570951D01*
X152763053Y-112510059D01*
X152798099Y-112459706D01*
X152800938Y-112455941D01*
X152804612Y-112451435D01*
X152839698Y-112408407D01*
X152855601Y-112377960D01*
X152859674Y-112371239D01*
X152864489Y-112364320D01*
X152879295Y-112343049D01*
X152903492Y-112286660D01*
X152905498Y-112282435D01*
X152933909Y-112228049D01*
X152943357Y-112195022D01*
X152945988Y-112187633D01*
X152959540Y-112156058D01*
X152971895Y-112095930D01*
X152972999Y-112091429D01*
X152989886Y-112032418D01*
X152992494Y-111998157D01*
X152993585Y-111990389D01*
X153000500Y-111956743D01*
X153000500Y-111895398D01*
X153000679Y-111890688D01*
X153005337Y-111829524D01*
X153000997Y-111795442D01*
X153000500Y-111787603D01*
X153000500Y-103735782D01*
X153020185Y-103668743D01*
X153036819Y-103648101D01*
X155069921Y-101614999D01*
X157257697Y-99427222D01*
X157319018Y-99393739D01*
X157388710Y-99398723D01*
X157444643Y-99440595D01*
X157465151Y-99482812D01*
X157476094Y-99523655D01*
X157476096Y-99523659D01*
X157476097Y-99523663D01*
X157575964Y-99737829D01*
X157575965Y-99737830D01*
X157575967Y-99737834D01*
X157684281Y-99892521D01*
X157711505Y-99931401D01*
X157878599Y-100098495D01*
X157975384Y-100166264D01*
X158072165Y-100234032D01*
X158072167Y-100234033D01*
X158072170Y-100234035D01*
X158286337Y-100333903D01*
X158286343Y-100333904D01*
X158286344Y-100333905D01*
X158313189Y-100341098D01*
X158514592Y-100395063D01*
X158702918Y-100411539D01*
X158749999Y-100415659D01*
X158750000Y-100415659D01*
X158750001Y-100415659D01*
X158789234Y-100412226D01*
X158985408Y-100395063D01*
X159213663Y-100333903D01*
X159427830Y-100234035D01*
X159621401Y-100098495D01*
X159788495Y-99931401D01*
X159924035Y-99737830D01*
X160023903Y-99523663D01*
X160085063Y-99295408D01*
X160105659Y-99060000D01*
X160085063Y-98824592D01*
X160038626Y-98651285D01*
X160023905Y-98596344D01*
X160023904Y-98596343D01*
X160023903Y-98596337D01*
X159924035Y-98382171D01*
X159831489Y-98250000D01*
X159788494Y-98188597D01*
X159621402Y-98021506D01*
X159621396Y-98021501D01*
X159435842Y-97891575D01*
X159392217Y-97836998D01*
X159385023Y-97767500D01*
X159416546Y-97705145D01*
X159435842Y-97688425D01*
X159485289Y-97653802D01*
X159621401Y-97558495D01*
X159788495Y-97391401D01*
X159924035Y-97197830D01*
X160023903Y-96983663D01*
X160085063Y-96755408D01*
X160105659Y-96520000D01*
X160085063Y-96284592D01*
X160028198Y-96072367D01*
X160023905Y-96056344D01*
X160023904Y-96056343D01*
X160023903Y-96056337D01*
X159924035Y-95842171D01*
X159910050Y-95822197D01*
X159788494Y-95648597D01*
X159621402Y-95481506D01*
X159621395Y-95481501D01*
X159427834Y-95345967D01*
X159427830Y-95345965D01*
X159427829Y-95345964D01*
X159213663Y-95246097D01*
X159213659Y-95246096D01*
X159213655Y-95246094D01*
X158985413Y-95184938D01*
X158985403Y-95184936D01*
X158750001Y-95164341D01*
X158749999Y-95164341D01*
X158514596Y-95184936D01*
X158514586Y-95184938D01*
X158286344Y-95246094D01*
X158286335Y-95246098D01*
X158072171Y-95345964D01*
X158072169Y-95345965D01*
X157878597Y-95481505D01*
X157711505Y-95648597D01*
X157575965Y-95842169D01*
X157575964Y-95842171D01*
X157476098Y-96056335D01*
X157476094Y-96056344D01*
X157414938Y-96284586D01*
X157414936Y-96284596D01*
X157403955Y-96410098D01*
X157378502Y-96475166D01*
X157368108Y-96486970D01*
X151302091Y-102552987D01*
X151300967Y-102554083D01*
X151236946Y-102614942D01*
X151201899Y-102665294D01*
X151199062Y-102669056D01*
X151160302Y-102716592D01*
X151160299Y-102716597D01*
X151144392Y-102747047D01*
X151140324Y-102753761D01*
X151120702Y-102781954D01*
X151096509Y-102838330D01*
X151094488Y-102842584D01*
X151066091Y-102896951D01*
X151066090Y-102896952D01*
X151056640Y-102929975D01*
X151054007Y-102937371D01*
X151040459Y-102968943D01*
X151028113Y-103029019D01*
X151026990Y-103033595D01*
X151010113Y-103092577D01*
X151010113Y-103092579D01*
X151007503Y-103126841D01*
X151006414Y-103134608D01*
X151000980Y-103161052D01*
X150999500Y-103168258D01*
X150999500Y-103229597D01*
X150999321Y-103234306D01*
X150994662Y-103295474D01*
X150996707Y-103311527D01*
X150999003Y-103329560D01*
X150999500Y-103337388D01*
X150999500Y-111389216D01*
X150979815Y-111456255D01*
X150963181Y-111476897D01*
X149521969Y-112918108D01*
X149460646Y-112951593D01*
X149445097Y-112953955D01*
X149319596Y-112964936D01*
X149319586Y-112964938D01*
X149091344Y-113026094D01*
X149091335Y-113026098D01*
X148877171Y-113125964D01*
X148877169Y-113125965D01*
X148683597Y-113261505D01*
X148516505Y-113428597D01*
X148386575Y-113614158D01*
X148331998Y-113657783D01*
X148262500Y-113664977D01*
X148200145Y-113633454D01*
X148183425Y-113614158D01*
X148053494Y-113428597D01*
X147886402Y-113261506D01*
X147886395Y-113261501D01*
X147692834Y-113125967D01*
X147692830Y-113125965D01*
X147692828Y-113125964D01*
X147478663Y-113026097D01*
X147478659Y-113026096D01*
X147478655Y-113026094D01*
X147250413Y-112964938D01*
X147250403Y-112964936D01*
X147015001Y-112944341D01*
X147014999Y-112944341D01*
X146779596Y-112964936D01*
X146779586Y-112964938D01*
X146551344Y-113026094D01*
X146551335Y-113026098D01*
X146337171Y-113125964D01*
X146337169Y-113125965D01*
X146143597Y-113261505D01*
X145976505Y-113428597D01*
X145840965Y-113622169D01*
X145840964Y-113622171D01*
X145741098Y-113836335D01*
X145741094Y-113836344D01*
X145679938Y-114064586D01*
X145679936Y-114064596D01*
X145659341Y-114299999D01*
X145659341Y-114300000D01*
X145679936Y-114535403D01*
X145679938Y-114535413D01*
X145741094Y-114763655D01*
X145741096Y-114763659D01*
X145741097Y-114763663D01*
X145821004Y-114935023D01*
X145840965Y-114977830D01*
X145840967Y-114977834D01*
X145949281Y-115132521D01*
X145976505Y-115171401D01*
X146143599Y-115338495D01*
X146240384Y-115406264D01*
X146337165Y-115474032D01*
X146337167Y-115474033D01*
X146337170Y-115474035D01*
X146551337Y-115573903D01*
X146779592Y-115635063D01*
X146967918Y-115651539D01*
X147014999Y-115655659D01*
X147015000Y-115655659D01*
X147015001Y-115655659D01*
X147054234Y-115652226D01*
X147250408Y-115635063D01*
X147478663Y-115573903D01*
X147692830Y-115474035D01*
X147886401Y-115338495D01*
X148053495Y-115171401D01*
X148183424Y-114985842D01*
X148238002Y-114942217D01*
X148307500Y-114935023D01*
X148369855Y-114966546D01*
X148386575Y-114985842D01*
X148517436Y-115172732D01*
X148539763Y-115238938D01*
X148522753Y-115306705D01*
X148503542Y-115331536D01*
X147621899Y-116213181D01*
X147560576Y-116246666D01*
X147534218Y-116249500D01*
X135860783Y-116249500D01*
X135793744Y-116229815D01*
X135773102Y-116213181D01*
X133826890Y-114266969D01*
X133793405Y-114205646D01*
X133791043Y-114190095D01*
X133780063Y-114064597D01*
X133780063Y-114064596D01*
X133780063Y-114064592D01*
X133718903Y-113836337D01*
X133619035Y-113622171D01*
X133613425Y-113614158D01*
X133483494Y-113428597D01*
X133316402Y-113261506D01*
X133316395Y-113261501D01*
X133122834Y-113125967D01*
X133122830Y-113125965D01*
X133122828Y-113125964D01*
X132908663Y-113026097D01*
X132908659Y-113026096D01*
X132908655Y-113026094D01*
X132680413Y-112964938D01*
X132680403Y-112964936D01*
X132445001Y-112944341D01*
X132444999Y-112944341D01*
X132209596Y-112964936D01*
X132209586Y-112964938D01*
X131981344Y-113026094D01*
X131981335Y-113026098D01*
X131767171Y-113125964D01*
X131767169Y-113125965D01*
X131573597Y-113261505D01*
X131406505Y-113428597D01*
X131276575Y-113614158D01*
X131221998Y-113657783D01*
X131152500Y-113664977D01*
X131090145Y-113633454D01*
X131073425Y-113614158D01*
X130943494Y-113428597D01*
X130776402Y-113261506D01*
X130776395Y-113261501D01*
X130582834Y-113125967D01*
X130582830Y-113125965D01*
X130582828Y-113125964D01*
X130368663Y-113026097D01*
X130368659Y-113026096D01*
X130368655Y-113026094D01*
X130140413Y-112964938D01*
X130140403Y-112964936D01*
X129905001Y-112944341D01*
X129904999Y-112944341D01*
X129669596Y-112964936D01*
X129669586Y-112964938D01*
X129441344Y-113026094D01*
X129441335Y-113026098D01*
X129227171Y-113125964D01*
X129227169Y-113125965D01*
X129033597Y-113261505D01*
X128866505Y-113428597D01*
X128730965Y-113622169D01*
X128730964Y-113622171D01*
X128631098Y-113836335D01*
X128631094Y-113836344D01*
X128569938Y-114064586D01*
X128569936Y-114064596D01*
X128549341Y-114299999D01*
X128549341Y-114300000D01*
X128569936Y-114535403D01*
X128569938Y-114535413D01*
X128631094Y-114763655D01*
X128631096Y-114763659D01*
X128631097Y-114763663D01*
X128711004Y-114935023D01*
X128730965Y-114977830D01*
X128730967Y-114977834D01*
X128839281Y-115132521D01*
X128866505Y-115171401D01*
X129033599Y-115338495D01*
X129130384Y-115406264D01*
X129227165Y-115474032D01*
X129227167Y-115474033D01*
X129227170Y-115474035D01*
X129441337Y-115573903D01*
X129669592Y-115635063D01*
X129857918Y-115651539D01*
X129904999Y-115655659D01*
X129905000Y-115655659D01*
X129905001Y-115655659D01*
X129944234Y-115652226D01*
X130140408Y-115635063D01*
X130368663Y-115573903D01*
X130582830Y-115474035D01*
X130776401Y-115338495D01*
X130943495Y-115171401D01*
X131073424Y-114985842D01*
X131128002Y-114942217D01*
X131197500Y-114935023D01*
X131259855Y-114966546D01*
X131276575Y-114985842D01*
X131406501Y-115171396D01*
X131406506Y-115171402D01*
X131408181Y-115173077D01*
X131408682Y-115173995D01*
X131409982Y-115175544D01*
X131409670Y-115175805D01*
X131441666Y-115234400D01*
X131444500Y-115260758D01*
X131444500Y-115589218D01*
X131424815Y-115656257D01*
X131408181Y-115676899D01*
X130621899Y-116463181D01*
X130560576Y-116496666D01*
X130534218Y-116499500D01*
X124215783Y-116499500D01*
X124148744Y-116479815D01*
X124128102Y-116463181D01*
X115336819Y-107671898D01*
X115303334Y-107610575D01*
X115300500Y-107584217D01*
X115300500Y-105115758D01*
X115320185Y-105048719D01*
X115336819Y-105028077D01*
X115336820Y-105028076D01*
X115338495Y-105026401D01*
X115474035Y-104832830D01*
X115573903Y-104618663D01*
X115635063Y-104390408D01*
X115655659Y-104155000D01*
X115635063Y-103919592D01*
X115573903Y-103691337D01*
X115474035Y-103477171D01*
X115376159Y-103337388D01*
X115338494Y-103283597D01*
X115171402Y-103116506D01*
X115171401Y-103116505D01*
X114985842Y-102986575D01*
X114985841Y-102986574D01*
X114942216Y-102931997D01*
X114935024Y-102862498D01*
X114966546Y-102800144D01*
X114985836Y-102783428D01*
X115171401Y-102653495D01*
X115338495Y-102486401D01*
X115474035Y-102292830D01*
X115573903Y-102078663D01*
X115635063Y-101850408D01*
X115655659Y-101615000D01*
X115635063Y-101379592D01*
X115573903Y-101151337D01*
X115474035Y-100937171D01*
X115338495Y-100743599D01*
X115338494Y-100743597D01*
X115171402Y-100576506D01*
X115171395Y-100576501D01*
X114977834Y-100440967D01*
X114977830Y-100440965D01*
X114879393Y-100395063D01*
X114763663Y-100341097D01*
X114763659Y-100341096D01*
X114763655Y-100341094D01*
X114535413Y-100279938D01*
X114535403Y-100279936D01*
X114300001Y-100259341D01*
X114299999Y-100259341D01*
X114064596Y-100279936D01*
X114064586Y-100279938D01*
X113836344Y-100341094D01*
X113836335Y-100341098D01*
X113622171Y-100440964D01*
X113622169Y-100440965D01*
X113428597Y-100576505D01*
X113261505Y-100743597D01*
X113125965Y-100937169D01*
X113125964Y-100937171D01*
X113026098Y-101151335D01*
X113026094Y-101151344D01*
X112964938Y-101379586D01*
X112964936Y-101379596D01*
X112944341Y-101614999D01*
X112944341Y-101615000D01*
X112964936Y-101850403D01*
X112964938Y-101850413D01*
X113026094Y-102078655D01*
X113026096Y-102078659D01*
X113026097Y-102078663D01*
X113125965Y-102292829D01*
X113125965Y-102292830D01*
X113125967Y-102292834D01*
X113261501Y-102486395D01*
X113261506Y-102486402D01*
X113428597Y-102653493D01*
X113428603Y-102653498D01*
X113614158Y-102783425D01*
X113657783Y-102838002D01*
X113664977Y-102907500D01*
X113633454Y-102969855D01*
X113614158Y-102986575D01*
X113428597Y-103116505D01*
X113261505Y-103283597D01*
X113125965Y-103477169D01*
X113125964Y-103477171D01*
X113046258Y-103648101D01*
X113029323Y-103684420D01*
X113026098Y-103691335D01*
X113026094Y-103691344D01*
X112964938Y-103919586D01*
X112964936Y-103919596D01*
X112944341Y-104154999D01*
X112944341Y-104155000D01*
X107950500Y-104155000D01*
X107950500Y-95249999D01*
X127144815Y-95249999D01*
X127163503Y-95427805D01*
X127163504Y-95427807D01*
X127218747Y-95597829D01*
X127218750Y-95597835D01*
X127308141Y-95752665D01*
X127349812Y-95798946D01*
X127427764Y-95885521D01*
X127427767Y-95885523D01*
X127427770Y-95885526D01*
X127572407Y-95990612D01*
X127735733Y-96063329D01*
X127910609Y-96100500D01*
X127910610Y-96100500D01*
X128089389Y-96100500D01*
X128089391Y-96100500D01*
X128264267Y-96063329D01*
X128427593Y-95990612D01*
X128519024Y-95924182D01*
X128584831Y-95900702D01*
X128591911Y-95900500D01*
X132179192Y-95900500D01*
X132246231Y-95920185D01*
X132266873Y-95936819D01*
X132371371Y-96041317D01*
X132404856Y-96102640D01*
X132407010Y-96116031D01*
X132413503Y-96177803D01*
X132413504Y-96177805D01*
X132413504Y-96177807D01*
X132468747Y-96347829D01*
X132468750Y-96347835D01*
X132558141Y-96502665D01*
X132573749Y-96519999D01*
X132677764Y-96635521D01*
X132677767Y-96635523D01*
X132677770Y-96635526D01*
X132822407Y-96740612D01*
X132985733Y-96813329D01*
X133160609Y-96850500D01*
X133160610Y-96850500D01*
X133339389Y-96850500D01*
X133339391Y-96850500D01*
X133514267Y-96813329D01*
X133677593Y-96740612D01*
X133822230Y-96635526D01*
X133941859Y-96502665D01*
X134031250Y-96347835D01*
X134086497Y-96177803D01*
X134105185Y-96000000D01*
X134086497Y-95822197D01*
X134031250Y-95652165D01*
X133941859Y-95497335D01*
X133895003Y-95445296D01*
X133822235Y-95364478D01*
X133822232Y-95364476D01*
X133822231Y-95364475D01*
X133822230Y-95364474D01*
X133677593Y-95259388D01*
X133514267Y-95186671D01*
X133514265Y-95186670D01*
X133377473Y-95157594D01*
X133349989Y-95151752D01*
X133288508Y-95118561D01*
X133288090Y-95118144D01*
X133020434Y-94850488D01*
X133010361Y-94837914D01*
X133010174Y-94838070D01*
X133005198Y-94832055D01*
X132972382Y-94801240D01*
X132953432Y-94783445D01*
X132952058Y-94782112D01*
X132931035Y-94761089D01*
X132925240Y-94756594D01*
X132920798Y-94752799D01*
X132885396Y-94719554D01*
X132885388Y-94719548D01*
X132866792Y-94709325D01*
X132850531Y-94698644D01*
X132833763Y-94685637D01*
X132810295Y-94675482D01*
X132789178Y-94666343D01*
X132783956Y-94663786D01*
X132741368Y-94640373D01*
X132741365Y-94640372D01*
X132720801Y-94635092D01*
X132702396Y-94628790D01*
X132682927Y-94620365D01*
X132682921Y-94620363D01*
X132634951Y-94612766D01*
X132629236Y-94611582D01*
X132612772Y-94607355D01*
X132582180Y-94599500D01*
X132582177Y-94599500D01*
X132560955Y-94599500D01*
X132541555Y-94597973D01*
X132520596Y-94594653D01*
X132520595Y-94594653D01*
X132496786Y-94596903D01*
X132472230Y-94599225D01*
X132466392Y-94599500D01*
X128591911Y-94599500D01*
X128524872Y-94579815D01*
X128519025Y-94575818D01*
X128427594Y-94509389D01*
X128427593Y-94509388D01*
X128264267Y-94436671D01*
X128264265Y-94436670D01*
X128136594Y-94409533D01*
X128089391Y-94399500D01*
X127910609Y-94399500D01*
X127879954Y-94406015D01*
X127735733Y-94436670D01*
X127735728Y-94436672D01*
X127572408Y-94509387D01*
X127427768Y-94614475D01*
X127308140Y-94747336D01*
X127218750Y-94902164D01*
X127218747Y-94902170D01*
X127163504Y-95072192D01*
X127163503Y-95072194D01*
X127144815Y-95249999D01*
X107950500Y-95249999D01*
X107950500Y-93249999D01*
X126644815Y-93249999D01*
X126663503Y-93427805D01*
X126663504Y-93427807D01*
X126718747Y-93597829D01*
X126718750Y-93597835D01*
X126808141Y-93752665D01*
X126849812Y-93798946D01*
X126927764Y-93885521D01*
X126927767Y-93885523D01*
X126927770Y-93885526D01*
X127072407Y-93990612D01*
X127235733Y-94063329D01*
X127410609Y-94100500D01*
X127410610Y-94100500D01*
X127589389Y-94100500D01*
X127589391Y-94100500D01*
X127764267Y-94063329D01*
X127927593Y-93990612D01*
X128072230Y-93885526D01*
X128191859Y-93752665D01*
X128215048Y-93712499D01*
X128265614Y-93664285D01*
X128322435Y-93650500D01*
X131908089Y-93650500D01*
X131975128Y-93670185D01*
X131980976Y-93674182D01*
X132072407Y-93740612D01*
X132235733Y-93813329D01*
X132410609Y-93850500D01*
X132410610Y-93850500D01*
X132589389Y-93850500D01*
X132589391Y-93850500D01*
X132764267Y-93813329D01*
X132927593Y-93740612D01*
X133072230Y-93635526D01*
X133191859Y-93502665D01*
X133281250Y-93347835D01*
X133336497Y-93177803D01*
X133355185Y-93000000D01*
X133336497Y-92822197D01*
X133281250Y-92652165D01*
X133191859Y-92497335D01*
X133102648Y-92398256D01*
X133072235Y-92364478D01*
X133072232Y-92364476D01*
X133072231Y-92364475D01*
X133072230Y-92364474D01*
X132927593Y-92259388D01*
X132764267Y-92186671D01*
X132764265Y-92186670D01*
X132636594Y-92159533D01*
X132589391Y-92149500D01*
X132410609Y-92149500D01*
X132379954Y-92156015D01*
X132235733Y-92186670D01*
X132235728Y-92186672D01*
X132072408Y-92259388D01*
X132072403Y-92259390D01*
X131980974Y-92325818D01*
X131915168Y-92349298D01*
X131908089Y-92349500D01*
X127835504Y-92349500D01*
X127819493Y-92347732D01*
X127819471Y-92347974D01*
X127811704Y-92347239D01*
X127740764Y-92349469D01*
X127738816Y-92349500D01*
X127709075Y-92349500D01*
X127709071Y-92349500D01*
X127709061Y-92349501D01*
X127701793Y-92350419D01*
X127695976Y-92350876D01*
X127647435Y-92352402D01*
X127647424Y-92352404D01*
X127627048Y-92358323D01*
X127608008Y-92362266D01*
X127586947Y-92364927D01*
X127586942Y-92364928D01*
X127541774Y-92382811D01*
X127536248Y-92384702D01*
X127502270Y-92394575D01*
X127467671Y-92399500D01*
X127410609Y-92399500D01*
X127379954Y-92406015D01*
X127235733Y-92436670D01*
X127235728Y-92436672D01*
X127072408Y-92509387D01*
X126927768Y-92614475D01*
X126808140Y-92747336D01*
X126718750Y-92902164D01*
X126718747Y-92902170D01*
X126663504Y-93072192D01*
X126663503Y-93072194D01*
X126644815Y-93249999D01*
X107950500Y-93249999D01*
X107950500Y-87645000D01*
X112944341Y-87645000D01*
X112964936Y-87880403D01*
X112964938Y-87880413D01*
X113026094Y-88108655D01*
X113026096Y-88108659D01*
X113026097Y-88108663D01*
X113111270Y-88291317D01*
X113125965Y-88322830D01*
X113125967Y-88322834D01*
X113234281Y-88477521D01*
X113261505Y-88516401D01*
X113428599Y-88683495D01*
X113525384Y-88751265D01*
X113622165Y-88819032D01*
X113622167Y-88819033D01*
X113622170Y-88819035D01*
X113836337Y-88918903D01*
X114064592Y-88980063D01*
X114252918Y-88996539D01*
X114299999Y-89000659D01*
X114300000Y-89000659D01*
X114300001Y-89000659D01*
X114339234Y-88997226D01*
X114535408Y-88980063D01*
X114763663Y-88918903D01*
X114977830Y-88819035D01*
X115171401Y-88683495D01*
X115338495Y-88516401D01*
X115474035Y-88322830D01*
X115573903Y-88108663D01*
X115635063Y-87880408D01*
X115646043Y-87754901D01*
X115671495Y-87689834D01*
X115681882Y-87678037D01*
X116359919Y-87000000D01*
X130394815Y-87000000D01*
X130413503Y-87177805D01*
X130413504Y-87177807D01*
X130468747Y-87347829D01*
X130468750Y-87347835D01*
X130558141Y-87502665D01*
X130592944Y-87541317D01*
X130677764Y-87635521D01*
X130677767Y-87635523D01*
X130677770Y-87635526D01*
X130822407Y-87740612D01*
X130985733Y-87813329D01*
X131160609Y-87850500D01*
X131160610Y-87850500D01*
X131339389Y-87850500D01*
X131339391Y-87850500D01*
X131514267Y-87813329D01*
X131677593Y-87740612D01*
X131769024Y-87674182D01*
X131834831Y-87650702D01*
X131841911Y-87650500D01*
X132929192Y-87650500D01*
X132996231Y-87670185D01*
X133016873Y-87686819D01*
X133621371Y-88291317D01*
X133654856Y-88352640D01*
X133657010Y-88366031D01*
X133663503Y-88427803D01*
X133663504Y-88427805D01*
X133663504Y-88427807D01*
X133718747Y-88597829D01*
X133718750Y-88597835D01*
X133808141Y-88752665D01*
X133849812Y-88798946D01*
X133927764Y-88885521D01*
X133927767Y-88885523D01*
X133927770Y-88885526D01*
X134072407Y-88990612D01*
X134235733Y-89063329D01*
X134410609Y-89100500D01*
X134410610Y-89100500D01*
X134589389Y-89100500D01*
X134589391Y-89100500D01*
X134764267Y-89063329D01*
X134927593Y-88990612D01*
X135072230Y-88885526D01*
X135191859Y-88752665D01*
X135281250Y-88597835D01*
X135336497Y-88427803D01*
X135355185Y-88250000D01*
X135336497Y-88072197D01*
X135291636Y-87934129D01*
X135281252Y-87902170D01*
X135281249Y-87902164D01*
X135277018Y-87894835D01*
X135191859Y-87747335D01*
X135137370Y-87686819D01*
X135072235Y-87614478D01*
X135072232Y-87614476D01*
X135072231Y-87614475D01*
X135072230Y-87614474D01*
X134927593Y-87509388D01*
X134764267Y-87436671D01*
X134764265Y-87436670D01*
X134601952Y-87402170D01*
X134599989Y-87401752D01*
X134538508Y-87368561D01*
X134538090Y-87368144D01*
X133770434Y-86600488D01*
X133760361Y-86587914D01*
X133760174Y-86588070D01*
X133755198Y-86582055D01*
X133722382Y-86551240D01*
X133703432Y-86533445D01*
X133702058Y-86532112D01*
X133681035Y-86511089D01*
X133675240Y-86506594D01*
X133670798Y-86502799D01*
X133635396Y-86469554D01*
X133635388Y-86469548D01*
X133616792Y-86459325D01*
X133600531Y-86448644D01*
X133583763Y-86435637D01*
X133560295Y-86425482D01*
X133539178Y-86416343D01*
X133533956Y-86413786D01*
X133491368Y-86390373D01*
X133491365Y-86390372D01*
X133470801Y-86385092D01*
X133452396Y-86378790D01*
X133432927Y-86370365D01*
X133432921Y-86370363D01*
X133384951Y-86362766D01*
X133379236Y-86361582D01*
X133362772Y-86357355D01*
X133332180Y-86349500D01*
X133332177Y-86349500D01*
X133310955Y-86349500D01*
X133291555Y-86347973D01*
X133270596Y-86344653D01*
X133270595Y-86344653D01*
X133246786Y-86346903D01*
X133222230Y-86349225D01*
X133216392Y-86349500D01*
X131841911Y-86349500D01*
X131774872Y-86329815D01*
X131769025Y-86325818D01*
X131677594Y-86259389D01*
X131677593Y-86259388D01*
X131514267Y-86186671D01*
X131514265Y-86186670D01*
X131386594Y-86159533D01*
X131339391Y-86149500D01*
X131160609Y-86149500D01*
X131129954Y-86156015D01*
X130985733Y-86186670D01*
X130985728Y-86186672D01*
X130822408Y-86259387D01*
X130677768Y-86364475D01*
X130558140Y-86497336D01*
X130468750Y-86652164D01*
X130468747Y-86652170D01*
X130413504Y-86822192D01*
X130413503Y-86822194D01*
X130394815Y-87000000D01*
X116359919Y-87000000D01*
X121073101Y-82286819D01*
X121134425Y-82253334D01*
X121160783Y-82250500D01*
X126148259Y-82250500D01*
X128736507Y-82250500D01*
X128738069Y-82250519D01*
X128775283Y-82251462D01*
X128826358Y-82252757D01*
X128826358Y-82252756D01*
X128826363Y-82252757D01*
X128886753Y-82241932D01*
X128891412Y-82241280D01*
X128933607Y-82236988D01*
X128952438Y-82235074D01*
X128985227Y-82224786D01*
X128992840Y-82222918D01*
X129026653Y-82216858D01*
X129083621Y-82194101D01*
X129088053Y-82192524D01*
X129146588Y-82174159D01*
X129176627Y-82157484D01*
X129183708Y-82154122D01*
X129215617Y-82141377D01*
X129266854Y-82107608D01*
X129270851Y-82105187D01*
X129324502Y-82075409D01*
X129350568Y-82053030D01*
X129356843Y-82048300D01*
X129385519Y-82029402D01*
X129428917Y-81986002D01*
X129432336Y-81982834D01*
X129478895Y-81942866D01*
X129499931Y-81915688D01*
X129505101Y-81909818D01*
X129637821Y-81777098D01*
X129699142Y-81743615D01*
X129768834Y-81748599D01*
X129824767Y-81790471D01*
X129849184Y-81855935D01*
X129849500Y-81864781D01*
X129849500Y-82664494D01*
X129847732Y-82680505D01*
X129847974Y-82680528D01*
X129847239Y-82688294D01*
X129849469Y-82759235D01*
X129849500Y-82761183D01*
X129849500Y-82790927D01*
X129849692Y-82793987D01*
X129834244Y-82862128D01*
X129784410Y-82911100D01*
X129716010Y-82925355D01*
X129700155Y-82923043D01*
X129589391Y-82899500D01*
X129410609Y-82899500D01*
X129379954Y-82906015D01*
X129235733Y-82936670D01*
X129235728Y-82936672D01*
X129072408Y-83009387D01*
X128927768Y-83114475D01*
X128808140Y-83247336D01*
X128718750Y-83402164D01*
X128718747Y-83402170D01*
X128663504Y-83572192D01*
X128663503Y-83572194D01*
X128644815Y-83750000D01*
X128663503Y-83927805D01*
X128663504Y-83927807D01*
X128718747Y-84097829D01*
X128718750Y-84097835D01*
X128808141Y-84252665D01*
X128849812Y-84298946D01*
X128927764Y-84385521D01*
X128927767Y-84385523D01*
X128927770Y-84385526D01*
X129072407Y-84490612D01*
X129235733Y-84563329D01*
X129235735Y-84563329D01*
X129235736Y-84563330D01*
X129292275Y-84575347D01*
X129400010Y-84598247D01*
X129461490Y-84631438D01*
X129461909Y-84631855D01*
X130229564Y-85399510D01*
X130239635Y-85412080D01*
X130239822Y-85411926D01*
X130244795Y-85417937D01*
X130296542Y-85466531D01*
X130297909Y-85467855D01*
X130318965Y-85488911D01*
X130318968Y-85488913D01*
X130324757Y-85493405D01*
X130329197Y-85497197D01*
X130342180Y-85509388D01*
X130364607Y-85530448D01*
X130364610Y-85530450D01*
X130364612Y-85530451D01*
X130383207Y-85540674D01*
X130399468Y-85551356D01*
X130414713Y-85563181D01*
X130416236Y-85564362D01*
X130460811Y-85583651D01*
X130466050Y-85586217D01*
X130508632Y-85609627D01*
X130529204Y-85614908D01*
X130547594Y-85621205D01*
X130567074Y-85629635D01*
X130611221Y-85636626D01*
X130615048Y-85637233D01*
X130620757Y-85638415D01*
X130667823Y-85650500D01*
X130689045Y-85650500D01*
X130708444Y-85652026D01*
X130729405Y-85655347D01*
X130774104Y-85651121D01*
X130777770Y-85650775D01*
X130783608Y-85650500D01*
X137179192Y-85650500D01*
X137246231Y-85670185D01*
X137266873Y-85686819D01*
X139121371Y-87541317D01*
X139154856Y-87602640D01*
X139157010Y-87616031D01*
X139163503Y-87677803D01*
X139163504Y-87677805D01*
X139163504Y-87677807D01*
X139218747Y-87847829D01*
X139218750Y-87847835D01*
X139308141Y-88002665D01*
X139343364Y-88041784D01*
X139427764Y-88135521D01*
X139427767Y-88135523D01*
X139427770Y-88135526D01*
X139572407Y-88240612D01*
X139735733Y-88313329D01*
X139910609Y-88350500D01*
X139910610Y-88350500D01*
X140089389Y-88350500D01*
X140089391Y-88350500D01*
X140264267Y-88313329D01*
X140427593Y-88240612D01*
X140572230Y-88135526D01*
X140657852Y-88040432D01*
X140717336Y-88003787D01*
X140787193Y-88005116D01*
X140842147Y-88040432D01*
X140927770Y-88135526D01*
X141072407Y-88240612D01*
X141235733Y-88313329D01*
X141235735Y-88313329D01*
X141235736Y-88313330D01*
X141292275Y-88325347D01*
X141400010Y-88348247D01*
X141461490Y-88381438D01*
X141461909Y-88381855D01*
X141563181Y-88483127D01*
X141596666Y-88544450D01*
X141599500Y-88570808D01*
X141599500Y-97653802D01*
X141579815Y-97720841D01*
X141567651Y-97736773D01*
X141558140Y-97747336D01*
X141468750Y-97902164D01*
X141468747Y-97902170D01*
X141413504Y-98072192D01*
X141413503Y-98072194D01*
X141394815Y-98250000D01*
X141413503Y-98427805D01*
X141413504Y-98427807D01*
X141468747Y-98597829D01*
X141468750Y-98597835D01*
X141558141Y-98752665D01*
X141599812Y-98798946D01*
X141677764Y-98885521D01*
X141677767Y-98885523D01*
X141677770Y-98885526D01*
X141822407Y-98990612D01*
X141985733Y-99063329D01*
X142160609Y-99100500D01*
X142160610Y-99100500D01*
X142339389Y-99100500D01*
X142339391Y-99100500D01*
X142514267Y-99063329D01*
X142677593Y-98990612D01*
X142822230Y-98885526D01*
X142941859Y-98752665D01*
X143031250Y-98597835D01*
X143031735Y-98596344D01*
X143034965Y-98586399D01*
X143086497Y-98427803D01*
X143105185Y-98250000D01*
X143086497Y-98072197D01*
X143031250Y-97902165D01*
X142941859Y-97747335D01*
X142932349Y-97736773D01*
X142902120Y-97673782D01*
X142900500Y-97653802D01*
X142900500Y-88335501D01*
X142902268Y-88319488D01*
X142902026Y-88319466D01*
X142902760Y-88311704D01*
X142900531Y-88240763D01*
X142900500Y-88238815D01*
X142900500Y-88209077D01*
X142900500Y-88209075D01*
X142899579Y-88201788D01*
X142899122Y-88195979D01*
X142897597Y-88147431D01*
X142891676Y-88127053D01*
X142887731Y-88108004D01*
X142885071Y-88086942D01*
X142867186Y-88041771D01*
X142865298Y-88036254D01*
X142851744Y-87989602D01*
X142851744Y-87989601D01*
X142840939Y-87971332D01*
X142832379Y-87953858D01*
X142831351Y-87951262D01*
X142824568Y-87934129D01*
X142796014Y-87894828D01*
X142792810Y-87889950D01*
X142787163Y-87880402D01*
X142768081Y-87848135D01*
X142753074Y-87833128D01*
X142740435Y-87818330D01*
X142727961Y-87801160D01*
X142690528Y-87770194D01*
X142686206Y-87766260D01*
X142669946Y-87750000D01*
X143144815Y-87750000D01*
X143163503Y-87927805D01*
X143163504Y-87927807D01*
X143218747Y-88097829D01*
X143218750Y-88097835D01*
X143308141Y-88252665D01*
X143342944Y-88291317D01*
X143427764Y-88385521D01*
X143427767Y-88385523D01*
X143427770Y-88385526D01*
X143572407Y-88490612D01*
X143735733Y-88563329D01*
X143910609Y-88600500D01*
X143910610Y-88600500D01*
X144089389Y-88600500D01*
X144089391Y-88600500D01*
X144264267Y-88563329D01*
X144427593Y-88490612D01*
X144572230Y-88385526D01*
X144575536Y-88381855D01*
X144628678Y-88322834D01*
X144691859Y-88252665D01*
X144781250Y-88097835D01*
X144836497Y-87927803D01*
X144855185Y-87750000D01*
X144836497Y-87572197D01*
X144792462Y-87436671D01*
X144781252Y-87402170D01*
X144781249Y-87402164D01*
X144778475Y-87397359D01*
X144691859Y-87247335D01*
X144682349Y-87236773D01*
X144652120Y-87173782D01*
X144650500Y-87153802D01*
X144650500Y-86320807D01*
X144670185Y-86253768D01*
X144686814Y-86233130D01*
X145649513Y-85270431D01*
X145662079Y-85260365D01*
X145661925Y-85260178D01*
X145667933Y-85255205D01*
X145667940Y-85255202D01*
X145716532Y-85203456D01*
X145717856Y-85202088D01*
X145738911Y-85181035D01*
X145743401Y-85175245D01*
X145747183Y-85170815D01*
X145780448Y-85135393D01*
X145790674Y-85116790D01*
X145801353Y-85100533D01*
X145814362Y-85083764D01*
X145833663Y-85039159D01*
X145836207Y-85033965D01*
X145859627Y-84991368D01*
X145864907Y-84970802D01*
X145871209Y-84952395D01*
X145879635Y-84932926D01*
X145887233Y-84884948D01*
X145888411Y-84879253D01*
X145900500Y-84832177D01*
X145900500Y-84810954D01*
X145902027Y-84791555D01*
X145905347Y-84770595D01*
X145900775Y-84722230D01*
X145900500Y-84716392D01*
X145900500Y-82846197D01*
X145920185Y-82779158D01*
X145932352Y-82763223D01*
X145934189Y-82761183D01*
X145941859Y-82752665D01*
X146031250Y-82597835D01*
X146086497Y-82427803D01*
X146105185Y-82250000D01*
X146086497Y-82072197D01*
X146044475Y-81942866D01*
X146031252Y-81902170D01*
X146031249Y-81902164D01*
X146013933Y-81872171D01*
X145941859Y-81747335D01*
X145879967Y-81678597D01*
X145822235Y-81614478D01*
X145822232Y-81614476D01*
X145822231Y-81614475D01*
X145822230Y-81614474D01*
X145677593Y-81509388D01*
X145514267Y-81436671D01*
X145514265Y-81436670D01*
X145386594Y-81409533D01*
X145339391Y-81399500D01*
X145160609Y-81399500D01*
X145129954Y-81406015D01*
X144985733Y-81436670D01*
X144985728Y-81436672D01*
X144822408Y-81509387D01*
X144677768Y-81614475D01*
X144558140Y-81747336D01*
X144468750Y-81902164D01*
X144468747Y-81902170D01*
X144413504Y-82072192D01*
X144413503Y-82072194D01*
X144394815Y-82250000D01*
X144413503Y-82427805D01*
X144413504Y-82427807D01*
X144468747Y-82597829D01*
X144468750Y-82597835D01*
X144558141Y-82752665D01*
X144565811Y-82761183D01*
X144567648Y-82763223D01*
X144597879Y-82826213D01*
X144599500Y-82846197D01*
X144599500Y-84429191D01*
X144579815Y-84496230D01*
X144563181Y-84516872D01*
X143600484Y-85479568D01*
X143587910Y-85489643D01*
X143588065Y-85489830D01*
X143582058Y-85494798D01*
X143533468Y-85546542D01*
X143532114Y-85547938D01*
X143511090Y-85568963D01*
X143511078Y-85568977D01*
X143506587Y-85574765D01*
X143502801Y-85579197D01*
X143469552Y-85614606D01*
X143459322Y-85633213D01*
X143448646Y-85649464D01*
X143435640Y-85666232D01*
X143435636Y-85666238D01*
X143416348Y-85710811D01*
X143413777Y-85716058D01*
X143390372Y-85758630D01*
X143390372Y-85758631D01*
X143385091Y-85779199D01*
X143378791Y-85797601D01*
X143370364Y-85817073D01*
X143362766Y-85865047D01*
X143361581Y-85870770D01*
X143349500Y-85917818D01*
X143349500Y-85939044D01*
X143347973Y-85958444D01*
X143344653Y-85979403D01*
X143349225Y-86027767D01*
X143349500Y-86033606D01*
X143349500Y-86208441D01*
X143337476Y-86249389D01*
X143347477Y-86269251D01*
X143349500Y-86291558D01*
X143349500Y-87153802D01*
X143329815Y-87220841D01*
X143317651Y-87236773D01*
X143308140Y-87247336D01*
X143218750Y-87402164D01*
X143218747Y-87402170D01*
X143163504Y-87572192D01*
X143163503Y-87572194D01*
X143144815Y-87750000D01*
X142669946Y-87750000D01*
X142378628Y-87458682D01*
X142345143Y-87397359D01*
X142342988Y-87383961D01*
X142339191Y-87347835D01*
X142336497Y-87322197D01*
X142311860Y-87246372D01*
X142309865Y-87176531D01*
X142345945Y-87116698D01*
X142404005Y-87086765D01*
X142514267Y-87063329D01*
X142677593Y-86990612D01*
X142822230Y-86885526D01*
X142824406Y-86883110D01*
X142848148Y-86856741D01*
X142941859Y-86752665D01*
X143031250Y-86597835D01*
X143086497Y-86427803D01*
X143102179Y-86278594D01*
X143112709Y-86253002D01*
X143106523Y-86243376D01*
X143102179Y-86221403D01*
X143098529Y-86186672D01*
X143086497Y-86072197D01*
X143031250Y-85902165D01*
X142941859Y-85747335D01*
X142868837Y-85666236D01*
X142822235Y-85614478D01*
X142822232Y-85614476D01*
X142822231Y-85614475D01*
X142822230Y-85614474D01*
X142677593Y-85509388D01*
X142514267Y-85436671D01*
X142514265Y-85436670D01*
X142384988Y-85409192D01*
X142339391Y-85399500D01*
X142160609Y-85399500D01*
X142129954Y-85406015D01*
X141985733Y-85436670D01*
X141985728Y-85436672D01*
X141822408Y-85509388D01*
X141822403Y-85509390D01*
X141730974Y-85575818D01*
X141665168Y-85599298D01*
X141658089Y-85599500D01*
X141070808Y-85599500D01*
X141003769Y-85579815D01*
X140983127Y-85563181D01*
X139520434Y-84100488D01*
X139510361Y-84087914D01*
X139510174Y-84088070D01*
X139505198Y-84082055D01*
X139472382Y-84051240D01*
X139453432Y-84033445D01*
X139452058Y-84032112D01*
X139431035Y-84011089D01*
X139425240Y-84006594D01*
X139420798Y-84002799D01*
X139385396Y-83969554D01*
X139385388Y-83969548D01*
X139366792Y-83959325D01*
X139350531Y-83948644D01*
X139333763Y-83935637D01*
X139310295Y-83925482D01*
X139289178Y-83916343D01*
X139283956Y-83913786D01*
X139241368Y-83890373D01*
X139241365Y-83890372D01*
X139220801Y-83885092D01*
X139202396Y-83878790D01*
X139182927Y-83870365D01*
X139182921Y-83870363D01*
X139134951Y-83862766D01*
X139129236Y-83861582D01*
X139112772Y-83857355D01*
X139082180Y-83849500D01*
X139082177Y-83849500D01*
X139060955Y-83849500D01*
X139041555Y-83847973D01*
X139020596Y-83844653D01*
X139020595Y-83844653D01*
X138996786Y-83846903D01*
X138972230Y-83849225D01*
X138966392Y-83849500D01*
X132570808Y-83849500D01*
X132503769Y-83829815D01*
X132483127Y-83813181D01*
X131186818Y-82516872D01*
X131153333Y-82455549D01*
X131150499Y-82429191D01*
X131150499Y-81846198D01*
X131170184Y-81779159D01*
X131182351Y-81763224D01*
X131191859Y-81752665D01*
X131281250Y-81597835D01*
X131336497Y-81427803D01*
X131355185Y-81250000D01*
X131336497Y-81072197D01*
X131316858Y-81011756D01*
X131284712Y-80912818D01*
X131282717Y-80842977D01*
X131318798Y-80783144D01*
X131381499Y-80752316D01*
X131402643Y-80750500D01*
X139736507Y-80750500D01*
X139738069Y-80750519D01*
X139775283Y-80751462D01*
X139826358Y-80752757D01*
X139826358Y-80752756D01*
X139826363Y-80752757D01*
X139886753Y-80741932D01*
X139891412Y-80741280D01*
X139933607Y-80736988D01*
X139952438Y-80735074D01*
X139985227Y-80724786D01*
X139992840Y-80722918D01*
X140026653Y-80716858D01*
X140083621Y-80694101D01*
X140088053Y-80692524D01*
X140146588Y-80674159D01*
X140176627Y-80657484D01*
X140183708Y-80654122D01*
X140215617Y-80641377D01*
X140266854Y-80607608D01*
X140270851Y-80605187D01*
X140324502Y-80575409D01*
X140350568Y-80553030D01*
X140356843Y-80548300D01*
X140385519Y-80529402D01*
X140428917Y-80486002D01*
X140432336Y-80482834D01*
X140478895Y-80442866D01*
X140499931Y-80415688D01*
X140505101Y-80409818D01*
X141878101Y-79036819D01*
X141939425Y-79003334D01*
X141965783Y-79000500D01*
X142986507Y-79000500D01*
X142988069Y-79000519D01*
X143036487Y-79001746D01*
X143076360Y-79002757D01*
X143076361Y-79002757D01*
X143076361Y-79002756D01*
X143076363Y-79002757D01*
X143077410Y-79002569D01*
X143078105Y-79002445D01*
X143099979Y-79000500D01*
X156274217Y-79000500D01*
X156341256Y-79020185D01*
X156361898Y-79036819D01*
X157368108Y-80043029D01*
X157401593Y-80104352D01*
X157403955Y-80119901D01*
X157414936Y-80245403D01*
X157414938Y-80245413D01*
X157476094Y-80473655D01*
X157476096Y-80473659D01*
X157476097Y-80473663D01*
X157554303Y-80641376D01*
X157575965Y-80687830D01*
X157575967Y-80687834D01*
X157711501Y-80881395D01*
X157711506Y-80881402D01*
X157878597Y-81048493D01*
X157878603Y-81048498D01*
X158064158Y-81178425D01*
X158107783Y-81233002D01*
X158114977Y-81302500D01*
X158083454Y-81364855D01*
X158064158Y-81381575D01*
X157878597Y-81511505D01*
X157711505Y-81678597D01*
X157575965Y-81872169D01*
X157575964Y-81872171D01*
X157476098Y-82086335D01*
X157476094Y-82086344D01*
X157414938Y-82314586D01*
X157414936Y-82314596D01*
X157394341Y-82549999D01*
X157394341Y-82550000D01*
X157414936Y-82785403D01*
X157414938Y-82785413D01*
X157476094Y-83013655D01*
X157476096Y-83013659D01*
X157476097Y-83013663D01*
X157523106Y-83114474D01*
X157575965Y-83227830D01*
X157575967Y-83227834D01*
X157589623Y-83247336D01*
X157711505Y-83421401D01*
X157878599Y-83588495D01*
X157975384Y-83656264D01*
X158072165Y-83724032D01*
X158072167Y-83724033D01*
X158072170Y-83724035D01*
X158286337Y-83823903D01*
X158286343Y-83823904D01*
X158286344Y-83823905D01*
X158313189Y-83831098D01*
X158514592Y-83885063D01*
X158702918Y-83901539D01*
X158749999Y-83905659D01*
X158750000Y-83905659D01*
X158750001Y-83905659D01*
X158789234Y-83902226D01*
X158985408Y-83885063D01*
X159213663Y-83823903D01*
X159427830Y-83724035D01*
X159621401Y-83588495D01*
X159788495Y-83421401D01*
X159924035Y-83227830D01*
X160023903Y-83013663D01*
X160085063Y-82785408D01*
X160105659Y-82550000D01*
X160085063Y-82314592D01*
X160029606Y-82107620D01*
X160023905Y-82086344D01*
X160023904Y-82086343D01*
X160023903Y-82086337D01*
X159924035Y-81872171D01*
X159918861Y-81864781D01*
X159788494Y-81678597D01*
X159621402Y-81511506D01*
X159621396Y-81511501D01*
X159435842Y-81381575D01*
X159392217Y-81326998D01*
X159385023Y-81257500D01*
X159416546Y-81195145D01*
X159435842Y-81178425D01*
X159587558Y-81072192D01*
X159621401Y-81048495D01*
X159788495Y-80881401D01*
X159924035Y-80687830D01*
X160023903Y-80473663D01*
X160085063Y-80245408D01*
X160096043Y-80119901D01*
X160121495Y-80054834D01*
X160131882Y-80043037D01*
X162448001Y-77726918D01*
X162449014Y-77725931D01*
X162513053Y-77665059D01*
X162548112Y-77614686D01*
X162550925Y-77610957D01*
X162589698Y-77563407D01*
X162605607Y-77532948D01*
X162609667Y-77526248D01*
X162629295Y-77498049D01*
X162653492Y-77441660D01*
X162655498Y-77437435D01*
X162683909Y-77383049D01*
X162693360Y-77350015D01*
X162695991Y-77342628D01*
X162697036Y-77340194D01*
X162709540Y-77311058D01*
X162721893Y-77250940D01*
X162723006Y-77246412D01*
X162739887Y-77187418D01*
X162742495Y-77153155D01*
X162743587Y-77145376D01*
X162743701Y-77144824D01*
X162750500Y-77111741D01*
X162750500Y-77050401D01*
X162750679Y-77045692D01*
X162751078Y-77040460D01*
X162753022Y-77014925D01*
X162755337Y-76984525D01*
X162750997Y-76950441D01*
X162750500Y-76942602D01*
X162750500Y-66513451D01*
X162750520Y-66511881D01*
X162751052Y-66490908D01*
X162752756Y-66423636D01*
X162741929Y-66363233D01*
X162741282Y-66358620D01*
X162735074Y-66297562D01*
X162735073Y-66297560D01*
X162735073Y-66297557D01*
X162724790Y-66264787D01*
X162722917Y-66257154D01*
X162716858Y-66223348D01*
X162694102Y-66166378D01*
X162692521Y-66161937D01*
X162689079Y-66150967D01*
X162674159Y-66103412D01*
X162674158Y-66103410D01*
X162674157Y-66103407D01*
X162657488Y-66073378D01*
X162654117Y-66066278D01*
X162649273Y-66054152D01*
X162641377Y-66034383D01*
X162607620Y-65983163D01*
X162605180Y-65979134D01*
X162591864Y-65955145D01*
X162575409Y-65925498D01*
X162575407Y-65925495D01*
X162553033Y-65899434D01*
X162548302Y-65893159D01*
X162529402Y-65864481D01*
X162486012Y-65821091D01*
X162482822Y-65817648D01*
X162442867Y-65771106D01*
X162442863Y-65771102D01*
X162415698Y-65750074D01*
X162409811Y-65744890D01*
X160737010Y-64072090D01*
X160735914Y-64070966D01*
X160675061Y-64006949D01*
X160675060Y-64006948D01*
X160675059Y-64006947D01*
X160645691Y-63986506D01*
X160624709Y-63971902D01*
X160620946Y-63969064D01*
X160573413Y-63930305D01*
X160573406Y-63930300D01*
X160542959Y-63914397D01*
X160536251Y-63910334D01*
X160508049Y-63890705D01*
X160508046Y-63890703D01*
X160508045Y-63890703D01*
X160508041Y-63890701D01*
X160451680Y-63866514D01*
X160447424Y-63864493D01*
X160393057Y-63836094D01*
X160393050Y-63836091D01*
X160393049Y-63836091D01*
X160387008Y-63834362D01*
X160360030Y-63826642D01*
X160352630Y-63824008D01*
X160321057Y-63810459D01*
X160321058Y-63810459D01*
X160260966Y-63798109D01*
X160256391Y-63796986D01*
X160197420Y-63780113D01*
X160197425Y-63780113D01*
X160163158Y-63777503D01*
X160155380Y-63776412D01*
X160121742Y-63769500D01*
X160121741Y-63769500D01*
X160060402Y-63769500D01*
X160055695Y-63769321D01*
X160050121Y-63768896D01*
X159994524Y-63764662D01*
X159974589Y-63767201D01*
X159960440Y-63769003D01*
X159952611Y-63769500D01*
X159710758Y-63769500D01*
X159643719Y-63749815D01*
X159623077Y-63733181D01*
X159621402Y-63731506D01*
X159621395Y-63731501D01*
X159427834Y-63595967D01*
X159427830Y-63595965D01*
X159295411Y-63534217D01*
X159213663Y-63496097D01*
X159213659Y-63496096D01*
X159213655Y-63496094D01*
X158985413Y-63434938D01*
X158985403Y-63434936D01*
X158750001Y-63414341D01*
X158749999Y-63414341D01*
X158514596Y-63434936D01*
X158514586Y-63434938D01*
X158286344Y-63496094D01*
X158286335Y-63496098D01*
X158072171Y-63595964D01*
X158072169Y-63595965D01*
X157878597Y-63731505D01*
X157711505Y-63898597D01*
X157575965Y-64092169D01*
X157575964Y-64092171D01*
X157476098Y-64306335D01*
X157476094Y-64306344D01*
X157414938Y-64534586D01*
X157414936Y-64534596D01*
X157394341Y-64769999D01*
X157394341Y-64770000D01*
X157414936Y-65005403D01*
X157414938Y-65005413D01*
X157476094Y-65233655D01*
X157476096Y-65233659D01*
X157476097Y-65233663D01*
X157560104Y-65413816D01*
X157575965Y-65447830D01*
X157575967Y-65447834D01*
X157711501Y-65641395D01*
X157711506Y-65641402D01*
X157878597Y-65808493D01*
X157878603Y-65808498D01*
X158064158Y-65938425D01*
X158107783Y-65993002D01*
X158114977Y-66062500D01*
X158083454Y-66124855D01*
X158064158Y-66141575D01*
X157878597Y-66271505D01*
X157711505Y-66438597D01*
X157575965Y-66632169D01*
X157575964Y-66632171D01*
X157476098Y-66846335D01*
X157476094Y-66846344D01*
X157414938Y-67074586D01*
X157414936Y-67074596D01*
X157394341Y-67309999D01*
X157394341Y-67310000D01*
X157414936Y-67545403D01*
X157414938Y-67545413D01*
X157476094Y-67773655D01*
X157476096Y-67773659D01*
X157476097Y-67773663D01*
X157575965Y-67987830D01*
X157575967Y-67987834D01*
X157684281Y-68142521D01*
X157711505Y-68181401D01*
X157878599Y-68348495D01*
X157975384Y-68416264D01*
X158072165Y-68484032D01*
X158072167Y-68484033D01*
X158072170Y-68484035D01*
X158286337Y-68583903D01*
X158514592Y-68645063D01*
X158702918Y-68661539D01*
X158749999Y-68665659D01*
X158750000Y-68665659D01*
X158750001Y-68665659D01*
X158789234Y-68662226D01*
X158985408Y-68645063D01*
X159213663Y-68583903D01*
X159427830Y-68484035D01*
X159621401Y-68348495D01*
X159788495Y-68181401D01*
X159924035Y-67987830D01*
X160023903Y-67773663D01*
X160085063Y-67545408D01*
X160105659Y-67310000D01*
X160085063Y-67074592D01*
X160023903Y-66846337D01*
X159924035Y-66632171D01*
X159896300Y-66592560D01*
X159788494Y-66438597D01*
X159621402Y-66271506D01*
X159621396Y-66271501D01*
X159435842Y-66141575D01*
X159392217Y-66086998D01*
X159385023Y-66017500D01*
X159416546Y-65955145D01*
X159435841Y-65938426D01*
X159491527Y-65899434D01*
X159549212Y-65859042D01*
X159615416Y-65836715D01*
X159683183Y-65853725D01*
X159708015Y-65872936D01*
X160713181Y-66878102D01*
X160746666Y-66939425D01*
X160749500Y-66965783D01*
X160749500Y-76544217D01*
X160729815Y-76611256D01*
X160713181Y-76631898D01*
X158837680Y-78507398D01*
X158776357Y-78540883D01*
X158706665Y-78535899D01*
X158662320Y-78507399D01*
X157456972Y-77302052D01*
X157455914Y-77300966D01*
X157395061Y-77236949D01*
X157395060Y-77236948D01*
X157395059Y-77236947D01*
X157355684Y-77209541D01*
X157344709Y-77201902D01*
X157340946Y-77199064D01*
X157293413Y-77160305D01*
X157293406Y-77160300D01*
X157262959Y-77144397D01*
X157256251Y-77140334D01*
X157228049Y-77120705D01*
X157228046Y-77120703D01*
X157228045Y-77120703D01*
X157228041Y-77120701D01*
X157171680Y-77096514D01*
X157167424Y-77094493D01*
X157113057Y-77066094D01*
X157113050Y-77066091D01*
X157113049Y-77066091D01*
X157107008Y-77064362D01*
X157080030Y-77056642D01*
X157072630Y-77054008D01*
X157041057Y-77040459D01*
X157041058Y-77040459D01*
X156980966Y-77028109D01*
X156976391Y-77026986D01*
X156917420Y-77010113D01*
X156917425Y-77010113D01*
X156883158Y-77007503D01*
X156875380Y-77006412D01*
X156841742Y-76999500D01*
X156841741Y-76999500D01*
X156780402Y-76999500D01*
X156775695Y-76999321D01*
X156770121Y-76998896D01*
X156714524Y-76994662D01*
X156694589Y-76997201D01*
X156680440Y-76999003D01*
X156672611Y-76999500D01*
X145714783Y-76999500D01*
X145647744Y-76979815D01*
X145601989Y-76927011D01*
X145592045Y-76857853D01*
X145621070Y-76794297D01*
X145627102Y-76787819D01*
X146040044Y-76374877D01*
X146493340Y-75921581D01*
X146589698Y-75803407D01*
X146683909Y-75623049D01*
X146739886Y-75427418D01*
X146755337Y-75224524D01*
X146729630Y-75022672D01*
X146663816Y-74830128D01*
X146574149Y-74677807D01*
X146560593Y-74654778D01*
X146560592Y-74654777D01*
X146560590Y-74654773D01*
X146424179Y-74503787D01*
X146378979Y-74470596D01*
X146260171Y-74383353D01*
X146260164Y-74383349D01*
X146075274Y-74298397D01*
X146075261Y-74298392D01*
X145877053Y-74252397D01*
X145673639Y-74247244D01*
X145673634Y-74247244D01*
X145473352Y-74283140D01*
X145473345Y-74283142D01*
X145284383Y-74358623D01*
X145284371Y-74358629D01*
X145114482Y-74470596D01*
X145114478Y-74470599D01*
X142621899Y-76963181D01*
X142560576Y-76996666D01*
X142534218Y-76999500D01*
X141513493Y-76999500D01*
X141511930Y-76999480D01*
X141423637Y-76997243D01*
X141423628Y-76997243D01*
X141372476Y-77006412D01*
X141363254Y-77008064D01*
X141358595Y-77008718D01*
X141297564Y-77014925D01*
X141297562Y-77014926D01*
X141264780Y-77025210D01*
X141257156Y-77027081D01*
X141254057Y-77027637D01*
X141223349Y-77033141D01*
X141223341Y-77033143D01*
X141166382Y-77055895D01*
X141161946Y-77057474D01*
X141103415Y-77075840D01*
X141103412Y-77075841D01*
X141103410Y-77075842D01*
X141103403Y-77075845D01*
X141073384Y-77092507D01*
X141066290Y-77095876D01*
X141034390Y-77108619D01*
X141034388Y-77108619D01*
X141034383Y-77108622D01*
X141034376Y-77108626D01*
X141034377Y-77108626D01*
X140983154Y-77142383D01*
X140979126Y-77144824D01*
X140925502Y-77174588D01*
X140925499Y-77174590D01*
X140899427Y-77196970D01*
X140893160Y-77201695D01*
X140864482Y-77220598D01*
X140864475Y-77220603D01*
X140821116Y-77263962D01*
X140817661Y-77267164D01*
X140771106Y-77307132D01*
X140771105Y-77307133D01*
X140750076Y-77334300D01*
X140744884Y-77340194D01*
X139371899Y-78713181D01*
X139310576Y-78746666D01*
X139284218Y-78749500D01*
X131624500Y-78749500D01*
X131557461Y-78729815D01*
X131511706Y-78677011D01*
X131500500Y-78625500D01*
X131500499Y-77763453D01*
X131500519Y-77761882D01*
X131502756Y-77673642D01*
X131502755Y-77673641D01*
X131502756Y-77673636D01*
X131491929Y-77613233D01*
X131491282Y-77608620D01*
X131485074Y-77547562D01*
X131485073Y-77547560D01*
X131485073Y-77547557D01*
X131474790Y-77514787D01*
X131472917Y-77507154D01*
X131466858Y-77473348D01*
X131444102Y-77416378D01*
X131442521Y-77411937D01*
X131424159Y-77353412D01*
X131424158Y-77353410D01*
X131424157Y-77353407D01*
X131407488Y-77323378D01*
X131404117Y-77316278D01*
X131391378Y-77284386D01*
X131391377Y-77284383D01*
X131357620Y-77233163D01*
X131355180Y-77229134D01*
X131340064Y-77201902D01*
X131325409Y-77175498D01*
X131325407Y-77175495D01*
X131303033Y-77149434D01*
X131298302Y-77143159D01*
X131289165Y-77129295D01*
X131279402Y-77114481D01*
X131236012Y-77071091D01*
X131232822Y-77067648D01*
X131192867Y-77021106D01*
X131192863Y-77021102D01*
X131165698Y-77000074D01*
X131159811Y-76994890D01*
X129717010Y-75552090D01*
X129715914Y-75550966D01*
X129655061Y-75486949D01*
X129655060Y-75486948D01*
X129655059Y-75486947D01*
X129627204Y-75467559D01*
X129604709Y-75451902D01*
X129600946Y-75449064D01*
X129553413Y-75410305D01*
X129553406Y-75410300D01*
X129522959Y-75394397D01*
X129516251Y-75390334D01*
X129488049Y-75370705D01*
X129488046Y-75370703D01*
X129488045Y-75370703D01*
X129488041Y-75370701D01*
X129431680Y-75346514D01*
X129427424Y-75344493D01*
X129373057Y-75316094D01*
X129373050Y-75316091D01*
X129373049Y-75316091D01*
X129363397Y-75313329D01*
X129340030Y-75306642D01*
X129332630Y-75304008D01*
X129301057Y-75290459D01*
X129301058Y-75290459D01*
X129240966Y-75278109D01*
X129236391Y-75276986D01*
X129177420Y-75260113D01*
X129177425Y-75260113D01*
X129143158Y-75257503D01*
X129135380Y-75256412D01*
X129101742Y-75249500D01*
X129101741Y-75249500D01*
X129040402Y-75249500D01*
X129035695Y-75249321D01*
X129030121Y-75248896D01*
X128974524Y-75244662D01*
X128954589Y-75247201D01*
X128940440Y-75249003D01*
X128932611Y-75249500D01*
X127124500Y-75249500D01*
X127057461Y-75229815D01*
X127011706Y-75177011D01*
X127000500Y-75125500D01*
X127000500Y-74249999D01*
X132894815Y-74249999D01*
X132913503Y-74427805D01*
X132913504Y-74427807D01*
X132968747Y-74597829D01*
X132968750Y-74597835D01*
X133058141Y-74752665D01*
X133099812Y-74798946D01*
X133177764Y-74885521D01*
X133177767Y-74885523D01*
X133177770Y-74885526D01*
X133322407Y-74990612D01*
X133485733Y-75063329D01*
X133660609Y-75100500D01*
X133660610Y-75100500D01*
X133839389Y-75100500D01*
X133839391Y-75100500D01*
X134014267Y-75063329D01*
X134177593Y-74990612D01*
X134322230Y-74885526D01*
X134441859Y-74752665D01*
X134531250Y-74597835D01*
X134586497Y-74427803D01*
X134592988Y-74366036D01*
X134619571Y-74301423D01*
X134628619Y-74291325D01*
X135887820Y-73032124D01*
X135949142Y-72998641D01*
X136018834Y-73003625D01*
X136074767Y-73045497D01*
X136099184Y-73110961D01*
X136099500Y-73119807D01*
X136099500Y-73903802D01*
X136079815Y-73970841D01*
X136067651Y-73986773D01*
X136058140Y-73997336D01*
X135968750Y-74152164D01*
X135968747Y-74152170D01*
X135913504Y-74322192D01*
X135913503Y-74322194D01*
X135894815Y-74500000D01*
X135913503Y-74677805D01*
X135913504Y-74677807D01*
X135968747Y-74847829D01*
X135968750Y-74847835D01*
X136058141Y-75002665D01*
X136076161Y-75022678D01*
X136177764Y-75135521D01*
X136177767Y-75135523D01*
X136177770Y-75135526D01*
X136322407Y-75240612D01*
X136485733Y-75313329D01*
X136660609Y-75350500D01*
X136660610Y-75350500D01*
X136839389Y-75350500D01*
X136839391Y-75350500D01*
X137014267Y-75313329D01*
X137177593Y-75240612D01*
X137322230Y-75135526D01*
X137331258Y-75125500D01*
X137353768Y-75100500D01*
X137441859Y-75002665D01*
X137531250Y-74847835D01*
X137586497Y-74677803D01*
X137605185Y-74500000D01*
X137586497Y-74322197D01*
X137531250Y-74152165D01*
X137441859Y-73997335D01*
X137432349Y-73986773D01*
X137402120Y-73923782D01*
X137400500Y-73903802D01*
X137400500Y-73070808D01*
X137420185Y-73003769D01*
X137436819Y-72983127D01*
X137599500Y-72820446D01*
X139163092Y-71256853D01*
X139175643Y-71250000D01*
X145644815Y-71250000D01*
X145663503Y-71427805D01*
X145663504Y-71427807D01*
X145718747Y-71597829D01*
X145718750Y-71597835D01*
X145808141Y-71752665D01*
X145825856Y-71772339D01*
X145927764Y-71885521D01*
X145927767Y-71885523D01*
X145927770Y-71885526D01*
X146072407Y-71990612D01*
X146235733Y-72063329D01*
X146410609Y-72100500D01*
X146410610Y-72100500D01*
X146589389Y-72100500D01*
X146589391Y-72100500D01*
X146764267Y-72063329D01*
X146881306Y-72011219D01*
X146931741Y-72000500D01*
X149436295Y-72000500D01*
X149454265Y-72001809D01*
X149478023Y-72005289D01*
X149530068Y-72000735D01*
X149535470Y-72000500D01*
X149543704Y-72000500D01*
X149543709Y-72000500D01*
X149575458Y-71996788D01*
X149577075Y-71996622D01*
X149652797Y-71989999D01*
X149652805Y-71989996D01*
X149659866Y-71988539D01*
X149659878Y-71988598D01*
X149667243Y-71986965D01*
X149667229Y-71986906D01*
X149674251Y-71985241D01*
X149674255Y-71985241D01*
X149745587Y-71959277D01*
X149747286Y-71958688D01*
X149819334Y-71934814D01*
X149819342Y-71934808D01*
X149825882Y-71931760D01*
X149825908Y-71931816D01*
X149832690Y-71928532D01*
X149832663Y-71928478D01*
X149839109Y-71925239D01*
X149839117Y-71925237D01*
X149902612Y-71883475D01*
X149903977Y-71882605D01*
X149968656Y-71842712D01*
X149968661Y-71842706D01*
X149974325Y-71838229D01*
X149974363Y-71838277D01*
X149980200Y-71833522D01*
X149980161Y-71833475D01*
X149985691Y-71828833D01*
X149985696Y-71828830D01*
X150037799Y-71773602D01*
X150038993Y-71772374D01*
X151469178Y-70342188D01*
X151509112Y-70317729D01*
X151508330Y-70315972D01*
X151514265Y-70313329D01*
X151514267Y-70313329D01*
X151677593Y-70240612D01*
X151822230Y-70135526D01*
X151941859Y-70002665D01*
X152031250Y-69847835D01*
X152086497Y-69677803D01*
X152105185Y-69500000D01*
X152086497Y-69322197D01*
X152042462Y-69186671D01*
X152031252Y-69152170D01*
X152031250Y-69152167D01*
X152031250Y-69152165D01*
X151941859Y-68997335D01*
X151895003Y-68945296D01*
X151822235Y-68864478D01*
X151822232Y-68864476D01*
X151822231Y-68864475D01*
X151822230Y-68864474D01*
X151677593Y-68759388D01*
X151514267Y-68686671D01*
X151514265Y-68686670D01*
X151386594Y-68659533D01*
X151339391Y-68649500D01*
X151160609Y-68649500D01*
X151129954Y-68656015D01*
X150985733Y-68686670D01*
X150985728Y-68686672D01*
X150822408Y-68759387D01*
X150677768Y-68864475D01*
X150558140Y-68997336D01*
X150468750Y-69152163D01*
X150468749Y-69152167D01*
X150445354Y-69224165D01*
X150415105Y-69273525D01*
X149225451Y-70463181D01*
X149164128Y-70496666D01*
X149137770Y-70499500D01*
X146931741Y-70499500D01*
X146881306Y-70488780D01*
X146764267Y-70436671D01*
X146764265Y-70436670D01*
X146636594Y-70409533D01*
X146589391Y-70399500D01*
X146410609Y-70399500D01*
X146379954Y-70406015D01*
X146235733Y-70436670D01*
X146235728Y-70436672D01*
X146072408Y-70509387D01*
X145927768Y-70614475D01*
X145808140Y-70747336D01*
X145718750Y-70902164D01*
X145718747Y-70902170D01*
X145663504Y-71072192D01*
X145663503Y-71072194D01*
X145644815Y-71250000D01*
X139175643Y-71250000D01*
X139224413Y-71223370D01*
X139224477Y-71223356D01*
X139389267Y-71188329D01*
X139552593Y-71115612D01*
X139697230Y-71010526D01*
X139816859Y-70877665D01*
X139906250Y-70722835D01*
X139961497Y-70552803D01*
X139980185Y-70375000D01*
X139961497Y-70197197D01*
X139926921Y-70090782D01*
X139906252Y-70027170D01*
X139906249Y-70027164D01*
X139895760Y-70008996D01*
X139816859Y-69872335D01*
X139765191Y-69814952D01*
X139697235Y-69739478D01*
X139697232Y-69739476D01*
X139697231Y-69739475D01*
X139697230Y-69739474D01*
X139552593Y-69634388D01*
X139389267Y-69561671D01*
X139389265Y-69561670D01*
X139261594Y-69534533D01*
X139214391Y-69524500D01*
X139035609Y-69524500D01*
X139004954Y-69531015D01*
X138860733Y-69561670D01*
X138860728Y-69561672D01*
X138697408Y-69634387D01*
X138552770Y-69739474D01*
X138517806Y-69778305D01*
X138458318Y-69814952D01*
X138388461Y-69813621D01*
X138330414Y-69774733D01*
X138307726Y-69733649D01*
X138281252Y-69652170D01*
X138281249Y-69652164D01*
X138270986Y-69634388D01*
X138191859Y-69497335D01*
X138145003Y-69445296D01*
X138072235Y-69364478D01*
X138072232Y-69364476D01*
X138072231Y-69364475D01*
X138072230Y-69364474D01*
X137927593Y-69259388D01*
X137764267Y-69186671D01*
X137764265Y-69186670D01*
X137601938Y-69152167D01*
X137589391Y-69149500D01*
X137410609Y-69149500D01*
X137398062Y-69152167D01*
X137235733Y-69186670D01*
X137235728Y-69186672D01*
X137072408Y-69259387D01*
X136927768Y-69364475D01*
X136808140Y-69497336D01*
X136718750Y-69652164D01*
X136718747Y-69652170D01*
X136663504Y-69822192D01*
X136663503Y-69822194D01*
X136644815Y-70000000D01*
X136663503Y-70177805D01*
X136663504Y-70177807D01*
X136698571Y-70285732D01*
X136700566Y-70355573D01*
X136668321Y-70411731D01*
X133711909Y-73368144D01*
X133650586Y-73401629D01*
X133650009Y-73401753D01*
X133485733Y-73436670D01*
X133485728Y-73436672D01*
X133322408Y-73509387D01*
X133177768Y-73614475D01*
X133058140Y-73747336D01*
X132968750Y-73902164D01*
X132968747Y-73902170D01*
X132913504Y-74072192D01*
X132913503Y-74072194D01*
X132894815Y-74249999D01*
X127000500Y-74249999D01*
X127000500Y-70090782D01*
X127020185Y-70023743D01*
X127036814Y-70003106D01*
X130385501Y-66654418D01*
X130386514Y-66653431D01*
X130450553Y-66592559D01*
X130485612Y-66542186D01*
X130488425Y-66538457D01*
X130527198Y-66490907D01*
X130543109Y-66460445D01*
X130547168Y-66453746D01*
X130566795Y-66425549D01*
X130590989Y-66369167D01*
X130592995Y-66364943D01*
X130621410Y-66310549D01*
X130630859Y-66277520D01*
X130633496Y-66270115D01*
X130647040Y-66238558D01*
X130659394Y-66178438D01*
X130660503Y-66173922D01*
X130677387Y-66114918D01*
X130679995Y-66080655D01*
X130681087Y-66072876D01*
X130681692Y-66069936D01*
X130688000Y-66039241D01*
X130688000Y-65977901D01*
X130688179Y-65973192D01*
X130692837Y-65912025D01*
X130688497Y-65877941D01*
X130688000Y-65870102D01*
X130688000Y-65028282D01*
X130707685Y-64961243D01*
X130724314Y-64940606D01*
X132128102Y-63536818D01*
X132189425Y-63503334D01*
X132215783Y-63500500D01*
X134236507Y-63500500D01*
X134238069Y-63500519D01*
X134275283Y-63501462D01*
X134326358Y-63502757D01*
X134326358Y-63502756D01*
X134326363Y-63502757D01*
X134386753Y-63491932D01*
X134391412Y-63491280D01*
X134433607Y-63486988D01*
X134452438Y-63485074D01*
X134485227Y-63474786D01*
X134492840Y-63472918D01*
X134526653Y-63466858D01*
X134583621Y-63444101D01*
X134588053Y-63442524D01*
X134646588Y-63424159D01*
X134676627Y-63407484D01*
X134683708Y-63404122D01*
X134715617Y-63391377D01*
X134766854Y-63357608D01*
X134770851Y-63355187D01*
X134824502Y-63325409D01*
X134850568Y-63303030D01*
X134856843Y-63298300D01*
X134885519Y-63279402D01*
X134928892Y-63236027D01*
X134932350Y-63232823D01*
X134943388Y-63223347D01*
X134978895Y-63192866D01*
X134999928Y-63165691D01*
X135005098Y-63159821D01*
X139628101Y-58536818D01*
X139689424Y-58503334D01*
X139715782Y-58500500D01*
X140534217Y-58500500D01*
X140601256Y-58520185D01*
X140621898Y-58536819D01*
X141032987Y-58947907D01*
X141034052Y-58948998D01*
X141091501Y-59009434D01*
X141094940Y-59013052D01*
X141094947Y-59013058D01*
X141129053Y-59036795D01*
X141145303Y-59048106D01*
X141149044Y-59050926D01*
X141196593Y-59089698D01*
X141227045Y-59105604D01*
X141233758Y-59109672D01*
X141253664Y-59123527D01*
X141297443Y-59177981D01*
X141304831Y-59247459D01*
X141273485Y-59309902D01*
X141268260Y-59315175D01*
X141236950Y-59344937D01*
X141236948Y-59344940D01*
X141120705Y-59511949D01*
X141040459Y-59698943D01*
X140999500Y-59898258D01*
X140999500Y-63986506D01*
X140999480Y-63988076D01*
X140997243Y-64076362D01*
X140997243Y-64076370D01*
X141008064Y-64136739D01*
X141008718Y-64141404D01*
X141014925Y-64202430D01*
X141014927Y-64202444D01*
X141025208Y-64235213D01*
X141027079Y-64242837D01*
X141033142Y-64276652D01*
X141033142Y-64276655D01*
X141055894Y-64333612D01*
X141057474Y-64338051D01*
X141075841Y-64396588D01*
X141075844Y-64396595D01*
X141092509Y-64426619D01*
X141095879Y-64433714D01*
X141106682Y-64460759D01*
X141108622Y-64465614D01*
X141108627Y-64465624D01*
X141142377Y-64516833D01*
X141144818Y-64520863D01*
X141174588Y-64574498D01*
X141174589Y-64574499D01*
X141174591Y-64574502D01*
X141196968Y-64600567D01*
X141201693Y-64606835D01*
X141211719Y-64622047D01*
X141220598Y-64635519D01*
X141263978Y-64678899D01*
X141267169Y-64682343D01*
X141307131Y-64728892D01*
X141307134Y-64728895D01*
X141334294Y-64749918D01*
X141340190Y-64755111D01*
X141828420Y-65243341D01*
X141946593Y-65339698D01*
X142126951Y-65433909D01*
X142322582Y-65489887D01*
X142390213Y-65495037D01*
X142525475Y-65505337D01*
X142525477Y-65505337D01*
X142525478Y-65505337D01*
X142727321Y-65479631D01*
X142727321Y-65479630D01*
X142727328Y-65479630D01*
X142919872Y-65413816D01*
X143095227Y-65310591D01*
X143246213Y-65174179D01*
X143366649Y-65010167D01*
X143366650Y-65010163D01*
X143366653Y-65010160D01*
X143451602Y-64825275D01*
X143451605Y-64825269D01*
X143497603Y-64627054D01*
X143500687Y-64505337D01*
X143502757Y-64423641D01*
X143502756Y-64423640D01*
X143502757Y-64423637D01*
X143473686Y-64261442D01*
X143466859Y-64223351D01*
X143466857Y-64223344D01*
X143453319Y-64189452D01*
X143391378Y-64034383D01*
X143322782Y-63930302D01*
X143279402Y-63864481D01*
X143036819Y-63621898D01*
X143003334Y-63560575D01*
X143000500Y-63534217D01*
X143000500Y-59949256D01*
X142985074Y-59797560D01*
X142924162Y-59603420D01*
X142924160Y-59603416D01*
X142924159Y-59603412D01*
X142852480Y-59474271D01*
X142830504Y-59434677D01*
X142815181Y-59366509D01*
X142839145Y-59300877D01*
X142894788Y-59258620D01*
X142938923Y-59250500D01*
X143780191Y-59250500D01*
X143847230Y-59270185D01*
X143892985Y-59322989D01*
X143902929Y-59392147D01*
X143873904Y-59455703D01*
X143867881Y-59462171D01*
X143855782Y-59474271D01*
X143850482Y-59479571D01*
X143837911Y-59489644D01*
X143838065Y-59489830D01*
X143832058Y-59494798D01*
X143783468Y-59546542D01*
X143782114Y-59547938D01*
X143761090Y-59568963D01*
X143761078Y-59568977D01*
X143756587Y-59574765D01*
X143752801Y-59579197D01*
X143719552Y-59614606D01*
X143709322Y-59633213D01*
X143698646Y-59649464D01*
X143685640Y-59666232D01*
X143685636Y-59666238D01*
X143666348Y-59710811D01*
X143663777Y-59716058D01*
X143640372Y-59758630D01*
X143640372Y-59758631D01*
X143635091Y-59779199D01*
X143628791Y-59797601D01*
X143620364Y-59817073D01*
X143612766Y-59865047D01*
X143611581Y-59870770D01*
X143599500Y-59917818D01*
X143599500Y-59939044D01*
X143597973Y-59958444D01*
X143594653Y-59979403D01*
X143599225Y-60027767D01*
X143599500Y-60033606D01*
X143599500Y-62914494D01*
X143597732Y-62930505D01*
X143597974Y-62930528D01*
X143597239Y-62938294D01*
X143599469Y-63009235D01*
X143599500Y-63011183D01*
X143599500Y-63040920D01*
X143599501Y-63040940D01*
X143600418Y-63048206D01*
X143600876Y-63054024D01*
X143602402Y-63102567D01*
X143602403Y-63102570D01*
X143608323Y-63122948D01*
X143612268Y-63141996D01*
X143614928Y-63163054D01*
X143614930Y-63163062D01*
X143632811Y-63208227D01*
X143634703Y-63213753D01*
X143641489Y-63237109D01*
X143645734Y-63258744D01*
X143663503Y-63427804D01*
X143663504Y-63427807D01*
X143718747Y-63597829D01*
X143718750Y-63597835D01*
X143808141Y-63752665D01*
X143848048Y-63796986D01*
X143927764Y-63885521D01*
X143927767Y-63885523D01*
X143927770Y-63885526D01*
X144072407Y-63990612D01*
X144235733Y-64063329D01*
X144410609Y-64100500D01*
X144410610Y-64100500D01*
X144589389Y-64100500D01*
X144589391Y-64100500D01*
X144764267Y-64063329D01*
X144927593Y-63990612D01*
X145072230Y-63885526D01*
X145191859Y-63752665D01*
X145281250Y-63597835D01*
X145336497Y-63427803D01*
X145355185Y-63250000D01*
X145336497Y-63072197D01*
X145290466Y-62930528D01*
X145281252Y-62902170D01*
X145281249Y-62902164D01*
X145191859Y-62747335D01*
X145145003Y-62695296D01*
X145072235Y-62614478D01*
X145072226Y-62614471D01*
X144951614Y-62526839D01*
X144908948Y-62471509D01*
X144900500Y-62426522D01*
X144900500Y-61864782D01*
X144920185Y-61797743D01*
X144972989Y-61751988D01*
X145042147Y-61742044D01*
X145105703Y-61771069D01*
X145112166Y-61777087D01*
X147578419Y-64243340D01*
X147696593Y-64339698D01*
X147876951Y-64433909D01*
X148072582Y-64489886D01*
X148261117Y-64504243D01*
X148275475Y-64505337D01*
X148275476Y-64505337D01*
X148477321Y-64479631D01*
X148477321Y-64479630D01*
X148477328Y-64479630D01*
X148669872Y-64413816D01*
X148845227Y-64310590D01*
X148996213Y-64174179D01*
X149116649Y-64010167D01*
X149201605Y-63825268D01*
X149201898Y-63824008D01*
X149247602Y-63627053D01*
X149248342Y-63597829D01*
X149252756Y-63423637D01*
X149216858Y-63223347D01*
X149141377Y-63034383D01*
X149141372Y-63034376D01*
X149141370Y-63034371D01*
X149029403Y-62864482D01*
X149029400Y-62864478D01*
X146516924Y-60352004D01*
X146486292Y-60301444D01*
X146424162Y-60103420D01*
X146424160Y-60103416D01*
X146424159Y-60103412D01*
X146325409Y-59925498D01*
X146325408Y-59925497D01*
X146325407Y-59925495D01*
X146192867Y-59771106D01*
X146192865Y-59771104D01*
X146115613Y-59711306D01*
X146074649Y-59654705D01*
X146070789Y-59584942D01*
X146105258Y-59524166D01*
X146167113Y-59491675D01*
X146191514Y-59489250D01*
X151746839Y-59489250D01*
X151813878Y-59508935D01*
X151819726Y-59512932D01*
X151911157Y-59579362D01*
X152074483Y-59652079D01*
X152249359Y-59689250D01*
X152249360Y-59689250D01*
X152428139Y-59689250D01*
X152428141Y-59689250D01*
X152603017Y-59652079D01*
X152766343Y-59579362D01*
X152910980Y-59474276D01*
X153030609Y-59341415D01*
X153120000Y-59186585D01*
X153120870Y-59183909D01*
X153140489Y-59123527D01*
X153175247Y-59016553D01*
X153193935Y-58838750D01*
X153175247Y-58660947D01*
X153134915Y-58536819D01*
X153120002Y-58490920D01*
X153119999Y-58490914D01*
X153030609Y-58336085D01*
X152983753Y-58284046D01*
X152910985Y-58203228D01*
X152910982Y-58203226D01*
X152910981Y-58203225D01*
X152910980Y-58203224D01*
X152766343Y-58098138D01*
X152603017Y-58025421D01*
X152603015Y-58025420D01*
X152475344Y-57998283D01*
X152428141Y-57988250D01*
X152249359Y-57988250D01*
X152218704Y-57994765D01*
X152074483Y-58025420D01*
X152074478Y-58025422D01*
X151911158Y-58098138D01*
X151911153Y-58098140D01*
X151819724Y-58164568D01*
X151753918Y-58188048D01*
X151746839Y-58188250D01*
X145829711Y-58188250D01*
X145762672Y-58168565D01*
X145716917Y-58115761D01*
X145706973Y-58046603D01*
X145710495Y-58030138D01*
X145722480Y-57988250D01*
X145739887Y-57927418D01*
X145755337Y-57724523D01*
X145729630Y-57522672D01*
X145663816Y-57330128D01*
X145663815Y-57330126D01*
X145560592Y-57154774D01*
X145560590Y-57154772D01*
X145424180Y-57003787D01*
X145424178Y-57003786D01*
X145260172Y-56883354D01*
X145260160Y-56883346D01*
X145075275Y-56798397D01*
X145075264Y-56798393D01*
X144877054Y-56752396D01*
X144673641Y-56747242D01*
X144473351Y-56783140D01*
X144473344Y-56783142D01*
X144337482Y-56837412D01*
X144284383Y-56858622D01*
X144284379Y-56858624D01*
X144284376Y-56858626D01*
X144114481Y-56970597D01*
X144114480Y-56970598D01*
X143871899Y-57213181D01*
X143810576Y-57246666D01*
X143784218Y-57249500D01*
X142215783Y-57249500D01*
X142148744Y-57229815D01*
X142128102Y-57213181D01*
X141717011Y-56802091D01*
X141715914Y-56800966D01*
X141655061Y-56736949D01*
X141655060Y-56736948D01*
X141655059Y-56736947D01*
X141627204Y-56717559D01*
X141604709Y-56701902D01*
X141600946Y-56699064D01*
X141553413Y-56660305D01*
X141553406Y-56660300D01*
X141522959Y-56644397D01*
X141516251Y-56640334D01*
X141488049Y-56620705D01*
X141488046Y-56620703D01*
X141488045Y-56620703D01*
X141488041Y-56620701D01*
X141431680Y-56596514D01*
X141427424Y-56594493D01*
X141373057Y-56566094D01*
X141373050Y-56566091D01*
X141373049Y-56566091D01*
X141367008Y-56564362D01*
X141340030Y-56556642D01*
X141332630Y-56554008D01*
X141301057Y-56540459D01*
X141301058Y-56540459D01*
X141240966Y-56528109D01*
X141236391Y-56526986D01*
X141177420Y-56510113D01*
X141177425Y-56510113D01*
X141143158Y-56507503D01*
X141135380Y-56506412D01*
X141101742Y-56499500D01*
X141101741Y-56499500D01*
X141040402Y-56499500D01*
X141035695Y-56499321D01*
X141030121Y-56498896D01*
X140974524Y-56494662D01*
X140954589Y-56497201D01*
X140940440Y-56499003D01*
X140932611Y-56499500D01*
X139263493Y-56499500D01*
X139261930Y-56499480D01*
X139173637Y-56497243D01*
X139173628Y-56497243D01*
X139122476Y-56506412D01*
X139113254Y-56508064D01*
X139108595Y-56508718D01*
X139047564Y-56514925D01*
X139047562Y-56514926D01*
X139014780Y-56525210D01*
X139007156Y-56527081D01*
X139004057Y-56527637D01*
X138973349Y-56533141D01*
X138973341Y-56533143D01*
X138916382Y-56555895D01*
X138911946Y-56557474D01*
X138853415Y-56575840D01*
X138853412Y-56575841D01*
X138853410Y-56575842D01*
X138853403Y-56575845D01*
X138823384Y-56592507D01*
X138816290Y-56595876D01*
X138784390Y-56608619D01*
X138784388Y-56608619D01*
X138784383Y-56608622D01*
X138784376Y-56608626D01*
X138784377Y-56608626D01*
X138733154Y-56642383D01*
X138729126Y-56644824D01*
X138675502Y-56674588D01*
X138675499Y-56674590D01*
X138649427Y-56696970D01*
X138643160Y-56701695D01*
X138614482Y-56720598D01*
X138614475Y-56720603D01*
X138571116Y-56763962D01*
X138567661Y-56767164D01*
X138521106Y-56807132D01*
X138521105Y-56807133D01*
X138500076Y-56834300D01*
X138494884Y-56840194D01*
X133871899Y-61463181D01*
X133810576Y-61496666D01*
X133784218Y-61499500D01*
X131763452Y-61499500D01*
X131761889Y-61499480D01*
X131673636Y-61497244D01*
X131673635Y-61497244D01*
X131673626Y-61497244D01*
X131613263Y-61508064D01*
X131608597Y-61508718D01*
X131547564Y-61514925D01*
X131514780Y-61525210D01*
X131507153Y-61527082D01*
X131473349Y-61533141D01*
X131416381Y-61555895D01*
X131411945Y-61557474D01*
X131353414Y-61575840D01*
X131353410Y-61575842D01*
X131323378Y-61592510D01*
X131316284Y-61595879D01*
X131284382Y-61608623D01*
X131284377Y-61608625D01*
X131233156Y-61642381D01*
X131229128Y-61644822D01*
X131175501Y-61674588D01*
X131149434Y-61696965D01*
X131143165Y-61701692D01*
X131114484Y-61720595D01*
X131114478Y-61720600D01*
X131071109Y-61763968D01*
X131067655Y-61767169D01*
X131021102Y-61807136D01*
X131000076Y-61834298D01*
X130994885Y-61840192D01*
X128989590Y-63845488D01*
X128988466Y-63846584D01*
X128924446Y-63907442D01*
X128889399Y-63957794D01*
X128886562Y-63961556D01*
X128847802Y-64009092D01*
X128847799Y-64009097D01*
X128831892Y-64039547D01*
X128827824Y-64046261D01*
X128808202Y-64074454D01*
X128784009Y-64130830D01*
X128781988Y-64135084D01*
X128753591Y-64189451D01*
X128753590Y-64189452D01*
X128744140Y-64222475D01*
X128741507Y-64229871D01*
X128727959Y-64261443D01*
X128715613Y-64321519D01*
X128714490Y-64326095D01*
X128697613Y-64385077D01*
X128697613Y-64385079D01*
X128695003Y-64419341D01*
X128693914Y-64427110D01*
X128693308Y-64430063D01*
X128686999Y-64460758D01*
X128686999Y-64522099D01*
X128686820Y-64526807D01*
X128682162Y-64587974D01*
X128683766Y-64600561D01*
X128686503Y-64622060D01*
X128687000Y-64629888D01*
X128687000Y-65471717D01*
X128667315Y-65538756D01*
X128650681Y-65559398D01*
X125381898Y-68828181D01*
X125320575Y-68861666D01*
X125294217Y-68864500D01*
X115260758Y-68864500D01*
X115193719Y-68844815D01*
X115173077Y-68828181D01*
X115171402Y-68826506D01*
X115171396Y-68826501D01*
X114985842Y-68696575D01*
X114942217Y-68641998D01*
X114935023Y-68572500D01*
X114966546Y-68510145D01*
X114985842Y-68493425D01*
X115008026Y-68477891D01*
X115171401Y-68363495D01*
X115338495Y-68196401D01*
X115474035Y-68002830D01*
X115573903Y-67788663D01*
X115635063Y-67560408D01*
X115655659Y-67325000D01*
X115635063Y-67089592D01*
X115573903Y-66861337D01*
X115474035Y-66647171D01*
X115435797Y-66592560D01*
X115338494Y-66453597D01*
X115171402Y-66286506D01*
X115171395Y-66286501D01*
X115140384Y-66264787D01*
X115081202Y-66223347D01*
X114977834Y-66150967D01*
X114977830Y-66150965D01*
X114900527Y-66114918D01*
X114763663Y-66051097D01*
X114763659Y-66051096D01*
X114763655Y-66051094D01*
X114535413Y-65989938D01*
X114535403Y-65989936D01*
X114300001Y-65969341D01*
X114299999Y-65969341D01*
X114064596Y-65989936D01*
X114064586Y-65989938D01*
X113836344Y-66051094D01*
X113836335Y-66051098D01*
X113622171Y-66150964D01*
X113622169Y-66150965D01*
X113428597Y-66286505D01*
X113261505Y-66453597D01*
X113125965Y-66647169D01*
X113125964Y-66647171D01*
X113026098Y-66861335D01*
X113026094Y-66861344D01*
X112964938Y-67089586D01*
X112964936Y-67089596D01*
X112944341Y-67324999D01*
X112944341Y-67325000D01*
X112964936Y-67560403D01*
X112964938Y-67560413D01*
X113026094Y-67788655D01*
X113026096Y-67788659D01*
X113026097Y-67788663D01*
X113118970Y-67987830D01*
X113125965Y-68002830D01*
X113125967Y-68002834D01*
X113261501Y-68196395D01*
X113261506Y-68196402D01*
X113428597Y-68363493D01*
X113428603Y-68363498D01*
X113614158Y-68493425D01*
X113657783Y-68548002D01*
X113664977Y-68617500D01*
X113633454Y-68679855D01*
X113614158Y-68696575D01*
X113428597Y-68826505D01*
X113261505Y-68993597D01*
X113125965Y-69187169D01*
X113125964Y-69187171D01*
X113026098Y-69401335D01*
X113026094Y-69401344D01*
X112964938Y-69629586D01*
X112964936Y-69629596D01*
X112944341Y-69864999D01*
X112944341Y-69865000D01*
X112964936Y-70100403D01*
X112964938Y-70100413D01*
X113026094Y-70328655D01*
X113026096Y-70328659D01*
X113026097Y-70328663D01*
X113076462Y-70436670D01*
X113125965Y-70542830D01*
X113125967Y-70542834D01*
X113176131Y-70614475D01*
X113261505Y-70736401D01*
X113428599Y-70903495D01*
X113525384Y-70971265D01*
X113622165Y-71039032D01*
X113622167Y-71039033D01*
X113622170Y-71039035D01*
X113836337Y-71138903D01*
X114064592Y-71200063D01*
X114252918Y-71216539D01*
X114299999Y-71220659D01*
X114300000Y-71220659D01*
X114300001Y-71220659D01*
X114339234Y-71217226D01*
X114535408Y-71200063D01*
X114763663Y-71138903D01*
X114977830Y-71039035D01*
X115171401Y-70903495D01*
X115173077Y-70901819D01*
X115173995Y-70901317D01*
X115175544Y-70900018D01*
X115175805Y-70900329D01*
X115234400Y-70868334D01*
X115260758Y-70865500D01*
X124875500Y-70865500D01*
X124942539Y-70885185D01*
X124988294Y-70937989D01*
X124999500Y-70989500D01*
X124999500Y-76223070D01*
X124999420Y-76226210D01*
X124995631Y-76300935D01*
X124995631Y-76300936D01*
X125006957Y-76374877D01*
X125007354Y-76377991D01*
X125014925Y-76452437D01*
X125014926Y-76452440D01*
X125019749Y-76467814D01*
X125024003Y-76486147D01*
X125026442Y-76502064D01*
X125026443Y-76502068D01*
X125052427Y-76572232D01*
X125053441Y-76575198D01*
X125075841Y-76646588D01*
X125075842Y-76646589D01*
X125075843Y-76646592D01*
X125083657Y-76660670D01*
X125091517Y-76677777D01*
X125097111Y-76692881D01*
X125097114Y-76692887D01*
X125136694Y-76756390D01*
X125138288Y-76759096D01*
X125154230Y-76787819D01*
X125174592Y-76824503D01*
X125174593Y-76824504D01*
X125185078Y-76836718D01*
X125196222Y-76851894D01*
X125204745Y-76865567D01*
X125204745Y-76865568D01*
X125204748Y-76865571D01*
X125256315Y-76919819D01*
X125258392Y-76922118D01*
X125275977Y-76942602D01*
X125307132Y-76978894D01*
X125307133Y-76978895D01*
X125319869Y-76988753D01*
X125333842Y-77001377D01*
X125340595Y-77008481D01*
X125344940Y-77013052D01*
X125406340Y-77055789D01*
X125408873Y-77057648D01*
X125426259Y-77071105D01*
X125468042Y-77103448D01*
X125482515Y-77110547D01*
X125498726Y-77120090D01*
X125511951Y-77129295D01*
X125542897Y-77142575D01*
X125580696Y-77158796D01*
X125583547Y-77160105D01*
X125599993Y-77168173D01*
X125650724Y-77193058D01*
X125650726Y-77193058D01*
X125650729Y-77193060D01*
X125666316Y-77197095D01*
X125684128Y-77203182D01*
X125698942Y-77209540D01*
X125772265Y-77224607D01*
X125775260Y-77225302D01*
X125847711Y-77244062D01*
X125847715Y-77244063D01*
X125863807Y-77244879D01*
X125882480Y-77247257D01*
X125889320Y-77248663D01*
X125898258Y-77250500D01*
X125898259Y-77250500D01*
X125973071Y-77250500D01*
X125976211Y-77250580D01*
X126002842Y-77251930D01*
X126050936Y-77254369D01*
X126066856Y-77251930D01*
X126085633Y-77250500D01*
X128534217Y-77250500D01*
X128601256Y-77270185D01*
X128621898Y-77286819D01*
X129463181Y-78128102D01*
X129496666Y-78189425D01*
X129499500Y-78215783D01*
X129499500Y-79034216D01*
X129479815Y-79101255D01*
X129463181Y-79121897D01*
X128371899Y-80213181D01*
X128310576Y-80246666D01*
X128284218Y-80249500D01*
X120708493Y-80249500D01*
X120706930Y-80249480D01*
X120618637Y-80247243D01*
X120618628Y-80247243D01*
X120565636Y-80256741D01*
X120558254Y-80258064D01*
X120553595Y-80258718D01*
X120492564Y-80264925D01*
X120492562Y-80264926D01*
X120459780Y-80275210D01*
X120452156Y-80277081D01*
X120444308Y-80278488D01*
X120418349Y-80283141D01*
X120418341Y-80283143D01*
X120361382Y-80305895D01*
X120356946Y-80307474D01*
X120298415Y-80325840D01*
X120298412Y-80325841D01*
X120298410Y-80325842D01*
X120298403Y-80325845D01*
X120268384Y-80342507D01*
X120261290Y-80345876D01*
X120229390Y-80358619D01*
X120229388Y-80358619D01*
X120229383Y-80358622D01*
X120229376Y-80358626D01*
X120229377Y-80358626D01*
X120178154Y-80392383D01*
X120174126Y-80394824D01*
X120120502Y-80424588D01*
X120120499Y-80424590D01*
X120094427Y-80446970D01*
X120088160Y-80451695D01*
X120059482Y-80470598D01*
X120059475Y-80470603D01*
X120016116Y-80513962D01*
X120012661Y-80517164D01*
X119966106Y-80557132D01*
X119966105Y-80557133D01*
X119945076Y-80584300D01*
X119939884Y-80590194D01*
X115792304Y-84737774D01*
X115730981Y-84771259D01*
X115661289Y-84766275D01*
X115605356Y-84724403D01*
X115584848Y-84682185D01*
X115573906Y-84641346D01*
X115573904Y-84641342D01*
X115573903Y-84641337D01*
X115474035Y-84427171D01*
X115444872Y-84385521D01*
X115338494Y-84233597D01*
X115171402Y-84066506D01*
X115171395Y-84066501D01*
X114977834Y-83930967D01*
X114977830Y-83930965D01*
X114879393Y-83885063D01*
X114763663Y-83831097D01*
X114763659Y-83831096D01*
X114763655Y-83831094D01*
X114535413Y-83769938D01*
X114535403Y-83769936D01*
X114300001Y-83749341D01*
X114299999Y-83749341D01*
X114064596Y-83769936D01*
X114064586Y-83769938D01*
X113836344Y-83831094D01*
X113836335Y-83831098D01*
X113622171Y-83930964D01*
X113622169Y-83930965D01*
X113428597Y-84066505D01*
X113261505Y-84233597D01*
X113125965Y-84427169D01*
X113125964Y-84427171D01*
X113026098Y-84641335D01*
X113026094Y-84641344D01*
X112964938Y-84869586D01*
X112964936Y-84869596D01*
X112944341Y-85104999D01*
X112944341Y-85105000D01*
X112964936Y-85340403D01*
X112964938Y-85340413D01*
X113026094Y-85568655D01*
X113026096Y-85568659D01*
X113026097Y-85568663D01*
X113071596Y-85666236D01*
X113125965Y-85782830D01*
X113125967Y-85782834D01*
X113261501Y-85976395D01*
X113261506Y-85976402D01*
X113428597Y-86143493D01*
X113428603Y-86143498D01*
X113614158Y-86273425D01*
X113657783Y-86328002D01*
X113664977Y-86397500D01*
X113633454Y-86459855D01*
X113614158Y-86476575D01*
X113428597Y-86606505D01*
X113261505Y-86773597D01*
X113125965Y-86967169D01*
X113125964Y-86967171D01*
X113026098Y-87181335D01*
X113026094Y-87181344D01*
X112964938Y-87409586D01*
X112964936Y-87409596D01*
X112944341Y-87644999D01*
X112944341Y-87645000D01*
X107950500Y-87645000D01*
X107950500Y-50801151D01*
X107950521Y-50800001D01*
X126264390Y-50800001D01*
X126284804Y-51085433D01*
X126345628Y-51365037D01*
X126345630Y-51365043D01*
X126345631Y-51365046D01*
X126387699Y-51477834D01*
X126445635Y-51633166D01*
X126582770Y-51884309D01*
X126582775Y-51884317D01*
X126754254Y-52113387D01*
X126754270Y-52113405D01*
X126956594Y-52315729D01*
X126956612Y-52315745D01*
X127185682Y-52487224D01*
X127185690Y-52487229D01*
X127436833Y-52624364D01*
X127436832Y-52624364D01*
X127436836Y-52624365D01*
X127436839Y-52624367D01*
X127704954Y-52724369D01*
X127704960Y-52724370D01*
X127704962Y-52724371D01*
X127984566Y-52785195D01*
X127984568Y-52785195D01*
X127984572Y-52785196D01*
X128238220Y-52803337D01*
X128269999Y-52805610D01*
X128270000Y-52805610D01*
X128270001Y-52805610D01*
X128298595Y-52803564D01*
X128555428Y-52785196D01*
X128835046Y-52724369D01*
X129103161Y-52624367D01*
X129354315Y-52487226D01*
X129583395Y-52315739D01*
X129785739Y-52113395D01*
X129957226Y-51884315D01*
X130094367Y-51633161D01*
X130194369Y-51365046D01*
X130216423Y-51263664D01*
X130255195Y-51085433D01*
X130255195Y-51085432D01*
X130255196Y-51085428D01*
X130275610Y-50800000D01*
X139619341Y-50800000D01*
X139639936Y-51035403D01*
X139639938Y-51035413D01*
X139701094Y-51263655D01*
X139701096Y-51263659D01*
X139701097Y-51263663D01*
X139705000Y-51272032D01*
X139800965Y-51477830D01*
X139800967Y-51477834D01*
X139909281Y-51632521D01*
X139936505Y-51671401D01*
X140103599Y-51838495D01*
X140169028Y-51884309D01*
X140297165Y-51974032D01*
X140297167Y-51974033D01*
X140297170Y-51974035D01*
X140511337Y-52073903D01*
X140739592Y-52135063D01*
X140927918Y-52151539D01*
X140974999Y-52155659D01*
X140975000Y-52155659D01*
X140975001Y-52155659D01*
X141014234Y-52152226D01*
X141210408Y-52135063D01*
X141438663Y-52073903D01*
X141652830Y-51974035D01*
X141846401Y-51838495D01*
X142013495Y-51671401D01*
X142143424Y-51485842D01*
X142198002Y-51442217D01*
X142267500Y-51435023D01*
X142329855Y-51466546D01*
X142346575Y-51485842D01*
X142476500Y-51671395D01*
X142476505Y-51671401D01*
X142643599Y-51838495D01*
X142709028Y-51884309D01*
X142837165Y-51974032D01*
X142837167Y-51974033D01*
X142837170Y-51974035D01*
X143051337Y-52073903D01*
X143279592Y-52135063D01*
X143467918Y-52151539D01*
X143514999Y-52155659D01*
X143515000Y-52155659D01*
X143515001Y-52155659D01*
X143554234Y-52152226D01*
X143750408Y-52135063D01*
X143978663Y-52073903D01*
X144192830Y-51974035D01*
X144386401Y-51838495D01*
X144553495Y-51671401D01*
X144683424Y-51485842D01*
X144738002Y-51442217D01*
X144807500Y-51435023D01*
X144869855Y-51466546D01*
X144886575Y-51485842D01*
X145016500Y-51671395D01*
X145016505Y-51671401D01*
X145183599Y-51838495D01*
X145249028Y-51884309D01*
X145377165Y-51974032D01*
X145377167Y-51974033D01*
X145377170Y-51974035D01*
X145591337Y-52073903D01*
X145819592Y-52135063D01*
X146007918Y-52151539D01*
X146054999Y-52155659D01*
X146055000Y-52155659D01*
X146055001Y-52155659D01*
X146094234Y-52152226D01*
X146290408Y-52135063D01*
X146518663Y-52073903D01*
X146732830Y-51974035D01*
X146926401Y-51838495D01*
X147093495Y-51671401D01*
X147223424Y-51485842D01*
X147278002Y-51442217D01*
X147347500Y-51435023D01*
X147409855Y-51466546D01*
X147426575Y-51485842D01*
X147556500Y-51671395D01*
X147556505Y-51671401D01*
X147723599Y-51838495D01*
X147789028Y-51884309D01*
X147917165Y-51974032D01*
X147917167Y-51974033D01*
X147917170Y-51974035D01*
X148131337Y-52073903D01*
X148359592Y-52135063D01*
X148547918Y-52151539D01*
X148594999Y-52155659D01*
X148595000Y-52155659D01*
X148595001Y-52155659D01*
X148634234Y-52152226D01*
X148830408Y-52135063D01*
X149058663Y-52073903D01*
X149272830Y-51974035D01*
X149466401Y-51838495D01*
X149633495Y-51671401D01*
X149769035Y-51477830D01*
X149868903Y-51263663D01*
X149930063Y-51035408D01*
X149950659Y-50800000D01*
X149930063Y-50564592D01*
X149868903Y-50336337D01*
X149769035Y-50122171D01*
X149763425Y-50114158D01*
X149633494Y-49928597D01*
X149466402Y-49761506D01*
X149466395Y-49761501D01*
X149272834Y-49625967D01*
X149272830Y-49625965D01*
X149188270Y-49586534D01*
X149058663Y-49526097D01*
X149058659Y-49526096D01*
X149058655Y-49526094D01*
X148830413Y-49464938D01*
X148830403Y-49464936D01*
X148595001Y-49444341D01*
X148594999Y-49444341D01*
X148359596Y-49464936D01*
X148359586Y-49464938D01*
X148131344Y-49526094D01*
X148131335Y-49526098D01*
X147917171Y-49625964D01*
X147917169Y-49625965D01*
X147723597Y-49761505D01*
X147556508Y-49928594D01*
X147426574Y-50114160D01*
X147371997Y-50157784D01*
X147302498Y-50164977D01*
X147240144Y-50133455D01*
X147223429Y-50114164D01*
X147093495Y-49928599D01*
X147093493Y-49928596D01*
X146926402Y-49761506D01*
X146926395Y-49761501D01*
X146732834Y-49625967D01*
X146732830Y-49625965D01*
X146648270Y-49586534D01*
X146518663Y-49526097D01*
X146518659Y-49526096D01*
X146518655Y-49526094D01*
X146290413Y-49464938D01*
X146290403Y-49464936D01*
X146055001Y-49444341D01*
X146054999Y-49444341D01*
X145819596Y-49464936D01*
X145819586Y-49464938D01*
X145591344Y-49526094D01*
X145591335Y-49526098D01*
X145377171Y-49625964D01*
X145377169Y-49625965D01*
X145183597Y-49761505D01*
X145016505Y-49928597D01*
X144886575Y-50114158D01*
X144831998Y-50157783D01*
X144762500Y-50164977D01*
X144700145Y-50133454D01*
X144683425Y-50114158D01*
X144553494Y-49928597D01*
X144386402Y-49761506D01*
X144386395Y-49761501D01*
X144192834Y-49625967D01*
X144192830Y-49625965D01*
X144108270Y-49586534D01*
X143978663Y-49526097D01*
X143978659Y-49526096D01*
X143978655Y-49526094D01*
X143750413Y-49464938D01*
X143750403Y-49464936D01*
X143515001Y-49444341D01*
X143514999Y-49444341D01*
X143279596Y-49464936D01*
X143279586Y-49464938D01*
X143051344Y-49526094D01*
X143051335Y-49526098D01*
X142837171Y-49625964D01*
X142837169Y-49625965D01*
X142643597Y-49761505D01*
X142476505Y-49928597D01*
X142346575Y-50114158D01*
X142291998Y-50157783D01*
X142222500Y-50164977D01*
X142160145Y-50133454D01*
X142143425Y-50114158D01*
X142013494Y-49928597D01*
X141846402Y-49761506D01*
X141846395Y-49761501D01*
X141652834Y-49625967D01*
X141652830Y-49625965D01*
X141568270Y-49586534D01*
X141438663Y-49526097D01*
X141438659Y-49526096D01*
X141438655Y-49526094D01*
X141210413Y-49464938D01*
X141210403Y-49464936D01*
X140975001Y-49444341D01*
X140974999Y-49444341D01*
X140739596Y-49464936D01*
X140739586Y-49464938D01*
X140511344Y-49526094D01*
X140511335Y-49526098D01*
X140297171Y-49625964D01*
X140297169Y-49625965D01*
X140103597Y-49761505D01*
X139936505Y-49928597D01*
X139800965Y-50122169D01*
X139800964Y-50122171D01*
X139701098Y-50336335D01*
X139701094Y-50336344D01*
X139639938Y-50564586D01*
X139639936Y-50564596D01*
X139619341Y-50799999D01*
X139619341Y-50800000D01*
X130275610Y-50800000D01*
X130275526Y-50798832D01*
X130271519Y-50742808D01*
X130255196Y-50514572D01*
X130216423Y-50336337D01*
X130194371Y-50234962D01*
X130194370Y-50234960D01*
X130194369Y-50234954D01*
X130094367Y-49966839D01*
X130073486Y-49928599D01*
X129957229Y-49715690D01*
X129957224Y-49715682D01*
X129785745Y-49486612D01*
X129785729Y-49486594D01*
X129583405Y-49284270D01*
X129583387Y-49284254D01*
X129354317Y-49112775D01*
X129354309Y-49112770D01*
X129103166Y-48975635D01*
X129103167Y-48975635D01*
X128878222Y-48891735D01*
X128835046Y-48875631D01*
X128835043Y-48875630D01*
X128835037Y-48875628D01*
X128555433Y-48814804D01*
X128270001Y-48794390D01*
X128269999Y-48794390D01*
X127984566Y-48814804D01*
X127704962Y-48875628D01*
X127436833Y-48975635D01*
X127185690Y-49112770D01*
X127185682Y-49112775D01*
X126956612Y-49284254D01*
X126956594Y-49284270D01*
X126754270Y-49486594D01*
X126754254Y-49486612D01*
X126582775Y-49715682D01*
X126582770Y-49715690D01*
X126445635Y-49966833D01*
X126345628Y-50234962D01*
X126284804Y-50514566D01*
X126264390Y-50799998D01*
X126264390Y-50800001D01*
X107950521Y-50800001D01*
X107950542Y-50798869D01*
X107960494Y-50532881D01*
X107968764Y-50322414D01*
X107969102Y-50317972D01*
X107997725Y-50063937D01*
X108024361Y-49838891D01*
X108025004Y-49834705D01*
X108071966Y-49586503D01*
X108116822Y-49360999D01*
X108117718Y-49357159D01*
X108182778Y-49114353D01*
X108245575Y-48891692D01*
X108246707Y-48888106D01*
X108329524Y-48651429D01*
X108409882Y-48433612D01*
X108411190Y-48430361D01*
X108511104Y-48201355D01*
X108511547Y-48200369D01*
X108608766Y-47989485D01*
X108610191Y-47986601D01*
X108726829Y-47765913D01*
X108727432Y-47764804D01*
X108841042Y-47561937D01*
X108842565Y-47559372D01*
X108975260Y-47348189D01*
X108976109Y-47346878D01*
X109105345Y-47153463D01*
X109106950Y-47151179D01*
X109254984Y-46950600D01*
X109256063Y-46949186D01*
X109400160Y-46766399D01*
X109401728Y-46764496D01*
X109564317Y-46575564D01*
X109565670Y-46574047D01*
X109723696Y-46403096D01*
X109725273Y-46401456D01*
X109901456Y-46225273D01*
X109903096Y-46223696D01*
X110074047Y-46065670D01*
X110075564Y-46064317D01*
X110264496Y-45901728D01*
X110266399Y-45900160D01*
X110449186Y-45756063D01*
X110450600Y-45754984D01*
X110651179Y-45606950D01*
X110653463Y-45605345D01*
X110846878Y-45476109D01*
X110848189Y-45475260D01*
X111059372Y-45342565D01*
X111061937Y-45341042D01*
X111264804Y-45227432D01*
X111265913Y-45226829D01*
X111486601Y-45110191D01*
X111489485Y-45108766D01*
X111700369Y-45011547D01*
X111701355Y-45011104D01*
X111930361Y-44911190D01*
X111933612Y-44909882D01*
X112151429Y-44829524D01*
X112388106Y-44746707D01*
X112391692Y-44745575D01*
X112614378Y-44682771D01*
X112857159Y-44617718D01*
X112860999Y-44616822D01*
X113086503Y-44571966D01*
X113334705Y-44525004D01*
X113338891Y-44524361D01*
X113563937Y-44497725D01*
X113817972Y-44469102D01*
X113822412Y-44468764D01*
X114033056Y-44460488D01*
X114298867Y-44450542D01*
X114301152Y-44450500D01*
X158748848Y-44450500D01*
X158751132Y-44450542D01*
G37*
%TD.AperFunction*%
%TD*%
M02*
