%TF.GenerationSoftware,KiCad,Pcbnew,7.0.5*%
%TF.CreationDate,2023-09-16T15:28:57-07:00*%
%TF.ProjectId,PCF8574DIOI2C,50434638-3537-4344-9449-4f4932432e6b,rev?*%
%TF.SameCoordinates,Original*%
%TF.FileFunction,Legend,Top*%
%TF.FilePolarity,Positive*%
%FSLAX46Y46*%
G04 Gerber Fmt 4.6, Leading zero omitted, Abs format (unit mm)*
G04 Created by KiCad (PCBNEW 7.0.5) date 2023-09-16 15:28:57*
%MOMM*%
%LPD*%
G01*
G04 APERTURE LIST*
%ADD10C,0.150000*%
%ADD11C,0.120000*%
G04 APERTURE END LIST*
D10*
X109860588Y-63917438D02*
X109765350Y-63869819D01*
X109765350Y-63869819D02*
X109622493Y-63869819D01*
X109622493Y-63869819D02*
X109479636Y-63917438D01*
X109479636Y-63917438D02*
X109384398Y-64012676D01*
X109384398Y-64012676D02*
X109336779Y-64107914D01*
X109336779Y-64107914D02*
X109289160Y-64298390D01*
X109289160Y-64298390D02*
X109289160Y-64441247D01*
X109289160Y-64441247D02*
X109336779Y-64631723D01*
X109336779Y-64631723D02*
X109384398Y-64726961D01*
X109384398Y-64726961D02*
X109479636Y-64822200D01*
X109479636Y-64822200D02*
X109622493Y-64869819D01*
X109622493Y-64869819D02*
X109717731Y-64869819D01*
X109717731Y-64869819D02*
X109860588Y-64822200D01*
X109860588Y-64822200D02*
X109908207Y-64774580D01*
X109908207Y-64774580D02*
X109908207Y-64441247D01*
X109908207Y-64441247D02*
X109717731Y-64441247D01*
X110336779Y-64869819D02*
X110336779Y-63869819D01*
X110336779Y-63869819D02*
X110908207Y-64869819D01*
X110908207Y-64869819D02*
X110908207Y-63869819D01*
X111384398Y-64869819D02*
X111384398Y-63869819D01*
X111384398Y-63869819D02*
X111622493Y-63869819D01*
X111622493Y-63869819D02*
X111765350Y-63917438D01*
X111765350Y-63917438D02*
X111860588Y-64012676D01*
X111860588Y-64012676D02*
X111908207Y-64107914D01*
X111908207Y-64107914D02*
X111955826Y-64298390D01*
X111955826Y-64298390D02*
X111955826Y-64441247D01*
X111955826Y-64441247D02*
X111908207Y-64631723D01*
X111908207Y-64631723D02*
X111860588Y-64726961D01*
X111860588Y-64726961D02*
X111765350Y-64822200D01*
X111765350Y-64822200D02*
X111622493Y-64869819D01*
X111622493Y-64869819D02*
X111384398Y-64869819D01*
X160836779Y-96488866D02*
X161598684Y-96488866D01*
X161217731Y-96869819D02*
X161217731Y-96107914D01*
X162551064Y-95869819D02*
X162074874Y-95869819D01*
X162074874Y-95869819D02*
X162027255Y-96346009D01*
X162027255Y-96346009D02*
X162074874Y-96298390D01*
X162074874Y-96298390D02*
X162170112Y-96250771D01*
X162170112Y-96250771D02*
X162408207Y-96250771D01*
X162408207Y-96250771D02*
X162503445Y-96298390D01*
X162503445Y-96298390D02*
X162551064Y-96346009D01*
X162551064Y-96346009D02*
X162598683Y-96441247D01*
X162598683Y-96441247D02*
X162598683Y-96679342D01*
X162598683Y-96679342D02*
X162551064Y-96774580D01*
X162551064Y-96774580D02*
X162503445Y-96822200D01*
X162503445Y-96822200D02*
X162408207Y-96869819D01*
X162408207Y-96869819D02*
X162170112Y-96869819D01*
X162170112Y-96869819D02*
X162074874Y-96822200D01*
X162074874Y-96822200D02*
X162027255Y-96774580D01*
X162884398Y-95869819D02*
X163217731Y-96869819D01*
X163217731Y-96869819D02*
X163551064Y-95869819D01*
X118917438Y-53139411D02*
X118869819Y-53234649D01*
X118869819Y-53234649D02*
X118869819Y-53377506D01*
X118869819Y-53377506D02*
X118917438Y-53520363D01*
X118917438Y-53520363D02*
X119012676Y-53615601D01*
X119012676Y-53615601D02*
X119107914Y-53663220D01*
X119107914Y-53663220D02*
X119298390Y-53710839D01*
X119298390Y-53710839D02*
X119441247Y-53710839D01*
X119441247Y-53710839D02*
X119631723Y-53663220D01*
X119631723Y-53663220D02*
X119726961Y-53615601D01*
X119726961Y-53615601D02*
X119822200Y-53520363D01*
X119822200Y-53520363D02*
X119869819Y-53377506D01*
X119869819Y-53377506D02*
X119869819Y-53282268D01*
X119869819Y-53282268D02*
X119822200Y-53139411D01*
X119822200Y-53139411D02*
X119774580Y-53091792D01*
X119774580Y-53091792D02*
X119441247Y-53091792D01*
X119441247Y-53091792D02*
X119441247Y-53282268D01*
X119869819Y-52663220D02*
X118869819Y-52663220D01*
X118869819Y-52663220D02*
X119869819Y-52091792D01*
X119869819Y-52091792D02*
X118869819Y-52091792D01*
X119869819Y-51615601D02*
X118869819Y-51615601D01*
X118869819Y-51615601D02*
X118869819Y-51377506D01*
X118869819Y-51377506D02*
X118917438Y-51234649D01*
X118917438Y-51234649D02*
X119012676Y-51139411D01*
X119012676Y-51139411D02*
X119107914Y-51091792D01*
X119107914Y-51091792D02*
X119298390Y-51044173D01*
X119298390Y-51044173D02*
X119441247Y-51044173D01*
X119441247Y-51044173D02*
X119631723Y-51091792D01*
X119631723Y-51091792D02*
X119726961Y-51139411D01*
X119726961Y-51139411D02*
X119822200Y-51234649D01*
X119822200Y-51234649D02*
X119869819Y-51377506D01*
X119869819Y-51377506D02*
X119869819Y-51615601D01*
X160836779Y-62869819D02*
X160836779Y-61869819D01*
X160836779Y-61869819D02*
X161217731Y-61869819D01*
X161217731Y-61869819D02*
X161312969Y-61917438D01*
X161312969Y-61917438D02*
X161360588Y-61965057D01*
X161360588Y-61965057D02*
X161408207Y-62060295D01*
X161408207Y-62060295D02*
X161408207Y-62203152D01*
X161408207Y-62203152D02*
X161360588Y-62298390D01*
X161360588Y-62298390D02*
X161312969Y-62346009D01*
X161312969Y-62346009D02*
X161217731Y-62393628D01*
X161217731Y-62393628D02*
X160836779Y-62393628D01*
X162265350Y-62203152D02*
X162265350Y-62869819D01*
X162027255Y-61822200D02*
X161789160Y-62536485D01*
X161789160Y-62536485D02*
X162408207Y-62536485D01*
X149369819Y-48663220D02*
X148369819Y-48663220D01*
X149369819Y-48187030D02*
X148369819Y-48187030D01*
X148369819Y-48187030D02*
X149369819Y-47615602D01*
X149369819Y-47615602D02*
X148369819Y-47615602D01*
X148369819Y-47282268D02*
X148369819Y-46710840D01*
X149369819Y-46996554D02*
X148369819Y-46996554D01*
X160836779Y-104369819D02*
X160836779Y-103369819D01*
X160836779Y-103369819D02*
X161217731Y-103369819D01*
X161217731Y-103369819D02*
X161312969Y-103417438D01*
X161312969Y-103417438D02*
X161360588Y-103465057D01*
X161360588Y-103465057D02*
X161408207Y-103560295D01*
X161408207Y-103560295D02*
X161408207Y-103703152D01*
X161408207Y-103703152D02*
X161360588Y-103798390D01*
X161360588Y-103798390D02*
X161312969Y-103846009D01*
X161312969Y-103846009D02*
X161217731Y-103893628D01*
X161217731Y-103893628D02*
X160836779Y-103893628D01*
X161789160Y-103465057D02*
X161836779Y-103417438D01*
X161836779Y-103417438D02*
X161932017Y-103369819D01*
X161932017Y-103369819D02*
X162170112Y-103369819D01*
X162170112Y-103369819D02*
X162265350Y-103417438D01*
X162265350Y-103417438D02*
X162312969Y-103465057D01*
X162312969Y-103465057D02*
X162360588Y-103560295D01*
X162360588Y-103560295D02*
X162360588Y-103655533D01*
X162360588Y-103655533D02*
X162312969Y-103798390D01*
X162312969Y-103798390D02*
X161741541Y-104369819D01*
X161741541Y-104369819D02*
X162360588Y-104369819D01*
X146322200Y-48710839D02*
X146369819Y-48567982D01*
X146369819Y-48567982D02*
X146369819Y-48329887D01*
X146369819Y-48329887D02*
X146322200Y-48234649D01*
X146322200Y-48234649D02*
X146274580Y-48187030D01*
X146274580Y-48187030D02*
X146179342Y-48139411D01*
X146179342Y-48139411D02*
X146084104Y-48139411D01*
X146084104Y-48139411D02*
X145988866Y-48187030D01*
X145988866Y-48187030D02*
X145941247Y-48234649D01*
X145941247Y-48234649D02*
X145893628Y-48329887D01*
X145893628Y-48329887D02*
X145846009Y-48520363D01*
X145846009Y-48520363D02*
X145798390Y-48615601D01*
X145798390Y-48615601D02*
X145750771Y-48663220D01*
X145750771Y-48663220D02*
X145655533Y-48710839D01*
X145655533Y-48710839D02*
X145560295Y-48710839D01*
X145560295Y-48710839D02*
X145465057Y-48663220D01*
X145465057Y-48663220D02*
X145417438Y-48615601D01*
X145417438Y-48615601D02*
X145369819Y-48520363D01*
X145369819Y-48520363D02*
X145369819Y-48282268D01*
X145369819Y-48282268D02*
X145417438Y-48139411D01*
X146274580Y-47139411D02*
X146322200Y-47187030D01*
X146322200Y-47187030D02*
X146369819Y-47329887D01*
X146369819Y-47329887D02*
X146369819Y-47425125D01*
X146369819Y-47425125D02*
X146322200Y-47567982D01*
X146322200Y-47567982D02*
X146226961Y-47663220D01*
X146226961Y-47663220D02*
X146131723Y-47710839D01*
X146131723Y-47710839D02*
X145941247Y-47758458D01*
X145941247Y-47758458D02*
X145798390Y-47758458D01*
X145798390Y-47758458D02*
X145607914Y-47710839D01*
X145607914Y-47710839D02*
X145512676Y-47663220D01*
X145512676Y-47663220D02*
X145417438Y-47567982D01*
X145417438Y-47567982D02*
X145369819Y-47425125D01*
X145369819Y-47425125D02*
X145369819Y-47329887D01*
X145369819Y-47329887D02*
X145417438Y-47187030D01*
X145417438Y-47187030D02*
X145465057Y-47139411D01*
X146369819Y-46234649D02*
X146369819Y-46710839D01*
X146369819Y-46710839D02*
X145369819Y-46710839D01*
X123836779Y-117369819D02*
X123836779Y-116369819D01*
X123836779Y-116369819D02*
X124217731Y-116369819D01*
X124217731Y-116369819D02*
X124312969Y-116417438D01*
X124312969Y-116417438D02*
X124360588Y-116465057D01*
X124360588Y-116465057D02*
X124408207Y-116560295D01*
X124408207Y-116560295D02*
X124408207Y-116703152D01*
X124408207Y-116703152D02*
X124360588Y-116798390D01*
X124360588Y-116798390D02*
X124312969Y-116846009D01*
X124312969Y-116846009D02*
X124217731Y-116893628D01*
X124217731Y-116893628D02*
X123836779Y-116893628D01*
X125360588Y-117369819D02*
X124789160Y-117369819D01*
X125074874Y-117369819D02*
X125074874Y-116369819D01*
X125074874Y-116369819D02*
X124979636Y-116512676D01*
X124979636Y-116512676D02*
X124884398Y-116607914D01*
X124884398Y-116607914D02*
X124789160Y-116655533D01*
X160416779Y-80738866D02*
X161178684Y-80738866D01*
X160797731Y-81119819D02*
X160797731Y-80357914D01*
X162131064Y-80119819D02*
X161654874Y-80119819D01*
X161654874Y-80119819D02*
X161607255Y-80596009D01*
X161607255Y-80596009D02*
X161654874Y-80548390D01*
X161654874Y-80548390D02*
X161750112Y-80500771D01*
X161750112Y-80500771D02*
X161988207Y-80500771D01*
X161988207Y-80500771D02*
X162083445Y-80548390D01*
X162083445Y-80548390D02*
X162131064Y-80596009D01*
X162131064Y-80596009D02*
X162178683Y-80691247D01*
X162178683Y-80691247D02*
X162178683Y-80929342D01*
X162178683Y-80929342D02*
X162131064Y-81024580D01*
X162131064Y-81024580D02*
X162083445Y-81072200D01*
X162083445Y-81072200D02*
X161988207Y-81119819D01*
X161988207Y-81119819D02*
X161750112Y-81119819D01*
X161750112Y-81119819D02*
X161654874Y-81072200D01*
X161654874Y-81072200D02*
X161607255Y-81024580D01*
X162464398Y-80119819D02*
X162797731Y-81119819D01*
X162797731Y-81119819D02*
X163131064Y-80119819D01*
X140836779Y-117369819D02*
X140836779Y-116369819D01*
X140836779Y-116369819D02*
X141217731Y-116369819D01*
X141217731Y-116369819D02*
X141312969Y-116417438D01*
X141312969Y-116417438D02*
X141360588Y-116465057D01*
X141360588Y-116465057D02*
X141408207Y-116560295D01*
X141408207Y-116560295D02*
X141408207Y-116703152D01*
X141408207Y-116703152D02*
X141360588Y-116798390D01*
X141360588Y-116798390D02*
X141312969Y-116846009D01*
X141312969Y-116846009D02*
X141217731Y-116893628D01*
X141217731Y-116893628D02*
X140836779Y-116893628D01*
X141741541Y-116369819D02*
X142408207Y-116369819D01*
X142408207Y-116369819D02*
X141979636Y-117369819D01*
X143822200Y-48710839D02*
X143869819Y-48567982D01*
X143869819Y-48567982D02*
X143869819Y-48329887D01*
X143869819Y-48329887D02*
X143822200Y-48234649D01*
X143822200Y-48234649D02*
X143774580Y-48187030D01*
X143774580Y-48187030D02*
X143679342Y-48139411D01*
X143679342Y-48139411D02*
X143584104Y-48139411D01*
X143584104Y-48139411D02*
X143488866Y-48187030D01*
X143488866Y-48187030D02*
X143441247Y-48234649D01*
X143441247Y-48234649D02*
X143393628Y-48329887D01*
X143393628Y-48329887D02*
X143346009Y-48520363D01*
X143346009Y-48520363D02*
X143298390Y-48615601D01*
X143298390Y-48615601D02*
X143250771Y-48663220D01*
X143250771Y-48663220D02*
X143155533Y-48710839D01*
X143155533Y-48710839D02*
X143060295Y-48710839D01*
X143060295Y-48710839D02*
X142965057Y-48663220D01*
X142965057Y-48663220D02*
X142917438Y-48615601D01*
X142917438Y-48615601D02*
X142869819Y-48520363D01*
X142869819Y-48520363D02*
X142869819Y-48282268D01*
X142869819Y-48282268D02*
X142917438Y-48139411D01*
X143869819Y-47710839D02*
X142869819Y-47710839D01*
X142869819Y-47710839D02*
X142869819Y-47472744D01*
X142869819Y-47472744D02*
X142917438Y-47329887D01*
X142917438Y-47329887D02*
X143012676Y-47234649D01*
X143012676Y-47234649D02*
X143107914Y-47187030D01*
X143107914Y-47187030D02*
X143298390Y-47139411D01*
X143298390Y-47139411D02*
X143441247Y-47139411D01*
X143441247Y-47139411D02*
X143631723Y-47187030D01*
X143631723Y-47187030D02*
X143726961Y-47234649D01*
X143726961Y-47234649D02*
X143822200Y-47329887D01*
X143822200Y-47329887D02*
X143869819Y-47472744D01*
X143869819Y-47472744D02*
X143869819Y-47710839D01*
X143584104Y-46758458D02*
X143584104Y-46282268D01*
X143869819Y-46853696D02*
X142869819Y-46520363D01*
X142869819Y-46520363D02*
X143869819Y-46187030D01*
X161360588Y-69417438D02*
X161265350Y-69369819D01*
X161265350Y-69369819D02*
X161122493Y-69369819D01*
X161122493Y-69369819D02*
X160979636Y-69417438D01*
X160979636Y-69417438D02*
X160884398Y-69512676D01*
X160884398Y-69512676D02*
X160836779Y-69607914D01*
X160836779Y-69607914D02*
X160789160Y-69798390D01*
X160789160Y-69798390D02*
X160789160Y-69941247D01*
X160789160Y-69941247D02*
X160836779Y-70131723D01*
X160836779Y-70131723D02*
X160884398Y-70226961D01*
X160884398Y-70226961D02*
X160979636Y-70322200D01*
X160979636Y-70322200D02*
X161122493Y-70369819D01*
X161122493Y-70369819D02*
X161217731Y-70369819D01*
X161217731Y-70369819D02*
X161360588Y-70322200D01*
X161360588Y-70322200D02*
X161408207Y-70274580D01*
X161408207Y-70274580D02*
X161408207Y-69941247D01*
X161408207Y-69941247D02*
X161217731Y-69941247D01*
X161836779Y-70369819D02*
X161836779Y-69369819D01*
X161836779Y-69369819D02*
X162408207Y-70369819D01*
X162408207Y-70369819D02*
X162408207Y-69369819D01*
X162884398Y-70369819D02*
X162884398Y-69369819D01*
X162884398Y-69369819D02*
X163122493Y-69369819D01*
X163122493Y-69369819D02*
X163265350Y-69417438D01*
X163265350Y-69417438D02*
X163360588Y-69512676D01*
X163360588Y-69512676D02*
X163408207Y-69607914D01*
X163408207Y-69607914D02*
X163455826Y-69798390D01*
X163455826Y-69798390D02*
X163455826Y-69941247D01*
X163455826Y-69941247D02*
X163408207Y-70131723D01*
X163408207Y-70131723D02*
X163360588Y-70226961D01*
X163360588Y-70226961D02*
X163265350Y-70322200D01*
X163265350Y-70322200D02*
X163122493Y-70369819D01*
X163122493Y-70369819D02*
X162884398Y-70369819D01*
X161860588Y-100917438D02*
X161765350Y-100869819D01*
X161765350Y-100869819D02*
X161622493Y-100869819D01*
X161622493Y-100869819D02*
X161479636Y-100917438D01*
X161479636Y-100917438D02*
X161384398Y-101012676D01*
X161384398Y-101012676D02*
X161336779Y-101107914D01*
X161336779Y-101107914D02*
X161289160Y-101298390D01*
X161289160Y-101298390D02*
X161289160Y-101441247D01*
X161289160Y-101441247D02*
X161336779Y-101631723D01*
X161336779Y-101631723D02*
X161384398Y-101726961D01*
X161384398Y-101726961D02*
X161479636Y-101822200D01*
X161479636Y-101822200D02*
X161622493Y-101869819D01*
X161622493Y-101869819D02*
X161717731Y-101869819D01*
X161717731Y-101869819D02*
X161860588Y-101822200D01*
X161860588Y-101822200D02*
X161908207Y-101774580D01*
X161908207Y-101774580D02*
X161908207Y-101441247D01*
X161908207Y-101441247D02*
X161717731Y-101441247D01*
X162336779Y-101869819D02*
X162336779Y-100869819D01*
X162336779Y-100869819D02*
X162908207Y-101869819D01*
X162908207Y-101869819D02*
X162908207Y-100869819D01*
X163384398Y-101869819D02*
X163384398Y-100869819D01*
X163384398Y-100869819D02*
X163622493Y-100869819D01*
X163622493Y-100869819D02*
X163765350Y-100917438D01*
X163765350Y-100917438D02*
X163860588Y-101012676D01*
X163860588Y-101012676D02*
X163908207Y-101107914D01*
X163908207Y-101107914D02*
X163955826Y-101298390D01*
X163955826Y-101298390D02*
X163955826Y-101441247D01*
X163955826Y-101441247D02*
X163908207Y-101631723D01*
X163908207Y-101631723D02*
X163860588Y-101726961D01*
X163860588Y-101726961D02*
X163765350Y-101822200D01*
X163765350Y-101822200D02*
X163622493Y-101869819D01*
X163622493Y-101869819D02*
X163384398Y-101869819D01*
X160836779Y-82869819D02*
X160836779Y-81869819D01*
X160836779Y-81869819D02*
X161074874Y-81869819D01*
X161074874Y-81869819D02*
X161217731Y-81917438D01*
X161217731Y-81917438D02*
X161312969Y-82012676D01*
X161312969Y-82012676D02*
X161360588Y-82107914D01*
X161360588Y-82107914D02*
X161408207Y-82298390D01*
X161408207Y-82298390D02*
X161408207Y-82441247D01*
X161408207Y-82441247D02*
X161360588Y-82631723D01*
X161360588Y-82631723D02*
X161312969Y-82726961D01*
X161312969Y-82726961D02*
X161217731Y-82822200D01*
X161217731Y-82822200D02*
X161074874Y-82869819D01*
X161074874Y-82869819D02*
X160836779Y-82869819D01*
X161836779Y-82869819D02*
X161836779Y-81869819D01*
X162503445Y-81869819D02*
X162693921Y-81869819D01*
X162693921Y-81869819D02*
X162789159Y-81917438D01*
X162789159Y-81917438D02*
X162884397Y-82012676D01*
X162884397Y-82012676D02*
X162932016Y-82203152D01*
X162932016Y-82203152D02*
X162932016Y-82536485D01*
X162932016Y-82536485D02*
X162884397Y-82726961D01*
X162884397Y-82726961D02*
X162789159Y-82822200D01*
X162789159Y-82822200D02*
X162693921Y-82869819D01*
X162693921Y-82869819D02*
X162503445Y-82869819D01*
X162503445Y-82869819D02*
X162408207Y-82822200D01*
X162408207Y-82822200D02*
X162312969Y-82726961D01*
X162312969Y-82726961D02*
X162265350Y-82536485D01*
X162265350Y-82536485D02*
X162265350Y-82203152D01*
X162265350Y-82203152D02*
X162312969Y-82012676D01*
X162312969Y-82012676D02*
X162408207Y-81917438D01*
X162408207Y-81917438D02*
X162503445Y-81869819D01*
X146836779Y-117369819D02*
X146836779Y-116369819D01*
X146836779Y-116369819D02*
X147074874Y-116369819D01*
X147074874Y-116369819D02*
X147217731Y-116417438D01*
X147217731Y-116417438D02*
X147312969Y-116512676D01*
X147312969Y-116512676D02*
X147360588Y-116607914D01*
X147360588Y-116607914D02*
X147408207Y-116798390D01*
X147408207Y-116798390D02*
X147408207Y-116941247D01*
X147408207Y-116941247D02*
X147360588Y-117131723D01*
X147360588Y-117131723D02*
X147312969Y-117226961D01*
X147312969Y-117226961D02*
X147217731Y-117322200D01*
X147217731Y-117322200D02*
X147074874Y-117369819D01*
X147074874Y-117369819D02*
X146836779Y-117369819D01*
X147836779Y-117369819D02*
X147836779Y-116369819D01*
X148503445Y-116369819D02*
X148693921Y-116369819D01*
X148693921Y-116369819D02*
X148789159Y-116417438D01*
X148789159Y-116417438D02*
X148884397Y-116512676D01*
X148884397Y-116512676D02*
X148932016Y-116703152D01*
X148932016Y-116703152D02*
X148932016Y-117036485D01*
X148932016Y-117036485D02*
X148884397Y-117226961D01*
X148884397Y-117226961D02*
X148789159Y-117322200D01*
X148789159Y-117322200D02*
X148693921Y-117369819D01*
X148693921Y-117369819D02*
X148503445Y-117369819D01*
X148503445Y-117369819D02*
X148408207Y-117322200D01*
X148408207Y-117322200D02*
X148312969Y-117226961D01*
X148312969Y-117226961D02*
X148265350Y-117036485D01*
X148265350Y-117036485D02*
X148265350Y-116703152D01*
X148265350Y-116703152D02*
X148312969Y-116512676D01*
X148312969Y-116512676D02*
X148408207Y-116417438D01*
X148408207Y-116417438D02*
X148503445Y-116369819D01*
X109836779Y-87988866D02*
X110598684Y-87988866D01*
X110217731Y-88369819D02*
X110217731Y-87607914D01*
X111551064Y-87369819D02*
X111074874Y-87369819D01*
X111074874Y-87369819D02*
X111027255Y-87846009D01*
X111027255Y-87846009D02*
X111074874Y-87798390D01*
X111074874Y-87798390D02*
X111170112Y-87750771D01*
X111170112Y-87750771D02*
X111408207Y-87750771D01*
X111408207Y-87750771D02*
X111503445Y-87798390D01*
X111503445Y-87798390D02*
X111551064Y-87846009D01*
X111551064Y-87846009D02*
X111598683Y-87941247D01*
X111598683Y-87941247D02*
X111598683Y-88179342D01*
X111598683Y-88179342D02*
X111551064Y-88274580D01*
X111551064Y-88274580D02*
X111503445Y-88322200D01*
X111503445Y-88322200D02*
X111408207Y-88369819D01*
X111408207Y-88369819D02*
X111170112Y-88369819D01*
X111170112Y-88369819D02*
X111074874Y-88322200D01*
X111074874Y-88322200D02*
X111027255Y-88274580D01*
X111884398Y-87369819D02*
X112217731Y-88369819D01*
X112217731Y-88369819D02*
X112551064Y-87369819D01*
X129836779Y-117369819D02*
X129836779Y-116369819D01*
X129836779Y-116369819D02*
X130074874Y-116369819D01*
X130074874Y-116369819D02*
X130217731Y-116417438D01*
X130217731Y-116417438D02*
X130312969Y-116512676D01*
X130312969Y-116512676D02*
X130360588Y-116607914D01*
X130360588Y-116607914D02*
X130408207Y-116798390D01*
X130408207Y-116798390D02*
X130408207Y-116941247D01*
X130408207Y-116941247D02*
X130360588Y-117131723D01*
X130360588Y-117131723D02*
X130312969Y-117226961D01*
X130312969Y-117226961D02*
X130217731Y-117322200D01*
X130217731Y-117322200D02*
X130074874Y-117369819D01*
X130074874Y-117369819D02*
X129836779Y-117369819D01*
X130836779Y-117369819D02*
X130836779Y-116369819D01*
X131503445Y-116369819D02*
X131693921Y-116369819D01*
X131693921Y-116369819D02*
X131789159Y-116417438D01*
X131789159Y-116417438D02*
X131884397Y-116512676D01*
X131884397Y-116512676D02*
X131932016Y-116703152D01*
X131932016Y-116703152D02*
X131932016Y-117036485D01*
X131932016Y-117036485D02*
X131884397Y-117226961D01*
X131884397Y-117226961D02*
X131789159Y-117322200D01*
X131789159Y-117322200D02*
X131693921Y-117369819D01*
X131693921Y-117369819D02*
X131503445Y-117369819D01*
X131503445Y-117369819D02*
X131408207Y-117322200D01*
X131408207Y-117322200D02*
X131312969Y-117226961D01*
X131312969Y-117226961D02*
X131265350Y-117036485D01*
X131265350Y-117036485D02*
X131265350Y-116703152D01*
X131265350Y-116703152D02*
X131312969Y-116512676D01*
X131312969Y-116512676D02*
X131408207Y-116417438D01*
X131408207Y-116417438D02*
X131503445Y-116369819D01*
X137917438Y-48139411D02*
X137869819Y-48234649D01*
X137869819Y-48234649D02*
X137869819Y-48377506D01*
X137869819Y-48377506D02*
X137917438Y-48520363D01*
X137917438Y-48520363D02*
X138012676Y-48615601D01*
X138012676Y-48615601D02*
X138107914Y-48663220D01*
X138107914Y-48663220D02*
X138298390Y-48710839D01*
X138298390Y-48710839D02*
X138441247Y-48710839D01*
X138441247Y-48710839D02*
X138631723Y-48663220D01*
X138631723Y-48663220D02*
X138726961Y-48615601D01*
X138726961Y-48615601D02*
X138822200Y-48520363D01*
X138822200Y-48520363D02*
X138869819Y-48377506D01*
X138869819Y-48377506D02*
X138869819Y-48282268D01*
X138869819Y-48282268D02*
X138822200Y-48139411D01*
X138822200Y-48139411D02*
X138774580Y-48091792D01*
X138774580Y-48091792D02*
X138441247Y-48091792D01*
X138441247Y-48091792D02*
X138441247Y-48282268D01*
X138869819Y-47663220D02*
X137869819Y-47663220D01*
X137869819Y-47663220D02*
X138869819Y-47091792D01*
X138869819Y-47091792D02*
X137869819Y-47091792D01*
X138869819Y-46615601D02*
X137869819Y-46615601D01*
X137869819Y-46615601D02*
X137869819Y-46377506D01*
X137869819Y-46377506D02*
X137917438Y-46234649D01*
X137917438Y-46234649D02*
X138012676Y-46139411D01*
X138012676Y-46139411D02*
X138107914Y-46091792D01*
X138107914Y-46091792D02*
X138298390Y-46044173D01*
X138298390Y-46044173D02*
X138441247Y-46044173D01*
X138441247Y-46044173D02*
X138631723Y-46091792D01*
X138631723Y-46091792D02*
X138726961Y-46139411D01*
X138726961Y-46139411D02*
X138822200Y-46234649D01*
X138822200Y-46234649D02*
X138869819Y-46377506D01*
X138869819Y-46377506D02*
X138869819Y-46615601D01*
X110336779Y-85369819D02*
X110336779Y-84369819D01*
X110336779Y-84369819D02*
X110574874Y-84369819D01*
X110574874Y-84369819D02*
X110717731Y-84417438D01*
X110717731Y-84417438D02*
X110812969Y-84512676D01*
X110812969Y-84512676D02*
X110860588Y-84607914D01*
X110860588Y-84607914D02*
X110908207Y-84798390D01*
X110908207Y-84798390D02*
X110908207Y-84941247D01*
X110908207Y-84941247D02*
X110860588Y-85131723D01*
X110860588Y-85131723D02*
X110812969Y-85226961D01*
X110812969Y-85226961D02*
X110717731Y-85322200D01*
X110717731Y-85322200D02*
X110574874Y-85369819D01*
X110574874Y-85369819D02*
X110336779Y-85369819D01*
X111336779Y-85369819D02*
X111336779Y-84369819D01*
X112003445Y-84369819D02*
X112193921Y-84369819D01*
X112193921Y-84369819D02*
X112289159Y-84417438D01*
X112289159Y-84417438D02*
X112384397Y-84512676D01*
X112384397Y-84512676D02*
X112432016Y-84703152D01*
X112432016Y-84703152D02*
X112432016Y-85036485D01*
X112432016Y-85036485D02*
X112384397Y-85226961D01*
X112384397Y-85226961D02*
X112289159Y-85322200D01*
X112289159Y-85322200D02*
X112193921Y-85369819D01*
X112193921Y-85369819D02*
X112003445Y-85369819D01*
X112003445Y-85369819D02*
X111908207Y-85322200D01*
X111908207Y-85322200D02*
X111812969Y-85226961D01*
X111812969Y-85226961D02*
X111765350Y-85036485D01*
X111765350Y-85036485D02*
X111765350Y-84703152D01*
X111765350Y-84703152D02*
X111812969Y-84512676D01*
X111812969Y-84512676D02*
X111908207Y-84417438D01*
X111908207Y-84417438D02*
X112003445Y-84369819D01*
X132336779Y-116988866D02*
X133098684Y-116988866D01*
X132717731Y-117369819D02*
X132717731Y-116607914D01*
X134051064Y-116369819D02*
X133574874Y-116369819D01*
X133574874Y-116369819D02*
X133527255Y-116846009D01*
X133527255Y-116846009D02*
X133574874Y-116798390D01*
X133574874Y-116798390D02*
X133670112Y-116750771D01*
X133670112Y-116750771D02*
X133908207Y-116750771D01*
X133908207Y-116750771D02*
X134003445Y-116798390D01*
X134003445Y-116798390D02*
X134051064Y-116846009D01*
X134051064Y-116846009D02*
X134098683Y-116941247D01*
X134098683Y-116941247D02*
X134098683Y-117179342D01*
X134098683Y-117179342D02*
X134051064Y-117274580D01*
X134051064Y-117274580D02*
X134003445Y-117322200D01*
X134003445Y-117322200D02*
X133908207Y-117369819D01*
X133908207Y-117369819D02*
X133670112Y-117369819D01*
X133670112Y-117369819D02*
X133574874Y-117322200D01*
X133574874Y-117322200D02*
X133527255Y-117274580D01*
X134384398Y-116369819D02*
X134717731Y-117369819D01*
X134717731Y-117369819D02*
X135051064Y-116369819D01*
X110360588Y-98417438D02*
X110265350Y-98369819D01*
X110265350Y-98369819D02*
X110122493Y-98369819D01*
X110122493Y-98369819D02*
X109979636Y-98417438D01*
X109979636Y-98417438D02*
X109884398Y-98512676D01*
X109884398Y-98512676D02*
X109836779Y-98607914D01*
X109836779Y-98607914D02*
X109789160Y-98798390D01*
X109789160Y-98798390D02*
X109789160Y-98941247D01*
X109789160Y-98941247D02*
X109836779Y-99131723D01*
X109836779Y-99131723D02*
X109884398Y-99226961D01*
X109884398Y-99226961D02*
X109979636Y-99322200D01*
X109979636Y-99322200D02*
X110122493Y-99369819D01*
X110122493Y-99369819D02*
X110217731Y-99369819D01*
X110217731Y-99369819D02*
X110360588Y-99322200D01*
X110360588Y-99322200D02*
X110408207Y-99274580D01*
X110408207Y-99274580D02*
X110408207Y-98941247D01*
X110408207Y-98941247D02*
X110217731Y-98941247D01*
X110836779Y-99369819D02*
X110836779Y-98369819D01*
X110836779Y-98369819D02*
X111408207Y-99369819D01*
X111408207Y-99369819D02*
X111408207Y-98369819D01*
X111884398Y-99369819D02*
X111884398Y-98369819D01*
X111884398Y-98369819D02*
X112122493Y-98369819D01*
X112122493Y-98369819D02*
X112265350Y-98417438D01*
X112265350Y-98417438D02*
X112360588Y-98512676D01*
X112360588Y-98512676D02*
X112408207Y-98607914D01*
X112408207Y-98607914D02*
X112455826Y-98798390D01*
X112455826Y-98798390D02*
X112455826Y-98941247D01*
X112455826Y-98941247D02*
X112408207Y-99131723D01*
X112408207Y-99131723D02*
X112360588Y-99226961D01*
X112360588Y-99226961D02*
X112265350Y-99322200D01*
X112265350Y-99322200D02*
X112122493Y-99369819D01*
X112122493Y-99369819D02*
X111884398Y-99369819D01*
X109836779Y-104988866D02*
X110598684Y-104988866D01*
X110217731Y-105369819D02*
X110217731Y-104607914D01*
X111551064Y-104369819D02*
X111074874Y-104369819D01*
X111074874Y-104369819D02*
X111027255Y-104846009D01*
X111027255Y-104846009D02*
X111074874Y-104798390D01*
X111074874Y-104798390D02*
X111170112Y-104750771D01*
X111170112Y-104750771D02*
X111408207Y-104750771D01*
X111408207Y-104750771D02*
X111503445Y-104798390D01*
X111503445Y-104798390D02*
X111551064Y-104846009D01*
X111551064Y-104846009D02*
X111598683Y-104941247D01*
X111598683Y-104941247D02*
X111598683Y-105179342D01*
X111598683Y-105179342D02*
X111551064Y-105274580D01*
X111551064Y-105274580D02*
X111503445Y-105322200D01*
X111503445Y-105322200D02*
X111408207Y-105369819D01*
X111408207Y-105369819D02*
X111170112Y-105369819D01*
X111170112Y-105369819D02*
X111074874Y-105322200D01*
X111074874Y-105322200D02*
X111027255Y-105274580D01*
X111884398Y-104369819D02*
X112217731Y-105369819D01*
X112217731Y-105369819D02*
X112551064Y-104369819D01*
X110360588Y-81417438D02*
X110265350Y-81369819D01*
X110265350Y-81369819D02*
X110122493Y-81369819D01*
X110122493Y-81369819D02*
X109979636Y-81417438D01*
X109979636Y-81417438D02*
X109884398Y-81512676D01*
X109884398Y-81512676D02*
X109836779Y-81607914D01*
X109836779Y-81607914D02*
X109789160Y-81798390D01*
X109789160Y-81798390D02*
X109789160Y-81941247D01*
X109789160Y-81941247D02*
X109836779Y-82131723D01*
X109836779Y-82131723D02*
X109884398Y-82226961D01*
X109884398Y-82226961D02*
X109979636Y-82322200D01*
X109979636Y-82322200D02*
X110122493Y-82369819D01*
X110122493Y-82369819D02*
X110217731Y-82369819D01*
X110217731Y-82369819D02*
X110360588Y-82322200D01*
X110360588Y-82322200D02*
X110408207Y-82274580D01*
X110408207Y-82274580D02*
X110408207Y-81941247D01*
X110408207Y-81941247D02*
X110217731Y-81941247D01*
X110836779Y-82369819D02*
X110836779Y-81369819D01*
X110836779Y-81369819D02*
X111408207Y-82369819D01*
X111408207Y-82369819D02*
X111408207Y-81369819D01*
X111884398Y-82369819D02*
X111884398Y-81369819D01*
X111884398Y-81369819D02*
X112122493Y-81369819D01*
X112122493Y-81369819D02*
X112265350Y-81417438D01*
X112265350Y-81417438D02*
X112360588Y-81512676D01*
X112360588Y-81512676D02*
X112408207Y-81607914D01*
X112408207Y-81607914D02*
X112455826Y-81798390D01*
X112455826Y-81798390D02*
X112455826Y-81941247D01*
X112455826Y-81941247D02*
X112408207Y-82131723D01*
X112408207Y-82131723D02*
X112360588Y-82226961D01*
X112360588Y-82226961D02*
X112265350Y-82322200D01*
X112265350Y-82322200D02*
X112122493Y-82369819D01*
X112122493Y-82369819D02*
X111884398Y-82369819D01*
X110336779Y-102369819D02*
X110336779Y-101369819D01*
X110336779Y-101369819D02*
X110574874Y-101369819D01*
X110574874Y-101369819D02*
X110717731Y-101417438D01*
X110717731Y-101417438D02*
X110812969Y-101512676D01*
X110812969Y-101512676D02*
X110860588Y-101607914D01*
X110860588Y-101607914D02*
X110908207Y-101798390D01*
X110908207Y-101798390D02*
X110908207Y-101941247D01*
X110908207Y-101941247D02*
X110860588Y-102131723D01*
X110860588Y-102131723D02*
X110812969Y-102226961D01*
X110812969Y-102226961D02*
X110717731Y-102322200D01*
X110717731Y-102322200D02*
X110574874Y-102369819D01*
X110574874Y-102369819D02*
X110336779Y-102369819D01*
X111336779Y-102369819D02*
X111336779Y-101369819D01*
X112003445Y-101369819D02*
X112193921Y-101369819D01*
X112193921Y-101369819D02*
X112289159Y-101417438D01*
X112289159Y-101417438D02*
X112384397Y-101512676D01*
X112384397Y-101512676D02*
X112432016Y-101703152D01*
X112432016Y-101703152D02*
X112432016Y-102036485D01*
X112432016Y-102036485D02*
X112384397Y-102226961D01*
X112384397Y-102226961D02*
X112289159Y-102322200D01*
X112289159Y-102322200D02*
X112193921Y-102369819D01*
X112193921Y-102369819D02*
X112003445Y-102369819D01*
X112003445Y-102369819D02*
X111908207Y-102322200D01*
X111908207Y-102322200D02*
X111812969Y-102226961D01*
X111812969Y-102226961D02*
X111765350Y-102036485D01*
X111765350Y-102036485D02*
X111765350Y-101703152D01*
X111765350Y-101703152D02*
X111812969Y-101512676D01*
X111812969Y-101512676D02*
X111908207Y-101417438D01*
X111908207Y-101417438D02*
X112003445Y-101369819D01*
X110836779Y-96869819D02*
X110836779Y-95869819D01*
X110836779Y-95869819D02*
X111217731Y-95869819D01*
X111217731Y-95869819D02*
X111312969Y-95917438D01*
X111312969Y-95917438D02*
X111360588Y-95965057D01*
X111360588Y-95965057D02*
X111408207Y-96060295D01*
X111408207Y-96060295D02*
X111408207Y-96203152D01*
X111408207Y-96203152D02*
X111360588Y-96298390D01*
X111360588Y-96298390D02*
X111312969Y-96346009D01*
X111312969Y-96346009D02*
X111217731Y-96393628D01*
X111217731Y-96393628D02*
X110836779Y-96393628D01*
X111741541Y-95869819D02*
X112360588Y-95869819D01*
X112360588Y-95869819D02*
X112027255Y-96250771D01*
X112027255Y-96250771D02*
X112170112Y-96250771D01*
X112170112Y-96250771D02*
X112265350Y-96298390D01*
X112265350Y-96298390D02*
X112312969Y-96346009D01*
X112312969Y-96346009D02*
X112360588Y-96441247D01*
X112360588Y-96441247D02*
X112360588Y-96679342D01*
X112360588Y-96679342D02*
X112312969Y-96774580D01*
X112312969Y-96774580D02*
X112265350Y-96822200D01*
X112265350Y-96822200D02*
X112170112Y-96869819D01*
X112170112Y-96869819D02*
X111884398Y-96869819D01*
X111884398Y-96869819D02*
X111789160Y-96822200D01*
X111789160Y-96822200D02*
X111741541Y-96774580D01*
X110836779Y-62869819D02*
X110836779Y-61869819D01*
X110836779Y-61869819D02*
X111217731Y-61869819D01*
X111217731Y-61869819D02*
X111312969Y-61917438D01*
X111312969Y-61917438D02*
X111360588Y-61965057D01*
X111360588Y-61965057D02*
X111408207Y-62060295D01*
X111408207Y-62060295D02*
X111408207Y-62203152D01*
X111408207Y-62203152D02*
X111360588Y-62298390D01*
X111360588Y-62298390D02*
X111312969Y-62346009D01*
X111312969Y-62346009D02*
X111217731Y-62393628D01*
X111217731Y-62393628D02*
X110836779Y-62393628D01*
X112265350Y-61869819D02*
X112074874Y-61869819D01*
X112074874Y-61869819D02*
X111979636Y-61917438D01*
X111979636Y-61917438D02*
X111932017Y-61965057D01*
X111932017Y-61965057D02*
X111836779Y-62107914D01*
X111836779Y-62107914D02*
X111789160Y-62298390D01*
X111789160Y-62298390D02*
X111789160Y-62679342D01*
X111789160Y-62679342D02*
X111836779Y-62774580D01*
X111836779Y-62774580D02*
X111884398Y-62822200D01*
X111884398Y-62822200D02*
X111979636Y-62869819D01*
X111979636Y-62869819D02*
X112170112Y-62869819D01*
X112170112Y-62869819D02*
X112265350Y-62822200D01*
X112265350Y-62822200D02*
X112312969Y-62774580D01*
X112312969Y-62774580D02*
X112360588Y-62679342D01*
X112360588Y-62679342D02*
X112360588Y-62441247D01*
X112360588Y-62441247D02*
X112312969Y-62346009D01*
X112312969Y-62346009D02*
X112265350Y-62298390D01*
X112265350Y-62298390D02*
X112170112Y-62250771D01*
X112170112Y-62250771D02*
X111979636Y-62250771D01*
X111979636Y-62250771D02*
X111884398Y-62298390D01*
X111884398Y-62298390D02*
X111836779Y-62346009D01*
X111836779Y-62346009D02*
X111789160Y-62441247D01*
X131369819Y-52306077D02*
X132369819Y-51972744D01*
X132369819Y-51972744D02*
X131369819Y-51639411D01*
X131988866Y-51306077D02*
X131988866Y-50544173D01*
X132369819Y-50925125D02*
X131607914Y-50925125D01*
X160836779Y-99369819D02*
X160836779Y-98369819D01*
X160836779Y-98369819D02*
X161074874Y-98369819D01*
X161074874Y-98369819D02*
X161217731Y-98417438D01*
X161217731Y-98417438D02*
X161312969Y-98512676D01*
X161312969Y-98512676D02*
X161360588Y-98607914D01*
X161360588Y-98607914D02*
X161408207Y-98798390D01*
X161408207Y-98798390D02*
X161408207Y-98941247D01*
X161408207Y-98941247D02*
X161360588Y-99131723D01*
X161360588Y-99131723D02*
X161312969Y-99226961D01*
X161312969Y-99226961D02*
X161217731Y-99322200D01*
X161217731Y-99322200D02*
X161074874Y-99369819D01*
X161074874Y-99369819D02*
X160836779Y-99369819D01*
X161836779Y-99369819D02*
X161836779Y-98369819D01*
X162503445Y-98369819D02*
X162693921Y-98369819D01*
X162693921Y-98369819D02*
X162789159Y-98417438D01*
X162789159Y-98417438D02*
X162884397Y-98512676D01*
X162884397Y-98512676D02*
X162932016Y-98703152D01*
X162932016Y-98703152D02*
X162932016Y-99036485D01*
X162932016Y-99036485D02*
X162884397Y-99226961D01*
X162884397Y-99226961D02*
X162789159Y-99322200D01*
X162789159Y-99322200D02*
X162693921Y-99369819D01*
X162693921Y-99369819D02*
X162503445Y-99369819D01*
X162503445Y-99369819D02*
X162408207Y-99322200D01*
X162408207Y-99322200D02*
X162312969Y-99226961D01*
X162312969Y-99226961D02*
X162265350Y-99036485D01*
X162265350Y-99036485D02*
X162265350Y-98703152D01*
X162265350Y-98703152D02*
X162312969Y-98512676D01*
X162312969Y-98512676D02*
X162408207Y-98417438D01*
X162408207Y-98417438D02*
X162503445Y-98369819D01*
X140369819Y-48806077D02*
X141369819Y-48472744D01*
X141369819Y-48472744D02*
X140369819Y-48139411D01*
X140988866Y-47806077D02*
X140988866Y-47044173D01*
X141369819Y-47425125D02*
X140607914Y-47425125D01*
X111336779Y-80369819D02*
X111336779Y-79369819D01*
X111336779Y-79369819D02*
X111717731Y-79369819D01*
X111717731Y-79369819D02*
X111812969Y-79417438D01*
X111812969Y-79417438D02*
X111860588Y-79465057D01*
X111860588Y-79465057D02*
X111908207Y-79560295D01*
X111908207Y-79560295D02*
X111908207Y-79703152D01*
X111908207Y-79703152D02*
X111860588Y-79798390D01*
X111860588Y-79798390D02*
X111812969Y-79846009D01*
X111812969Y-79846009D02*
X111717731Y-79893628D01*
X111717731Y-79893628D02*
X111336779Y-79893628D01*
X112812969Y-79369819D02*
X112336779Y-79369819D01*
X112336779Y-79369819D02*
X112289160Y-79846009D01*
X112289160Y-79846009D02*
X112336779Y-79798390D01*
X112336779Y-79798390D02*
X112432017Y-79750771D01*
X112432017Y-79750771D02*
X112670112Y-79750771D01*
X112670112Y-79750771D02*
X112765350Y-79798390D01*
X112765350Y-79798390D02*
X112812969Y-79846009D01*
X112812969Y-79846009D02*
X112860588Y-79941247D01*
X112860588Y-79941247D02*
X112860588Y-80179342D01*
X112860588Y-80179342D02*
X112812969Y-80274580D01*
X112812969Y-80274580D02*
X112765350Y-80322200D01*
X112765350Y-80322200D02*
X112670112Y-80369819D01*
X112670112Y-80369819D02*
X112432017Y-80369819D01*
X112432017Y-80369819D02*
X112336779Y-80322200D01*
X112336779Y-80322200D02*
X112289160Y-80274580D01*
X160836779Y-88369819D02*
X160836779Y-87369819D01*
X160836779Y-87369819D02*
X161217731Y-87369819D01*
X161217731Y-87369819D02*
X161312969Y-87417438D01*
X161312969Y-87417438D02*
X161360588Y-87465057D01*
X161360588Y-87465057D02*
X161408207Y-87560295D01*
X161408207Y-87560295D02*
X161408207Y-87703152D01*
X161408207Y-87703152D02*
X161360588Y-87798390D01*
X161360588Y-87798390D02*
X161312969Y-87846009D01*
X161312969Y-87846009D02*
X161217731Y-87893628D01*
X161217731Y-87893628D02*
X160836779Y-87893628D01*
X162027255Y-87369819D02*
X162122493Y-87369819D01*
X162122493Y-87369819D02*
X162217731Y-87417438D01*
X162217731Y-87417438D02*
X162265350Y-87465057D01*
X162265350Y-87465057D02*
X162312969Y-87560295D01*
X162312969Y-87560295D02*
X162360588Y-87750771D01*
X162360588Y-87750771D02*
X162360588Y-87988866D01*
X162360588Y-87988866D02*
X162312969Y-88179342D01*
X162312969Y-88179342D02*
X162265350Y-88274580D01*
X162265350Y-88274580D02*
X162217731Y-88322200D01*
X162217731Y-88322200D02*
X162122493Y-88369819D01*
X162122493Y-88369819D02*
X162027255Y-88369819D01*
X162027255Y-88369819D02*
X161932017Y-88322200D01*
X161932017Y-88322200D02*
X161884398Y-88274580D01*
X161884398Y-88274580D02*
X161836779Y-88179342D01*
X161836779Y-88179342D02*
X161789160Y-87988866D01*
X161789160Y-87988866D02*
X161789160Y-87750771D01*
X161789160Y-87750771D02*
X161836779Y-87560295D01*
X161836779Y-87560295D02*
X161884398Y-87465057D01*
X161884398Y-87465057D02*
X161932017Y-87417438D01*
X161932017Y-87417438D02*
X162027255Y-87369819D01*
X126860588Y-116417438D02*
X126765350Y-116369819D01*
X126765350Y-116369819D02*
X126622493Y-116369819D01*
X126622493Y-116369819D02*
X126479636Y-116417438D01*
X126479636Y-116417438D02*
X126384398Y-116512676D01*
X126384398Y-116512676D02*
X126336779Y-116607914D01*
X126336779Y-116607914D02*
X126289160Y-116798390D01*
X126289160Y-116798390D02*
X126289160Y-116941247D01*
X126289160Y-116941247D02*
X126336779Y-117131723D01*
X126336779Y-117131723D02*
X126384398Y-117226961D01*
X126384398Y-117226961D02*
X126479636Y-117322200D01*
X126479636Y-117322200D02*
X126622493Y-117369819D01*
X126622493Y-117369819D02*
X126717731Y-117369819D01*
X126717731Y-117369819D02*
X126860588Y-117322200D01*
X126860588Y-117322200D02*
X126908207Y-117274580D01*
X126908207Y-117274580D02*
X126908207Y-116941247D01*
X126908207Y-116941247D02*
X126717731Y-116941247D01*
X127336779Y-117369819D02*
X127336779Y-116369819D01*
X127336779Y-116369819D02*
X127908207Y-117369819D01*
X127908207Y-117369819D02*
X127908207Y-116369819D01*
X128384398Y-117369819D02*
X128384398Y-116369819D01*
X128384398Y-116369819D02*
X128622493Y-116369819D01*
X128622493Y-116369819D02*
X128765350Y-116417438D01*
X128765350Y-116417438D02*
X128860588Y-116512676D01*
X128860588Y-116512676D02*
X128908207Y-116607914D01*
X128908207Y-116607914D02*
X128955826Y-116798390D01*
X128955826Y-116798390D02*
X128955826Y-116941247D01*
X128955826Y-116941247D02*
X128908207Y-117131723D01*
X128908207Y-117131723D02*
X128860588Y-117226961D01*
X128860588Y-117226961D02*
X128765350Y-117322200D01*
X128765350Y-117322200D02*
X128622493Y-117369819D01*
X128622493Y-117369819D02*
X128384398Y-117369819D01*
X160940588Y-84672438D02*
X160845350Y-84624819D01*
X160845350Y-84624819D02*
X160702493Y-84624819D01*
X160702493Y-84624819D02*
X160559636Y-84672438D01*
X160559636Y-84672438D02*
X160464398Y-84767676D01*
X160464398Y-84767676D02*
X160416779Y-84862914D01*
X160416779Y-84862914D02*
X160369160Y-85053390D01*
X160369160Y-85053390D02*
X160369160Y-85196247D01*
X160369160Y-85196247D02*
X160416779Y-85386723D01*
X160416779Y-85386723D02*
X160464398Y-85481961D01*
X160464398Y-85481961D02*
X160559636Y-85577200D01*
X160559636Y-85577200D02*
X160702493Y-85624819D01*
X160702493Y-85624819D02*
X160797731Y-85624819D01*
X160797731Y-85624819D02*
X160940588Y-85577200D01*
X160940588Y-85577200D02*
X160988207Y-85529580D01*
X160988207Y-85529580D02*
X160988207Y-85196247D01*
X160988207Y-85196247D02*
X160797731Y-85196247D01*
X161416779Y-85624819D02*
X161416779Y-84624819D01*
X161416779Y-84624819D02*
X161988207Y-85624819D01*
X161988207Y-85624819D02*
X161988207Y-84624819D01*
X162464398Y-85624819D02*
X162464398Y-84624819D01*
X162464398Y-84624819D02*
X162702493Y-84624819D01*
X162702493Y-84624819D02*
X162845350Y-84672438D01*
X162845350Y-84672438D02*
X162940588Y-84767676D01*
X162940588Y-84767676D02*
X162988207Y-84862914D01*
X162988207Y-84862914D02*
X163035826Y-85053390D01*
X163035826Y-85053390D02*
X163035826Y-85196247D01*
X163035826Y-85196247D02*
X162988207Y-85386723D01*
X162988207Y-85386723D02*
X162940588Y-85481961D01*
X162940588Y-85481961D02*
X162845350Y-85577200D01*
X162845350Y-85577200D02*
X162702493Y-85624819D01*
X162702493Y-85624819D02*
X162464398Y-85624819D01*
X160836779Y-67869819D02*
X160836779Y-66869819D01*
X160836779Y-66869819D02*
X161074874Y-66869819D01*
X161074874Y-66869819D02*
X161217731Y-66917438D01*
X161217731Y-66917438D02*
X161312969Y-67012676D01*
X161312969Y-67012676D02*
X161360588Y-67107914D01*
X161360588Y-67107914D02*
X161408207Y-67298390D01*
X161408207Y-67298390D02*
X161408207Y-67441247D01*
X161408207Y-67441247D02*
X161360588Y-67631723D01*
X161360588Y-67631723D02*
X161312969Y-67726961D01*
X161312969Y-67726961D02*
X161217731Y-67822200D01*
X161217731Y-67822200D02*
X161074874Y-67869819D01*
X161074874Y-67869819D02*
X160836779Y-67869819D01*
X161836779Y-67869819D02*
X161836779Y-66869819D01*
X162503445Y-66869819D02*
X162693921Y-66869819D01*
X162693921Y-66869819D02*
X162789159Y-66917438D01*
X162789159Y-66917438D02*
X162884397Y-67012676D01*
X162884397Y-67012676D02*
X162932016Y-67203152D01*
X162932016Y-67203152D02*
X162932016Y-67536485D01*
X162932016Y-67536485D02*
X162884397Y-67726961D01*
X162884397Y-67726961D02*
X162789159Y-67822200D01*
X162789159Y-67822200D02*
X162693921Y-67869819D01*
X162693921Y-67869819D02*
X162503445Y-67869819D01*
X162503445Y-67869819D02*
X162408207Y-67822200D01*
X162408207Y-67822200D02*
X162312969Y-67726961D01*
X162312969Y-67726961D02*
X162265350Y-67536485D01*
X162265350Y-67536485D02*
X162265350Y-67203152D01*
X162265350Y-67203152D02*
X162312969Y-67012676D01*
X162312969Y-67012676D02*
X162408207Y-66917438D01*
X162408207Y-66917438D02*
X162503445Y-66869819D01*
X143860588Y-116417438D02*
X143765350Y-116369819D01*
X143765350Y-116369819D02*
X143622493Y-116369819D01*
X143622493Y-116369819D02*
X143479636Y-116417438D01*
X143479636Y-116417438D02*
X143384398Y-116512676D01*
X143384398Y-116512676D02*
X143336779Y-116607914D01*
X143336779Y-116607914D02*
X143289160Y-116798390D01*
X143289160Y-116798390D02*
X143289160Y-116941247D01*
X143289160Y-116941247D02*
X143336779Y-117131723D01*
X143336779Y-117131723D02*
X143384398Y-117226961D01*
X143384398Y-117226961D02*
X143479636Y-117322200D01*
X143479636Y-117322200D02*
X143622493Y-117369819D01*
X143622493Y-117369819D02*
X143717731Y-117369819D01*
X143717731Y-117369819D02*
X143860588Y-117322200D01*
X143860588Y-117322200D02*
X143908207Y-117274580D01*
X143908207Y-117274580D02*
X143908207Y-116941247D01*
X143908207Y-116941247D02*
X143717731Y-116941247D01*
X144336779Y-117369819D02*
X144336779Y-116369819D01*
X144336779Y-116369819D02*
X144908207Y-117369819D01*
X144908207Y-117369819D02*
X144908207Y-116369819D01*
X145384398Y-117369819D02*
X145384398Y-116369819D01*
X145384398Y-116369819D02*
X145622493Y-116369819D01*
X145622493Y-116369819D02*
X145765350Y-116417438D01*
X145765350Y-116417438D02*
X145860588Y-116512676D01*
X145860588Y-116512676D02*
X145908207Y-116607914D01*
X145908207Y-116607914D02*
X145955826Y-116798390D01*
X145955826Y-116798390D02*
X145955826Y-116941247D01*
X145955826Y-116941247D02*
X145908207Y-117131723D01*
X145908207Y-117131723D02*
X145860588Y-117226961D01*
X145860588Y-117226961D02*
X145765350Y-117322200D01*
X145765350Y-117322200D02*
X145622493Y-117369819D01*
X145622493Y-117369819D02*
X145384398Y-117369819D01*
X109336779Y-70488866D02*
X110098684Y-70488866D01*
X109717731Y-70869819D02*
X109717731Y-70107914D01*
X111051064Y-69869819D02*
X110574874Y-69869819D01*
X110574874Y-69869819D02*
X110527255Y-70346009D01*
X110527255Y-70346009D02*
X110574874Y-70298390D01*
X110574874Y-70298390D02*
X110670112Y-70250771D01*
X110670112Y-70250771D02*
X110908207Y-70250771D01*
X110908207Y-70250771D02*
X111003445Y-70298390D01*
X111003445Y-70298390D02*
X111051064Y-70346009D01*
X111051064Y-70346009D02*
X111098683Y-70441247D01*
X111098683Y-70441247D02*
X111098683Y-70679342D01*
X111098683Y-70679342D02*
X111051064Y-70774580D01*
X111051064Y-70774580D02*
X111003445Y-70822200D01*
X111003445Y-70822200D02*
X110908207Y-70869819D01*
X110908207Y-70869819D02*
X110670112Y-70869819D01*
X110670112Y-70869819D02*
X110574874Y-70822200D01*
X110574874Y-70822200D02*
X110527255Y-70774580D01*
X111384398Y-69869819D02*
X111717731Y-70869819D01*
X111717731Y-70869819D02*
X112051064Y-69869819D01*
X149836779Y-116988866D02*
X150598684Y-116988866D01*
X150217731Y-117369819D02*
X150217731Y-116607914D01*
X151551064Y-116369819D02*
X151074874Y-116369819D01*
X151074874Y-116369819D02*
X151027255Y-116846009D01*
X151027255Y-116846009D02*
X151074874Y-116798390D01*
X151074874Y-116798390D02*
X151170112Y-116750771D01*
X151170112Y-116750771D02*
X151408207Y-116750771D01*
X151408207Y-116750771D02*
X151503445Y-116798390D01*
X151503445Y-116798390D02*
X151551064Y-116846009D01*
X151551064Y-116846009D02*
X151598683Y-116941247D01*
X151598683Y-116941247D02*
X151598683Y-117179342D01*
X151598683Y-117179342D02*
X151551064Y-117274580D01*
X151551064Y-117274580D02*
X151503445Y-117322200D01*
X151503445Y-117322200D02*
X151408207Y-117369819D01*
X151408207Y-117369819D02*
X151170112Y-117369819D01*
X151170112Y-117369819D02*
X151074874Y-117322200D01*
X151074874Y-117322200D02*
X151027255Y-117274580D01*
X151884398Y-116369819D02*
X152217731Y-117369819D01*
X152217731Y-117369819D02*
X152551064Y-116369819D01*
X109836779Y-67869819D02*
X109836779Y-66869819D01*
X109836779Y-66869819D02*
X110074874Y-66869819D01*
X110074874Y-66869819D02*
X110217731Y-66917438D01*
X110217731Y-66917438D02*
X110312969Y-67012676D01*
X110312969Y-67012676D02*
X110360588Y-67107914D01*
X110360588Y-67107914D02*
X110408207Y-67298390D01*
X110408207Y-67298390D02*
X110408207Y-67441247D01*
X110408207Y-67441247D02*
X110360588Y-67631723D01*
X110360588Y-67631723D02*
X110312969Y-67726961D01*
X110312969Y-67726961D02*
X110217731Y-67822200D01*
X110217731Y-67822200D02*
X110074874Y-67869819D01*
X110074874Y-67869819D02*
X109836779Y-67869819D01*
X110836779Y-67869819D02*
X110836779Y-66869819D01*
X111503445Y-66869819D02*
X111693921Y-66869819D01*
X111693921Y-66869819D02*
X111789159Y-66917438D01*
X111789159Y-66917438D02*
X111884397Y-67012676D01*
X111884397Y-67012676D02*
X111932016Y-67203152D01*
X111932016Y-67203152D02*
X111932016Y-67536485D01*
X111932016Y-67536485D02*
X111884397Y-67726961D01*
X111884397Y-67726961D02*
X111789159Y-67822200D01*
X111789159Y-67822200D02*
X111693921Y-67869819D01*
X111693921Y-67869819D02*
X111503445Y-67869819D01*
X111503445Y-67869819D02*
X111408207Y-67822200D01*
X111408207Y-67822200D02*
X111312969Y-67726961D01*
X111312969Y-67726961D02*
X111265350Y-67536485D01*
X111265350Y-67536485D02*
X111265350Y-67203152D01*
X111265350Y-67203152D02*
X111312969Y-67012676D01*
X111312969Y-67012676D02*
X111408207Y-66917438D01*
X111408207Y-66917438D02*
X111503445Y-66869819D01*
X160836779Y-64988866D02*
X161598684Y-64988866D01*
X161217731Y-65369819D02*
X161217731Y-64607914D01*
X162551064Y-64369819D02*
X162074874Y-64369819D01*
X162074874Y-64369819D02*
X162027255Y-64846009D01*
X162027255Y-64846009D02*
X162074874Y-64798390D01*
X162074874Y-64798390D02*
X162170112Y-64750771D01*
X162170112Y-64750771D02*
X162408207Y-64750771D01*
X162408207Y-64750771D02*
X162503445Y-64798390D01*
X162503445Y-64798390D02*
X162551064Y-64846009D01*
X162551064Y-64846009D02*
X162598683Y-64941247D01*
X162598683Y-64941247D02*
X162598683Y-65179342D01*
X162598683Y-65179342D02*
X162551064Y-65274580D01*
X162551064Y-65274580D02*
X162503445Y-65322200D01*
X162503445Y-65322200D02*
X162408207Y-65369819D01*
X162408207Y-65369819D02*
X162170112Y-65369819D01*
X162170112Y-65369819D02*
X162074874Y-65322200D01*
X162074874Y-65322200D02*
X162027255Y-65274580D01*
X162884398Y-64369819D02*
X163217731Y-65369819D01*
X163217731Y-65369819D02*
X163551064Y-64369819D01*
%TO.C,R19*%
X155954819Y-80642857D02*
X155478628Y-80976190D01*
X155954819Y-81214285D02*
X154954819Y-81214285D01*
X154954819Y-81214285D02*
X154954819Y-80833333D01*
X154954819Y-80833333D02*
X155002438Y-80738095D01*
X155002438Y-80738095D02*
X155050057Y-80690476D01*
X155050057Y-80690476D02*
X155145295Y-80642857D01*
X155145295Y-80642857D02*
X155288152Y-80642857D01*
X155288152Y-80642857D02*
X155383390Y-80690476D01*
X155383390Y-80690476D02*
X155431009Y-80738095D01*
X155431009Y-80738095D02*
X155478628Y-80833333D01*
X155478628Y-80833333D02*
X155478628Y-81214285D01*
X155954819Y-79690476D02*
X155954819Y-80261904D01*
X155954819Y-79976190D02*
X154954819Y-79976190D01*
X154954819Y-79976190D02*
X155097676Y-80071428D01*
X155097676Y-80071428D02*
X155192914Y-80166666D01*
X155192914Y-80166666D02*
X155240533Y-80261904D01*
X155954819Y-79214285D02*
X155954819Y-79023809D01*
X155954819Y-79023809D02*
X155907200Y-78928571D01*
X155907200Y-78928571D02*
X155859580Y-78880952D01*
X155859580Y-78880952D02*
X155716723Y-78785714D01*
X155716723Y-78785714D02*
X155526247Y-78738095D01*
X155526247Y-78738095D02*
X155145295Y-78738095D01*
X155145295Y-78738095D02*
X155050057Y-78785714D01*
X155050057Y-78785714D02*
X155002438Y-78833333D01*
X155002438Y-78833333D02*
X154954819Y-78928571D01*
X154954819Y-78928571D02*
X154954819Y-79119047D01*
X154954819Y-79119047D02*
X155002438Y-79214285D01*
X155002438Y-79214285D02*
X155050057Y-79261904D01*
X155050057Y-79261904D02*
X155145295Y-79309523D01*
X155145295Y-79309523D02*
X155383390Y-79309523D01*
X155383390Y-79309523D02*
X155478628Y-79261904D01*
X155478628Y-79261904D02*
X155526247Y-79214285D01*
X155526247Y-79214285D02*
X155573866Y-79119047D01*
X155573866Y-79119047D02*
X155573866Y-78928571D01*
X155573866Y-78928571D02*
X155526247Y-78833333D01*
X155526247Y-78833333D02*
X155478628Y-78785714D01*
X155478628Y-78785714D02*
X155383390Y-78738095D01*
%TO.C,D17*%
X145973214Y-54254819D02*
X145973214Y-53254819D01*
X145973214Y-53254819D02*
X146211309Y-53254819D01*
X146211309Y-53254819D02*
X146354166Y-53302438D01*
X146354166Y-53302438D02*
X146449404Y-53397676D01*
X146449404Y-53397676D02*
X146497023Y-53492914D01*
X146497023Y-53492914D02*
X146544642Y-53683390D01*
X146544642Y-53683390D02*
X146544642Y-53826247D01*
X146544642Y-53826247D02*
X146497023Y-54016723D01*
X146497023Y-54016723D02*
X146449404Y-54111961D01*
X146449404Y-54111961D02*
X146354166Y-54207200D01*
X146354166Y-54207200D02*
X146211309Y-54254819D01*
X146211309Y-54254819D02*
X145973214Y-54254819D01*
X147497023Y-54254819D02*
X146925595Y-54254819D01*
X147211309Y-54254819D02*
X147211309Y-53254819D01*
X147211309Y-53254819D02*
X147116071Y-53397676D01*
X147116071Y-53397676D02*
X147020833Y-53492914D01*
X147020833Y-53492914D02*
X146925595Y-53540533D01*
X147830357Y-53254819D02*
X148497023Y-53254819D01*
X148497023Y-53254819D02*
X148068452Y-54254819D01*
%TO.C,R22*%
X117454819Y-101142857D02*
X116978628Y-101476190D01*
X117454819Y-101714285D02*
X116454819Y-101714285D01*
X116454819Y-101714285D02*
X116454819Y-101333333D01*
X116454819Y-101333333D02*
X116502438Y-101238095D01*
X116502438Y-101238095D02*
X116550057Y-101190476D01*
X116550057Y-101190476D02*
X116645295Y-101142857D01*
X116645295Y-101142857D02*
X116788152Y-101142857D01*
X116788152Y-101142857D02*
X116883390Y-101190476D01*
X116883390Y-101190476D02*
X116931009Y-101238095D01*
X116931009Y-101238095D02*
X116978628Y-101333333D01*
X116978628Y-101333333D02*
X116978628Y-101714285D01*
X116550057Y-100761904D02*
X116502438Y-100714285D01*
X116502438Y-100714285D02*
X116454819Y-100619047D01*
X116454819Y-100619047D02*
X116454819Y-100380952D01*
X116454819Y-100380952D02*
X116502438Y-100285714D01*
X116502438Y-100285714D02*
X116550057Y-100238095D01*
X116550057Y-100238095D02*
X116645295Y-100190476D01*
X116645295Y-100190476D02*
X116740533Y-100190476D01*
X116740533Y-100190476D02*
X116883390Y-100238095D01*
X116883390Y-100238095D02*
X117454819Y-100809523D01*
X117454819Y-100809523D02*
X117454819Y-100190476D01*
X116550057Y-99809523D02*
X116502438Y-99761904D01*
X116502438Y-99761904D02*
X116454819Y-99666666D01*
X116454819Y-99666666D02*
X116454819Y-99428571D01*
X116454819Y-99428571D02*
X116502438Y-99333333D01*
X116502438Y-99333333D02*
X116550057Y-99285714D01*
X116550057Y-99285714D02*
X116645295Y-99238095D01*
X116645295Y-99238095D02*
X116740533Y-99238095D01*
X116740533Y-99238095D02*
X116883390Y-99285714D01*
X116883390Y-99285714D02*
X117454819Y-99857142D01*
X117454819Y-99857142D02*
X117454819Y-99238095D01*
%TO.C,C8*%
X125859580Y-64166666D02*
X125907200Y-64214285D01*
X125907200Y-64214285D02*
X125954819Y-64357142D01*
X125954819Y-64357142D02*
X125954819Y-64452380D01*
X125954819Y-64452380D02*
X125907200Y-64595237D01*
X125907200Y-64595237D02*
X125811961Y-64690475D01*
X125811961Y-64690475D02*
X125716723Y-64738094D01*
X125716723Y-64738094D02*
X125526247Y-64785713D01*
X125526247Y-64785713D02*
X125383390Y-64785713D01*
X125383390Y-64785713D02*
X125192914Y-64738094D01*
X125192914Y-64738094D02*
X125097676Y-64690475D01*
X125097676Y-64690475D02*
X125002438Y-64595237D01*
X125002438Y-64595237D02*
X124954819Y-64452380D01*
X124954819Y-64452380D02*
X124954819Y-64357142D01*
X124954819Y-64357142D02*
X125002438Y-64214285D01*
X125002438Y-64214285D02*
X125050057Y-64166666D01*
X125383390Y-63595237D02*
X125335771Y-63690475D01*
X125335771Y-63690475D02*
X125288152Y-63738094D01*
X125288152Y-63738094D02*
X125192914Y-63785713D01*
X125192914Y-63785713D02*
X125145295Y-63785713D01*
X125145295Y-63785713D02*
X125050057Y-63738094D01*
X125050057Y-63738094D02*
X125002438Y-63690475D01*
X125002438Y-63690475D02*
X124954819Y-63595237D01*
X124954819Y-63595237D02*
X124954819Y-63404761D01*
X124954819Y-63404761D02*
X125002438Y-63309523D01*
X125002438Y-63309523D02*
X125050057Y-63261904D01*
X125050057Y-63261904D02*
X125145295Y-63214285D01*
X125145295Y-63214285D02*
X125192914Y-63214285D01*
X125192914Y-63214285D02*
X125288152Y-63261904D01*
X125288152Y-63261904D02*
X125335771Y-63309523D01*
X125335771Y-63309523D02*
X125383390Y-63404761D01*
X125383390Y-63404761D02*
X125383390Y-63595237D01*
X125383390Y-63595237D02*
X125431009Y-63690475D01*
X125431009Y-63690475D02*
X125478628Y-63738094D01*
X125478628Y-63738094D02*
X125573866Y-63785713D01*
X125573866Y-63785713D02*
X125764342Y-63785713D01*
X125764342Y-63785713D02*
X125859580Y-63738094D01*
X125859580Y-63738094D02*
X125907200Y-63690475D01*
X125907200Y-63690475D02*
X125954819Y-63595237D01*
X125954819Y-63595237D02*
X125954819Y-63404761D01*
X125954819Y-63404761D02*
X125907200Y-63309523D01*
X125907200Y-63309523D02*
X125859580Y-63261904D01*
X125859580Y-63261904D02*
X125764342Y-63214285D01*
X125764342Y-63214285D02*
X125573866Y-63214285D01*
X125573866Y-63214285D02*
X125478628Y-63261904D01*
X125478628Y-63261904D02*
X125431009Y-63309523D01*
X125431009Y-63309523D02*
X125383390Y-63404761D01*
%TO.C,D2*%
X150899405Y-54254819D02*
X150899405Y-53254819D01*
X150899405Y-53254819D02*
X151137500Y-53254819D01*
X151137500Y-53254819D02*
X151280357Y-53302438D01*
X151280357Y-53302438D02*
X151375595Y-53397676D01*
X151375595Y-53397676D02*
X151423214Y-53492914D01*
X151423214Y-53492914D02*
X151470833Y-53683390D01*
X151470833Y-53683390D02*
X151470833Y-53826247D01*
X151470833Y-53826247D02*
X151423214Y-54016723D01*
X151423214Y-54016723D02*
X151375595Y-54111961D01*
X151375595Y-54111961D02*
X151280357Y-54207200D01*
X151280357Y-54207200D02*
X151137500Y-54254819D01*
X151137500Y-54254819D02*
X150899405Y-54254819D01*
X151851786Y-53350057D02*
X151899405Y-53302438D01*
X151899405Y-53302438D02*
X151994643Y-53254819D01*
X151994643Y-53254819D02*
X152232738Y-53254819D01*
X152232738Y-53254819D02*
X152327976Y-53302438D01*
X152327976Y-53302438D02*
X152375595Y-53350057D01*
X152375595Y-53350057D02*
X152423214Y-53445295D01*
X152423214Y-53445295D02*
X152423214Y-53540533D01*
X152423214Y-53540533D02*
X152375595Y-53683390D01*
X152375595Y-53683390D02*
X151804167Y-54254819D01*
X151804167Y-54254819D02*
X152423214Y-54254819D01*
%TO.C,D25*%
X122054819Y-82214285D02*
X121054819Y-82214285D01*
X121054819Y-82214285D02*
X121054819Y-81976190D01*
X121054819Y-81976190D02*
X121102438Y-81833333D01*
X121102438Y-81833333D02*
X121197676Y-81738095D01*
X121197676Y-81738095D02*
X121292914Y-81690476D01*
X121292914Y-81690476D02*
X121483390Y-81642857D01*
X121483390Y-81642857D02*
X121626247Y-81642857D01*
X121626247Y-81642857D02*
X121816723Y-81690476D01*
X121816723Y-81690476D02*
X121911961Y-81738095D01*
X121911961Y-81738095D02*
X122007200Y-81833333D01*
X122007200Y-81833333D02*
X122054819Y-81976190D01*
X122054819Y-81976190D02*
X122054819Y-82214285D01*
X121150057Y-81261904D02*
X121102438Y-81214285D01*
X121102438Y-81214285D02*
X121054819Y-81119047D01*
X121054819Y-81119047D02*
X121054819Y-80880952D01*
X121054819Y-80880952D02*
X121102438Y-80785714D01*
X121102438Y-80785714D02*
X121150057Y-80738095D01*
X121150057Y-80738095D02*
X121245295Y-80690476D01*
X121245295Y-80690476D02*
X121340533Y-80690476D01*
X121340533Y-80690476D02*
X121483390Y-80738095D01*
X121483390Y-80738095D02*
X122054819Y-81309523D01*
X122054819Y-81309523D02*
X122054819Y-80690476D01*
X121054819Y-79785714D02*
X121054819Y-80261904D01*
X121054819Y-80261904D02*
X121531009Y-80309523D01*
X121531009Y-80309523D02*
X121483390Y-80261904D01*
X121483390Y-80261904D02*
X121435771Y-80166666D01*
X121435771Y-80166666D02*
X121435771Y-79928571D01*
X121435771Y-79928571D02*
X121483390Y-79833333D01*
X121483390Y-79833333D02*
X121531009Y-79785714D01*
X121531009Y-79785714D02*
X121626247Y-79738095D01*
X121626247Y-79738095D02*
X121864342Y-79738095D01*
X121864342Y-79738095D02*
X121959580Y-79785714D01*
X121959580Y-79785714D02*
X122007200Y-79833333D01*
X122007200Y-79833333D02*
X122054819Y-79928571D01*
X122054819Y-79928571D02*
X122054819Y-80166666D01*
X122054819Y-80166666D02*
X122007200Y-80261904D01*
X122007200Y-80261904D02*
X121959580Y-80309523D01*
%TO.C,R16*%
X147954819Y-81642857D02*
X147478628Y-81976190D01*
X147954819Y-82214285D02*
X146954819Y-82214285D01*
X146954819Y-82214285D02*
X146954819Y-81833333D01*
X146954819Y-81833333D02*
X147002438Y-81738095D01*
X147002438Y-81738095D02*
X147050057Y-81690476D01*
X147050057Y-81690476D02*
X147145295Y-81642857D01*
X147145295Y-81642857D02*
X147288152Y-81642857D01*
X147288152Y-81642857D02*
X147383390Y-81690476D01*
X147383390Y-81690476D02*
X147431009Y-81738095D01*
X147431009Y-81738095D02*
X147478628Y-81833333D01*
X147478628Y-81833333D02*
X147478628Y-82214285D01*
X147954819Y-80690476D02*
X147954819Y-81261904D01*
X147954819Y-80976190D02*
X146954819Y-80976190D01*
X146954819Y-80976190D02*
X147097676Y-81071428D01*
X147097676Y-81071428D02*
X147192914Y-81166666D01*
X147192914Y-81166666D02*
X147240533Y-81261904D01*
X146954819Y-79833333D02*
X146954819Y-80023809D01*
X146954819Y-80023809D02*
X147002438Y-80119047D01*
X147002438Y-80119047D02*
X147050057Y-80166666D01*
X147050057Y-80166666D02*
X147192914Y-80261904D01*
X147192914Y-80261904D02*
X147383390Y-80309523D01*
X147383390Y-80309523D02*
X147764342Y-80309523D01*
X147764342Y-80309523D02*
X147859580Y-80261904D01*
X147859580Y-80261904D02*
X147907200Y-80214285D01*
X147907200Y-80214285D02*
X147954819Y-80119047D01*
X147954819Y-80119047D02*
X147954819Y-79928571D01*
X147954819Y-79928571D02*
X147907200Y-79833333D01*
X147907200Y-79833333D02*
X147859580Y-79785714D01*
X147859580Y-79785714D02*
X147764342Y-79738095D01*
X147764342Y-79738095D02*
X147526247Y-79738095D01*
X147526247Y-79738095D02*
X147431009Y-79785714D01*
X147431009Y-79785714D02*
X147383390Y-79833333D01*
X147383390Y-79833333D02*
X147335771Y-79928571D01*
X147335771Y-79928571D02*
X147335771Y-80119047D01*
X147335771Y-80119047D02*
X147383390Y-80214285D01*
X147383390Y-80214285D02*
X147431009Y-80261904D01*
X147431009Y-80261904D02*
X147526247Y-80309523D01*
%TO.C,C20*%
X149357142Y-86039580D02*
X149309523Y-86087200D01*
X149309523Y-86087200D02*
X149166666Y-86134819D01*
X149166666Y-86134819D02*
X149071428Y-86134819D01*
X149071428Y-86134819D02*
X148928571Y-86087200D01*
X148928571Y-86087200D02*
X148833333Y-85991961D01*
X148833333Y-85991961D02*
X148785714Y-85896723D01*
X148785714Y-85896723D02*
X148738095Y-85706247D01*
X148738095Y-85706247D02*
X148738095Y-85563390D01*
X148738095Y-85563390D02*
X148785714Y-85372914D01*
X148785714Y-85372914D02*
X148833333Y-85277676D01*
X148833333Y-85277676D02*
X148928571Y-85182438D01*
X148928571Y-85182438D02*
X149071428Y-85134819D01*
X149071428Y-85134819D02*
X149166666Y-85134819D01*
X149166666Y-85134819D02*
X149309523Y-85182438D01*
X149309523Y-85182438D02*
X149357142Y-85230057D01*
X149738095Y-85230057D02*
X149785714Y-85182438D01*
X149785714Y-85182438D02*
X149880952Y-85134819D01*
X149880952Y-85134819D02*
X150119047Y-85134819D01*
X150119047Y-85134819D02*
X150214285Y-85182438D01*
X150214285Y-85182438D02*
X150261904Y-85230057D01*
X150261904Y-85230057D02*
X150309523Y-85325295D01*
X150309523Y-85325295D02*
X150309523Y-85420533D01*
X150309523Y-85420533D02*
X150261904Y-85563390D01*
X150261904Y-85563390D02*
X149690476Y-86134819D01*
X149690476Y-86134819D02*
X150309523Y-86134819D01*
X150928571Y-85134819D02*
X151023809Y-85134819D01*
X151023809Y-85134819D02*
X151119047Y-85182438D01*
X151119047Y-85182438D02*
X151166666Y-85230057D01*
X151166666Y-85230057D02*
X151214285Y-85325295D01*
X151214285Y-85325295D02*
X151261904Y-85515771D01*
X151261904Y-85515771D02*
X151261904Y-85753866D01*
X151261904Y-85753866D02*
X151214285Y-85944342D01*
X151214285Y-85944342D02*
X151166666Y-86039580D01*
X151166666Y-86039580D02*
X151119047Y-86087200D01*
X151119047Y-86087200D02*
X151023809Y-86134819D01*
X151023809Y-86134819D02*
X150928571Y-86134819D01*
X150928571Y-86134819D02*
X150833333Y-86087200D01*
X150833333Y-86087200D02*
X150785714Y-86039580D01*
X150785714Y-86039580D02*
X150738095Y-85944342D01*
X150738095Y-85944342D02*
X150690476Y-85753866D01*
X150690476Y-85753866D02*
X150690476Y-85515771D01*
X150690476Y-85515771D02*
X150738095Y-85325295D01*
X150738095Y-85325295D02*
X150785714Y-85230057D01*
X150785714Y-85230057D02*
X150833333Y-85182438D01*
X150833333Y-85182438D02*
X150928571Y-85134819D01*
%TO.C,J7*%
X113966666Y-96199819D02*
X113966666Y-96914104D01*
X113966666Y-96914104D02*
X113919047Y-97056961D01*
X113919047Y-97056961D02*
X113823809Y-97152200D01*
X113823809Y-97152200D02*
X113680952Y-97199819D01*
X113680952Y-97199819D02*
X113585714Y-97199819D01*
X114347619Y-96199819D02*
X115014285Y-96199819D01*
X115014285Y-96199819D02*
X114585714Y-97199819D01*
%TO.C,J5*%
X124489819Y-114633333D02*
X125204104Y-114633333D01*
X125204104Y-114633333D02*
X125346961Y-114680952D01*
X125346961Y-114680952D02*
X125442200Y-114776190D01*
X125442200Y-114776190D02*
X125489819Y-114919047D01*
X125489819Y-114919047D02*
X125489819Y-115014285D01*
X124489819Y-113680952D02*
X124489819Y-114157142D01*
X124489819Y-114157142D02*
X124966009Y-114204761D01*
X124966009Y-114204761D02*
X124918390Y-114157142D01*
X124918390Y-114157142D02*
X124870771Y-114061904D01*
X124870771Y-114061904D02*
X124870771Y-113823809D01*
X124870771Y-113823809D02*
X124918390Y-113728571D01*
X124918390Y-113728571D02*
X124966009Y-113680952D01*
X124966009Y-113680952D02*
X125061247Y-113633333D01*
X125061247Y-113633333D02*
X125299342Y-113633333D01*
X125299342Y-113633333D02*
X125394580Y-113680952D01*
X125394580Y-113680952D02*
X125442200Y-113728571D01*
X125442200Y-113728571D02*
X125489819Y-113823809D01*
X125489819Y-113823809D02*
X125489819Y-114061904D01*
X125489819Y-114061904D02*
X125442200Y-114157142D01*
X125442200Y-114157142D02*
X125394580Y-114204761D01*
%TO.C,R18*%
X152357142Y-77954819D02*
X152023809Y-77478628D01*
X151785714Y-77954819D02*
X151785714Y-76954819D01*
X151785714Y-76954819D02*
X152166666Y-76954819D01*
X152166666Y-76954819D02*
X152261904Y-77002438D01*
X152261904Y-77002438D02*
X152309523Y-77050057D01*
X152309523Y-77050057D02*
X152357142Y-77145295D01*
X152357142Y-77145295D02*
X152357142Y-77288152D01*
X152357142Y-77288152D02*
X152309523Y-77383390D01*
X152309523Y-77383390D02*
X152261904Y-77431009D01*
X152261904Y-77431009D02*
X152166666Y-77478628D01*
X152166666Y-77478628D02*
X151785714Y-77478628D01*
X153309523Y-77954819D02*
X152738095Y-77954819D01*
X153023809Y-77954819D02*
X153023809Y-76954819D01*
X153023809Y-76954819D02*
X152928571Y-77097676D01*
X152928571Y-77097676D02*
X152833333Y-77192914D01*
X152833333Y-77192914D02*
X152738095Y-77240533D01*
X153880952Y-77383390D02*
X153785714Y-77335771D01*
X153785714Y-77335771D02*
X153738095Y-77288152D01*
X153738095Y-77288152D02*
X153690476Y-77192914D01*
X153690476Y-77192914D02*
X153690476Y-77145295D01*
X153690476Y-77145295D02*
X153738095Y-77050057D01*
X153738095Y-77050057D02*
X153785714Y-77002438D01*
X153785714Y-77002438D02*
X153880952Y-76954819D01*
X153880952Y-76954819D02*
X154071428Y-76954819D01*
X154071428Y-76954819D02*
X154166666Y-77002438D01*
X154166666Y-77002438D02*
X154214285Y-77050057D01*
X154214285Y-77050057D02*
X154261904Y-77145295D01*
X154261904Y-77145295D02*
X154261904Y-77192914D01*
X154261904Y-77192914D02*
X154214285Y-77288152D01*
X154214285Y-77288152D02*
X154166666Y-77335771D01*
X154166666Y-77335771D02*
X154071428Y-77383390D01*
X154071428Y-77383390D02*
X153880952Y-77383390D01*
X153880952Y-77383390D02*
X153785714Y-77431009D01*
X153785714Y-77431009D02*
X153738095Y-77478628D01*
X153738095Y-77478628D02*
X153690476Y-77573866D01*
X153690476Y-77573866D02*
X153690476Y-77764342D01*
X153690476Y-77764342D02*
X153738095Y-77859580D01*
X153738095Y-77859580D02*
X153785714Y-77907200D01*
X153785714Y-77907200D02*
X153880952Y-77954819D01*
X153880952Y-77954819D02*
X154071428Y-77954819D01*
X154071428Y-77954819D02*
X154166666Y-77907200D01*
X154166666Y-77907200D02*
X154214285Y-77859580D01*
X154214285Y-77859580D02*
X154261904Y-77764342D01*
X154261904Y-77764342D02*
X154261904Y-77573866D01*
X154261904Y-77573866D02*
X154214285Y-77478628D01*
X154214285Y-77478628D02*
X154166666Y-77431009D01*
X154166666Y-77431009D02*
X154071428Y-77383390D01*
%TO.C,J2*%
X158416666Y-46454819D02*
X158416666Y-47169104D01*
X158416666Y-47169104D02*
X158369047Y-47311961D01*
X158369047Y-47311961D02*
X158273809Y-47407200D01*
X158273809Y-47407200D02*
X158130952Y-47454819D01*
X158130952Y-47454819D02*
X158035714Y-47454819D01*
X158845238Y-46550057D02*
X158892857Y-46502438D01*
X158892857Y-46502438D02*
X158988095Y-46454819D01*
X158988095Y-46454819D02*
X159226190Y-46454819D01*
X159226190Y-46454819D02*
X159321428Y-46502438D01*
X159321428Y-46502438D02*
X159369047Y-46550057D01*
X159369047Y-46550057D02*
X159416666Y-46645295D01*
X159416666Y-46645295D02*
X159416666Y-46740533D01*
X159416666Y-46740533D02*
X159369047Y-46883390D01*
X159369047Y-46883390D02*
X158797619Y-47454819D01*
X158797619Y-47454819D02*
X159416666Y-47454819D01*
%TO.C,R32*%
X121357142Y-70954819D02*
X121023809Y-70478628D01*
X120785714Y-70954819D02*
X120785714Y-69954819D01*
X120785714Y-69954819D02*
X121166666Y-69954819D01*
X121166666Y-69954819D02*
X121261904Y-70002438D01*
X121261904Y-70002438D02*
X121309523Y-70050057D01*
X121309523Y-70050057D02*
X121357142Y-70145295D01*
X121357142Y-70145295D02*
X121357142Y-70288152D01*
X121357142Y-70288152D02*
X121309523Y-70383390D01*
X121309523Y-70383390D02*
X121261904Y-70431009D01*
X121261904Y-70431009D02*
X121166666Y-70478628D01*
X121166666Y-70478628D02*
X120785714Y-70478628D01*
X121690476Y-69954819D02*
X122309523Y-69954819D01*
X122309523Y-69954819D02*
X121976190Y-70335771D01*
X121976190Y-70335771D02*
X122119047Y-70335771D01*
X122119047Y-70335771D02*
X122214285Y-70383390D01*
X122214285Y-70383390D02*
X122261904Y-70431009D01*
X122261904Y-70431009D02*
X122309523Y-70526247D01*
X122309523Y-70526247D02*
X122309523Y-70764342D01*
X122309523Y-70764342D02*
X122261904Y-70859580D01*
X122261904Y-70859580D02*
X122214285Y-70907200D01*
X122214285Y-70907200D02*
X122119047Y-70954819D01*
X122119047Y-70954819D02*
X121833333Y-70954819D01*
X121833333Y-70954819D02*
X121738095Y-70907200D01*
X121738095Y-70907200D02*
X121690476Y-70859580D01*
X122690476Y-70050057D02*
X122738095Y-70002438D01*
X122738095Y-70002438D02*
X122833333Y-69954819D01*
X122833333Y-69954819D02*
X123071428Y-69954819D01*
X123071428Y-69954819D02*
X123166666Y-70002438D01*
X123166666Y-70002438D02*
X123214285Y-70050057D01*
X123214285Y-70050057D02*
X123261904Y-70145295D01*
X123261904Y-70145295D02*
X123261904Y-70240533D01*
X123261904Y-70240533D02*
X123214285Y-70383390D01*
X123214285Y-70383390D02*
X122642857Y-70954819D01*
X122642857Y-70954819D02*
X123261904Y-70954819D01*
%TO.C,R10*%
X136104819Y-110642857D02*
X135628628Y-110976190D01*
X136104819Y-111214285D02*
X135104819Y-111214285D01*
X135104819Y-111214285D02*
X135104819Y-110833333D01*
X135104819Y-110833333D02*
X135152438Y-110738095D01*
X135152438Y-110738095D02*
X135200057Y-110690476D01*
X135200057Y-110690476D02*
X135295295Y-110642857D01*
X135295295Y-110642857D02*
X135438152Y-110642857D01*
X135438152Y-110642857D02*
X135533390Y-110690476D01*
X135533390Y-110690476D02*
X135581009Y-110738095D01*
X135581009Y-110738095D02*
X135628628Y-110833333D01*
X135628628Y-110833333D02*
X135628628Y-111214285D01*
X136104819Y-109690476D02*
X136104819Y-110261904D01*
X136104819Y-109976190D02*
X135104819Y-109976190D01*
X135104819Y-109976190D02*
X135247676Y-110071428D01*
X135247676Y-110071428D02*
X135342914Y-110166666D01*
X135342914Y-110166666D02*
X135390533Y-110261904D01*
X135104819Y-109071428D02*
X135104819Y-108976190D01*
X135104819Y-108976190D02*
X135152438Y-108880952D01*
X135152438Y-108880952D02*
X135200057Y-108833333D01*
X135200057Y-108833333D02*
X135295295Y-108785714D01*
X135295295Y-108785714D02*
X135485771Y-108738095D01*
X135485771Y-108738095D02*
X135723866Y-108738095D01*
X135723866Y-108738095D02*
X135914342Y-108785714D01*
X135914342Y-108785714D02*
X136009580Y-108833333D01*
X136009580Y-108833333D02*
X136057200Y-108880952D01*
X136057200Y-108880952D02*
X136104819Y-108976190D01*
X136104819Y-108976190D02*
X136104819Y-109071428D01*
X136104819Y-109071428D02*
X136057200Y-109166666D01*
X136057200Y-109166666D02*
X136009580Y-109214285D01*
X136009580Y-109214285D02*
X135914342Y-109261904D01*
X135914342Y-109261904D02*
X135723866Y-109309523D01*
X135723866Y-109309523D02*
X135485771Y-109309523D01*
X135485771Y-109309523D02*
X135295295Y-109261904D01*
X135295295Y-109261904D02*
X135200057Y-109214285D01*
X135200057Y-109214285D02*
X135152438Y-109166666D01*
X135152438Y-109166666D02*
X135104819Y-109071428D01*
%TO.C,D3*%
X129261905Y-64954819D02*
X129261905Y-63954819D01*
X129261905Y-63954819D02*
X129500000Y-63954819D01*
X129500000Y-63954819D02*
X129642857Y-64002438D01*
X129642857Y-64002438D02*
X129738095Y-64097676D01*
X129738095Y-64097676D02*
X129785714Y-64192914D01*
X129785714Y-64192914D02*
X129833333Y-64383390D01*
X129833333Y-64383390D02*
X129833333Y-64526247D01*
X129833333Y-64526247D02*
X129785714Y-64716723D01*
X129785714Y-64716723D02*
X129738095Y-64811961D01*
X129738095Y-64811961D02*
X129642857Y-64907200D01*
X129642857Y-64907200D02*
X129500000Y-64954819D01*
X129500000Y-64954819D02*
X129261905Y-64954819D01*
X130166667Y-63954819D02*
X130785714Y-63954819D01*
X130785714Y-63954819D02*
X130452381Y-64335771D01*
X130452381Y-64335771D02*
X130595238Y-64335771D01*
X130595238Y-64335771D02*
X130690476Y-64383390D01*
X130690476Y-64383390D02*
X130738095Y-64431009D01*
X130738095Y-64431009D02*
X130785714Y-64526247D01*
X130785714Y-64526247D02*
X130785714Y-64764342D01*
X130785714Y-64764342D02*
X130738095Y-64859580D01*
X130738095Y-64859580D02*
X130690476Y-64907200D01*
X130690476Y-64907200D02*
X130595238Y-64954819D01*
X130595238Y-64954819D02*
X130309524Y-64954819D01*
X130309524Y-64954819D02*
X130214286Y-64907200D01*
X130214286Y-64907200D02*
X130166667Y-64859580D01*
%TO.C,C23*%
X121357142Y-106859580D02*
X121309523Y-106907200D01*
X121309523Y-106907200D02*
X121166666Y-106954819D01*
X121166666Y-106954819D02*
X121071428Y-106954819D01*
X121071428Y-106954819D02*
X120928571Y-106907200D01*
X120928571Y-106907200D02*
X120833333Y-106811961D01*
X120833333Y-106811961D02*
X120785714Y-106716723D01*
X120785714Y-106716723D02*
X120738095Y-106526247D01*
X120738095Y-106526247D02*
X120738095Y-106383390D01*
X120738095Y-106383390D02*
X120785714Y-106192914D01*
X120785714Y-106192914D02*
X120833333Y-106097676D01*
X120833333Y-106097676D02*
X120928571Y-106002438D01*
X120928571Y-106002438D02*
X121071428Y-105954819D01*
X121071428Y-105954819D02*
X121166666Y-105954819D01*
X121166666Y-105954819D02*
X121309523Y-106002438D01*
X121309523Y-106002438D02*
X121357142Y-106050057D01*
X121738095Y-106050057D02*
X121785714Y-106002438D01*
X121785714Y-106002438D02*
X121880952Y-105954819D01*
X121880952Y-105954819D02*
X122119047Y-105954819D01*
X122119047Y-105954819D02*
X122214285Y-106002438D01*
X122214285Y-106002438D02*
X122261904Y-106050057D01*
X122261904Y-106050057D02*
X122309523Y-106145295D01*
X122309523Y-106145295D02*
X122309523Y-106240533D01*
X122309523Y-106240533D02*
X122261904Y-106383390D01*
X122261904Y-106383390D02*
X121690476Y-106954819D01*
X121690476Y-106954819D02*
X122309523Y-106954819D01*
X122642857Y-105954819D02*
X123261904Y-105954819D01*
X123261904Y-105954819D02*
X122928571Y-106335771D01*
X122928571Y-106335771D02*
X123071428Y-106335771D01*
X123071428Y-106335771D02*
X123166666Y-106383390D01*
X123166666Y-106383390D02*
X123214285Y-106431009D01*
X123214285Y-106431009D02*
X123261904Y-106526247D01*
X123261904Y-106526247D02*
X123261904Y-106764342D01*
X123261904Y-106764342D02*
X123214285Y-106859580D01*
X123214285Y-106859580D02*
X123166666Y-106907200D01*
X123166666Y-106907200D02*
X123071428Y-106954819D01*
X123071428Y-106954819D02*
X122785714Y-106954819D01*
X122785714Y-106954819D02*
X122690476Y-106907200D01*
X122690476Y-106907200D02*
X122642857Y-106859580D01*
%TO.C,J8*%
X113966666Y-79689819D02*
X113966666Y-80404104D01*
X113966666Y-80404104D02*
X113919047Y-80546961D01*
X113919047Y-80546961D02*
X113823809Y-80642200D01*
X113823809Y-80642200D02*
X113680952Y-80689819D01*
X113680952Y-80689819D02*
X113585714Y-80689819D01*
X114585714Y-80118390D02*
X114490476Y-80070771D01*
X114490476Y-80070771D02*
X114442857Y-80023152D01*
X114442857Y-80023152D02*
X114395238Y-79927914D01*
X114395238Y-79927914D02*
X114395238Y-79880295D01*
X114395238Y-79880295D02*
X114442857Y-79785057D01*
X114442857Y-79785057D02*
X114490476Y-79737438D01*
X114490476Y-79737438D02*
X114585714Y-79689819D01*
X114585714Y-79689819D02*
X114776190Y-79689819D01*
X114776190Y-79689819D02*
X114871428Y-79737438D01*
X114871428Y-79737438D02*
X114919047Y-79785057D01*
X114919047Y-79785057D02*
X114966666Y-79880295D01*
X114966666Y-79880295D02*
X114966666Y-79927914D01*
X114966666Y-79927914D02*
X114919047Y-80023152D01*
X114919047Y-80023152D02*
X114871428Y-80070771D01*
X114871428Y-80070771D02*
X114776190Y-80118390D01*
X114776190Y-80118390D02*
X114585714Y-80118390D01*
X114585714Y-80118390D02*
X114490476Y-80166009D01*
X114490476Y-80166009D02*
X114442857Y-80213628D01*
X114442857Y-80213628D02*
X114395238Y-80308866D01*
X114395238Y-80308866D02*
X114395238Y-80499342D01*
X114395238Y-80499342D02*
X114442857Y-80594580D01*
X114442857Y-80594580D02*
X114490476Y-80642200D01*
X114490476Y-80642200D02*
X114585714Y-80689819D01*
X114585714Y-80689819D02*
X114776190Y-80689819D01*
X114776190Y-80689819D02*
X114871428Y-80642200D01*
X114871428Y-80642200D02*
X114919047Y-80594580D01*
X114919047Y-80594580D02*
X114966666Y-80499342D01*
X114966666Y-80499342D02*
X114966666Y-80308866D01*
X114966666Y-80308866D02*
X114919047Y-80213628D01*
X114919047Y-80213628D02*
X114871428Y-80166009D01*
X114871428Y-80166009D02*
X114776190Y-80118390D01*
%TO.C,R40*%
X143454819Y-70642857D02*
X142978628Y-70976190D01*
X143454819Y-71214285D02*
X142454819Y-71214285D01*
X142454819Y-71214285D02*
X142454819Y-70833333D01*
X142454819Y-70833333D02*
X142502438Y-70738095D01*
X142502438Y-70738095D02*
X142550057Y-70690476D01*
X142550057Y-70690476D02*
X142645295Y-70642857D01*
X142645295Y-70642857D02*
X142788152Y-70642857D01*
X142788152Y-70642857D02*
X142883390Y-70690476D01*
X142883390Y-70690476D02*
X142931009Y-70738095D01*
X142931009Y-70738095D02*
X142978628Y-70833333D01*
X142978628Y-70833333D02*
X142978628Y-71214285D01*
X142788152Y-69785714D02*
X143454819Y-69785714D01*
X142407200Y-70023809D02*
X143121485Y-70261904D01*
X143121485Y-70261904D02*
X143121485Y-69642857D01*
X142454819Y-69071428D02*
X142454819Y-68976190D01*
X142454819Y-68976190D02*
X142502438Y-68880952D01*
X142502438Y-68880952D02*
X142550057Y-68833333D01*
X142550057Y-68833333D02*
X142645295Y-68785714D01*
X142645295Y-68785714D02*
X142835771Y-68738095D01*
X142835771Y-68738095D02*
X143073866Y-68738095D01*
X143073866Y-68738095D02*
X143264342Y-68785714D01*
X143264342Y-68785714D02*
X143359580Y-68833333D01*
X143359580Y-68833333D02*
X143407200Y-68880952D01*
X143407200Y-68880952D02*
X143454819Y-68976190D01*
X143454819Y-68976190D02*
X143454819Y-69071428D01*
X143454819Y-69071428D02*
X143407200Y-69166666D01*
X143407200Y-69166666D02*
X143359580Y-69214285D01*
X143359580Y-69214285D02*
X143264342Y-69261904D01*
X143264342Y-69261904D02*
X143073866Y-69309523D01*
X143073866Y-69309523D02*
X142835771Y-69309523D01*
X142835771Y-69309523D02*
X142645295Y-69261904D01*
X142645295Y-69261904D02*
X142550057Y-69214285D01*
X142550057Y-69214285D02*
X142502438Y-69166666D01*
X142502438Y-69166666D02*
X142454819Y-69071428D01*
%TO.C,C6*%
X116333333Y-94359580D02*
X116285714Y-94407200D01*
X116285714Y-94407200D02*
X116142857Y-94454819D01*
X116142857Y-94454819D02*
X116047619Y-94454819D01*
X116047619Y-94454819D02*
X115904762Y-94407200D01*
X115904762Y-94407200D02*
X115809524Y-94311961D01*
X115809524Y-94311961D02*
X115761905Y-94216723D01*
X115761905Y-94216723D02*
X115714286Y-94026247D01*
X115714286Y-94026247D02*
X115714286Y-93883390D01*
X115714286Y-93883390D02*
X115761905Y-93692914D01*
X115761905Y-93692914D02*
X115809524Y-93597676D01*
X115809524Y-93597676D02*
X115904762Y-93502438D01*
X115904762Y-93502438D02*
X116047619Y-93454819D01*
X116047619Y-93454819D02*
X116142857Y-93454819D01*
X116142857Y-93454819D02*
X116285714Y-93502438D01*
X116285714Y-93502438D02*
X116333333Y-93550057D01*
X117190476Y-93454819D02*
X117000000Y-93454819D01*
X117000000Y-93454819D02*
X116904762Y-93502438D01*
X116904762Y-93502438D02*
X116857143Y-93550057D01*
X116857143Y-93550057D02*
X116761905Y-93692914D01*
X116761905Y-93692914D02*
X116714286Y-93883390D01*
X116714286Y-93883390D02*
X116714286Y-94264342D01*
X116714286Y-94264342D02*
X116761905Y-94359580D01*
X116761905Y-94359580D02*
X116809524Y-94407200D01*
X116809524Y-94407200D02*
X116904762Y-94454819D01*
X116904762Y-94454819D02*
X117095238Y-94454819D01*
X117095238Y-94454819D02*
X117190476Y-94407200D01*
X117190476Y-94407200D02*
X117238095Y-94359580D01*
X117238095Y-94359580D02*
X117285714Y-94264342D01*
X117285714Y-94264342D02*
X117285714Y-94026247D01*
X117285714Y-94026247D02*
X117238095Y-93931009D01*
X117238095Y-93931009D02*
X117190476Y-93883390D01*
X117190476Y-93883390D02*
X117095238Y-93835771D01*
X117095238Y-93835771D02*
X116904762Y-93835771D01*
X116904762Y-93835771D02*
X116809524Y-93883390D01*
X116809524Y-93883390D02*
X116761905Y-93931009D01*
X116761905Y-93931009D02*
X116714286Y-94026247D01*
%TO.C,C19*%
X134357142Y-66679580D02*
X134309523Y-66727200D01*
X134309523Y-66727200D02*
X134166666Y-66774819D01*
X134166666Y-66774819D02*
X134071428Y-66774819D01*
X134071428Y-66774819D02*
X133928571Y-66727200D01*
X133928571Y-66727200D02*
X133833333Y-66631961D01*
X133833333Y-66631961D02*
X133785714Y-66536723D01*
X133785714Y-66536723D02*
X133738095Y-66346247D01*
X133738095Y-66346247D02*
X133738095Y-66203390D01*
X133738095Y-66203390D02*
X133785714Y-66012914D01*
X133785714Y-66012914D02*
X133833333Y-65917676D01*
X133833333Y-65917676D02*
X133928571Y-65822438D01*
X133928571Y-65822438D02*
X134071428Y-65774819D01*
X134071428Y-65774819D02*
X134166666Y-65774819D01*
X134166666Y-65774819D02*
X134309523Y-65822438D01*
X134309523Y-65822438D02*
X134357142Y-65870057D01*
X135309523Y-66774819D02*
X134738095Y-66774819D01*
X135023809Y-66774819D02*
X135023809Y-65774819D01*
X135023809Y-65774819D02*
X134928571Y-65917676D01*
X134928571Y-65917676D02*
X134833333Y-66012914D01*
X134833333Y-66012914D02*
X134738095Y-66060533D01*
X135785714Y-66774819D02*
X135976190Y-66774819D01*
X135976190Y-66774819D02*
X136071428Y-66727200D01*
X136071428Y-66727200D02*
X136119047Y-66679580D01*
X136119047Y-66679580D02*
X136214285Y-66536723D01*
X136214285Y-66536723D02*
X136261904Y-66346247D01*
X136261904Y-66346247D02*
X136261904Y-65965295D01*
X136261904Y-65965295D02*
X136214285Y-65870057D01*
X136214285Y-65870057D02*
X136166666Y-65822438D01*
X136166666Y-65822438D02*
X136071428Y-65774819D01*
X136071428Y-65774819D02*
X135880952Y-65774819D01*
X135880952Y-65774819D02*
X135785714Y-65822438D01*
X135785714Y-65822438D02*
X135738095Y-65870057D01*
X135738095Y-65870057D02*
X135690476Y-65965295D01*
X135690476Y-65965295D02*
X135690476Y-66203390D01*
X135690476Y-66203390D02*
X135738095Y-66298628D01*
X135738095Y-66298628D02*
X135785714Y-66346247D01*
X135785714Y-66346247D02*
X135880952Y-66393866D01*
X135880952Y-66393866D02*
X136071428Y-66393866D01*
X136071428Y-66393866D02*
X136166666Y-66346247D01*
X136166666Y-66346247D02*
X136214285Y-66298628D01*
X136214285Y-66298628D02*
X136261904Y-66203390D01*
%TO.C,C39*%
X157429580Y-60642857D02*
X157477200Y-60690476D01*
X157477200Y-60690476D02*
X157524819Y-60833333D01*
X157524819Y-60833333D02*
X157524819Y-60928571D01*
X157524819Y-60928571D02*
X157477200Y-61071428D01*
X157477200Y-61071428D02*
X157381961Y-61166666D01*
X157381961Y-61166666D02*
X157286723Y-61214285D01*
X157286723Y-61214285D02*
X157096247Y-61261904D01*
X157096247Y-61261904D02*
X156953390Y-61261904D01*
X156953390Y-61261904D02*
X156762914Y-61214285D01*
X156762914Y-61214285D02*
X156667676Y-61166666D01*
X156667676Y-61166666D02*
X156572438Y-61071428D01*
X156572438Y-61071428D02*
X156524819Y-60928571D01*
X156524819Y-60928571D02*
X156524819Y-60833333D01*
X156524819Y-60833333D02*
X156572438Y-60690476D01*
X156572438Y-60690476D02*
X156620057Y-60642857D01*
X156524819Y-60309523D02*
X156524819Y-59690476D01*
X156524819Y-59690476D02*
X156905771Y-60023809D01*
X156905771Y-60023809D02*
X156905771Y-59880952D01*
X156905771Y-59880952D02*
X156953390Y-59785714D01*
X156953390Y-59785714D02*
X157001009Y-59738095D01*
X157001009Y-59738095D02*
X157096247Y-59690476D01*
X157096247Y-59690476D02*
X157334342Y-59690476D01*
X157334342Y-59690476D02*
X157429580Y-59738095D01*
X157429580Y-59738095D02*
X157477200Y-59785714D01*
X157477200Y-59785714D02*
X157524819Y-59880952D01*
X157524819Y-59880952D02*
X157524819Y-60166666D01*
X157524819Y-60166666D02*
X157477200Y-60261904D01*
X157477200Y-60261904D02*
X157429580Y-60309523D01*
X157524819Y-59214285D02*
X157524819Y-59023809D01*
X157524819Y-59023809D02*
X157477200Y-58928571D01*
X157477200Y-58928571D02*
X157429580Y-58880952D01*
X157429580Y-58880952D02*
X157286723Y-58785714D01*
X157286723Y-58785714D02*
X157096247Y-58738095D01*
X157096247Y-58738095D02*
X156715295Y-58738095D01*
X156715295Y-58738095D02*
X156620057Y-58785714D01*
X156620057Y-58785714D02*
X156572438Y-58833333D01*
X156572438Y-58833333D02*
X156524819Y-58928571D01*
X156524819Y-58928571D02*
X156524819Y-59119047D01*
X156524819Y-59119047D02*
X156572438Y-59214285D01*
X156572438Y-59214285D02*
X156620057Y-59261904D01*
X156620057Y-59261904D02*
X156715295Y-59309523D01*
X156715295Y-59309523D02*
X156953390Y-59309523D01*
X156953390Y-59309523D02*
X157048628Y-59261904D01*
X157048628Y-59261904D02*
X157096247Y-59214285D01*
X157096247Y-59214285D02*
X157143866Y-59119047D01*
X157143866Y-59119047D02*
X157143866Y-58928571D01*
X157143866Y-58928571D02*
X157096247Y-58833333D01*
X157096247Y-58833333D02*
X157048628Y-58785714D01*
X157048628Y-58785714D02*
X156953390Y-58738095D01*
%TO.C,R25*%
X121357142Y-68454819D02*
X121023809Y-67978628D01*
X120785714Y-68454819D02*
X120785714Y-67454819D01*
X120785714Y-67454819D02*
X121166666Y-67454819D01*
X121166666Y-67454819D02*
X121261904Y-67502438D01*
X121261904Y-67502438D02*
X121309523Y-67550057D01*
X121309523Y-67550057D02*
X121357142Y-67645295D01*
X121357142Y-67645295D02*
X121357142Y-67788152D01*
X121357142Y-67788152D02*
X121309523Y-67883390D01*
X121309523Y-67883390D02*
X121261904Y-67931009D01*
X121261904Y-67931009D02*
X121166666Y-67978628D01*
X121166666Y-67978628D02*
X120785714Y-67978628D01*
X121738095Y-67550057D02*
X121785714Y-67502438D01*
X121785714Y-67502438D02*
X121880952Y-67454819D01*
X121880952Y-67454819D02*
X122119047Y-67454819D01*
X122119047Y-67454819D02*
X122214285Y-67502438D01*
X122214285Y-67502438D02*
X122261904Y-67550057D01*
X122261904Y-67550057D02*
X122309523Y-67645295D01*
X122309523Y-67645295D02*
X122309523Y-67740533D01*
X122309523Y-67740533D02*
X122261904Y-67883390D01*
X122261904Y-67883390D02*
X121690476Y-68454819D01*
X121690476Y-68454819D02*
X122309523Y-68454819D01*
X123214285Y-67454819D02*
X122738095Y-67454819D01*
X122738095Y-67454819D02*
X122690476Y-67931009D01*
X122690476Y-67931009D02*
X122738095Y-67883390D01*
X122738095Y-67883390D02*
X122833333Y-67835771D01*
X122833333Y-67835771D02*
X123071428Y-67835771D01*
X123071428Y-67835771D02*
X123166666Y-67883390D01*
X123166666Y-67883390D02*
X123214285Y-67931009D01*
X123214285Y-67931009D02*
X123261904Y-68026247D01*
X123261904Y-68026247D02*
X123261904Y-68264342D01*
X123261904Y-68264342D02*
X123214285Y-68359580D01*
X123214285Y-68359580D02*
X123166666Y-68407200D01*
X123166666Y-68407200D02*
X123071428Y-68454819D01*
X123071428Y-68454819D02*
X122833333Y-68454819D01*
X122833333Y-68454819D02*
X122738095Y-68407200D01*
X122738095Y-68407200D02*
X122690476Y-68359580D01*
%TO.C,J15*%
X124920476Y-45174819D02*
X124920476Y-45889104D01*
X124920476Y-45889104D02*
X124872857Y-46031961D01*
X124872857Y-46031961D02*
X124777619Y-46127200D01*
X124777619Y-46127200D02*
X124634762Y-46174819D01*
X124634762Y-46174819D02*
X124539524Y-46174819D01*
X125920476Y-46174819D02*
X125349048Y-46174819D01*
X125634762Y-46174819D02*
X125634762Y-45174819D01*
X125634762Y-45174819D02*
X125539524Y-45317676D01*
X125539524Y-45317676D02*
X125444286Y-45412914D01*
X125444286Y-45412914D02*
X125349048Y-45460533D01*
X126825238Y-45174819D02*
X126349048Y-45174819D01*
X126349048Y-45174819D02*
X126301429Y-45651009D01*
X126301429Y-45651009D02*
X126349048Y-45603390D01*
X126349048Y-45603390D02*
X126444286Y-45555771D01*
X126444286Y-45555771D02*
X126682381Y-45555771D01*
X126682381Y-45555771D02*
X126777619Y-45603390D01*
X126777619Y-45603390D02*
X126825238Y-45651009D01*
X126825238Y-45651009D02*
X126872857Y-45746247D01*
X126872857Y-45746247D02*
X126872857Y-45984342D01*
X126872857Y-45984342D02*
X126825238Y-46079580D01*
X126825238Y-46079580D02*
X126777619Y-46127200D01*
X126777619Y-46127200D02*
X126682381Y-46174819D01*
X126682381Y-46174819D02*
X126444286Y-46174819D01*
X126444286Y-46174819D02*
X126349048Y-46127200D01*
X126349048Y-46127200D02*
X126301429Y-46079580D01*
%TO.C,R8*%
X153833333Y-104104819D02*
X153500000Y-103628628D01*
X153261905Y-104104819D02*
X153261905Y-103104819D01*
X153261905Y-103104819D02*
X153642857Y-103104819D01*
X153642857Y-103104819D02*
X153738095Y-103152438D01*
X153738095Y-103152438D02*
X153785714Y-103200057D01*
X153785714Y-103200057D02*
X153833333Y-103295295D01*
X153833333Y-103295295D02*
X153833333Y-103438152D01*
X153833333Y-103438152D02*
X153785714Y-103533390D01*
X153785714Y-103533390D02*
X153738095Y-103581009D01*
X153738095Y-103581009D02*
X153642857Y-103628628D01*
X153642857Y-103628628D02*
X153261905Y-103628628D01*
X154404762Y-103533390D02*
X154309524Y-103485771D01*
X154309524Y-103485771D02*
X154261905Y-103438152D01*
X154261905Y-103438152D02*
X154214286Y-103342914D01*
X154214286Y-103342914D02*
X154214286Y-103295295D01*
X154214286Y-103295295D02*
X154261905Y-103200057D01*
X154261905Y-103200057D02*
X154309524Y-103152438D01*
X154309524Y-103152438D02*
X154404762Y-103104819D01*
X154404762Y-103104819D02*
X154595238Y-103104819D01*
X154595238Y-103104819D02*
X154690476Y-103152438D01*
X154690476Y-103152438D02*
X154738095Y-103200057D01*
X154738095Y-103200057D02*
X154785714Y-103295295D01*
X154785714Y-103295295D02*
X154785714Y-103342914D01*
X154785714Y-103342914D02*
X154738095Y-103438152D01*
X154738095Y-103438152D02*
X154690476Y-103485771D01*
X154690476Y-103485771D02*
X154595238Y-103533390D01*
X154595238Y-103533390D02*
X154404762Y-103533390D01*
X154404762Y-103533390D02*
X154309524Y-103581009D01*
X154309524Y-103581009D02*
X154261905Y-103628628D01*
X154261905Y-103628628D02*
X154214286Y-103723866D01*
X154214286Y-103723866D02*
X154214286Y-103914342D01*
X154214286Y-103914342D02*
X154261905Y-104009580D01*
X154261905Y-104009580D02*
X154309524Y-104057200D01*
X154309524Y-104057200D02*
X154404762Y-104104819D01*
X154404762Y-104104819D02*
X154595238Y-104104819D01*
X154595238Y-104104819D02*
X154690476Y-104057200D01*
X154690476Y-104057200D02*
X154738095Y-104009580D01*
X154738095Y-104009580D02*
X154785714Y-103914342D01*
X154785714Y-103914342D02*
X154785714Y-103723866D01*
X154785714Y-103723866D02*
X154738095Y-103628628D01*
X154738095Y-103628628D02*
X154690476Y-103581009D01*
X154690476Y-103581009D02*
X154595238Y-103533390D01*
%TO.C,J14*%
X155454819Y-64809523D02*
X156169104Y-64809523D01*
X156169104Y-64809523D02*
X156311961Y-64857142D01*
X156311961Y-64857142D02*
X156407200Y-64952380D01*
X156407200Y-64952380D02*
X156454819Y-65095237D01*
X156454819Y-65095237D02*
X156454819Y-65190475D01*
X156454819Y-63809523D02*
X156454819Y-64380951D01*
X156454819Y-64095237D02*
X155454819Y-64095237D01*
X155454819Y-64095237D02*
X155597676Y-64190475D01*
X155597676Y-64190475D02*
X155692914Y-64285713D01*
X155692914Y-64285713D02*
X155740533Y-64380951D01*
X155788152Y-62952380D02*
X156454819Y-62952380D01*
X155407200Y-63190475D02*
X156121485Y-63428570D01*
X156121485Y-63428570D02*
X156121485Y-62809523D01*
%TO.C,R3*%
X129833333Y-95454819D02*
X129500000Y-94978628D01*
X129261905Y-95454819D02*
X129261905Y-94454819D01*
X129261905Y-94454819D02*
X129642857Y-94454819D01*
X129642857Y-94454819D02*
X129738095Y-94502438D01*
X129738095Y-94502438D02*
X129785714Y-94550057D01*
X129785714Y-94550057D02*
X129833333Y-94645295D01*
X129833333Y-94645295D02*
X129833333Y-94788152D01*
X129833333Y-94788152D02*
X129785714Y-94883390D01*
X129785714Y-94883390D02*
X129738095Y-94931009D01*
X129738095Y-94931009D02*
X129642857Y-94978628D01*
X129642857Y-94978628D02*
X129261905Y-94978628D01*
X130166667Y-94454819D02*
X130785714Y-94454819D01*
X130785714Y-94454819D02*
X130452381Y-94835771D01*
X130452381Y-94835771D02*
X130595238Y-94835771D01*
X130595238Y-94835771D02*
X130690476Y-94883390D01*
X130690476Y-94883390D02*
X130738095Y-94931009D01*
X130738095Y-94931009D02*
X130785714Y-95026247D01*
X130785714Y-95026247D02*
X130785714Y-95264342D01*
X130785714Y-95264342D02*
X130738095Y-95359580D01*
X130738095Y-95359580D02*
X130690476Y-95407200D01*
X130690476Y-95407200D02*
X130595238Y-95454819D01*
X130595238Y-95454819D02*
X130309524Y-95454819D01*
X130309524Y-95454819D02*
X130214286Y-95407200D01*
X130214286Y-95407200D02*
X130166667Y-95359580D01*
%TO.C,C2*%
X158833333Y-73679580D02*
X158785714Y-73727200D01*
X158785714Y-73727200D02*
X158642857Y-73774819D01*
X158642857Y-73774819D02*
X158547619Y-73774819D01*
X158547619Y-73774819D02*
X158404762Y-73727200D01*
X158404762Y-73727200D02*
X158309524Y-73631961D01*
X158309524Y-73631961D02*
X158261905Y-73536723D01*
X158261905Y-73536723D02*
X158214286Y-73346247D01*
X158214286Y-73346247D02*
X158214286Y-73203390D01*
X158214286Y-73203390D02*
X158261905Y-73012914D01*
X158261905Y-73012914D02*
X158309524Y-72917676D01*
X158309524Y-72917676D02*
X158404762Y-72822438D01*
X158404762Y-72822438D02*
X158547619Y-72774819D01*
X158547619Y-72774819D02*
X158642857Y-72774819D01*
X158642857Y-72774819D02*
X158785714Y-72822438D01*
X158785714Y-72822438D02*
X158833333Y-72870057D01*
X159214286Y-72870057D02*
X159261905Y-72822438D01*
X159261905Y-72822438D02*
X159357143Y-72774819D01*
X159357143Y-72774819D02*
X159595238Y-72774819D01*
X159595238Y-72774819D02*
X159690476Y-72822438D01*
X159690476Y-72822438D02*
X159738095Y-72870057D01*
X159738095Y-72870057D02*
X159785714Y-72965295D01*
X159785714Y-72965295D02*
X159785714Y-73060533D01*
X159785714Y-73060533D02*
X159738095Y-73203390D01*
X159738095Y-73203390D02*
X159166667Y-73774819D01*
X159166667Y-73774819D02*
X159785714Y-73774819D01*
%TO.C,R42*%
X142454819Y-63142857D02*
X141978628Y-63476190D01*
X142454819Y-63714285D02*
X141454819Y-63714285D01*
X141454819Y-63714285D02*
X141454819Y-63333333D01*
X141454819Y-63333333D02*
X141502438Y-63238095D01*
X141502438Y-63238095D02*
X141550057Y-63190476D01*
X141550057Y-63190476D02*
X141645295Y-63142857D01*
X141645295Y-63142857D02*
X141788152Y-63142857D01*
X141788152Y-63142857D02*
X141883390Y-63190476D01*
X141883390Y-63190476D02*
X141931009Y-63238095D01*
X141931009Y-63238095D02*
X141978628Y-63333333D01*
X141978628Y-63333333D02*
X141978628Y-63714285D01*
X141788152Y-62285714D02*
X142454819Y-62285714D01*
X141407200Y-62523809D02*
X142121485Y-62761904D01*
X142121485Y-62761904D02*
X142121485Y-62142857D01*
X141550057Y-61809523D02*
X141502438Y-61761904D01*
X141502438Y-61761904D02*
X141454819Y-61666666D01*
X141454819Y-61666666D02*
X141454819Y-61428571D01*
X141454819Y-61428571D02*
X141502438Y-61333333D01*
X141502438Y-61333333D02*
X141550057Y-61285714D01*
X141550057Y-61285714D02*
X141645295Y-61238095D01*
X141645295Y-61238095D02*
X141740533Y-61238095D01*
X141740533Y-61238095D02*
X141883390Y-61285714D01*
X141883390Y-61285714D02*
X142454819Y-61857142D01*
X142454819Y-61857142D02*
X142454819Y-61238095D01*
%TO.C,D4*%
X135792405Y-107822819D02*
X135792405Y-106822819D01*
X135792405Y-106822819D02*
X136030500Y-106822819D01*
X136030500Y-106822819D02*
X136173357Y-106870438D01*
X136173357Y-106870438D02*
X136268595Y-106965676D01*
X136268595Y-106965676D02*
X136316214Y-107060914D01*
X136316214Y-107060914D02*
X136363833Y-107251390D01*
X136363833Y-107251390D02*
X136363833Y-107394247D01*
X136363833Y-107394247D02*
X136316214Y-107584723D01*
X136316214Y-107584723D02*
X136268595Y-107679961D01*
X136268595Y-107679961D02*
X136173357Y-107775200D01*
X136173357Y-107775200D02*
X136030500Y-107822819D01*
X136030500Y-107822819D02*
X135792405Y-107822819D01*
X137220976Y-107156152D02*
X137220976Y-107822819D01*
X136982881Y-106775200D02*
X136744786Y-107489485D01*
X136744786Y-107489485D02*
X137363833Y-107489485D01*
%TO.C,U6*%
X134375595Y-73904819D02*
X134375595Y-74714342D01*
X134375595Y-74714342D02*
X134423214Y-74809580D01*
X134423214Y-74809580D02*
X134470833Y-74857200D01*
X134470833Y-74857200D02*
X134566071Y-74904819D01*
X134566071Y-74904819D02*
X134756547Y-74904819D01*
X134756547Y-74904819D02*
X134851785Y-74857200D01*
X134851785Y-74857200D02*
X134899404Y-74809580D01*
X134899404Y-74809580D02*
X134947023Y-74714342D01*
X134947023Y-74714342D02*
X134947023Y-73904819D01*
X135851785Y-73904819D02*
X135661309Y-73904819D01*
X135661309Y-73904819D02*
X135566071Y-73952438D01*
X135566071Y-73952438D02*
X135518452Y-74000057D01*
X135518452Y-74000057D02*
X135423214Y-74142914D01*
X135423214Y-74142914D02*
X135375595Y-74333390D01*
X135375595Y-74333390D02*
X135375595Y-74714342D01*
X135375595Y-74714342D02*
X135423214Y-74809580D01*
X135423214Y-74809580D02*
X135470833Y-74857200D01*
X135470833Y-74857200D02*
X135566071Y-74904819D01*
X135566071Y-74904819D02*
X135756547Y-74904819D01*
X135756547Y-74904819D02*
X135851785Y-74857200D01*
X135851785Y-74857200D02*
X135899404Y-74809580D01*
X135899404Y-74809580D02*
X135947023Y-74714342D01*
X135947023Y-74714342D02*
X135947023Y-74476247D01*
X135947023Y-74476247D02*
X135899404Y-74381009D01*
X135899404Y-74381009D02*
X135851785Y-74333390D01*
X135851785Y-74333390D02*
X135756547Y-74285771D01*
X135756547Y-74285771D02*
X135566071Y-74285771D01*
X135566071Y-74285771D02*
X135470833Y-74333390D01*
X135470833Y-74333390D02*
X135423214Y-74381009D01*
X135423214Y-74381009D02*
X135375595Y-74476247D01*
%TO.C,J13*%
X157940476Y-86874819D02*
X157940476Y-87589104D01*
X157940476Y-87589104D02*
X157892857Y-87731961D01*
X157892857Y-87731961D02*
X157797619Y-87827200D01*
X157797619Y-87827200D02*
X157654762Y-87874819D01*
X157654762Y-87874819D02*
X157559524Y-87874819D01*
X158940476Y-87874819D02*
X158369048Y-87874819D01*
X158654762Y-87874819D02*
X158654762Y-86874819D01*
X158654762Y-86874819D02*
X158559524Y-87017676D01*
X158559524Y-87017676D02*
X158464286Y-87112914D01*
X158464286Y-87112914D02*
X158369048Y-87160533D01*
X159273810Y-86874819D02*
X159892857Y-86874819D01*
X159892857Y-86874819D02*
X159559524Y-87255771D01*
X159559524Y-87255771D02*
X159702381Y-87255771D01*
X159702381Y-87255771D02*
X159797619Y-87303390D01*
X159797619Y-87303390D02*
X159845238Y-87351009D01*
X159845238Y-87351009D02*
X159892857Y-87446247D01*
X159892857Y-87446247D02*
X159892857Y-87684342D01*
X159892857Y-87684342D02*
X159845238Y-87779580D01*
X159845238Y-87779580D02*
X159797619Y-87827200D01*
X159797619Y-87827200D02*
X159702381Y-87874819D01*
X159702381Y-87874819D02*
X159416667Y-87874819D01*
X159416667Y-87874819D02*
X159321429Y-87827200D01*
X159321429Y-87827200D02*
X159273810Y-87779580D01*
%TO.C,J12*%
X141599819Y-115109523D02*
X142314104Y-115109523D01*
X142314104Y-115109523D02*
X142456961Y-115157142D01*
X142456961Y-115157142D02*
X142552200Y-115252380D01*
X142552200Y-115252380D02*
X142599819Y-115395237D01*
X142599819Y-115395237D02*
X142599819Y-115490475D01*
X142599819Y-114109523D02*
X142599819Y-114680951D01*
X142599819Y-114395237D02*
X141599819Y-114395237D01*
X141599819Y-114395237D02*
X141742676Y-114490475D01*
X141742676Y-114490475D02*
X141837914Y-114585713D01*
X141837914Y-114585713D02*
X141885533Y-114680951D01*
X141695057Y-113728570D02*
X141647438Y-113680951D01*
X141647438Y-113680951D02*
X141599819Y-113585713D01*
X141599819Y-113585713D02*
X141599819Y-113347618D01*
X141599819Y-113347618D02*
X141647438Y-113252380D01*
X141647438Y-113252380D02*
X141695057Y-113204761D01*
X141695057Y-113204761D02*
X141790295Y-113157142D01*
X141790295Y-113157142D02*
X141885533Y-113157142D01*
X141885533Y-113157142D02*
X142028390Y-113204761D01*
X142028390Y-113204761D02*
X142599819Y-113776189D01*
X142599819Y-113776189D02*
X142599819Y-113157142D01*
%TO.C,R12*%
X118444642Y-63854819D02*
X118111309Y-63378628D01*
X117873214Y-63854819D02*
X117873214Y-62854819D01*
X117873214Y-62854819D02*
X118254166Y-62854819D01*
X118254166Y-62854819D02*
X118349404Y-62902438D01*
X118349404Y-62902438D02*
X118397023Y-62950057D01*
X118397023Y-62950057D02*
X118444642Y-63045295D01*
X118444642Y-63045295D02*
X118444642Y-63188152D01*
X118444642Y-63188152D02*
X118397023Y-63283390D01*
X118397023Y-63283390D02*
X118349404Y-63331009D01*
X118349404Y-63331009D02*
X118254166Y-63378628D01*
X118254166Y-63378628D02*
X117873214Y-63378628D01*
X119397023Y-63854819D02*
X118825595Y-63854819D01*
X119111309Y-63854819D02*
X119111309Y-62854819D01*
X119111309Y-62854819D02*
X119016071Y-62997676D01*
X119016071Y-62997676D02*
X118920833Y-63092914D01*
X118920833Y-63092914D02*
X118825595Y-63140533D01*
X119777976Y-62950057D02*
X119825595Y-62902438D01*
X119825595Y-62902438D02*
X119920833Y-62854819D01*
X119920833Y-62854819D02*
X120158928Y-62854819D01*
X120158928Y-62854819D02*
X120254166Y-62902438D01*
X120254166Y-62902438D02*
X120301785Y-62950057D01*
X120301785Y-62950057D02*
X120349404Y-63045295D01*
X120349404Y-63045295D02*
X120349404Y-63140533D01*
X120349404Y-63140533D02*
X120301785Y-63283390D01*
X120301785Y-63283390D02*
X119730357Y-63854819D01*
X119730357Y-63854819D02*
X120349404Y-63854819D01*
%TO.C,C4*%
X122833333Y-111859580D02*
X122785714Y-111907200D01*
X122785714Y-111907200D02*
X122642857Y-111954819D01*
X122642857Y-111954819D02*
X122547619Y-111954819D01*
X122547619Y-111954819D02*
X122404762Y-111907200D01*
X122404762Y-111907200D02*
X122309524Y-111811961D01*
X122309524Y-111811961D02*
X122261905Y-111716723D01*
X122261905Y-111716723D02*
X122214286Y-111526247D01*
X122214286Y-111526247D02*
X122214286Y-111383390D01*
X122214286Y-111383390D02*
X122261905Y-111192914D01*
X122261905Y-111192914D02*
X122309524Y-111097676D01*
X122309524Y-111097676D02*
X122404762Y-111002438D01*
X122404762Y-111002438D02*
X122547619Y-110954819D01*
X122547619Y-110954819D02*
X122642857Y-110954819D01*
X122642857Y-110954819D02*
X122785714Y-111002438D01*
X122785714Y-111002438D02*
X122833333Y-111050057D01*
X123690476Y-111288152D02*
X123690476Y-111954819D01*
X123452381Y-110907200D02*
X123214286Y-111621485D01*
X123214286Y-111621485D02*
X123833333Y-111621485D01*
%TO.C,R7*%
X126333333Y-107454819D02*
X126000000Y-106978628D01*
X125761905Y-107454819D02*
X125761905Y-106454819D01*
X125761905Y-106454819D02*
X126142857Y-106454819D01*
X126142857Y-106454819D02*
X126238095Y-106502438D01*
X126238095Y-106502438D02*
X126285714Y-106550057D01*
X126285714Y-106550057D02*
X126333333Y-106645295D01*
X126333333Y-106645295D02*
X126333333Y-106788152D01*
X126333333Y-106788152D02*
X126285714Y-106883390D01*
X126285714Y-106883390D02*
X126238095Y-106931009D01*
X126238095Y-106931009D02*
X126142857Y-106978628D01*
X126142857Y-106978628D02*
X125761905Y-106978628D01*
X126666667Y-106454819D02*
X127333333Y-106454819D01*
X127333333Y-106454819D02*
X126904762Y-107454819D01*
%TO.C,D29*%
X122054819Y-74426785D02*
X121054819Y-74426785D01*
X121054819Y-74426785D02*
X121054819Y-74188690D01*
X121054819Y-74188690D02*
X121102438Y-74045833D01*
X121102438Y-74045833D02*
X121197676Y-73950595D01*
X121197676Y-73950595D02*
X121292914Y-73902976D01*
X121292914Y-73902976D02*
X121483390Y-73855357D01*
X121483390Y-73855357D02*
X121626247Y-73855357D01*
X121626247Y-73855357D02*
X121816723Y-73902976D01*
X121816723Y-73902976D02*
X121911961Y-73950595D01*
X121911961Y-73950595D02*
X122007200Y-74045833D01*
X122007200Y-74045833D02*
X122054819Y-74188690D01*
X122054819Y-74188690D02*
X122054819Y-74426785D01*
X121150057Y-73474404D02*
X121102438Y-73426785D01*
X121102438Y-73426785D02*
X121054819Y-73331547D01*
X121054819Y-73331547D02*
X121054819Y-73093452D01*
X121054819Y-73093452D02*
X121102438Y-72998214D01*
X121102438Y-72998214D02*
X121150057Y-72950595D01*
X121150057Y-72950595D02*
X121245295Y-72902976D01*
X121245295Y-72902976D02*
X121340533Y-72902976D01*
X121340533Y-72902976D02*
X121483390Y-72950595D01*
X121483390Y-72950595D02*
X122054819Y-73522023D01*
X122054819Y-73522023D02*
X122054819Y-72902976D01*
X122054819Y-72426785D02*
X122054819Y-72236309D01*
X122054819Y-72236309D02*
X122007200Y-72141071D01*
X122007200Y-72141071D02*
X121959580Y-72093452D01*
X121959580Y-72093452D02*
X121816723Y-71998214D01*
X121816723Y-71998214D02*
X121626247Y-71950595D01*
X121626247Y-71950595D02*
X121245295Y-71950595D01*
X121245295Y-71950595D02*
X121150057Y-71998214D01*
X121150057Y-71998214D02*
X121102438Y-72045833D01*
X121102438Y-72045833D02*
X121054819Y-72141071D01*
X121054819Y-72141071D02*
X121054819Y-72331547D01*
X121054819Y-72331547D02*
X121102438Y-72426785D01*
X121102438Y-72426785D02*
X121150057Y-72474404D01*
X121150057Y-72474404D02*
X121245295Y-72522023D01*
X121245295Y-72522023D02*
X121483390Y-72522023D01*
X121483390Y-72522023D02*
X121578628Y-72474404D01*
X121578628Y-72474404D02*
X121626247Y-72426785D01*
X121626247Y-72426785D02*
X121673866Y-72331547D01*
X121673866Y-72331547D02*
X121673866Y-72141071D01*
X121673866Y-72141071D02*
X121626247Y-72045833D01*
X121626247Y-72045833D02*
X121578628Y-71998214D01*
X121578628Y-71998214D02*
X121483390Y-71950595D01*
%TO.C,R29*%
X157044819Y-70492857D02*
X156568628Y-70826190D01*
X157044819Y-71064285D02*
X156044819Y-71064285D01*
X156044819Y-71064285D02*
X156044819Y-70683333D01*
X156044819Y-70683333D02*
X156092438Y-70588095D01*
X156092438Y-70588095D02*
X156140057Y-70540476D01*
X156140057Y-70540476D02*
X156235295Y-70492857D01*
X156235295Y-70492857D02*
X156378152Y-70492857D01*
X156378152Y-70492857D02*
X156473390Y-70540476D01*
X156473390Y-70540476D02*
X156521009Y-70588095D01*
X156521009Y-70588095D02*
X156568628Y-70683333D01*
X156568628Y-70683333D02*
X156568628Y-71064285D01*
X156140057Y-70111904D02*
X156092438Y-70064285D01*
X156092438Y-70064285D02*
X156044819Y-69969047D01*
X156044819Y-69969047D02*
X156044819Y-69730952D01*
X156044819Y-69730952D02*
X156092438Y-69635714D01*
X156092438Y-69635714D02*
X156140057Y-69588095D01*
X156140057Y-69588095D02*
X156235295Y-69540476D01*
X156235295Y-69540476D02*
X156330533Y-69540476D01*
X156330533Y-69540476D02*
X156473390Y-69588095D01*
X156473390Y-69588095D02*
X157044819Y-70159523D01*
X157044819Y-70159523D02*
X157044819Y-69540476D01*
X157044819Y-69064285D02*
X157044819Y-68873809D01*
X157044819Y-68873809D02*
X156997200Y-68778571D01*
X156997200Y-68778571D02*
X156949580Y-68730952D01*
X156949580Y-68730952D02*
X156806723Y-68635714D01*
X156806723Y-68635714D02*
X156616247Y-68588095D01*
X156616247Y-68588095D02*
X156235295Y-68588095D01*
X156235295Y-68588095D02*
X156140057Y-68635714D01*
X156140057Y-68635714D02*
X156092438Y-68683333D01*
X156092438Y-68683333D02*
X156044819Y-68778571D01*
X156044819Y-68778571D02*
X156044819Y-68969047D01*
X156044819Y-68969047D02*
X156092438Y-69064285D01*
X156092438Y-69064285D02*
X156140057Y-69111904D01*
X156140057Y-69111904D02*
X156235295Y-69159523D01*
X156235295Y-69159523D02*
X156473390Y-69159523D01*
X156473390Y-69159523D02*
X156568628Y-69111904D01*
X156568628Y-69111904D02*
X156616247Y-69064285D01*
X156616247Y-69064285D02*
X156663866Y-68969047D01*
X156663866Y-68969047D02*
X156663866Y-68778571D01*
X156663866Y-68778571D02*
X156616247Y-68683333D01*
X156616247Y-68683333D02*
X156568628Y-68635714D01*
X156568628Y-68635714D02*
X156473390Y-68588095D01*
%TO.C,C7*%
X121333333Y-77359580D02*
X121285714Y-77407200D01*
X121285714Y-77407200D02*
X121142857Y-77454819D01*
X121142857Y-77454819D02*
X121047619Y-77454819D01*
X121047619Y-77454819D02*
X120904762Y-77407200D01*
X120904762Y-77407200D02*
X120809524Y-77311961D01*
X120809524Y-77311961D02*
X120761905Y-77216723D01*
X120761905Y-77216723D02*
X120714286Y-77026247D01*
X120714286Y-77026247D02*
X120714286Y-76883390D01*
X120714286Y-76883390D02*
X120761905Y-76692914D01*
X120761905Y-76692914D02*
X120809524Y-76597676D01*
X120809524Y-76597676D02*
X120904762Y-76502438D01*
X120904762Y-76502438D02*
X121047619Y-76454819D01*
X121047619Y-76454819D02*
X121142857Y-76454819D01*
X121142857Y-76454819D02*
X121285714Y-76502438D01*
X121285714Y-76502438D02*
X121333333Y-76550057D01*
X121666667Y-76454819D02*
X122333333Y-76454819D01*
X122333333Y-76454819D02*
X121904762Y-77454819D01*
%TO.C,R6*%
X129833333Y-102054819D02*
X129500000Y-101578628D01*
X129261905Y-102054819D02*
X129261905Y-101054819D01*
X129261905Y-101054819D02*
X129642857Y-101054819D01*
X129642857Y-101054819D02*
X129738095Y-101102438D01*
X129738095Y-101102438D02*
X129785714Y-101150057D01*
X129785714Y-101150057D02*
X129833333Y-101245295D01*
X129833333Y-101245295D02*
X129833333Y-101388152D01*
X129833333Y-101388152D02*
X129785714Y-101483390D01*
X129785714Y-101483390D02*
X129738095Y-101531009D01*
X129738095Y-101531009D02*
X129642857Y-101578628D01*
X129642857Y-101578628D02*
X129261905Y-101578628D01*
X130690476Y-101054819D02*
X130500000Y-101054819D01*
X130500000Y-101054819D02*
X130404762Y-101102438D01*
X130404762Y-101102438D02*
X130357143Y-101150057D01*
X130357143Y-101150057D02*
X130261905Y-101292914D01*
X130261905Y-101292914D02*
X130214286Y-101483390D01*
X130214286Y-101483390D02*
X130214286Y-101864342D01*
X130214286Y-101864342D02*
X130261905Y-101959580D01*
X130261905Y-101959580D02*
X130309524Y-102007200D01*
X130309524Y-102007200D02*
X130404762Y-102054819D01*
X130404762Y-102054819D02*
X130595238Y-102054819D01*
X130595238Y-102054819D02*
X130690476Y-102007200D01*
X130690476Y-102007200D02*
X130738095Y-101959580D01*
X130738095Y-101959580D02*
X130785714Y-101864342D01*
X130785714Y-101864342D02*
X130785714Y-101626247D01*
X130785714Y-101626247D02*
X130738095Y-101531009D01*
X130738095Y-101531009D02*
X130690476Y-101483390D01*
X130690476Y-101483390D02*
X130595238Y-101435771D01*
X130595238Y-101435771D02*
X130404762Y-101435771D01*
X130404762Y-101435771D02*
X130309524Y-101483390D01*
X130309524Y-101483390D02*
X130261905Y-101531009D01*
X130261905Y-101531009D02*
X130214286Y-101626247D01*
%TO.C,R9*%
X117454819Y-97166666D02*
X116978628Y-97499999D01*
X117454819Y-97738094D02*
X116454819Y-97738094D01*
X116454819Y-97738094D02*
X116454819Y-97357142D01*
X116454819Y-97357142D02*
X116502438Y-97261904D01*
X116502438Y-97261904D02*
X116550057Y-97214285D01*
X116550057Y-97214285D02*
X116645295Y-97166666D01*
X116645295Y-97166666D02*
X116788152Y-97166666D01*
X116788152Y-97166666D02*
X116883390Y-97214285D01*
X116883390Y-97214285D02*
X116931009Y-97261904D01*
X116931009Y-97261904D02*
X116978628Y-97357142D01*
X116978628Y-97357142D02*
X116978628Y-97738094D01*
X117454819Y-96690475D02*
X117454819Y-96499999D01*
X117454819Y-96499999D02*
X117407200Y-96404761D01*
X117407200Y-96404761D02*
X117359580Y-96357142D01*
X117359580Y-96357142D02*
X117216723Y-96261904D01*
X117216723Y-96261904D02*
X117026247Y-96214285D01*
X117026247Y-96214285D02*
X116645295Y-96214285D01*
X116645295Y-96214285D02*
X116550057Y-96261904D01*
X116550057Y-96261904D02*
X116502438Y-96309523D01*
X116502438Y-96309523D02*
X116454819Y-96404761D01*
X116454819Y-96404761D02*
X116454819Y-96595237D01*
X116454819Y-96595237D02*
X116502438Y-96690475D01*
X116502438Y-96690475D02*
X116550057Y-96738094D01*
X116550057Y-96738094D02*
X116645295Y-96785713D01*
X116645295Y-96785713D02*
X116883390Y-96785713D01*
X116883390Y-96785713D02*
X116978628Y-96738094D01*
X116978628Y-96738094D02*
X117026247Y-96690475D01*
X117026247Y-96690475D02*
X117073866Y-96595237D01*
X117073866Y-96595237D02*
X117073866Y-96404761D01*
X117073866Y-96404761D02*
X117026247Y-96309523D01*
X117026247Y-96309523D02*
X116978628Y-96261904D01*
X116978628Y-96261904D02*
X116883390Y-96214285D01*
%TO.C,R28*%
X121357142Y-86454819D02*
X121023809Y-85978628D01*
X120785714Y-86454819D02*
X120785714Y-85454819D01*
X120785714Y-85454819D02*
X121166666Y-85454819D01*
X121166666Y-85454819D02*
X121261904Y-85502438D01*
X121261904Y-85502438D02*
X121309523Y-85550057D01*
X121309523Y-85550057D02*
X121357142Y-85645295D01*
X121357142Y-85645295D02*
X121357142Y-85788152D01*
X121357142Y-85788152D02*
X121309523Y-85883390D01*
X121309523Y-85883390D02*
X121261904Y-85931009D01*
X121261904Y-85931009D02*
X121166666Y-85978628D01*
X121166666Y-85978628D02*
X120785714Y-85978628D01*
X121738095Y-85550057D02*
X121785714Y-85502438D01*
X121785714Y-85502438D02*
X121880952Y-85454819D01*
X121880952Y-85454819D02*
X122119047Y-85454819D01*
X122119047Y-85454819D02*
X122214285Y-85502438D01*
X122214285Y-85502438D02*
X122261904Y-85550057D01*
X122261904Y-85550057D02*
X122309523Y-85645295D01*
X122309523Y-85645295D02*
X122309523Y-85740533D01*
X122309523Y-85740533D02*
X122261904Y-85883390D01*
X122261904Y-85883390D02*
X121690476Y-86454819D01*
X121690476Y-86454819D02*
X122309523Y-86454819D01*
X122880952Y-85883390D02*
X122785714Y-85835771D01*
X122785714Y-85835771D02*
X122738095Y-85788152D01*
X122738095Y-85788152D02*
X122690476Y-85692914D01*
X122690476Y-85692914D02*
X122690476Y-85645295D01*
X122690476Y-85645295D02*
X122738095Y-85550057D01*
X122738095Y-85550057D02*
X122785714Y-85502438D01*
X122785714Y-85502438D02*
X122880952Y-85454819D01*
X122880952Y-85454819D02*
X123071428Y-85454819D01*
X123071428Y-85454819D02*
X123166666Y-85502438D01*
X123166666Y-85502438D02*
X123214285Y-85550057D01*
X123214285Y-85550057D02*
X123261904Y-85645295D01*
X123261904Y-85645295D02*
X123261904Y-85692914D01*
X123261904Y-85692914D02*
X123214285Y-85788152D01*
X123214285Y-85788152D02*
X123166666Y-85835771D01*
X123166666Y-85835771D02*
X123071428Y-85883390D01*
X123071428Y-85883390D02*
X122880952Y-85883390D01*
X122880952Y-85883390D02*
X122785714Y-85931009D01*
X122785714Y-85931009D02*
X122738095Y-85978628D01*
X122738095Y-85978628D02*
X122690476Y-86073866D01*
X122690476Y-86073866D02*
X122690476Y-86264342D01*
X122690476Y-86264342D02*
X122738095Y-86359580D01*
X122738095Y-86359580D02*
X122785714Y-86407200D01*
X122785714Y-86407200D02*
X122880952Y-86454819D01*
X122880952Y-86454819D02*
X123071428Y-86454819D01*
X123071428Y-86454819D02*
X123166666Y-86407200D01*
X123166666Y-86407200D02*
X123214285Y-86359580D01*
X123214285Y-86359580D02*
X123261904Y-86264342D01*
X123261904Y-86264342D02*
X123261904Y-86073866D01*
X123261904Y-86073866D02*
X123214285Y-85978628D01*
X123214285Y-85978628D02*
X123166666Y-85931009D01*
X123166666Y-85931009D02*
X123071428Y-85883390D01*
%TO.C,J11*%
X113490476Y-61909819D02*
X113490476Y-62624104D01*
X113490476Y-62624104D02*
X113442857Y-62766961D01*
X113442857Y-62766961D02*
X113347619Y-62862200D01*
X113347619Y-62862200D02*
X113204762Y-62909819D01*
X113204762Y-62909819D02*
X113109524Y-62909819D01*
X114490476Y-62909819D02*
X113919048Y-62909819D01*
X114204762Y-62909819D02*
X114204762Y-61909819D01*
X114204762Y-61909819D02*
X114109524Y-62052676D01*
X114109524Y-62052676D02*
X114014286Y-62147914D01*
X114014286Y-62147914D02*
X113919048Y-62195533D01*
X115442857Y-62909819D02*
X114871429Y-62909819D01*
X115157143Y-62909819D02*
X115157143Y-61909819D01*
X115157143Y-61909819D02*
X115061905Y-62052676D01*
X115061905Y-62052676D02*
X114966667Y-62147914D01*
X114966667Y-62147914D02*
X114871429Y-62195533D01*
%TO.C,R27*%
X153357142Y-86104819D02*
X153023809Y-85628628D01*
X152785714Y-86104819D02*
X152785714Y-85104819D01*
X152785714Y-85104819D02*
X153166666Y-85104819D01*
X153166666Y-85104819D02*
X153261904Y-85152438D01*
X153261904Y-85152438D02*
X153309523Y-85200057D01*
X153309523Y-85200057D02*
X153357142Y-85295295D01*
X153357142Y-85295295D02*
X153357142Y-85438152D01*
X153357142Y-85438152D02*
X153309523Y-85533390D01*
X153309523Y-85533390D02*
X153261904Y-85581009D01*
X153261904Y-85581009D02*
X153166666Y-85628628D01*
X153166666Y-85628628D02*
X152785714Y-85628628D01*
X153738095Y-85200057D02*
X153785714Y-85152438D01*
X153785714Y-85152438D02*
X153880952Y-85104819D01*
X153880952Y-85104819D02*
X154119047Y-85104819D01*
X154119047Y-85104819D02*
X154214285Y-85152438D01*
X154214285Y-85152438D02*
X154261904Y-85200057D01*
X154261904Y-85200057D02*
X154309523Y-85295295D01*
X154309523Y-85295295D02*
X154309523Y-85390533D01*
X154309523Y-85390533D02*
X154261904Y-85533390D01*
X154261904Y-85533390D02*
X153690476Y-86104819D01*
X153690476Y-86104819D02*
X154309523Y-86104819D01*
X154642857Y-85104819D02*
X155309523Y-85104819D01*
X155309523Y-85104819D02*
X154880952Y-86104819D01*
%TO.C,R21*%
X156454819Y-99642857D02*
X155978628Y-99976190D01*
X156454819Y-100214285D02*
X155454819Y-100214285D01*
X155454819Y-100214285D02*
X155454819Y-99833333D01*
X155454819Y-99833333D02*
X155502438Y-99738095D01*
X155502438Y-99738095D02*
X155550057Y-99690476D01*
X155550057Y-99690476D02*
X155645295Y-99642857D01*
X155645295Y-99642857D02*
X155788152Y-99642857D01*
X155788152Y-99642857D02*
X155883390Y-99690476D01*
X155883390Y-99690476D02*
X155931009Y-99738095D01*
X155931009Y-99738095D02*
X155978628Y-99833333D01*
X155978628Y-99833333D02*
X155978628Y-100214285D01*
X155550057Y-99261904D02*
X155502438Y-99214285D01*
X155502438Y-99214285D02*
X155454819Y-99119047D01*
X155454819Y-99119047D02*
X155454819Y-98880952D01*
X155454819Y-98880952D02*
X155502438Y-98785714D01*
X155502438Y-98785714D02*
X155550057Y-98738095D01*
X155550057Y-98738095D02*
X155645295Y-98690476D01*
X155645295Y-98690476D02*
X155740533Y-98690476D01*
X155740533Y-98690476D02*
X155883390Y-98738095D01*
X155883390Y-98738095D02*
X156454819Y-99309523D01*
X156454819Y-99309523D02*
X156454819Y-98690476D01*
X156454819Y-97738095D02*
X156454819Y-98309523D01*
X156454819Y-98023809D02*
X155454819Y-98023809D01*
X155454819Y-98023809D02*
X155597676Y-98119047D01*
X155597676Y-98119047D02*
X155692914Y-98214285D01*
X155692914Y-98214285D02*
X155740533Y-98309523D01*
%TO.C,R1*%
X139854819Y-85004166D02*
X139378628Y-85337499D01*
X139854819Y-85575594D02*
X138854819Y-85575594D01*
X138854819Y-85575594D02*
X138854819Y-85194642D01*
X138854819Y-85194642D02*
X138902438Y-85099404D01*
X138902438Y-85099404D02*
X138950057Y-85051785D01*
X138950057Y-85051785D02*
X139045295Y-85004166D01*
X139045295Y-85004166D02*
X139188152Y-85004166D01*
X139188152Y-85004166D02*
X139283390Y-85051785D01*
X139283390Y-85051785D02*
X139331009Y-85099404D01*
X139331009Y-85099404D02*
X139378628Y-85194642D01*
X139378628Y-85194642D02*
X139378628Y-85575594D01*
X139854819Y-84051785D02*
X139854819Y-84623213D01*
X139854819Y-84337499D02*
X138854819Y-84337499D01*
X138854819Y-84337499D02*
X138997676Y-84432737D01*
X138997676Y-84432737D02*
X139092914Y-84527975D01*
X139092914Y-84527975D02*
X139140533Y-84623213D01*
%TO.C,R20*%
X129304819Y-109892857D02*
X128828628Y-110226190D01*
X129304819Y-110464285D02*
X128304819Y-110464285D01*
X128304819Y-110464285D02*
X128304819Y-110083333D01*
X128304819Y-110083333D02*
X128352438Y-109988095D01*
X128352438Y-109988095D02*
X128400057Y-109940476D01*
X128400057Y-109940476D02*
X128495295Y-109892857D01*
X128495295Y-109892857D02*
X128638152Y-109892857D01*
X128638152Y-109892857D02*
X128733390Y-109940476D01*
X128733390Y-109940476D02*
X128781009Y-109988095D01*
X128781009Y-109988095D02*
X128828628Y-110083333D01*
X128828628Y-110083333D02*
X128828628Y-110464285D01*
X128400057Y-109511904D02*
X128352438Y-109464285D01*
X128352438Y-109464285D02*
X128304819Y-109369047D01*
X128304819Y-109369047D02*
X128304819Y-109130952D01*
X128304819Y-109130952D02*
X128352438Y-109035714D01*
X128352438Y-109035714D02*
X128400057Y-108988095D01*
X128400057Y-108988095D02*
X128495295Y-108940476D01*
X128495295Y-108940476D02*
X128590533Y-108940476D01*
X128590533Y-108940476D02*
X128733390Y-108988095D01*
X128733390Y-108988095D02*
X129304819Y-109559523D01*
X129304819Y-109559523D02*
X129304819Y-108940476D01*
X128304819Y-108321428D02*
X128304819Y-108226190D01*
X128304819Y-108226190D02*
X128352438Y-108130952D01*
X128352438Y-108130952D02*
X128400057Y-108083333D01*
X128400057Y-108083333D02*
X128495295Y-108035714D01*
X128495295Y-108035714D02*
X128685771Y-107988095D01*
X128685771Y-107988095D02*
X128923866Y-107988095D01*
X128923866Y-107988095D02*
X129114342Y-108035714D01*
X129114342Y-108035714D02*
X129209580Y-108083333D01*
X129209580Y-108083333D02*
X129257200Y-108130952D01*
X129257200Y-108130952D02*
X129304819Y-108226190D01*
X129304819Y-108226190D02*
X129304819Y-108321428D01*
X129304819Y-108321428D02*
X129257200Y-108416666D01*
X129257200Y-108416666D02*
X129209580Y-108464285D01*
X129209580Y-108464285D02*
X129114342Y-108511904D01*
X129114342Y-108511904D02*
X128923866Y-108559523D01*
X128923866Y-108559523D02*
X128685771Y-108559523D01*
X128685771Y-108559523D02*
X128495295Y-108511904D01*
X128495295Y-108511904D02*
X128400057Y-108464285D01*
X128400057Y-108464285D02*
X128352438Y-108416666D01*
X128352438Y-108416666D02*
X128304819Y-108321428D01*
%TO.C,C27*%
X121357142Y-89359580D02*
X121309523Y-89407200D01*
X121309523Y-89407200D02*
X121166666Y-89454819D01*
X121166666Y-89454819D02*
X121071428Y-89454819D01*
X121071428Y-89454819D02*
X120928571Y-89407200D01*
X120928571Y-89407200D02*
X120833333Y-89311961D01*
X120833333Y-89311961D02*
X120785714Y-89216723D01*
X120785714Y-89216723D02*
X120738095Y-89026247D01*
X120738095Y-89026247D02*
X120738095Y-88883390D01*
X120738095Y-88883390D02*
X120785714Y-88692914D01*
X120785714Y-88692914D02*
X120833333Y-88597676D01*
X120833333Y-88597676D02*
X120928571Y-88502438D01*
X120928571Y-88502438D02*
X121071428Y-88454819D01*
X121071428Y-88454819D02*
X121166666Y-88454819D01*
X121166666Y-88454819D02*
X121309523Y-88502438D01*
X121309523Y-88502438D02*
X121357142Y-88550057D01*
X121738095Y-88550057D02*
X121785714Y-88502438D01*
X121785714Y-88502438D02*
X121880952Y-88454819D01*
X121880952Y-88454819D02*
X122119047Y-88454819D01*
X122119047Y-88454819D02*
X122214285Y-88502438D01*
X122214285Y-88502438D02*
X122261904Y-88550057D01*
X122261904Y-88550057D02*
X122309523Y-88645295D01*
X122309523Y-88645295D02*
X122309523Y-88740533D01*
X122309523Y-88740533D02*
X122261904Y-88883390D01*
X122261904Y-88883390D02*
X121690476Y-89454819D01*
X121690476Y-89454819D02*
X122309523Y-89454819D01*
X122642857Y-88454819D02*
X123309523Y-88454819D01*
X123309523Y-88454819D02*
X122880952Y-89454819D01*
%TO.C,C9*%
X138359580Y-114166666D02*
X138407200Y-114214285D01*
X138407200Y-114214285D02*
X138454819Y-114357142D01*
X138454819Y-114357142D02*
X138454819Y-114452380D01*
X138454819Y-114452380D02*
X138407200Y-114595237D01*
X138407200Y-114595237D02*
X138311961Y-114690475D01*
X138311961Y-114690475D02*
X138216723Y-114738094D01*
X138216723Y-114738094D02*
X138026247Y-114785713D01*
X138026247Y-114785713D02*
X137883390Y-114785713D01*
X137883390Y-114785713D02*
X137692914Y-114738094D01*
X137692914Y-114738094D02*
X137597676Y-114690475D01*
X137597676Y-114690475D02*
X137502438Y-114595237D01*
X137502438Y-114595237D02*
X137454819Y-114452380D01*
X137454819Y-114452380D02*
X137454819Y-114357142D01*
X137454819Y-114357142D02*
X137502438Y-114214285D01*
X137502438Y-114214285D02*
X137550057Y-114166666D01*
X138454819Y-113690475D02*
X138454819Y-113499999D01*
X138454819Y-113499999D02*
X138407200Y-113404761D01*
X138407200Y-113404761D02*
X138359580Y-113357142D01*
X138359580Y-113357142D02*
X138216723Y-113261904D01*
X138216723Y-113261904D02*
X138026247Y-113214285D01*
X138026247Y-113214285D02*
X137645295Y-113214285D01*
X137645295Y-113214285D02*
X137550057Y-113261904D01*
X137550057Y-113261904D02*
X137502438Y-113309523D01*
X137502438Y-113309523D02*
X137454819Y-113404761D01*
X137454819Y-113404761D02*
X137454819Y-113595237D01*
X137454819Y-113595237D02*
X137502438Y-113690475D01*
X137502438Y-113690475D02*
X137550057Y-113738094D01*
X137550057Y-113738094D02*
X137645295Y-113785713D01*
X137645295Y-113785713D02*
X137883390Y-113785713D01*
X137883390Y-113785713D02*
X137978628Y-113738094D01*
X137978628Y-113738094D02*
X138026247Y-113690475D01*
X138026247Y-113690475D02*
X138073866Y-113595237D01*
X138073866Y-113595237D02*
X138073866Y-113404761D01*
X138073866Y-113404761D02*
X138026247Y-113309523D01*
X138026247Y-113309523D02*
X137978628Y-113261904D01*
X137978628Y-113261904D02*
X137883390Y-113214285D01*
%TO.C,C5*%
X153833333Y-91679580D02*
X153785714Y-91727200D01*
X153785714Y-91727200D02*
X153642857Y-91774819D01*
X153642857Y-91774819D02*
X153547619Y-91774819D01*
X153547619Y-91774819D02*
X153404762Y-91727200D01*
X153404762Y-91727200D02*
X153309524Y-91631961D01*
X153309524Y-91631961D02*
X153261905Y-91536723D01*
X153261905Y-91536723D02*
X153214286Y-91346247D01*
X153214286Y-91346247D02*
X153214286Y-91203390D01*
X153214286Y-91203390D02*
X153261905Y-91012914D01*
X153261905Y-91012914D02*
X153309524Y-90917676D01*
X153309524Y-90917676D02*
X153404762Y-90822438D01*
X153404762Y-90822438D02*
X153547619Y-90774819D01*
X153547619Y-90774819D02*
X153642857Y-90774819D01*
X153642857Y-90774819D02*
X153785714Y-90822438D01*
X153785714Y-90822438D02*
X153833333Y-90870057D01*
X154738095Y-90774819D02*
X154261905Y-90774819D01*
X154261905Y-90774819D02*
X154214286Y-91251009D01*
X154214286Y-91251009D02*
X154261905Y-91203390D01*
X154261905Y-91203390D02*
X154357143Y-91155771D01*
X154357143Y-91155771D02*
X154595238Y-91155771D01*
X154595238Y-91155771D02*
X154690476Y-91203390D01*
X154690476Y-91203390D02*
X154738095Y-91251009D01*
X154738095Y-91251009D02*
X154785714Y-91346247D01*
X154785714Y-91346247D02*
X154785714Y-91584342D01*
X154785714Y-91584342D02*
X154738095Y-91679580D01*
X154738095Y-91679580D02*
X154690476Y-91727200D01*
X154690476Y-91727200D02*
X154595238Y-91774819D01*
X154595238Y-91774819D02*
X154357143Y-91774819D01*
X154357143Y-91774819D02*
X154261905Y-91727200D01*
X154261905Y-91727200D02*
X154214286Y-91679580D01*
%TO.C,R11*%
X116954819Y-80142857D02*
X116478628Y-80476190D01*
X116954819Y-80714285D02*
X115954819Y-80714285D01*
X115954819Y-80714285D02*
X115954819Y-80333333D01*
X115954819Y-80333333D02*
X116002438Y-80238095D01*
X116002438Y-80238095D02*
X116050057Y-80190476D01*
X116050057Y-80190476D02*
X116145295Y-80142857D01*
X116145295Y-80142857D02*
X116288152Y-80142857D01*
X116288152Y-80142857D02*
X116383390Y-80190476D01*
X116383390Y-80190476D02*
X116431009Y-80238095D01*
X116431009Y-80238095D02*
X116478628Y-80333333D01*
X116478628Y-80333333D02*
X116478628Y-80714285D01*
X116954819Y-79190476D02*
X116954819Y-79761904D01*
X116954819Y-79476190D02*
X115954819Y-79476190D01*
X115954819Y-79476190D02*
X116097676Y-79571428D01*
X116097676Y-79571428D02*
X116192914Y-79666666D01*
X116192914Y-79666666D02*
X116240533Y-79761904D01*
X116954819Y-78238095D02*
X116954819Y-78809523D01*
X116954819Y-78523809D02*
X115954819Y-78523809D01*
X115954819Y-78523809D02*
X116097676Y-78619047D01*
X116097676Y-78619047D02*
X116192914Y-78714285D01*
X116192914Y-78714285D02*
X116240533Y-78809523D01*
%TO.C,R41*%
X149424819Y-61602857D02*
X148948628Y-61936190D01*
X149424819Y-62174285D02*
X148424819Y-62174285D01*
X148424819Y-62174285D02*
X148424819Y-61793333D01*
X148424819Y-61793333D02*
X148472438Y-61698095D01*
X148472438Y-61698095D02*
X148520057Y-61650476D01*
X148520057Y-61650476D02*
X148615295Y-61602857D01*
X148615295Y-61602857D02*
X148758152Y-61602857D01*
X148758152Y-61602857D02*
X148853390Y-61650476D01*
X148853390Y-61650476D02*
X148901009Y-61698095D01*
X148901009Y-61698095D02*
X148948628Y-61793333D01*
X148948628Y-61793333D02*
X148948628Y-62174285D01*
X148758152Y-60745714D02*
X149424819Y-60745714D01*
X148377200Y-60983809D02*
X149091485Y-61221904D01*
X149091485Y-61221904D02*
X149091485Y-60602857D01*
X149424819Y-59698095D02*
X149424819Y-60269523D01*
X149424819Y-59983809D02*
X148424819Y-59983809D01*
X148424819Y-59983809D02*
X148567676Y-60079047D01*
X148567676Y-60079047D02*
X148662914Y-60174285D01*
X148662914Y-60174285D02*
X148710533Y-60269523D01*
%TO.C,C1*%
X129833333Y-91789580D02*
X129785714Y-91837200D01*
X129785714Y-91837200D02*
X129642857Y-91884819D01*
X129642857Y-91884819D02*
X129547619Y-91884819D01*
X129547619Y-91884819D02*
X129404762Y-91837200D01*
X129404762Y-91837200D02*
X129309524Y-91741961D01*
X129309524Y-91741961D02*
X129261905Y-91646723D01*
X129261905Y-91646723D02*
X129214286Y-91456247D01*
X129214286Y-91456247D02*
X129214286Y-91313390D01*
X129214286Y-91313390D02*
X129261905Y-91122914D01*
X129261905Y-91122914D02*
X129309524Y-91027676D01*
X129309524Y-91027676D02*
X129404762Y-90932438D01*
X129404762Y-90932438D02*
X129547619Y-90884819D01*
X129547619Y-90884819D02*
X129642857Y-90884819D01*
X129642857Y-90884819D02*
X129785714Y-90932438D01*
X129785714Y-90932438D02*
X129833333Y-90980057D01*
X130785714Y-91884819D02*
X130214286Y-91884819D01*
X130500000Y-91884819D02*
X130500000Y-90884819D01*
X130500000Y-90884819D02*
X130404762Y-91027676D01*
X130404762Y-91027676D02*
X130309524Y-91122914D01*
X130309524Y-91122914D02*
X130214286Y-91170533D01*
%TO.C,R4*%
X124583333Y-94854819D02*
X124250000Y-94378628D01*
X124011905Y-94854819D02*
X124011905Y-93854819D01*
X124011905Y-93854819D02*
X124392857Y-93854819D01*
X124392857Y-93854819D02*
X124488095Y-93902438D01*
X124488095Y-93902438D02*
X124535714Y-93950057D01*
X124535714Y-93950057D02*
X124583333Y-94045295D01*
X124583333Y-94045295D02*
X124583333Y-94188152D01*
X124583333Y-94188152D02*
X124535714Y-94283390D01*
X124535714Y-94283390D02*
X124488095Y-94331009D01*
X124488095Y-94331009D02*
X124392857Y-94378628D01*
X124392857Y-94378628D02*
X124011905Y-94378628D01*
X125440476Y-94188152D02*
X125440476Y-94854819D01*
X125202381Y-93807200D02*
X124964286Y-94521485D01*
X124964286Y-94521485D02*
X125583333Y-94521485D01*
%TO.C,R58*%
X130357142Y-72954819D02*
X130023809Y-72478628D01*
X129785714Y-72954819D02*
X129785714Y-71954819D01*
X129785714Y-71954819D02*
X130166666Y-71954819D01*
X130166666Y-71954819D02*
X130261904Y-72002438D01*
X130261904Y-72002438D02*
X130309523Y-72050057D01*
X130309523Y-72050057D02*
X130357142Y-72145295D01*
X130357142Y-72145295D02*
X130357142Y-72288152D01*
X130357142Y-72288152D02*
X130309523Y-72383390D01*
X130309523Y-72383390D02*
X130261904Y-72431009D01*
X130261904Y-72431009D02*
X130166666Y-72478628D01*
X130166666Y-72478628D02*
X129785714Y-72478628D01*
X131261904Y-71954819D02*
X130785714Y-71954819D01*
X130785714Y-71954819D02*
X130738095Y-72431009D01*
X130738095Y-72431009D02*
X130785714Y-72383390D01*
X130785714Y-72383390D02*
X130880952Y-72335771D01*
X130880952Y-72335771D02*
X131119047Y-72335771D01*
X131119047Y-72335771D02*
X131214285Y-72383390D01*
X131214285Y-72383390D02*
X131261904Y-72431009D01*
X131261904Y-72431009D02*
X131309523Y-72526247D01*
X131309523Y-72526247D02*
X131309523Y-72764342D01*
X131309523Y-72764342D02*
X131261904Y-72859580D01*
X131261904Y-72859580D02*
X131214285Y-72907200D01*
X131214285Y-72907200D02*
X131119047Y-72954819D01*
X131119047Y-72954819D02*
X130880952Y-72954819D01*
X130880952Y-72954819D02*
X130785714Y-72907200D01*
X130785714Y-72907200D02*
X130738095Y-72859580D01*
X131880952Y-72383390D02*
X131785714Y-72335771D01*
X131785714Y-72335771D02*
X131738095Y-72288152D01*
X131738095Y-72288152D02*
X131690476Y-72192914D01*
X131690476Y-72192914D02*
X131690476Y-72145295D01*
X131690476Y-72145295D02*
X131738095Y-72050057D01*
X131738095Y-72050057D02*
X131785714Y-72002438D01*
X131785714Y-72002438D02*
X131880952Y-71954819D01*
X131880952Y-71954819D02*
X132071428Y-71954819D01*
X132071428Y-71954819D02*
X132166666Y-72002438D01*
X132166666Y-72002438D02*
X132214285Y-72050057D01*
X132214285Y-72050057D02*
X132261904Y-72145295D01*
X132261904Y-72145295D02*
X132261904Y-72192914D01*
X132261904Y-72192914D02*
X132214285Y-72288152D01*
X132214285Y-72288152D02*
X132166666Y-72335771D01*
X132166666Y-72335771D02*
X132071428Y-72383390D01*
X132071428Y-72383390D02*
X131880952Y-72383390D01*
X131880952Y-72383390D02*
X131785714Y-72431009D01*
X131785714Y-72431009D02*
X131738095Y-72478628D01*
X131738095Y-72478628D02*
X131690476Y-72573866D01*
X131690476Y-72573866D02*
X131690476Y-72764342D01*
X131690476Y-72764342D02*
X131738095Y-72859580D01*
X131738095Y-72859580D02*
X131785714Y-72907200D01*
X131785714Y-72907200D02*
X131880952Y-72954819D01*
X131880952Y-72954819D02*
X132071428Y-72954819D01*
X132071428Y-72954819D02*
X132166666Y-72907200D01*
X132166666Y-72907200D02*
X132214285Y-72859580D01*
X132214285Y-72859580D02*
X132261904Y-72764342D01*
X132261904Y-72764342D02*
X132261904Y-72573866D01*
X132261904Y-72573866D02*
X132214285Y-72478628D01*
X132214285Y-72478628D02*
X132166666Y-72431009D01*
X132166666Y-72431009D02*
X132071428Y-72383390D01*
%TO.C,R36*%
X154250819Y-110751857D02*
X153774628Y-111085190D01*
X154250819Y-111323285D02*
X153250819Y-111323285D01*
X153250819Y-111323285D02*
X153250819Y-110942333D01*
X153250819Y-110942333D02*
X153298438Y-110847095D01*
X153298438Y-110847095D02*
X153346057Y-110799476D01*
X153346057Y-110799476D02*
X153441295Y-110751857D01*
X153441295Y-110751857D02*
X153584152Y-110751857D01*
X153584152Y-110751857D02*
X153679390Y-110799476D01*
X153679390Y-110799476D02*
X153727009Y-110847095D01*
X153727009Y-110847095D02*
X153774628Y-110942333D01*
X153774628Y-110942333D02*
X153774628Y-111323285D01*
X153250819Y-110418523D02*
X153250819Y-109799476D01*
X153250819Y-109799476D02*
X153631771Y-110132809D01*
X153631771Y-110132809D02*
X153631771Y-109989952D01*
X153631771Y-109989952D02*
X153679390Y-109894714D01*
X153679390Y-109894714D02*
X153727009Y-109847095D01*
X153727009Y-109847095D02*
X153822247Y-109799476D01*
X153822247Y-109799476D02*
X154060342Y-109799476D01*
X154060342Y-109799476D02*
X154155580Y-109847095D01*
X154155580Y-109847095D02*
X154203200Y-109894714D01*
X154203200Y-109894714D02*
X154250819Y-109989952D01*
X154250819Y-109989952D02*
X154250819Y-110275666D01*
X154250819Y-110275666D02*
X154203200Y-110370904D01*
X154203200Y-110370904D02*
X154155580Y-110418523D01*
X153250819Y-108942333D02*
X153250819Y-109132809D01*
X153250819Y-109132809D02*
X153298438Y-109228047D01*
X153298438Y-109228047D02*
X153346057Y-109275666D01*
X153346057Y-109275666D02*
X153488914Y-109370904D01*
X153488914Y-109370904D02*
X153679390Y-109418523D01*
X153679390Y-109418523D02*
X154060342Y-109418523D01*
X154060342Y-109418523D02*
X154155580Y-109370904D01*
X154155580Y-109370904D02*
X154203200Y-109323285D01*
X154203200Y-109323285D02*
X154250819Y-109228047D01*
X154250819Y-109228047D02*
X154250819Y-109037571D01*
X154250819Y-109037571D02*
X154203200Y-108942333D01*
X154203200Y-108942333D02*
X154155580Y-108894714D01*
X154155580Y-108894714D02*
X154060342Y-108847095D01*
X154060342Y-108847095D02*
X153822247Y-108847095D01*
X153822247Y-108847095D02*
X153727009Y-108894714D01*
X153727009Y-108894714D02*
X153679390Y-108942333D01*
X153679390Y-108942333D02*
X153631771Y-109037571D01*
X153631771Y-109037571D02*
X153631771Y-109228047D01*
X153631771Y-109228047D02*
X153679390Y-109323285D01*
X153679390Y-109323285D02*
X153727009Y-109370904D01*
X153727009Y-109370904D02*
X153822247Y-109418523D01*
%TO.C,D5*%
X122501905Y-56034819D02*
X122501905Y-55034819D01*
X122501905Y-55034819D02*
X122740000Y-55034819D01*
X122740000Y-55034819D02*
X122882857Y-55082438D01*
X122882857Y-55082438D02*
X122978095Y-55177676D01*
X122978095Y-55177676D02*
X123025714Y-55272914D01*
X123025714Y-55272914D02*
X123073333Y-55463390D01*
X123073333Y-55463390D02*
X123073333Y-55606247D01*
X123073333Y-55606247D02*
X123025714Y-55796723D01*
X123025714Y-55796723D02*
X122978095Y-55891961D01*
X122978095Y-55891961D02*
X122882857Y-55987200D01*
X122882857Y-55987200D02*
X122740000Y-56034819D01*
X122740000Y-56034819D02*
X122501905Y-56034819D01*
X123978095Y-55034819D02*
X123501905Y-55034819D01*
X123501905Y-55034819D02*
X123454286Y-55511009D01*
X123454286Y-55511009D02*
X123501905Y-55463390D01*
X123501905Y-55463390D02*
X123597143Y-55415771D01*
X123597143Y-55415771D02*
X123835238Y-55415771D01*
X123835238Y-55415771D02*
X123930476Y-55463390D01*
X123930476Y-55463390D02*
X123978095Y-55511009D01*
X123978095Y-55511009D02*
X124025714Y-55606247D01*
X124025714Y-55606247D02*
X124025714Y-55844342D01*
X124025714Y-55844342D02*
X123978095Y-55939580D01*
X123978095Y-55939580D02*
X123930476Y-55987200D01*
X123930476Y-55987200D02*
X123835238Y-56034819D01*
X123835238Y-56034819D02*
X123597143Y-56034819D01*
X123597143Y-56034819D02*
X123501905Y-55987200D01*
X123501905Y-55987200D02*
X123454286Y-55939580D01*
%TO.C,D11*%
X149285714Y-108264819D02*
X149285714Y-107264819D01*
X149285714Y-107264819D02*
X149523809Y-107264819D01*
X149523809Y-107264819D02*
X149666666Y-107312438D01*
X149666666Y-107312438D02*
X149761904Y-107407676D01*
X149761904Y-107407676D02*
X149809523Y-107502914D01*
X149809523Y-107502914D02*
X149857142Y-107693390D01*
X149857142Y-107693390D02*
X149857142Y-107836247D01*
X149857142Y-107836247D02*
X149809523Y-108026723D01*
X149809523Y-108026723D02*
X149761904Y-108121961D01*
X149761904Y-108121961D02*
X149666666Y-108217200D01*
X149666666Y-108217200D02*
X149523809Y-108264819D01*
X149523809Y-108264819D02*
X149285714Y-108264819D01*
X150809523Y-108264819D02*
X150238095Y-108264819D01*
X150523809Y-108264819D02*
X150523809Y-107264819D01*
X150523809Y-107264819D02*
X150428571Y-107407676D01*
X150428571Y-107407676D02*
X150333333Y-107502914D01*
X150333333Y-107502914D02*
X150238095Y-107550533D01*
X151761904Y-108264819D02*
X151190476Y-108264819D01*
X151476190Y-108264819D02*
X151476190Y-107264819D01*
X151476190Y-107264819D02*
X151380952Y-107407676D01*
X151380952Y-107407676D02*
X151285714Y-107502914D01*
X151285714Y-107502914D02*
X151190476Y-107550533D01*
%TO.C,R23*%
X116954819Y-84142857D02*
X116478628Y-84476190D01*
X116954819Y-84714285D02*
X115954819Y-84714285D01*
X115954819Y-84714285D02*
X115954819Y-84333333D01*
X115954819Y-84333333D02*
X116002438Y-84238095D01*
X116002438Y-84238095D02*
X116050057Y-84190476D01*
X116050057Y-84190476D02*
X116145295Y-84142857D01*
X116145295Y-84142857D02*
X116288152Y-84142857D01*
X116288152Y-84142857D02*
X116383390Y-84190476D01*
X116383390Y-84190476D02*
X116431009Y-84238095D01*
X116431009Y-84238095D02*
X116478628Y-84333333D01*
X116478628Y-84333333D02*
X116478628Y-84714285D01*
X116050057Y-83761904D02*
X116002438Y-83714285D01*
X116002438Y-83714285D02*
X115954819Y-83619047D01*
X115954819Y-83619047D02*
X115954819Y-83380952D01*
X115954819Y-83380952D02*
X116002438Y-83285714D01*
X116002438Y-83285714D02*
X116050057Y-83238095D01*
X116050057Y-83238095D02*
X116145295Y-83190476D01*
X116145295Y-83190476D02*
X116240533Y-83190476D01*
X116240533Y-83190476D02*
X116383390Y-83238095D01*
X116383390Y-83238095D02*
X116954819Y-83809523D01*
X116954819Y-83809523D02*
X116954819Y-83190476D01*
X115954819Y-82857142D02*
X115954819Y-82238095D01*
X115954819Y-82238095D02*
X116335771Y-82571428D01*
X116335771Y-82571428D02*
X116335771Y-82428571D01*
X116335771Y-82428571D02*
X116383390Y-82333333D01*
X116383390Y-82333333D02*
X116431009Y-82285714D01*
X116431009Y-82285714D02*
X116526247Y-82238095D01*
X116526247Y-82238095D02*
X116764342Y-82238095D01*
X116764342Y-82238095D02*
X116859580Y-82285714D01*
X116859580Y-82285714D02*
X116907200Y-82333333D01*
X116907200Y-82333333D02*
X116954819Y-82428571D01*
X116954819Y-82428571D02*
X116954819Y-82714285D01*
X116954819Y-82714285D02*
X116907200Y-82809523D01*
X116907200Y-82809523D02*
X116859580Y-82857142D01*
%TO.C,D18*%
X141523214Y-54254819D02*
X141523214Y-53254819D01*
X141523214Y-53254819D02*
X141761309Y-53254819D01*
X141761309Y-53254819D02*
X141904166Y-53302438D01*
X141904166Y-53302438D02*
X141999404Y-53397676D01*
X141999404Y-53397676D02*
X142047023Y-53492914D01*
X142047023Y-53492914D02*
X142094642Y-53683390D01*
X142094642Y-53683390D02*
X142094642Y-53826247D01*
X142094642Y-53826247D02*
X142047023Y-54016723D01*
X142047023Y-54016723D02*
X141999404Y-54111961D01*
X141999404Y-54111961D02*
X141904166Y-54207200D01*
X141904166Y-54207200D02*
X141761309Y-54254819D01*
X141761309Y-54254819D02*
X141523214Y-54254819D01*
X143047023Y-54254819D02*
X142475595Y-54254819D01*
X142761309Y-54254819D02*
X142761309Y-53254819D01*
X142761309Y-53254819D02*
X142666071Y-53397676D01*
X142666071Y-53397676D02*
X142570833Y-53492914D01*
X142570833Y-53492914D02*
X142475595Y-53540533D01*
X143618452Y-53683390D02*
X143523214Y-53635771D01*
X143523214Y-53635771D02*
X143475595Y-53588152D01*
X143475595Y-53588152D02*
X143427976Y-53492914D01*
X143427976Y-53492914D02*
X143427976Y-53445295D01*
X143427976Y-53445295D02*
X143475595Y-53350057D01*
X143475595Y-53350057D02*
X143523214Y-53302438D01*
X143523214Y-53302438D02*
X143618452Y-53254819D01*
X143618452Y-53254819D02*
X143808928Y-53254819D01*
X143808928Y-53254819D02*
X143904166Y-53302438D01*
X143904166Y-53302438D02*
X143951785Y-53350057D01*
X143951785Y-53350057D02*
X143999404Y-53445295D01*
X143999404Y-53445295D02*
X143999404Y-53492914D01*
X143999404Y-53492914D02*
X143951785Y-53588152D01*
X143951785Y-53588152D02*
X143904166Y-53635771D01*
X143904166Y-53635771D02*
X143808928Y-53683390D01*
X143808928Y-53683390D02*
X143618452Y-53683390D01*
X143618452Y-53683390D02*
X143523214Y-53731009D01*
X143523214Y-53731009D02*
X143475595Y-53778628D01*
X143475595Y-53778628D02*
X143427976Y-53873866D01*
X143427976Y-53873866D02*
X143427976Y-54064342D01*
X143427976Y-54064342D02*
X143475595Y-54159580D01*
X143475595Y-54159580D02*
X143523214Y-54207200D01*
X143523214Y-54207200D02*
X143618452Y-54254819D01*
X143618452Y-54254819D02*
X143808928Y-54254819D01*
X143808928Y-54254819D02*
X143904166Y-54207200D01*
X143904166Y-54207200D02*
X143951785Y-54159580D01*
X143951785Y-54159580D02*
X143999404Y-54064342D01*
X143999404Y-54064342D02*
X143999404Y-53873866D01*
X143999404Y-53873866D02*
X143951785Y-53778628D01*
X143951785Y-53778628D02*
X143904166Y-53731009D01*
X143904166Y-53731009D02*
X143808928Y-53683390D01*
%TO.C,C21*%
X156039580Y-75642857D02*
X156087200Y-75690476D01*
X156087200Y-75690476D02*
X156134819Y-75833333D01*
X156134819Y-75833333D02*
X156134819Y-75928571D01*
X156134819Y-75928571D02*
X156087200Y-76071428D01*
X156087200Y-76071428D02*
X155991961Y-76166666D01*
X155991961Y-76166666D02*
X155896723Y-76214285D01*
X155896723Y-76214285D02*
X155706247Y-76261904D01*
X155706247Y-76261904D02*
X155563390Y-76261904D01*
X155563390Y-76261904D02*
X155372914Y-76214285D01*
X155372914Y-76214285D02*
X155277676Y-76166666D01*
X155277676Y-76166666D02*
X155182438Y-76071428D01*
X155182438Y-76071428D02*
X155134819Y-75928571D01*
X155134819Y-75928571D02*
X155134819Y-75833333D01*
X155134819Y-75833333D02*
X155182438Y-75690476D01*
X155182438Y-75690476D02*
X155230057Y-75642857D01*
X155230057Y-75261904D02*
X155182438Y-75214285D01*
X155182438Y-75214285D02*
X155134819Y-75119047D01*
X155134819Y-75119047D02*
X155134819Y-74880952D01*
X155134819Y-74880952D02*
X155182438Y-74785714D01*
X155182438Y-74785714D02*
X155230057Y-74738095D01*
X155230057Y-74738095D02*
X155325295Y-74690476D01*
X155325295Y-74690476D02*
X155420533Y-74690476D01*
X155420533Y-74690476D02*
X155563390Y-74738095D01*
X155563390Y-74738095D02*
X156134819Y-75309523D01*
X156134819Y-75309523D02*
X156134819Y-74690476D01*
X156134819Y-73738095D02*
X156134819Y-74309523D01*
X156134819Y-74023809D02*
X155134819Y-74023809D01*
X155134819Y-74023809D02*
X155277676Y-74119047D01*
X155277676Y-74119047D02*
X155372914Y-74214285D01*
X155372914Y-74214285D02*
X155420533Y-74309523D01*
%TO.C,J3*%
X113666666Y-109754819D02*
X113666666Y-110469104D01*
X113666666Y-110469104D02*
X113619047Y-110611961D01*
X113619047Y-110611961D02*
X113523809Y-110707200D01*
X113523809Y-110707200D02*
X113380952Y-110754819D01*
X113380952Y-110754819D02*
X113285714Y-110754819D01*
X114047619Y-109754819D02*
X114666666Y-109754819D01*
X114666666Y-109754819D02*
X114333333Y-110135771D01*
X114333333Y-110135771D02*
X114476190Y-110135771D01*
X114476190Y-110135771D02*
X114571428Y-110183390D01*
X114571428Y-110183390D02*
X114619047Y-110231009D01*
X114619047Y-110231009D02*
X114666666Y-110326247D01*
X114666666Y-110326247D02*
X114666666Y-110564342D01*
X114666666Y-110564342D02*
X114619047Y-110659580D01*
X114619047Y-110659580D02*
X114571428Y-110707200D01*
X114571428Y-110707200D02*
X114476190Y-110754819D01*
X114476190Y-110754819D02*
X114190476Y-110754819D01*
X114190476Y-110754819D02*
X114095238Y-110707200D01*
X114095238Y-110707200D02*
X114047619Y-110659580D01*
%TO.C,C13*%
X158407142Y-93039580D02*
X158359523Y-93087200D01*
X158359523Y-93087200D02*
X158216666Y-93134819D01*
X158216666Y-93134819D02*
X158121428Y-93134819D01*
X158121428Y-93134819D02*
X157978571Y-93087200D01*
X157978571Y-93087200D02*
X157883333Y-92991961D01*
X157883333Y-92991961D02*
X157835714Y-92896723D01*
X157835714Y-92896723D02*
X157788095Y-92706247D01*
X157788095Y-92706247D02*
X157788095Y-92563390D01*
X157788095Y-92563390D02*
X157835714Y-92372914D01*
X157835714Y-92372914D02*
X157883333Y-92277676D01*
X157883333Y-92277676D02*
X157978571Y-92182438D01*
X157978571Y-92182438D02*
X158121428Y-92134819D01*
X158121428Y-92134819D02*
X158216666Y-92134819D01*
X158216666Y-92134819D02*
X158359523Y-92182438D01*
X158359523Y-92182438D02*
X158407142Y-92230057D01*
X159359523Y-93134819D02*
X158788095Y-93134819D01*
X159073809Y-93134819D02*
X159073809Y-92134819D01*
X159073809Y-92134819D02*
X158978571Y-92277676D01*
X158978571Y-92277676D02*
X158883333Y-92372914D01*
X158883333Y-92372914D02*
X158788095Y-92420533D01*
X159692857Y-92134819D02*
X160311904Y-92134819D01*
X160311904Y-92134819D02*
X159978571Y-92515771D01*
X159978571Y-92515771D02*
X160121428Y-92515771D01*
X160121428Y-92515771D02*
X160216666Y-92563390D01*
X160216666Y-92563390D02*
X160264285Y-92611009D01*
X160264285Y-92611009D02*
X160311904Y-92706247D01*
X160311904Y-92706247D02*
X160311904Y-92944342D01*
X160311904Y-92944342D02*
X160264285Y-93039580D01*
X160264285Y-93039580D02*
X160216666Y-93087200D01*
X160216666Y-93087200D02*
X160121428Y-93134819D01*
X160121428Y-93134819D02*
X159835714Y-93134819D01*
X159835714Y-93134819D02*
X159740476Y-93087200D01*
X159740476Y-93087200D02*
X159692857Y-93039580D01*
%TO.C,D33*%
X142301214Y-107949819D02*
X142301214Y-106949819D01*
X142301214Y-106949819D02*
X142539309Y-106949819D01*
X142539309Y-106949819D02*
X142682166Y-106997438D01*
X142682166Y-106997438D02*
X142777404Y-107092676D01*
X142777404Y-107092676D02*
X142825023Y-107187914D01*
X142825023Y-107187914D02*
X142872642Y-107378390D01*
X142872642Y-107378390D02*
X142872642Y-107521247D01*
X142872642Y-107521247D02*
X142825023Y-107711723D01*
X142825023Y-107711723D02*
X142777404Y-107806961D01*
X142777404Y-107806961D02*
X142682166Y-107902200D01*
X142682166Y-107902200D02*
X142539309Y-107949819D01*
X142539309Y-107949819D02*
X142301214Y-107949819D01*
X143205976Y-106949819D02*
X143825023Y-106949819D01*
X143825023Y-106949819D02*
X143491690Y-107330771D01*
X143491690Y-107330771D02*
X143634547Y-107330771D01*
X143634547Y-107330771D02*
X143729785Y-107378390D01*
X143729785Y-107378390D02*
X143777404Y-107426009D01*
X143777404Y-107426009D02*
X143825023Y-107521247D01*
X143825023Y-107521247D02*
X143825023Y-107759342D01*
X143825023Y-107759342D02*
X143777404Y-107854580D01*
X143777404Y-107854580D02*
X143729785Y-107902200D01*
X143729785Y-107902200D02*
X143634547Y-107949819D01*
X143634547Y-107949819D02*
X143348833Y-107949819D01*
X143348833Y-107949819D02*
X143253595Y-107902200D01*
X143253595Y-107902200D02*
X143205976Y-107854580D01*
X144158357Y-106949819D02*
X144777404Y-106949819D01*
X144777404Y-106949819D02*
X144444071Y-107330771D01*
X144444071Y-107330771D02*
X144586928Y-107330771D01*
X144586928Y-107330771D02*
X144682166Y-107378390D01*
X144682166Y-107378390D02*
X144729785Y-107426009D01*
X144729785Y-107426009D02*
X144777404Y-107521247D01*
X144777404Y-107521247D02*
X144777404Y-107759342D01*
X144777404Y-107759342D02*
X144729785Y-107854580D01*
X144729785Y-107854580D02*
X144682166Y-107902200D01*
X144682166Y-107902200D02*
X144586928Y-107949819D01*
X144586928Y-107949819D02*
X144301214Y-107949819D01*
X144301214Y-107949819D02*
X144205976Y-107902200D01*
X144205976Y-107902200D02*
X144158357Y-107854580D01*
%TO.C,R44*%
X132819642Y-58104819D02*
X132486309Y-57628628D01*
X132248214Y-58104819D02*
X132248214Y-57104819D01*
X132248214Y-57104819D02*
X132629166Y-57104819D01*
X132629166Y-57104819D02*
X132724404Y-57152438D01*
X132724404Y-57152438D02*
X132772023Y-57200057D01*
X132772023Y-57200057D02*
X132819642Y-57295295D01*
X132819642Y-57295295D02*
X132819642Y-57438152D01*
X132819642Y-57438152D02*
X132772023Y-57533390D01*
X132772023Y-57533390D02*
X132724404Y-57581009D01*
X132724404Y-57581009D02*
X132629166Y-57628628D01*
X132629166Y-57628628D02*
X132248214Y-57628628D01*
X133676785Y-57438152D02*
X133676785Y-58104819D01*
X133438690Y-57057200D02*
X133200595Y-57771485D01*
X133200595Y-57771485D02*
X133819642Y-57771485D01*
X134629166Y-57438152D02*
X134629166Y-58104819D01*
X134391071Y-57057200D02*
X134152976Y-57771485D01*
X134152976Y-57771485D02*
X134772023Y-57771485D01*
%TO.C,R39*%
X148579642Y-71749819D02*
X148246309Y-71273628D01*
X148008214Y-71749819D02*
X148008214Y-70749819D01*
X148008214Y-70749819D02*
X148389166Y-70749819D01*
X148389166Y-70749819D02*
X148484404Y-70797438D01*
X148484404Y-70797438D02*
X148532023Y-70845057D01*
X148532023Y-70845057D02*
X148579642Y-70940295D01*
X148579642Y-70940295D02*
X148579642Y-71083152D01*
X148579642Y-71083152D02*
X148532023Y-71178390D01*
X148532023Y-71178390D02*
X148484404Y-71226009D01*
X148484404Y-71226009D02*
X148389166Y-71273628D01*
X148389166Y-71273628D02*
X148008214Y-71273628D01*
X148912976Y-70749819D02*
X149532023Y-70749819D01*
X149532023Y-70749819D02*
X149198690Y-71130771D01*
X149198690Y-71130771D02*
X149341547Y-71130771D01*
X149341547Y-71130771D02*
X149436785Y-71178390D01*
X149436785Y-71178390D02*
X149484404Y-71226009D01*
X149484404Y-71226009D02*
X149532023Y-71321247D01*
X149532023Y-71321247D02*
X149532023Y-71559342D01*
X149532023Y-71559342D02*
X149484404Y-71654580D01*
X149484404Y-71654580D02*
X149436785Y-71702200D01*
X149436785Y-71702200D02*
X149341547Y-71749819D01*
X149341547Y-71749819D02*
X149055833Y-71749819D01*
X149055833Y-71749819D02*
X148960595Y-71702200D01*
X148960595Y-71702200D02*
X148912976Y-71654580D01*
X150008214Y-71749819D02*
X150198690Y-71749819D01*
X150198690Y-71749819D02*
X150293928Y-71702200D01*
X150293928Y-71702200D02*
X150341547Y-71654580D01*
X150341547Y-71654580D02*
X150436785Y-71511723D01*
X150436785Y-71511723D02*
X150484404Y-71321247D01*
X150484404Y-71321247D02*
X150484404Y-70940295D01*
X150484404Y-70940295D02*
X150436785Y-70845057D01*
X150436785Y-70845057D02*
X150389166Y-70797438D01*
X150389166Y-70797438D02*
X150293928Y-70749819D01*
X150293928Y-70749819D02*
X150103452Y-70749819D01*
X150103452Y-70749819D02*
X150008214Y-70797438D01*
X150008214Y-70797438D02*
X149960595Y-70845057D01*
X149960595Y-70845057D02*
X149912976Y-70940295D01*
X149912976Y-70940295D02*
X149912976Y-71178390D01*
X149912976Y-71178390D02*
X149960595Y-71273628D01*
X149960595Y-71273628D02*
X150008214Y-71321247D01*
X150008214Y-71321247D02*
X150103452Y-71368866D01*
X150103452Y-71368866D02*
X150293928Y-71368866D01*
X150293928Y-71368866D02*
X150389166Y-71321247D01*
X150389166Y-71321247D02*
X150436785Y-71273628D01*
X150436785Y-71273628D02*
X150484404Y-71178390D01*
%TO.C,R50*%
X149217142Y-75764819D02*
X148883809Y-75288628D01*
X148645714Y-75764819D02*
X148645714Y-74764819D01*
X148645714Y-74764819D02*
X149026666Y-74764819D01*
X149026666Y-74764819D02*
X149121904Y-74812438D01*
X149121904Y-74812438D02*
X149169523Y-74860057D01*
X149169523Y-74860057D02*
X149217142Y-74955295D01*
X149217142Y-74955295D02*
X149217142Y-75098152D01*
X149217142Y-75098152D02*
X149169523Y-75193390D01*
X149169523Y-75193390D02*
X149121904Y-75241009D01*
X149121904Y-75241009D02*
X149026666Y-75288628D01*
X149026666Y-75288628D02*
X148645714Y-75288628D01*
X150121904Y-74764819D02*
X149645714Y-74764819D01*
X149645714Y-74764819D02*
X149598095Y-75241009D01*
X149598095Y-75241009D02*
X149645714Y-75193390D01*
X149645714Y-75193390D02*
X149740952Y-75145771D01*
X149740952Y-75145771D02*
X149979047Y-75145771D01*
X149979047Y-75145771D02*
X150074285Y-75193390D01*
X150074285Y-75193390D02*
X150121904Y-75241009D01*
X150121904Y-75241009D02*
X150169523Y-75336247D01*
X150169523Y-75336247D02*
X150169523Y-75574342D01*
X150169523Y-75574342D02*
X150121904Y-75669580D01*
X150121904Y-75669580D02*
X150074285Y-75717200D01*
X150074285Y-75717200D02*
X149979047Y-75764819D01*
X149979047Y-75764819D02*
X149740952Y-75764819D01*
X149740952Y-75764819D02*
X149645714Y-75717200D01*
X149645714Y-75717200D02*
X149598095Y-75669580D01*
X150788571Y-74764819D02*
X150883809Y-74764819D01*
X150883809Y-74764819D02*
X150979047Y-74812438D01*
X150979047Y-74812438D02*
X151026666Y-74860057D01*
X151026666Y-74860057D02*
X151074285Y-74955295D01*
X151074285Y-74955295D02*
X151121904Y-75145771D01*
X151121904Y-75145771D02*
X151121904Y-75383866D01*
X151121904Y-75383866D02*
X151074285Y-75574342D01*
X151074285Y-75574342D02*
X151026666Y-75669580D01*
X151026666Y-75669580D02*
X150979047Y-75717200D01*
X150979047Y-75717200D02*
X150883809Y-75764819D01*
X150883809Y-75764819D02*
X150788571Y-75764819D01*
X150788571Y-75764819D02*
X150693333Y-75717200D01*
X150693333Y-75717200D02*
X150645714Y-75669580D01*
X150645714Y-75669580D02*
X150598095Y-75574342D01*
X150598095Y-75574342D02*
X150550476Y-75383866D01*
X150550476Y-75383866D02*
X150550476Y-75145771D01*
X150550476Y-75145771D02*
X150598095Y-74955295D01*
X150598095Y-74955295D02*
X150645714Y-74860057D01*
X150645714Y-74860057D02*
X150693333Y-74812438D01*
X150693333Y-74812438D02*
X150788571Y-74764819D01*
%TO.C,D1*%
X147854819Y-85600594D02*
X146854819Y-85600594D01*
X146854819Y-85600594D02*
X146854819Y-85362499D01*
X146854819Y-85362499D02*
X146902438Y-85219642D01*
X146902438Y-85219642D02*
X146997676Y-85124404D01*
X146997676Y-85124404D02*
X147092914Y-85076785D01*
X147092914Y-85076785D02*
X147283390Y-85029166D01*
X147283390Y-85029166D02*
X147426247Y-85029166D01*
X147426247Y-85029166D02*
X147616723Y-85076785D01*
X147616723Y-85076785D02*
X147711961Y-85124404D01*
X147711961Y-85124404D02*
X147807200Y-85219642D01*
X147807200Y-85219642D02*
X147854819Y-85362499D01*
X147854819Y-85362499D02*
X147854819Y-85600594D01*
X147854819Y-84076785D02*
X147854819Y-84648213D01*
X147854819Y-84362499D02*
X146854819Y-84362499D01*
X146854819Y-84362499D02*
X146997676Y-84457737D01*
X146997676Y-84457737D02*
X147092914Y-84552975D01*
X147092914Y-84552975D02*
X147140533Y-84648213D01*
%TO.C,Q5*%
X136450057Y-60532738D02*
X136402438Y-60627976D01*
X136402438Y-60627976D02*
X136307200Y-60723214D01*
X136307200Y-60723214D02*
X136164342Y-60866071D01*
X136164342Y-60866071D02*
X136116723Y-60961309D01*
X136116723Y-60961309D02*
X136116723Y-61056547D01*
X136354819Y-61008928D02*
X136307200Y-61104166D01*
X136307200Y-61104166D02*
X136211961Y-61199404D01*
X136211961Y-61199404D02*
X136021485Y-61247023D01*
X136021485Y-61247023D02*
X135688152Y-61247023D01*
X135688152Y-61247023D02*
X135497676Y-61199404D01*
X135497676Y-61199404D02*
X135402438Y-61104166D01*
X135402438Y-61104166D02*
X135354819Y-61008928D01*
X135354819Y-61008928D02*
X135354819Y-60818452D01*
X135354819Y-60818452D02*
X135402438Y-60723214D01*
X135402438Y-60723214D02*
X135497676Y-60627976D01*
X135497676Y-60627976D02*
X135688152Y-60580357D01*
X135688152Y-60580357D02*
X136021485Y-60580357D01*
X136021485Y-60580357D02*
X136211961Y-60627976D01*
X136211961Y-60627976D02*
X136307200Y-60723214D01*
X136307200Y-60723214D02*
X136354819Y-60818452D01*
X136354819Y-60818452D02*
X136354819Y-61008928D01*
X135354819Y-59675595D02*
X135354819Y-60151785D01*
X135354819Y-60151785D02*
X135831009Y-60199404D01*
X135831009Y-60199404D02*
X135783390Y-60151785D01*
X135783390Y-60151785D02*
X135735771Y-60056547D01*
X135735771Y-60056547D02*
X135735771Y-59818452D01*
X135735771Y-59818452D02*
X135783390Y-59723214D01*
X135783390Y-59723214D02*
X135831009Y-59675595D01*
X135831009Y-59675595D02*
X135926247Y-59627976D01*
X135926247Y-59627976D02*
X136164342Y-59627976D01*
X136164342Y-59627976D02*
X136259580Y-59675595D01*
X136259580Y-59675595D02*
X136307200Y-59723214D01*
X136307200Y-59723214D02*
X136354819Y-59818452D01*
X136354819Y-59818452D02*
X136354819Y-60056547D01*
X136354819Y-60056547D02*
X136307200Y-60151785D01*
X136307200Y-60151785D02*
X136259580Y-60199404D01*
%TO.C,C11*%
X143857142Y-112609580D02*
X143809523Y-112657200D01*
X143809523Y-112657200D02*
X143666666Y-112704819D01*
X143666666Y-112704819D02*
X143571428Y-112704819D01*
X143571428Y-112704819D02*
X143428571Y-112657200D01*
X143428571Y-112657200D02*
X143333333Y-112561961D01*
X143333333Y-112561961D02*
X143285714Y-112466723D01*
X143285714Y-112466723D02*
X143238095Y-112276247D01*
X143238095Y-112276247D02*
X143238095Y-112133390D01*
X143238095Y-112133390D02*
X143285714Y-111942914D01*
X143285714Y-111942914D02*
X143333333Y-111847676D01*
X143333333Y-111847676D02*
X143428571Y-111752438D01*
X143428571Y-111752438D02*
X143571428Y-111704819D01*
X143571428Y-111704819D02*
X143666666Y-111704819D01*
X143666666Y-111704819D02*
X143809523Y-111752438D01*
X143809523Y-111752438D02*
X143857142Y-111800057D01*
X144809523Y-112704819D02*
X144238095Y-112704819D01*
X144523809Y-112704819D02*
X144523809Y-111704819D01*
X144523809Y-111704819D02*
X144428571Y-111847676D01*
X144428571Y-111847676D02*
X144333333Y-111942914D01*
X144333333Y-111942914D02*
X144238095Y-111990533D01*
X145761904Y-112704819D02*
X145190476Y-112704819D01*
X145476190Y-112704819D02*
X145476190Y-111704819D01*
X145476190Y-111704819D02*
X145380952Y-111847676D01*
X145380952Y-111847676D02*
X145285714Y-111942914D01*
X145285714Y-111942914D02*
X145190476Y-111990533D01*
%TO.C,Q1*%
X153760057Y-65802738D02*
X153712438Y-65897976D01*
X153712438Y-65897976D02*
X153617200Y-65993214D01*
X153617200Y-65993214D02*
X153474342Y-66136071D01*
X153474342Y-66136071D02*
X153426723Y-66231309D01*
X153426723Y-66231309D02*
X153426723Y-66326547D01*
X153664819Y-66278928D02*
X153617200Y-66374166D01*
X153617200Y-66374166D02*
X153521961Y-66469404D01*
X153521961Y-66469404D02*
X153331485Y-66517023D01*
X153331485Y-66517023D02*
X152998152Y-66517023D01*
X152998152Y-66517023D02*
X152807676Y-66469404D01*
X152807676Y-66469404D02*
X152712438Y-66374166D01*
X152712438Y-66374166D02*
X152664819Y-66278928D01*
X152664819Y-66278928D02*
X152664819Y-66088452D01*
X152664819Y-66088452D02*
X152712438Y-65993214D01*
X152712438Y-65993214D02*
X152807676Y-65897976D01*
X152807676Y-65897976D02*
X152998152Y-65850357D01*
X152998152Y-65850357D02*
X153331485Y-65850357D01*
X153331485Y-65850357D02*
X153521961Y-65897976D01*
X153521961Y-65897976D02*
X153617200Y-65993214D01*
X153617200Y-65993214D02*
X153664819Y-66088452D01*
X153664819Y-66088452D02*
X153664819Y-66278928D01*
X153664819Y-64897976D02*
X153664819Y-65469404D01*
X153664819Y-65183690D02*
X152664819Y-65183690D01*
X152664819Y-65183690D02*
X152807676Y-65278928D01*
X152807676Y-65278928D02*
X152902914Y-65374166D01*
X152902914Y-65374166D02*
X152950533Y-65469404D01*
%TO.C,J1*%
X113966666Y-46454819D02*
X113966666Y-47169104D01*
X113966666Y-47169104D02*
X113919047Y-47311961D01*
X113919047Y-47311961D02*
X113823809Y-47407200D01*
X113823809Y-47407200D02*
X113680952Y-47454819D01*
X113680952Y-47454819D02*
X113585714Y-47454819D01*
X114966666Y-47454819D02*
X114395238Y-47454819D01*
X114680952Y-47454819D02*
X114680952Y-46454819D01*
X114680952Y-46454819D02*
X114585714Y-46597676D01*
X114585714Y-46597676D02*
X114490476Y-46692914D01*
X114490476Y-46692914D02*
X114395238Y-46740533D01*
%TO.C,R26*%
X150204819Y-110892857D02*
X149728628Y-111226190D01*
X150204819Y-111464285D02*
X149204819Y-111464285D01*
X149204819Y-111464285D02*
X149204819Y-111083333D01*
X149204819Y-111083333D02*
X149252438Y-110988095D01*
X149252438Y-110988095D02*
X149300057Y-110940476D01*
X149300057Y-110940476D02*
X149395295Y-110892857D01*
X149395295Y-110892857D02*
X149538152Y-110892857D01*
X149538152Y-110892857D02*
X149633390Y-110940476D01*
X149633390Y-110940476D02*
X149681009Y-110988095D01*
X149681009Y-110988095D02*
X149728628Y-111083333D01*
X149728628Y-111083333D02*
X149728628Y-111464285D01*
X149300057Y-110511904D02*
X149252438Y-110464285D01*
X149252438Y-110464285D02*
X149204819Y-110369047D01*
X149204819Y-110369047D02*
X149204819Y-110130952D01*
X149204819Y-110130952D02*
X149252438Y-110035714D01*
X149252438Y-110035714D02*
X149300057Y-109988095D01*
X149300057Y-109988095D02*
X149395295Y-109940476D01*
X149395295Y-109940476D02*
X149490533Y-109940476D01*
X149490533Y-109940476D02*
X149633390Y-109988095D01*
X149633390Y-109988095D02*
X150204819Y-110559523D01*
X150204819Y-110559523D02*
X150204819Y-109940476D01*
X149204819Y-109083333D02*
X149204819Y-109273809D01*
X149204819Y-109273809D02*
X149252438Y-109369047D01*
X149252438Y-109369047D02*
X149300057Y-109416666D01*
X149300057Y-109416666D02*
X149442914Y-109511904D01*
X149442914Y-109511904D02*
X149633390Y-109559523D01*
X149633390Y-109559523D02*
X150014342Y-109559523D01*
X150014342Y-109559523D02*
X150109580Y-109511904D01*
X150109580Y-109511904D02*
X150157200Y-109464285D01*
X150157200Y-109464285D02*
X150204819Y-109369047D01*
X150204819Y-109369047D02*
X150204819Y-109178571D01*
X150204819Y-109178571D02*
X150157200Y-109083333D01*
X150157200Y-109083333D02*
X150109580Y-109035714D01*
X150109580Y-109035714D02*
X150014342Y-108988095D01*
X150014342Y-108988095D02*
X149776247Y-108988095D01*
X149776247Y-108988095D02*
X149681009Y-109035714D01*
X149681009Y-109035714D02*
X149633390Y-109083333D01*
X149633390Y-109083333D02*
X149585771Y-109178571D01*
X149585771Y-109178571D02*
X149585771Y-109369047D01*
X149585771Y-109369047D02*
X149633390Y-109464285D01*
X149633390Y-109464285D02*
X149681009Y-109511904D01*
X149681009Y-109511904D02*
X149776247Y-109559523D01*
%TO.C,D15*%
X122054819Y-98351785D02*
X121054819Y-98351785D01*
X121054819Y-98351785D02*
X121054819Y-98113690D01*
X121054819Y-98113690D02*
X121102438Y-97970833D01*
X121102438Y-97970833D02*
X121197676Y-97875595D01*
X121197676Y-97875595D02*
X121292914Y-97827976D01*
X121292914Y-97827976D02*
X121483390Y-97780357D01*
X121483390Y-97780357D02*
X121626247Y-97780357D01*
X121626247Y-97780357D02*
X121816723Y-97827976D01*
X121816723Y-97827976D02*
X121911961Y-97875595D01*
X121911961Y-97875595D02*
X122007200Y-97970833D01*
X122007200Y-97970833D02*
X122054819Y-98113690D01*
X122054819Y-98113690D02*
X122054819Y-98351785D01*
X122054819Y-96827976D02*
X122054819Y-97399404D01*
X122054819Y-97113690D02*
X121054819Y-97113690D01*
X121054819Y-97113690D02*
X121197676Y-97208928D01*
X121197676Y-97208928D02*
X121292914Y-97304166D01*
X121292914Y-97304166D02*
X121340533Y-97399404D01*
X121054819Y-95923214D02*
X121054819Y-96399404D01*
X121054819Y-96399404D02*
X121531009Y-96447023D01*
X121531009Y-96447023D02*
X121483390Y-96399404D01*
X121483390Y-96399404D02*
X121435771Y-96304166D01*
X121435771Y-96304166D02*
X121435771Y-96066071D01*
X121435771Y-96066071D02*
X121483390Y-95970833D01*
X121483390Y-95970833D02*
X121531009Y-95923214D01*
X121531009Y-95923214D02*
X121626247Y-95875595D01*
X121626247Y-95875595D02*
X121864342Y-95875595D01*
X121864342Y-95875595D02*
X121959580Y-95923214D01*
X121959580Y-95923214D02*
X122007200Y-95970833D01*
X122007200Y-95970833D02*
X122054819Y-96066071D01*
X122054819Y-96066071D02*
X122054819Y-96304166D01*
X122054819Y-96304166D02*
X122007200Y-96399404D01*
X122007200Y-96399404D02*
X121959580Y-96447023D01*
%TO.C,R24*%
X121357142Y-103954819D02*
X121023809Y-103478628D01*
X120785714Y-103954819D02*
X120785714Y-102954819D01*
X120785714Y-102954819D02*
X121166666Y-102954819D01*
X121166666Y-102954819D02*
X121261904Y-103002438D01*
X121261904Y-103002438D02*
X121309523Y-103050057D01*
X121309523Y-103050057D02*
X121357142Y-103145295D01*
X121357142Y-103145295D02*
X121357142Y-103288152D01*
X121357142Y-103288152D02*
X121309523Y-103383390D01*
X121309523Y-103383390D02*
X121261904Y-103431009D01*
X121261904Y-103431009D02*
X121166666Y-103478628D01*
X121166666Y-103478628D02*
X120785714Y-103478628D01*
X121738095Y-103050057D02*
X121785714Y-103002438D01*
X121785714Y-103002438D02*
X121880952Y-102954819D01*
X121880952Y-102954819D02*
X122119047Y-102954819D01*
X122119047Y-102954819D02*
X122214285Y-103002438D01*
X122214285Y-103002438D02*
X122261904Y-103050057D01*
X122261904Y-103050057D02*
X122309523Y-103145295D01*
X122309523Y-103145295D02*
X122309523Y-103240533D01*
X122309523Y-103240533D02*
X122261904Y-103383390D01*
X122261904Y-103383390D02*
X121690476Y-103954819D01*
X121690476Y-103954819D02*
X122309523Y-103954819D01*
X123166666Y-103288152D02*
X123166666Y-103954819D01*
X122928571Y-102907200D02*
X122690476Y-103621485D01*
X122690476Y-103621485D02*
X123309523Y-103621485D01*
%TO.C,R13*%
X140950819Y-110664357D02*
X140474628Y-110997690D01*
X140950819Y-111235785D02*
X139950819Y-111235785D01*
X139950819Y-111235785D02*
X139950819Y-110854833D01*
X139950819Y-110854833D02*
X139998438Y-110759595D01*
X139998438Y-110759595D02*
X140046057Y-110711976D01*
X140046057Y-110711976D02*
X140141295Y-110664357D01*
X140141295Y-110664357D02*
X140284152Y-110664357D01*
X140284152Y-110664357D02*
X140379390Y-110711976D01*
X140379390Y-110711976D02*
X140427009Y-110759595D01*
X140427009Y-110759595D02*
X140474628Y-110854833D01*
X140474628Y-110854833D02*
X140474628Y-111235785D01*
X140950819Y-109711976D02*
X140950819Y-110283404D01*
X140950819Y-109997690D02*
X139950819Y-109997690D01*
X139950819Y-109997690D02*
X140093676Y-110092928D01*
X140093676Y-110092928D02*
X140188914Y-110188166D01*
X140188914Y-110188166D02*
X140236533Y-110283404D01*
X139950819Y-109378642D02*
X139950819Y-108759595D01*
X139950819Y-108759595D02*
X140331771Y-109092928D01*
X140331771Y-109092928D02*
X140331771Y-108950071D01*
X140331771Y-108950071D02*
X140379390Y-108854833D01*
X140379390Y-108854833D02*
X140427009Y-108807214D01*
X140427009Y-108807214D02*
X140522247Y-108759595D01*
X140522247Y-108759595D02*
X140760342Y-108759595D01*
X140760342Y-108759595D02*
X140855580Y-108807214D01*
X140855580Y-108807214D02*
X140903200Y-108854833D01*
X140903200Y-108854833D02*
X140950819Y-108950071D01*
X140950819Y-108950071D02*
X140950819Y-109235785D01*
X140950819Y-109235785D02*
X140903200Y-109331023D01*
X140903200Y-109331023D02*
X140855580Y-109378642D01*
%TO.C,C31*%
X115357142Y-74359580D02*
X115309523Y-74407200D01*
X115309523Y-74407200D02*
X115166666Y-74454819D01*
X115166666Y-74454819D02*
X115071428Y-74454819D01*
X115071428Y-74454819D02*
X114928571Y-74407200D01*
X114928571Y-74407200D02*
X114833333Y-74311961D01*
X114833333Y-74311961D02*
X114785714Y-74216723D01*
X114785714Y-74216723D02*
X114738095Y-74026247D01*
X114738095Y-74026247D02*
X114738095Y-73883390D01*
X114738095Y-73883390D02*
X114785714Y-73692914D01*
X114785714Y-73692914D02*
X114833333Y-73597676D01*
X114833333Y-73597676D02*
X114928571Y-73502438D01*
X114928571Y-73502438D02*
X115071428Y-73454819D01*
X115071428Y-73454819D02*
X115166666Y-73454819D01*
X115166666Y-73454819D02*
X115309523Y-73502438D01*
X115309523Y-73502438D02*
X115357142Y-73550057D01*
X115690476Y-73454819D02*
X116309523Y-73454819D01*
X116309523Y-73454819D02*
X115976190Y-73835771D01*
X115976190Y-73835771D02*
X116119047Y-73835771D01*
X116119047Y-73835771D02*
X116214285Y-73883390D01*
X116214285Y-73883390D02*
X116261904Y-73931009D01*
X116261904Y-73931009D02*
X116309523Y-74026247D01*
X116309523Y-74026247D02*
X116309523Y-74264342D01*
X116309523Y-74264342D02*
X116261904Y-74359580D01*
X116261904Y-74359580D02*
X116214285Y-74407200D01*
X116214285Y-74407200D02*
X116119047Y-74454819D01*
X116119047Y-74454819D02*
X115833333Y-74454819D01*
X115833333Y-74454819D02*
X115738095Y-74407200D01*
X115738095Y-74407200D02*
X115690476Y-74359580D01*
X117261904Y-74454819D02*
X116690476Y-74454819D01*
X116976190Y-74454819D02*
X116976190Y-73454819D01*
X116976190Y-73454819D02*
X116880952Y-73597676D01*
X116880952Y-73597676D02*
X116785714Y-73692914D01*
X116785714Y-73692914D02*
X116690476Y-73740533D01*
%TO.C,C3*%
X130779580Y-61446666D02*
X130827200Y-61494285D01*
X130827200Y-61494285D02*
X130874819Y-61637142D01*
X130874819Y-61637142D02*
X130874819Y-61732380D01*
X130874819Y-61732380D02*
X130827200Y-61875237D01*
X130827200Y-61875237D02*
X130731961Y-61970475D01*
X130731961Y-61970475D02*
X130636723Y-62018094D01*
X130636723Y-62018094D02*
X130446247Y-62065713D01*
X130446247Y-62065713D02*
X130303390Y-62065713D01*
X130303390Y-62065713D02*
X130112914Y-62018094D01*
X130112914Y-62018094D02*
X130017676Y-61970475D01*
X130017676Y-61970475D02*
X129922438Y-61875237D01*
X129922438Y-61875237D02*
X129874819Y-61732380D01*
X129874819Y-61732380D02*
X129874819Y-61637142D01*
X129874819Y-61637142D02*
X129922438Y-61494285D01*
X129922438Y-61494285D02*
X129970057Y-61446666D01*
X129874819Y-61113332D02*
X129874819Y-60494285D01*
X129874819Y-60494285D02*
X130255771Y-60827618D01*
X130255771Y-60827618D02*
X130255771Y-60684761D01*
X130255771Y-60684761D02*
X130303390Y-60589523D01*
X130303390Y-60589523D02*
X130351009Y-60541904D01*
X130351009Y-60541904D02*
X130446247Y-60494285D01*
X130446247Y-60494285D02*
X130684342Y-60494285D01*
X130684342Y-60494285D02*
X130779580Y-60541904D01*
X130779580Y-60541904D02*
X130827200Y-60589523D01*
X130827200Y-60589523D02*
X130874819Y-60684761D01*
X130874819Y-60684761D02*
X130874819Y-60970475D01*
X130874819Y-60970475D02*
X130827200Y-61065713D01*
X130827200Y-61065713D02*
X130779580Y-61113332D01*
%TO.C,C14*%
X136859580Y-56142857D02*
X136907200Y-56190476D01*
X136907200Y-56190476D02*
X136954819Y-56333333D01*
X136954819Y-56333333D02*
X136954819Y-56428571D01*
X136954819Y-56428571D02*
X136907200Y-56571428D01*
X136907200Y-56571428D02*
X136811961Y-56666666D01*
X136811961Y-56666666D02*
X136716723Y-56714285D01*
X136716723Y-56714285D02*
X136526247Y-56761904D01*
X136526247Y-56761904D02*
X136383390Y-56761904D01*
X136383390Y-56761904D02*
X136192914Y-56714285D01*
X136192914Y-56714285D02*
X136097676Y-56666666D01*
X136097676Y-56666666D02*
X136002438Y-56571428D01*
X136002438Y-56571428D02*
X135954819Y-56428571D01*
X135954819Y-56428571D02*
X135954819Y-56333333D01*
X135954819Y-56333333D02*
X136002438Y-56190476D01*
X136002438Y-56190476D02*
X136050057Y-56142857D01*
X136954819Y-55190476D02*
X136954819Y-55761904D01*
X136954819Y-55476190D02*
X135954819Y-55476190D01*
X135954819Y-55476190D02*
X136097676Y-55571428D01*
X136097676Y-55571428D02*
X136192914Y-55666666D01*
X136192914Y-55666666D02*
X136240533Y-55761904D01*
X136288152Y-54333333D02*
X136954819Y-54333333D01*
X135907200Y-54571428D02*
X136621485Y-54809523D01*
X136621485Y-54809523D02*
X136621485Y-54190476D01*
%TO.C,C10*%
X118357142Y-59859580D02*
X118309523Y-59907200D01*
X118309523Y-59907200D02*
X118166666Y-59954819D01*
X118166666Y-59954819D02*
X118071428Y-59954819D01*
X118071428Y-59954819D02*
X117928571Y-59907200D01*
X117928571Y-59907200D02*
X117833333Y-59811961D01*
X117833333Y-59811961D02*
X117785714Y-59716723D01*
X117785714Y-59716723D02*
X117738095Y-59526247D01*
X117738095Y-59526247D02*
X117738095Y-59383390D01*
X117738095Y-59383390D02*
X117785714Y-59192914D01*
X117785714Y-59192914D02*
X117833333Y-59097676D01*
X117833333Y-59097676D02*
X117928571Y-59002438D01*
X117928571Y-59002438D02*
X118071428Y-58954819D01*
X118071428Y-58954819D02*
X118166666Y-58954819D01*
X118166666Y-58954819D02*
X118309523Y-59002438D01*
X118309523Y-59002438D02*
X118357142Y-59050057D01*
X119309523Y-59954819D02*
X118738095Y-59954819D01*
X119023809Y-59954819D02*
X119023809Y-58954819D01*
X119023809Y-58954819D02*
X118928571Y-59097676D01*
X118928571Y-59097676D02*
X118833333Y-59192914D01*
X118833333Y-59192914D02*
X118738095Y-59240533D01*
X119928571Y-58954819D02*
X120023809Y-58954819D01*
X120023809Y-58954819D02*
X120119047Y-59002438D01*
X120119047Y-59002438D02*
X120166666Y-59050057D01*
X120166666Y-59050057D02*
X120214285Y-59145295D01*
X120214285Y-59145295D02*
X120261904Y-59335771D01*
X120261904Y-59335771D02*
X120261904Y-59573866D01*
X120261904Y-59573866D02*
X120214285Y-59764342D01*
X120214285Y-59764342D02*
X120166666Y-59859580D01*
X120166666Y-59859580D02*
X120119047Y-59907200D01*
X120119047Y-59907200D02*
X120023809Y-59954819D01*
X120023809Y-59954819D02*
X119928571Y-59954819D01*
X119928571Y-59954819D02*
X119833333Y-59907200D01*
X119833333Y-59907200D02*
X119785714Y-59859580D01*
X119785714Y-59859580D02*
X119738095Y-59764342D01*
X119738095Y-59764342D02*
X119690476Y-59573866D01*
X119690476Y-59573866D02*
X119690476Y-59335771D01*
X119690476Y-59335771D02*
X119738095Y-59145295D01*
X119738095Y-59145295D02*
X119785714Y-59050057D01*
X119785714Y-59050057D02*
X119833333Y-59002438D01*
X119833333Y-59002438D02*
X119928571Y-58954819D01*
%TO.C,J9*%
X135559819Y-51133333D02*
X136274104Y-51133333D01*
X136274104Y-51133333D02*
X136416961Y-51180952D01*
X136416961Y-51180952D02*
X136512200Y-51276190D01*
X136512200Y-51276190D02*
X136559819Y-51419047D01*
X136559819Y-51419047D02*
X136559819Y-51514285D01*
X136559819Y-50609523D02*
X136559819Y-50419047D01*
X136559819Y-50419047D02*
X136512200Y-50323809D01*
X136512200Y-50323809D02*
X136464580Y-50276190D01*
X136464580Y-50276190D02*
X136321723Y-50180952D01*
X136321723Y-50180952D02*
X136131247Y-50133333D01*
X136131247Y-50133333D02*
X135750295Y-50133333D01*
X135750295Y-50133333D02*
X135655057Y-50180952D01*
X135655057Y-50180952D02*
X135607438Y-50228571D01*
X135607438Y-50228571D02*
X135559819Y-50323809D01*
X135559819Y-50323809D02*
X135559819Y-50514285D01*
X135559819Y-50514285D02*
X135607438Y-50609523D01*
X135607438Y-50609523D02*
X135655057Y-50657142D01*
X135655057Y-50657142D02*
X135750295Y-50704761D01*
X135750295Y-50704761D02*
X135988390Y-50704761D01*
X135988390Y-50704761D02*
X136083628Y-50657142D01*
X136083628Y-50657142D02*
X136131247Y-50609523D01*
X136131247Y-50609523D02*
X136178866Y-50514285D01*
X136178866Y-50514285D02*
X136178866Y-50323809D01*
X136178866Y-50323809D02*
X136131247Y-50228571D01*
X136131247Y-50228571D02*
X136083628Y-50180952D01*
X136083628Y-50180952D02*
X135988390Y-50133333D01*
%TO.C,R14*%
X151954819Y-96642857D02*
X151478628Y-96976190D01*
X151954819Y-97214285D02*
X150954819Y-97214285D01*
X150954819Y-97214285D02*
X150954819Y-96833333D01*
X150954819Y-96833333D02*
X151002438Y-96738095D01*
X151002438Y-96738095D02*
X151050057Y-96690476D01*
X151050057Y-96690476D02*
X151145295Y-96642857D01*
X151145295Y-96642857D02*
X151288152Y-96642857D01*
X151288152Y-96642857D02*
X151383390Y-96690476D01*
X151383390Y-96690476D02*
X151431009Y-96738095D01*
X151431009Y-96738095D02*
X151478628Y-96833333D01*
X151478628Y-96833333D02*
X151478628Y-97214285D01*
X151954819Y-95690476D02*
X151954819Y-96261904D01*
X151954819Y-95976190D02*
X150954819Y-95976190D01*
X150954819Y-95976190D02*
X151097676Y-96071428D01*
X151097676Y-96071428D02*
X151192914Y-96166666D01*
X151192914Y-96166666D02*
X151240533Y-96261904D01*
X151288152Y-94833333D02*
X151954819Y-94833333D01*
X150907200Y-95071428D02*
X151621485Y-95309523D01*
X151621485Y-95309523D02*
X151621485Y-94690476D01*
%TO.C,J4*%
X158416666Y-109954819D02*
X158416666Y-110669104D01*
X158416666Y-110669104D02*
X158369047Y-110811961D01*
X158369047Y-110811961D02*
X158273809Y-110907200D01*
X158273809Y-110907200D02*
X158130952Y-110954819D01*
X158130952Y-110954819D02*
X158035714Y-110954819D01*
X159321428Y-110288152D02*
X159321428Y-110954819D01*
X159083333Y-109907200D02*
X158845238Y-110621485D01*
X158845238Y-110621485D02*
X159464285Y-110621485D01*
%TO.C,R43*%
X153234819Y-61602857D02*
X152758628Y-61936190D01*
X153234819Y-62174285D02*
X152234819Y-62174285D01*
X152234819Y-62174285D02*
X152234819Y-61793333D01*
X152234819Y-61793333D02*
X152282438Y-61698095D01*
X152282438Y-61698095D02*
X152330057Y-61650476D01*
X152330057Y-61650476D02*
X152425295Y-61602857D01*
X152425295Y-61602857D02*
X152568152Y-61602857D01*
X152568152Y-61602857D02*
X152663390Y-61650476D01*
X152663390Y-61650476D02*
X152711009Y-61698095D01*
X152711009Y-61698095D02*
X152758628Y-61793333D01*
X152758628Y-61793333D02*
X152758628Y-62174285D01*
X152568152Y-60745714D02*
X153234819Y-60745714D01*
X152187200Y-60983809D02*
X152901485Y-61221904D01*
X152901485Y-61221904D02*
X152901485Y-60602857D01*
X152234819Y-60317142D02*
X152234819Y-59698095D01*
X152234819Y-59698095D02*
X152615771Y-60031428D01*
X152615771Y-60031428D02*
X152615771Y-59888571D01*
X152615771Y-59888571D02*
X152663390Y-59793333D01*
X152663390Y-59793333D02*
X152711009Y-59745714D01*
X152711009Y-59745714D02*
X152806247Y-59698095D01*
X152806247Y-59698095D02*
X153044342Y-59698095D01*
X153044342Y-59698095D02*
X153139580Y-59745714D01*
X153139580Y-59745714D02*
X153187200Y-59793333D01*
X153187200Y-59793333D02*
X153234819Y-59888571D01*
X153234819Y-59888571D02*
X153234819Y-60174285D01*
X153234819Y-60174285D02*
X153187200Y-60269523D01*
X153187200Y-60269523D02*
X153139580Y-60317142D01*
%TO.C,C35*%
X157307142Y-106679580D02*
X157259523Y-106727200D01*
X157259523Y-106727200D02*
X157116666Y-106774819D01*
X157116666Y-106774819D02*
X157021428Y-106774819D01*
X157021428Y-106774819D02*
X156878571Y-106727200D01*
X156878571Y-106727200D02*
X156783333Y-106631961D01*
X156783333Y-106631961D02*
X156735714Y-106536723D01*
X156735714Y-106536723D02*
X156688095Y-106346247D01*
X156688095Y-106346247D02*
X156688095Y-106203390D01*
X156688095Y-106203390D02*
X156735714Y-106012914D01*
X156735714Y-106012914D02*
X156783333Y-105917676D01*
X156783333Y-105917676D02*
X156878571Y-105822438D01*
X156878571Y-105822438D02*
X157021428Y-105774819D01*
X157021428Y-105774819D02*
X157116666Y-105774819D01*
X157116666Y-105774819D02*
X157259523Y-105822438D01*
X157259523Y-105822438D02*
X157307142Y-105870057D01*
X157640476Y-105774819D02*
X158259523Y-105774819D01*
X158259523Y-105774819D02*
X157926190Y-106155771D01*
X157926190Y-106155771D02*
X158069047Y-106155771D01*
X158069047Y-106155771D02*
X158164285Y-106203390D01*
X158164285Y-106203390D02*
X158211904Y-106251009D01*
X158211904Y-106251009D02*
X158259523Y-106346247D01*
X158259523Y-106346247D02*
X158259523Y-106584342D01*
X158259523Y-106584342D02*
X158211904Y-106679580D01*
X158211904Y-106679580D02*
X158164285Y-106727200D01*
X158164285Y-106727200D02*
X158069047Y-106774819D01*
X158069047Y-106774819D02*
X157783333Y-106774819D01*
X157783333Y-106774819D02*
X157688095Y-106727200D01*
X157688095Y-106727200D02*
X157640476Y-106679580D01*
X159164285Y-105774819D02*
X158688095Y-105774819D01*
X158688095Y-105774819D02*
X158640476Y-106251009D01*
X158640476Y-106251009D02*
X158688095Y-106203390D01*
X158688095Y-106203390D02*
X158783333Y-106155771D01*
X158783333Y-106155771D02*
X159021428Y-106155771D01*
X159021428Y-106155771D02*
X159116666Y-106203390D01*
X159116666Y-106203390D02*
X159164285Y-106251009D01*
X159164285Y-106251009D02*
X159211904Y-106346247D01*
X159211904Y-106346247D02*
X159211904Y-106584342D01*
X159211904Y-106584342D02*
X159164285Y-106679580D01*
X159164285Y-106679580D02*
X159116666Y-106727200D01*
X159116666Y-106727200D02*
X159021428Y-106774819D01*
X159021428Y-106774819D02*
X158783333Y-106774819D01*
X158783333Y-106774819D02*
X158688095Y-106727200D01*
X158688095Y-106727200D02*
X158640476Y-106679580D01*
%TO.C,Q2*%
X148260057Y-65802738D02*
X148212438Y-65897976D01*
X148212438Y-65897976D02*
X148117200Y-65993214D01*
X148117200Y-65993214D02*
X147974342Y-66136071D01*
X147974342Y-66136071D02*
X147926723Y-66231309D01*
X147926723Y-66231309D02*
X147926723Y-66326547D01*
X148164819Y-66278928D02*
X148117200Y-66374166D01*
X148117200Y-66374166D02*
X148021961Y-66469404D01*
X148021961Y-66469404D02*
X147831485Y-66517023D01*
X147831485Y-66517023D02*
X147498152Y-66517023D01*
X147498152Y-66517023D02*
X147307676Y-66469404D01*
X147307676Y-66469404D02*
X147212438Y-66374166D01*
X147212438Y-66374166D02*
X147164819Y-66278928D01*
X147164819Y-66278928D02*
X147164819Y-66088452D01*
X147164819Y-66088452D02*
X147212438Y-65993214D01*
X147212438Y-65993214D02*
X147307676Y-65897976D01*
X147307676Y-65897976D02*
X147498152Y-65850357D01*
X147498152Y-65850357D02*
X147831485Y-65850357D01*
X147831485Y-65850357D02*
X148021961Y-65897976D01*
X148021961Y-65897976D02*
X148117200Y-65993214D01*
X148117200Y-65993214D02*
X148164819Y-66088452D01*
X148164819Y-66088452D02*
X148164819Y-66278928D01*
X147260057Y-65469404D02*
X147212438Y-65421785D01*
X147212438Y-65421785D02*
X147164819Y-65326547D01*
X147164819Y-65326547D02*
X147164819Y-65088452D01*
X147164819Y-65088452D02*
X147212438Y-64993214D01*
X147212438Y-64993214D02*
X147260057Y-64945595D01*
X147260057Y-64945595D02*
X147355295Y-64897976D01*
X147355295Y-64897976D02*
X147450533Y-64897976D01*
X147450533Y-64897976D02*
X147593390Y-64945595D01*
X147593390Y-64945595D02*
X148164819Y-65517023D01*
X148164819Y-65517023D02*
X148164819Y-64897976D01*
%TO.C,R57*%
X128454819Y-68142857D02*
X127978628Y-68476190D01*
X128454819Y-68714285D02*
X127454819Y-68714285D01*
X127454819Y-68714285D02*
X127454819Y-68333333D01*
X127454819Y-68333333D02*
X127502438Y-68238095D01*
X127502438Y-68238095D02*
X127550057Y-68190476D01*
X127550057Y-68190476D02*
X127645295Y-68142857D01*
X127645295Y-68142857D02*
X127788152Y-68142857D01*
X127788152Y-68142857D02*
X127883390Y-68190476D01*
X127883390Y-68190476D02*
X127931009Y-68238095D01*
X127931009Y-68238095D02*
X127978628Y-68333333D01*
X127978628Y-68333333D02*
X127978628Y-68714285D01*
X127454819Y-67238095D02*
X127454819Y-67714285D01*
X127454819Y-67714285D02*
X127931009Y-67761904D01*
X127931009Y-67761904D02*
X127883390Y-67714285D01*
X127883390Y-67714285D02*
X127835771Y-67619047D01*
X127835771Y-67619047D02*
X127835771Y-67380952D01*
X127835771Y-67380952D02*
X127883390Y-67285714D01*
X127883390Y-67285714D02*
X127931009Y-67238095D01*
X127931009Y-67238095D02*
X128026247Y-67190476D01*
X128026247Y-67190476D02*
X128264342Y-67190476D01*
X128264342Y-67190476D02*
X128359580Y-67238095D01*
X128359580Y-67238095D02*
X128407200Y-67285714D01*
X128407200Y-67285714D02*
X128454819Y-67380952D01*
X128454819Y-67380952D02*
X128454819Y-67619047D01*
X128454819Y-67619047D02*
X128407200Y-67714285D01*
X128407200Y-67714285D02*
X128359580Y-67761904D01*
X127454819Y-66857142D02*
X127454819Y-66190476D01*
X127454819Y-66190476D02*
X128454819Y-66619047D01*
%TO.C,D37*%
X142785714Y-75054819D02*
X142785714Y-74054819D01*
X142785714Y-74054819D02*
X143023809Y-74054819D01*
X143023809Y-74054819D02*
X143166666Y-74102438D01*
X143166666Y-74102438D02*
X143261904Y-74197676D01*
X143261904Y-74197676D02*
X143309523Y-74292914D01*
X143309523Y-74292914D02*
X143357142Y-74483390D01*
X143357142Y-74483390D02*
X143357142Y-74626247D01*
X143357142Y-74626247D02*
X143309523Y-74816723D01*
X143309523Y-74816723D02*
X143261904Y-74911961D01*
X143261904Y-74911961D02*
X143166666Y-75007200D01*
X143166666Y-75007200D02*
X143023809Y-75054819D01*
X143023809Y-75054819D02*
X142785714Y-75054819D01*
X143690476Y-74054819D02*
X144309523Y-74054819D01*
X144309523Y-74054819D02*
X143976190Y-74435771D01*
X143976190Y-74435771D02*
X144119047Y-74435771D01*
X144119047Y-74435771D02*
X144214285Y-74483390D01*
X144214285Y-74483390D02*
X144261904Y-74531009D01*
X144261904Y-74531009D02*
X144309523Y-74626247D01*
X144309523Y-74626247D02*
X144309523Y-74864342D01*
X144309523Y-74864342D02*
X144261904Y-74959580D01*
X144261904Y-74959580D02*
X144214285Y-75007200D01*
X144214285Y-75007200D02*
X144119047Y-75054819D01*
X144119047Y-75054819D02*
X143833333Y-75054819D01*
X143833333Y-75054819D02*
X143738095Y-75007200D01*
X143738095Y-75007200D02*
X143690476Y-74959580D01*
X144642857Y-74054819D02*
X145309523Y-74054819D01*
X145309523Y-74054819D02*
X144880952Y-75054819D01*
%TO.C,R2*%
X133304819Y-85004166D02*
X132828628Y-85337499D01*
X133304819Y-85575594D02*
X132304819Y-85575594D01*
X132304819Y-85575594D02*
X132304819Y-85194642D01*
X132304819Y-85194642D02*
X132352438Y-85099404D01*
X132352438Y-85099404D02*
X132400057Y-85051785D01*
X132400057Y-85051785D02*
X132495295Y-85004166D01*
X132495295Y-85004166D02*
X132638152Y-85004166D01*
X132638152Y-85004166D02*
X132733390Y-85051785D01*
X132733390Y-85051785D02*
X132781009Y-85099404D01*
X132781009Y-85099404D02*
X132828628Y-85194642D01*
X132828628Y-85194642D02*
X132828628Y-85575594D01*
X132400057Y-84623213D02*
X132352438Y-84575594D01*
X132352438Y-84575594D02*
X132304819Y-84480356D01*
X132304819Y-84480356D02*
X132304819Y-84242261D01*
X132304819Y-84242261D02*
X132352438Y-84147023D01*
X132352438Y-84147023D02*
X132400057Y-84099404D01*
X132400057Y-84099404D02*
X132495295Y-84051785D01*
X132495295Y-84051785D02*
X132590533Y-84051785D01*
X132590533Y-84051785D02*
X132733390Y-84099404D01*
X132733390Y-84099404D02*
X133304819Y-84670832D01*
X133304819Y-84670832D02*
X133304819Y-84051785D01*
%TO.C,U1*%
X137338095Y-87229819D02*
X137338095Y-88039342D01*
X137338095Y-88039342D02*
X137385714Y-88134580D01*
X137385714Y-88134580D02*
X137433333Y-88182200D01*
X137433333Y-88182200D02*
X137528571Y-88229819D01*
X137528571Y-88229819D02*
X137719047Y-88229819D01*
X137719047Y-88229819D02*
X137814285Y-88182200D01*
X137814285Y-88182200D02*
X137861904Y-88134580D01*
X137861904Y-88134580D02*
X137909523Y-88039342D01*
X137909523Y-88039342D02*
X137909523Y-87229819D01*
X138909523Y-88229819D02*
X138338095Y-88229819D01*
X138623809Y-88229819D02*
X138623809Y-87229819D01*
X138623809Y-87229819D02*
X138528571Y-87372676D01*
X138528571Y-87372676D02*
X138433333Y-87467914D01*
X138433333Y-87467914D02*
X138338095Y-87515533D01*
%TO.C,R17*%
X127597142Y-56034819D02*
X127263809Y-55558628D01*
X127025714Y-56034819D02*
X127025714Y-55034819D01*
X127025714Y-55034819D02*
X127406666Y-55034819D01*
X127406666Y-55034819D02*
X127501904Y-55082438D01*
X127501904Y-55082438D02*
X127549523Y-55130057D01*
X127549523Y-55130057D02*
X127597142Y-55225295D01*
X127597142Y-55225295D02*
X127597142Y-55368152D01*
X127597142Y-55368152D02*
X127549523Y-55463390D01*
X127549523Y-55463390D02*
X127501904Y-55511009D01*
X127501904Y-55511009D02*
X127406666Y-55558628D01*
X127406666Y-55558628D02*
X127025714Y-55558628D01*
X128549523Y-56034819D02*
X127978095Y-56034819D01*
X128263809Y-56034819D02*
X128263809Y-55034819D01*
X128263809Y-55034819D02*
X128168571Y-55177676D01*
X128168571Y-55177676D02*
X128073333Y-55272914D01*
X128073333Y-55272914D02*
X127978095Y-55320533D01*
X128882857Y-55034819D02*
X129549523Y-55034819D01*
X129549523Y-55034819D02*
X129120952Y-56034819D01*
%TO.C,R5*%
X128454819Y-97666666D02*
X127978628Y-97999999D01*
X128454819Y-98238094D02*
X127454819Y-98238094D01*
X127454819Y-98238094D02*
X127454819Y-97857142D01*
X127454819Y-97857142D02*
X127502438Y-97761904D01*
X127502438Y-97761904D02*
X127550057Y-97714285D01*
X127550057Y-97714285D02*
X127645295Y-97666666D01*
X127645295Y-97666666D02*
X127788152Y-97666666D01*
X127788152Y-97666666D02*
X127883390Y-97714285D01*
X127883390Y-97714285D02*
X127931009Y-97761904D01*
X127931009Y-97761904D02*
X127978628Y-97857142D01*
X127978628Y-97857142D02*
X127978628Y-98238094D01*
X127454819Y-96761904D02*
X127454819Y-97238094D01*
X127454819Y-97238094D02*
X127931009Y-97285713D01*
X127931009Y-97285713D02*
X127883390Y-97238094D01*
X127883390Y-97238094D02*
X127835771Y-97142856D01*
X127835771Y-97142856D02*
X127835771Y-96904761D01*
X127835771Y-96904761D02*
X127883390Y-96809523D01*
X127883390Y-96809523D02*
X127931009Y-96761904D01*
X127931009Y-96761904D02*
X128026247Y-96714285D01*
X128026247Y-96714285D02*
X128264342Y-96714285D01*
X128264342Y-96714285D02*
X128359580Y-96761904D01*
X128359580Y-96761904D02*
X128407200Y-96809523D01*
X128407200Y-96809523D02*
X128454819Y-96904761D01*
X128454819Y-96904761D02*
X128454819Y-97142856D01*
X128454819Y-97142856D02*
X128407200Y-97238094D01*
X128407200Y-97238094D02*
X128359580Y-97285713D01*
%TO.C,R15*%
X137907142Y-67104819D02*
X137573809Y-66628628D01*
X137335714Y-67104819D02*
X137335714Y-66104819D01*
X137335714Y-66104819D02*
X137716666Y-66104819D01*
X137716666Y-66104819D02*
X137811904Y-66152438D01*
X137811904Y-66152438D02*
X137859523Y-66200057D01*
X137859523Y-66200057D02*
X137907142Y-66295295D01*
X137907142Y-66295295D02*
X137907142Y-66438152D01*
X137907142Y-66438152D02*
X137859523Y-66533390D01*
X137859523Y-66533390D02*
X137811904Y-66581009D01*
X137811904Y-66581009D02*
X137716666Y-66628628D01*
X137716666Y-66628628D02*
X137335714Y-66628628D01*
X138859523Y-67104819D02*
X138288095Y-67104819D01*
X138573809Y-67104819D02*
X138573809Y-66104819D01*
X138573809Y-66104819D02*
X138478571Y-66247676D01*
X138478571Y-66247676D02*
X138383333Y-66342914D01*
X138383333Y-66342914D02*
X138288095Y-66390533D01*
X139764285Y-66104819D02*
X139288095Y-66104819D01*
X139288095Y-66104819D02*
X139240476Y-66581009D01*
X139240476Y-66581009D02*
X139288095Y-66533390D01*
X139288095Y-66533390D02*
X139383333Y-66485771D01*
X139383333Y-66485771D02*
X139621428Y-66485771D01*
X139621428Y-66485771D02*
X139716666Y-66533390D01*
X139716666Y-66533390D02*
X139764285Y-66581009D01*
X139764285Y-66581009D02*
X139811904Y-66676247D01*
X139811904Y-66676247D02*
X139811904Y-66914342D01*
X139811904Y-66914342D02*
X139764285Y-67009580D01*
X139764285Y-67009580D02*
X139716666Y-67057200D01*
X139716666Y-67057200D02*
X139621428Y-67104819D01*
X139621428Y-67104819D02*
X139383333Y-67104819D01*
X139383333Y-67104819D02*
X139288095Y-67057200D01*
X139288095Y-67057200D02*
X139240476Y-67009580D01*
%TO.C,J6*%
X158416666Y-103384819D02*
X158416666Y-104099104D01*
X158416666Y-104099104D02*
X158369047Y-104241961D01*
X158369047Y-104241961D02*
X158273809Y-104337200D01*
X158273809Y-104337200D02*
X158130952Y-104384819D01*
X158130952Y-104384819D02*
X158035714Y-104384819D01*
X159321428Y-103384819D02*
X159130952Y-103384819D01*
X159130952Y-103384819D02*
X159035714Y-103432438D01*
X159035714Y-103432438D02*
X158988095Y-103480057D01*
X158988095Y-103480057D02*
X158892857Y-103622914D01*
X158892857Y-103622914D02*
X158845238Y-103813390D01*
X158845238Y-103813390D02*
X158845238Y-104194342D01*
X158845238Y-104194342D02*
X158892857Y-104289580D01*
X158892857Y-104289580D02*
X158940476Y-104337200D01*
X158940476Y-104337200D02*
X159035714Y-104384819D01*
X159035714Y-104384819D02*
X159226190Y-104384819D01*
X159226190Y-104384819D02*
X159321428Y-104337200D01*
X159321428Y-104337200D02*
X159369047Y-104289580D01*
X159369047Y-104289580D02*
X159416666Y-104194342D01*
X159416666Y-104194342D02*
X159416666Y-103956247D01*
X159416666Y-103956247D02*
X159369047Y-103861009D01*
X159369047Y-103861009D02*
X159321428Y-103813390D01*
X159321428Y-103813390D02*
X159226190Y-103765771D01*
X159226190Y-103765771D02*
X159035714Y-103765771D01*
X159035714Y-103765771D02*
X158940476Y-103813390D01*
X158940476Y-103813390D02*
X158892857Y-103861009D01*
X158892857Y-103861009D02*
X158845238Y-103956247D01*
D11*
%TO.C,R19*%
X153265000Y-80139564D02*
X153265000Y-79685436D01*
X154735000Y-80139564D02*
X154735000Y-79685436D01*
%TO.C,D17*%
X147187500Y-54640000D02*
X145387500Y-54640000D01*
X147187500Y-54640000D02*
X147987500Y-54640000D01*
X147187500Y-57760000D02*
X146387500Y-57760000D01*
X147187500Y-57760000D02*
X147987500Y-57760000D01*
%TO.C,R22*%
X118860436Y-99265000D02*
X119314564Y-99265000D01*
X118860436Y-100735000D02*
X119314564Y-100735000D01*
%TO.C,C8*%
X126465000Y-61018748D02*
X126465000Y-61541252D01*
X124995000Y-61018748D02*
X124995000Y-61541252D01*
%TO.C,D2*%
X151637500Y-54640000D02*
X149837500Y-54640000D01*
X151637500Y-54640000D02*
X152437500Y-54640000D01*
X151637500Y-57760000D02*
X150837500Y-57760000D01*
X151637500Y-57760000D02*
X152437500Y-57760000D01*
%TO.C,D25*%
X122440000Y-81000000D02*
X122440000Y-82800000D01*
X122440000Y-81000000D02*
X122440000Y-80200000D01*
X125560000Y-81000000D02*
X125560000Y-81800000D01*
X125560000Y-81000000D02*
X125560000Y-80200000D01*
%TO.C,R16*%
X149772936Y-80265000D02*
X150227064Y-80265000D01*
X149772936Y-81735000D02*
X150227064Y-81735000D01*
%TO.C,C20*%
X150261252Y-84735000D02*
X149738748Y-84735000D01*
X150261252Y-83265000D02*
X149738748Y-83265000D01*
%TO.C,J7*%
X112970000Y-97745000D02*
X114300000Y-97745000D01*
X112970000Y-99075000D02*
X112970000Y-97745000D01*
X112970000Y-100345000D02*
X112970000Y-105485000D01*
X112970000Y-100345000D02*
X115630000Y-100345000D01*
X112970000Y-105485000D02*
X115630000Y-105485000D01*
X115630000Y-100345000D02*
X115630000Y-105485000D01*
%TO.C,J5*%
X126035000Y-115630000D02*
X126035000Y-114300000D01*
X127365000Y-115630000D02*
X126035000Y-115630000D01*
X128635000Y-115630000D02*
X133775000Y-115630000D01*
X128635000Y-115630000D02*
X128635000Y-112970000D01*
X133775000Y-115630000D02*
X133775000Y-112970000D01*
X128635000Y-112970000D02*
X133775000Y-112970000D01*
%TO.C,R18*%
X150227064Y-78735000D02*
X149772936Y-78735000D01*
X150227064Y-77265000D02*
X149772936Y-77265000D01*
%TO.C,R32*%
X119314564Y-71685000D02*
X118860436Y-71685000D01*
X119314564Y-70215000D02*
X118860436Y-70215000D01*
%TO.C,R10*%
X134735000Y-109022936D02*
X134735000Y-109477064D01*
X133265000Y-109022936D02*
X133265000Y-109477064D01*
%TO.C,D3*%
X131040000Y-63500000D02*
X131040000Y-65500000D01*
X131040000Y-63500000D02*
X135050000Y-63500000D01*
X131040000Y-65500000D02*
X135050000Y-65500000D01*
%TO.C,C23*%
X118738748Y-105705000D02*
X119261252Y-105705000D01*
X118738748Y-107175000D02*
X119261252Y-107175000D01*
%TO.C,J8*%
X112970000Y-81235000D02*
X114300000Y-81235000D01*
X112970000Y-82565000D02*
X112970000Y-81235000D01*
X112970000Y-83835000D02*
X112970000Y-88975000D01*
X112970000Y-83835000D02*
X115630000Y-83835000D01*
X112970000Y-88975000D02*
X115630000Y-88975000D01*
X115630000Y-83835000D02*
X115630000Y-88975000D01*
%TO.C,R40*%
X145082936Y-68910000D02*
X145537064Y-68910000D01*
X145082936Y-70380000D02*
X145537064Y-70380000D01*
%TO.C,C6*%
X119261252Y-94735000D02*
X118738748Y-94735000D01*
X119261252Y-93265000D02*
X118738748Y-93265000D01*
%TO.C,C19*%
X134738748Y-67265000D02*
X135261252Y-67265000D01*
X134738748Y-68735000D02*
X135261252Y-68735000D01*
%TO.C,C39*%
X158015000Y-60261252D02*
X158015000Y-59738748D01*
X159485000Y-60261252D02*
X159485000Y-59738748D01*
%TO.C,R25*%
X118860436Y-67265000D02*
X119314564Y-67265000D01*
X118860436Y-68735000D02*
X119314564Y-68735000D01*
%TO.C,J15*%
X120650000Y-46990000D02*
X120650000Y-54610000D01*
X120650000Y-54610000D02*
X130810000Y-54610000D01*
X130810000Y-46990000D02*
X120650000Y-46990000D01*
X130810000Y-53340000D02*
X120650000Y-53340000D01*
X130810000Y-54610000D02*
X130810000Y-46990000D01*
%TO.C,R8*%
X154227064Y-102735000D02*
X153772936Y-102735000D01*
X154227064Y-101265000D02*
X153772936Y-101265000D01*
%TO.C,J14*%
X160080000Y-71180000D02*
X158750000Y-71180000D01*
X160080000Y-69850000D02*
X160080000Y-71180000D01*
X160080000Y-68580000D02*
X160080000Y-63440000D01*
X160080000Y-68580000D02*
X157420000Y-68580000D01*
X160080000Y-63440000D02*
X157420000Y-63440000D01*
X157420000Y-68580000D02*
X157420000Y-63440000D01*
%TO.C,R3*%
X130227064Y-93985000D02*
X129772936Y-93985000D01*
X130227064Y-92515000D02*
X129772936Y-92515000D01*
%TO.C,C2*%
X158738748Y-74265000D02*
X159261252Y-74265000D01*
X158738748Y-75735000D02*
X159261252Y-75735000D01*
%TO.C,R42*%
X144245000Y-60732936D02*
X144245000Y-61187064D01*
X142775000Y-60732936D02*
X142775000Y-61187064D01*
%TO.C,D4*%
X136530500Y-106528000D02*
X138330500Y-106528000D01*
X136530500Y-106528000D02*
X135730500Y-106528000D01*
X136530500Y-103408000D02*
X137330500Y-103408000D01*
X136530500Y-103408000D02*
X135730500Y-103408000D01*
%TO.C,U6*%
X135137500Y-73610000D02*
X136937500Y-73610000D01*
X135137500Y-73610000D02*
X134337500Y-73610000D01*
X135137500Y-70490000D02*
X135937500Y-70490000D01*
X135137500Y-70490000D02*
X134337500Y-70490000D01*
%TO.C,J13*%
X160080000Y-86420000D02*
X158750000Y-86420000D01*
X160080000Y-85090000D02*
X160080000Y-86420000D01*
X160080000Y-83820000D02*
X160080000Y-78680000D01*
X160080000Y-83820000D02*
X157420000Y-83820000D01*
X160080000Y-78680000D02*
X157420000Y-78680000D01*
X157420000Y-83820000D02*
X157420000Y-78680000D01*
%TO.C,J12*%
X143145000Y-115630000D02*
X143145000Y-114300000D01*
X144475000Y-115630000D02*
X143145000Y-115630000D01*
X145745000Y-115630000D02*
X150885000Y-115630000D01*
X145745000Y-115630000D02*
X145745000Y-112970000D01*
X150885000Y-115630000D02*
X150885000Y-112970000D01*
X145745000Y-112970000D02*
X150885000Y-112970000D01*
%TO.C,R12*%
X118860436Y-64315000D02*
X119314564Y-64315000D01*
X118860436Y-65785000D02*
X119314564Y-65785000D01*
%TO.C,C4*%
X124354000Y-108877748D02*
X124354000Y-109400252D01*
X122884000Y-108877748D02*
X122884000Y-109400252D01*
%TO.C,R7*%
X126265000Y-109477064D02*
X126265000Y-109022936D01*
X127735000Y-109477064D02*
X127735000Y-109022936D01*
%TO.C,D29*%
X122440000Y-73212500D02*
X122440000Y-75012500D01*
X122440000Y-73212500D02*
X122440000Y-72412500D01*
X125560000Y-73212500D02*
X125560000Y-74012500D01*
X125560000Y-73212500D02*
X125560000Y-72412500D01*
%TO.C,R29*%
X155675000Y-69622936D02*
X155675000Y-70077064D01*
X154205000Y-69622936D02*
X154205000Y-70077064D01*
%TO.C,C7*%
X119261252Y-77735000D02*
X118738748Y-77735000D01*
X119261252Y-76265000D02*
X118738748Y-76265000D01*
%TO.C,R6*%
X130227064Y-100685000D02*
X129772936Y-100685000D01*
X130227064Y-99215000D02*
X129772936Y-99215000D01*
%TO.C,R9*%
X118860436Y-96265000D02*
X119314564Y-96265000D01*
X118860436Y-97735000D02*
X119314564Y-97735000D01*
%TO.C,R28*%
X119139564Y-86685000D02*
X118685436Y-86685000D01*
X119139564Y-85215000D02*
X118685436Y-85215000D01*
%TO.C,J11*%
X112970000Y-63455000D02*
X114300000Y-63455000D01*
X112970000Y-64785000D02*
X112970000Y-63455000D01*
X112970000Y-66055000D02*
X112970000Y-71195000D01*
X112970000Y-66055000D02*
X115630000Y-66055000D01*
X112970000Y-71195000D02*
X115630000Y-71195000D01*
X115630000Y-66055000D02*
X115630000Y-71195000D01*
%TO.C,R27*%
X154227064Y-84735000D02*
X153772936Y-84735000D01*
X154227064Y-83265000D02*
X153772936Y-83265000D01*
%TO.C,R21*%
X154139564Y-99735000D02*
X153685436Y-99735000D01*
X154139564Y-98265000D02*
X153685436Y-98265000D01*
%TO.C,R1*%
X138485000Y-84610436D02*
X138485000Y-85064564D01*
X137015000Y-84610436D02*
X137015000Y-85064564D01*
%TO.C,R20*%
X129765000Y-109477064D02*
X129765000Y-109022936D01*
X131235000Y-109477064D02*
X131235000Y-109022936D01*
%TO.C,C27*%
X118738748Y-88265000D02*
X119261252Y-88265000D01*
X118738748Y-89735000D02*
X119261252Y-89735000D01*
%TO.C,C9*%
X138485000Y-110988748D02*
X138485000Y-111511252D01*
X137015000Y-110988748D02*
X137015000Y-111511252D01*
%TO.C,C5*%
X153738748Y-92265000D02*
X154261252Y-92265000D01*
X153738748Y-93735000D02*
X154261252Y-93735000D01*
%TO.C,R11*%
X118685436Y-79315000D02*
X119139564Y-79315000D01*
X118685436Y-80785000D02*
X119139564Y-80785000D01*
%TO.C,R41*%
X148055000Y-60732936D02*
X148055000Y-61187064D01*
X146585000Y-60732936D02*
X146585000Y-61187064D01*
%TO.C,C1*%
X130261252Y-90485000D02*
X129738748Y-90485000D01*
X130261252Y-89015000D02*
X129738748Y-89015000D01*
%TO.C,R4*%
X124977064Y-93485000D02*
X124522936Y-93485000D01*
X124977064Y-92015000D02*
X124522936Y-92015000D01*
%TO.C,R58*%
X129860436Y-70215000D02*
X130314564Y-70215000D01*
X129860436Y-71685000D02*
X130314564Y-71685000D01*
%TO.C,R36*%
X152881000Y-109881936D02*
X152881000Y-110336064D01*
X151411000Y-109881936D02*
X151411000Y-110336064D01*
%TO.C,D5*%
X121555000Y-56270000D02*
X121555000Y-58190000D01*
X121555000Y-58190000D02*
X124240000Y-58190000D01*
X124240000Y-56270000D02*
X121555000Y-56270000D01*
%TO.C,D11*%
X149600500Y-106970000D02*
X151400500Y-106970000D01*
X149600500Y-106970000D02*
X148800500Y-106970000D01*
X149600500Y-103850000D02*
X150400500Y-103850000D01*
X149600500Y-103850000D02*
X148800500Y-103850000D01*
%TO.C,R23*%
X118685436Y-82265000D02*
X119139564Y-82265000D01*
X118685436Y-83735000D02*
X119139564Y-83735000D01*
%TO.C,D18*%
X142737500Y-54640000D02*
X140937500Y-54640000D01*
X142737500Y-54640000D02*
X143537500Y-54640000D01*
X142737500Y-57760000D02*
X141937500Y-57760000D01*
X142737500Y-57760000D02*
X143537500Y-57760000D01*
%TO.C,C21*%
X154735000Y-74738748D02*
X154735000Y-75261252D01*
X153265000Y-74738748D02*
X153265000Y-75261252D01*
%TO.C,C13*%
X159311252Y-91735000D02*
X158788748Y-91735000D01*
X159311252Y-90265000D02*
X158788748Y-90265000D01*
%TO.C,D33*%
X143515500Y-106655000D02*
X145315500Y-106655000D01*
X143515500Y-106655000D02*
X142715500Y-106655000D01*
X143515500Y-103535000D02*
X144315500Y-103535000D01*
X143515500Y-103535000D02*
X142715500Y-103535000D01*
%TO.C,R44*%
X133689564Y-56735000D02*
X133235436Y-56735000D01*
X133689564Y-55265000D02*
X133235436Y-55265000D01*
%TO.C,R39*%
X149449564Y-70380000D02*
X148995436Y-70380000D01*
X149449564Y-68910000D02*
X148995436Y-68910000D01*
%TO.C,R50*%
X150087064Y-74395000D02*
X149632936Y-74395000D01*
X150087064Y-72925000D02*
X149632936Y-72925000D01*
%TO.C,D1*%
X146560000Y-84862500D02*
X146560000Y-83062500D01*
X146560000Y-84862500D02*
X146560000Y-85662500D01*
X143440000Y-84862500D02*
X143440000Y-84062500D01*
X143440000Y-84862500D02*
X143440000Y-85662500D01*
%TO.C,Q5*%
X135060000Y-60437500D02*
X135060000Y-58762500D01*
X135060000Y-60437500D02*
X135060000Y-61087500D01*
X131940000Y-60437500D02*
X131940000Y-59787500D01*
X131940000Y-60437500D02*
X131940000Y-61087500D01*
%TO.C,C11*%
X145881000Y-109760248D02*
X145881000Y-110282752D01*
X144411000Y-109760248D02*
X144411000Y-110282752D01*
%TO.C,Q1*%
X152370000Y-65707500D02*
X152370000Y-64032500D01*
X152370000Y-65707500D02*
X152370000Y-66357500D01*
X149250000Y-65707500D02*
X149250000Y-65057500D01*
X149250000Y-65707500D02*
X149250000Y-66357500D01*
%TO.C,R26*%
X147411000Y-110248564D02*
X147411000Y-109794436D01*
X148881000Y-110248564D02*
X148881000Y-109794436D01*
%TO.C,D15*%
X122440000Y-97137500D02*
X122440000Y-98937500D01*
X122440000Y-97137500D02*
X122440000Y-96337500D01*
X125560000Y-97137500D02*
X125560000Y-97937500D01*
X125560000Y-97137500D02*
X125560000Y-96337500D01*
%TO.C,R24*%
X119227064Y-103735000D02*
X118772936Y-103735000D01*
X119227064Y-102265000D02*
X118772936Y-102265000D01*
%TO.C,R13*%
X141411000Y-110248564D02*
X141411000Y-109794436D01*
X142881000Y-110248564D02*
X142881000Y-109794436D01*
%TO.C,C31*%
X118738748Y-73615000D02*
X119261252Y-73615000D01*
X118738748Y-75085000D02*
X119261252Y-75085000D01*
%TO.C,C3*%
X129475000Y-61018748D02*
X129475000Y-61541252D01*
X128005000Y-61018748D02*
X128005000Y-61541252D01*
%TO.C,C14*%
X139010000Y-56126248D02*
X139010000Y-56648752D01*
X137540000Y-56126248D02*
X137540000Y-56648752D01*
%TO.C,C10*%
X119363752Y-62085000D02*
X118841248Y-62085000D01*
X119363752Y-60615000D02*
X118841248Y-60615000D01*
%TO.C,J9*%
X137105000Y-52130000D02*
X137105000Y-50800000D01*
X138435000Y-52130000D02*
X137105000Y-52130000D01*
X139705000Y-52130000D02*
X149925000Y-52130000D01*
X139705000Y-52130000D02*
X139705000Y-49470000D01*
X149925000Y-52130000D02*
X149925000Y-49470000D01*
X139705000Y-49470000D02*
X149925000Y-49470000D01*
%TO.C,R14*%
X153772936Y-95265000D02*
X154227064Y-95265000D01*
X153772936Y-96735000D02*
X154227064Y-96735000D01*
%TO.C,R43*%
X151865000Y-60732936D02*
X151865000Y-61187064D01*
X150395000Y-60732936D02*
X150395000Y-61187064D01*
%TO.C,C35*%
X157688748Y-107265000D02*
X158211252Y-107265000D01*
X157688748Y-108735000D02*
X158211252Y-108735000D01*
%TO.C,Q2*%
X146870000Y-65707500D02*
X146870000Y-64032500D01*
X146870000Y-65707500D02*
X146870000Y-66357500D01*
X143750000Y-65707500D02*
X143750000Y-65057500D01*
X143750000Y-65707500D02*
X143750000Y-66357500D01*
%TO.C,R57*%
X130314564Y-68735000D02*
X129860436Y-68735000D01*
X130314564Y-67265000D02*
X129860436Y-67265000D01*
%TO.C,D37*%
X144862500Y-75440000D02*
X143062500Y-75440000D01*
X144862500Y-75440000D02*
X145662500Y-75440000D01*
X144862500Y-78560000D02*
X144062500Y-78560000D01*
X144862500Y-78560000D02*
X145662500Y-78560000D01*
%TO.C,R2*%
X133765000Y-85064564D02*
X133765000Y-84610436D01*
X135235000Y-85064564D02*
X135235000Y-84610436D01*
D10*
%TO.C,U1*%
X134700000Y-88625000D02*
X140425000Y-88625000D01*
X135775000Y-95450000D02*
X135775000Y-95425000D01*
X135775000Y-95450000D02*
X140425000Y-95450000D01*
X140425000Y-88625000D02*
X140425000Y-88725000D01*
X140425000Y-95450000D02*
X140425000Y-95425000D01*
D11*
%TO.C,R17*%
X128012936Y-56495000D02*
X128467064Y-56495000D01*
X128012936Y-57965000D02*
X128467064Y-57965000D01*
%TO.C,R5*%
X129772936Y-96265000D02*
X130227064Y-96265000D01*
X129772936Y-97735000D02*
X130227064Y-97735000D01*
%TO.C,R15*%
X138777064Y-65735000D02*
X138322936Y-65735000D01*
X138777064Y-64265000D02*
X138322936Y-64265000D01*
%TO.C,J6*%
X160080000Y-102930000D02*
X158750000Y-102930000D01*
X160080000Y-101600000D02*
X160080000Y-102930000D01*
X160080000Y-100330000D02*
X160080000Y-95190000D01*
X160080000Y-100330000D02*
X157420000Y-100330000D01*
X160080000Y-95190000D02*
X157420000Y-95190000D01*
X157420000Y-100330000D02*
X157420000Y-95190000D01*
%TD*%
M02*
