%TF.GenerationSoftware,KiCad,Pcbnew,7.0.5*%
%TF.CreationDate,2023-09-16T15:28:57-07:00*%
%TF.ProjectId,PCF8574DIOI2C,50434638-3537-4344-9449-4f4932432e6b,rev?*%
%TF.SameCoordinates,Original*%
%TF.FileFunction,Soldermask,Top*%
%TF.FilePolarity,Negative*%
%FSLAX46Y46*%
G04 Gerber Fmt 4.6, Leading zero omitted, Abs format (unit mm)*
G04 Created by KiCad (PCBNEW 7.0.5) date 2023-09-16 15:28:57*
%MOMM*%
%LPD*%
G01*
G04 APERTURE LIST*
G04 Aperture macros list*
%AMRoundRect*
0 Rectangle with rounded corners*
0 $1 Rounding radius*
0 $2 $3 $4 $5 $6 $7 $8 $9 X,Y pos of 4 corners*
0 Add a 4 corners polygon primitive as box body*
4,1,4,$2,$3,$4,$5,$6,$7,$8,$9,$2,$3,0*
0 Add four circle primitives for the rounded corners*
1,1,$1+$1,$2,$3*
1,1,$1+$1,$4,$5*
1,1,$1+$1,$6,$7*
1,1,$1+$1,$8,$9*
0 Add four rect primitives between the rounded corners*
20,1,$1+$1,$2,$3,$4,$5,0*
20,1,$1+$1,$4,$5,$6,$7,0*
20,1,$1+$1,$6,$7,$8,$9,0*
20,1,$1+$1,$8,$9,$2,$3,0*%
G04 Aperture macros list end*
%ADD10RoundRect,0.250000X0.450000X-0.262500X0.450000X0.262500X-0.450000X0.262500X-0.450000X-0.262500X0*%
%ADD11RoundRect,0.150000X-0.512500X-0.150000X0.512500X-0.150000X0.512500X0.150000X-0.512500X0.150000X0*%
%ADD12RoundRect,0.250000X-0.262500X-0.450000X0.262500X-0.450000X0.262500X0.450000X-0.262500X0.450000X0*%
%ADD13RoundRect,0.250000X-0.475000X0.250000X-0.475000X-0.250000X0.475000X-0.250000X0.475000X0.250000X0*%
%ADD14RoundRect,0.150000X0.150000X-0.512500X0.150000X0.512500X-0.150000X0.512500X-0.150000X-0.512500X0*%
%ADD15RoundRect,0.250000X0.250000X0.475000X-0.250000X0.475000X-0.250000X-0.475000X0.250000X-0.475000X0*%
%ADD16R,1.700000X1.700000*%
%ADD17O,1.700000X1.700000*%
%ADD18RoundRect,0.250000X0.262500X0.450000X-0.262500X0.450000X-0.262500X-0.450000X0.262500X-0.450000X0*%
%ADD19C,5.600000*%
%ADD20RoundRect,0.250000X-0.450000X0.262500X-0.450000X-0.262500X0.450000X-0.262500X0.450000X0.262500X0*%
%ADD21RoundRect,0.225000X-0.225000X-0.375000X0.225000X-0.375000X0.225000X0.375000X-0.225000X0.375000X0*%
%ADD22RoundRect,0.250000X-0.250000X-0.475000X0.250000X-0.475000X0.250000X0.475000X-0.250000X0.475000X0*%
%ADD23RoundRect,0.250000X0.475000X-0.250000X0.475000X0.250000X-0.475000X0.250000X-0.475000X-0.250000X0*%
%ADD24R,3.000000X3.000000*%
%ADD25C,3.000000*%
%ADD26RoundRect,0.150000X0.512500X0.150000X-0.512500X0.150000X-0.512500X-0.150000X0.512500X-0.150000X0*%
%ADD27RoundRect,0.243750X-0.243750X-0.456250X0.243750X-0.456250X0.243750X0.456250X-0.243750X0.456250X0*%
%ADD28RoundRect,0.150000X-0.150000X0.512500X-0.150000X-0.512500X0.150000X-0.512500X0.150000X0.512500X0*%
%ADD29RoundRect,0.150000X-0.150000X0.587500X-0.150000X-0.587500X0.150000X-0.587500X0.150000X0.587500X0*%
%ADD30R,1.000000X0.400000*%
G04 APERTURE END LIST*
D10*
%TO.C,R19*%
X154000000Y-80825000D03*
X154000000Y-79000000D03*
%TD*%
D11*
%TO.C,D17*%
X146050000Y-55250000D03*
X146050000Y-57150000D03*
X148325000Y-56200000D03*
%TD*%
D12*
%TO.C,R22*%
X118175000Y-100000000D03*
X120000000Y-100000000D03*
%TD*%
D13*
%TO.C,C8*%
X125730000Y-60330000D03*
X125730000Y-62230000D03*
%TD*%
D11*
%TO.C,D2*%
X150500000Y-55250000D03*
X150500000Y-57150000D03*
X152775000Y-56200000D03*
%TD*%
D14*
%TO.C,D25*%
X123050000Y-82137500D03*
X124950000Y-82137500D03*
X124000000Y-79862500D03*
%TD*%
D12*
%TO.C,R16*%
X149087500Y-81000000D03*
X150912500Y-81000000D03*
%TD*%
D15*
%TO.C,C20*%
X150950000Y-84000000D03*
X149050000Y-84000000D03*
%TD*%
D16*
%TO.C,J7*%
X114300000Y-99075000D03*
D17*
X114300000Y-101615000D03*
X114300000Y-104155000D03*
%TD*%
D16*
%TO.C,J5*%
X127365000Y-114300000D03*
D17*
X129905000Y-114300000D03*
X132445000Y-114300000D03*
%TD*%
D18*
%TO.C,R18*%
X150912500Y-78000000D03*
X149087500Y-78000000D03*
%TD*%
D19*
%TO.C,J2*%
X158750000Y-50800000D03*
%TD*%
D18*
%TO.C,R32*%
X120000000Y-70950000D03*
X118175000Y-70950000D03*
%TD*%
D20*
%TO.C,R10*%
X134000000Y-108337500D03*
X134000000Y-110162500D03*
%TD*%
D21*
%TO.C,D3*%
X131750000Y-64500000D03*
X135050000Y-64500000D03*
%TD*%
D22*
%TO.C,C23*%
X118050000Y-106440000D03*
X119950000Y-106440000D03*
%TD*%
D16*
%TO.C,J8*%
X114300000Y-82565000D03*
D17*
X114300000Y-85105000D03*
X114300000Y-87645000D03*
%TD*%
D12*
%TO.C,R40*%
X144397500Y-69645000D03*
X146222500Y-69645000D03*
%TD*%
D15*
%TO.C,C6*%
X119950000Y-94000000D03*
X118050000Y-94000000D03*
%TD*%
D22*
%TO.C,C19*%
X134050000Y-68000000D03*
X135950000Y-68000000D03*
%TD*%
D23*
%TO.C,C39*%
X158750000Y-60950000D03*
X158750000Y-59050000D03*
%TD*%
D12*
%TO.C,R25*%
X118175000Y-68000000D03*
X120000000Y-68000000D03*
%TD*%
D24*
%TO.C,J15*%
X123190000Y-50800000D03*
D25*
X128270000Y-50800000D03*
%TD*%
D18*
%TO.C,R8*%
X154912500Y-102000000D03*
X153087500Y-102000000D03*
%TD*%
D16*
%TO.C,J14*%
X158750000Y-69850000D03*
D17*
X158750000Y-67310000D03*
X158750000Y-64770000D03*
%TD*%
D18*
%TO.C,R3*%
X130912500Y-93250000D03*
X129087500Y-93250000D03*
%TD*%
D22*
%TO.C,C2*%
X158050000Y-75000000D03*
X159950000Y-75000000D03*
%TD*%
D20*
%TO.C,R42*%
X143510000Y-60047500D03*
X143510000Y-61872500D03*
%TD*%
D26*
%TO.C,D4*%
X137668000Y-105918000D03*
X137668000Y-104018000D03*
X135393000Y-104968000D03*
%TD*%
%TO.C,U6*%
X136275000Y-73000000D03*
X136275000Y-72050000D03*
X136275000Y-71100000D03*
X134000000Y-71100000D03*
X134000000Y-73000000D03*
%TD*%
D16*
%TO.C,J13*%
X158750000Y-85090000D03*
D17*
X158750000Y-82550000D03*
X158750000Y-80010000D03*
%TD*%
D16*
%TO.C,J12*%
X144475000Y-114300000D03*
D17*
X147015000Y-114300000D03*
X149555000Y-114300000D03*
%TD*%
D12*
%TO.C,R12*%
X118175000Y-65050000D03*
X120000000Y-65050000D03*
%TD*%
D13*
%TO.C,C4*%
X123619000Y-108189000D03*
X123619000Y-110089000D03*
%TD*%
D10*
%TO.C,R7*%
X127000000Y-110162500D03*
X127000000Y-108337500D03*
%TD*%
D14*
%TO.C,D29*%
X123050000Y-74350000D03*
X124950000Y-74350000D03*
X124000000Y-72075000D03*
%TD*%
D20*
%TO.C,R29*%
X154940000Y-68937500D03*
X154940000Y-70762500D03*
%TD*%
D15*
%TO.C,C7*%
X119950000Y-77000000D03*
X118050000Y-77000000D03*
%TD*%
D18*
%TO.C,R6*%
X130912500Y-99950000D03*
X129087500Y-99950000D03*
%TD*%
D12*
%TO.C,R9*%
X118175000Y-97000000D03*
X120000000Y-97000000D03*
%TD*%
D18*
%TO.C,R28*%
X119825000Y-85950000D03*
X118000000Y-85950000D03*
%TD*%
D16*
%TO.C,J11*%
X114300000Y-64785000D03*
D17*
X114300000Y-67325000D03*
X114300000Y-69865000D03*
%TD*%
D18*
%TO.C,R27*%
X154912500Y-84000000D03*
X153087500Y-84000000D03*
%TD*%
%TO.C,R21*%
X154825000Y-99000000D03*
X153000000Y-99000000D03*
%TD*%
D20*
%TO.C,R1*%
X137750000Y-83925000D03*
X137750000Y-85750000D03*
%TD*%
D10*
%TO.C,R20*%
X130500000Y-110162500D03*
X130500000Y-108337500D03*
%TD*%
D22*
%TO.C,C27*%
X118050000Y-89000000D03*
X119950000Y-89000000D03*
%TD*%
D13*
%TO.C,C9*%
X137750000Y-110300000D03*
X137750000Y-112200000D03*
%TD*%
D22*
%TO.C,C5*%
X153050000Y-93000000D03*
X154950000Y-93000000D03*
%TD*%
D12*
%TO.C,R11*%
X118000000Y-80050000D03*
X119825000Y-80050000D03*
%TD*%
D20*
%TO.C,R41*%
X147320000Y-60047500D03*
X147320000Y-61872500D03*
%TD*%
D15*
%TO.C,C1*%
X130950000Y-89750000D03*
X129050000Y-89750000D03*
%TD*%
D18*
%TO.C,R4*%
X125662500Y-92750000D03*
X123837500Y-92750000D03*
%TD*%
D12*
%TO.C,R58*%
X129175000Y-70950000D03*
X131000000Y-70950000D03*
%TD*%
D20*
%TO.C,R36*%
X152146000Y-109196500D03*
X152146000Y-111021500D03*
%TD*%
D27*
%TO.C,D5*%
X122302500Y-57230000D03*
X124177500Y-57230000D03*
%TD*%
D26*
%TO.C,D11*%
X150738000Y-106360000D03*
X150738000Y-104460000D03*
X148463000Y-105410000D03*
%TD*%
D12*
%TO.C,R23*%
X118000000Y-83000000D03*
X119825000Y-83000000D03*
%TD*%
D11*
%TO.C,D18*%
X141600000Y-55250000D03*
X141600000Y-57150000D03*
X143875000Y-56200000D03*
%TD*%
D13*
%TO.C,C21*%
X154000000Y-74050000D03*
X154000000Y-75950000D03*
%TD*%
D19*
%TO.C,J3*%
X114300000Y-114300000D03*
%TD*%
D15*
%TO.C,C13*%
X160000000Y-91000000D03*
X158100000Y-91000000D03*
%TD*%
D26*
%TO.C,D33*%
X144653000Y-106045000D03*
X144653000Y-104145000D03*
X142378000Y-105095000D03*
%TD*%
D18*
%TO.C,R44*%
X134375000Y-56000000D03*
X132550000Y-56000000D03*
%TD*%
%TO.C,R39*%
X150135000Y-69645000D03*
X148310000Y-69645000D03*
%TD*%
%TO.C,R50*%
X150772500Y-73660000D03*
X148947500Y-73660000D03*
%TD*%
D28*
%TO.C,D1*%
X145950000Y-83725000D03*
X144050000Y-83725000D03*
X145000000Y-86000000D03*
%TD*%
D29*
%TO.C,Q5*%
X134450000Y-59500000D03*
X132550000Y-59500000D03*
X133500000Y-61375000D03*
%TD*%
D13*
%TO.C,C11*%
X145146000Y-109071500D03*
X145146000Y-110971500D03*
%TD*%
D29*
%TO.C,Q1*%
X151760000Y-64770000D03*
X149860000Y-64770000D03*
X150810000Y-66645000D03*
%TD*%
D19*
%TO.C,J1*%
X114300000Y-50800000D03*
%TD*%
D10*
%TO.C,R26*%
X148146000Y-110934000D03*
X148146000Y-109109000D03*
%TD*%
D14*
%TO.C,D15*%
X123050000Y-98275000D03*
X124950000Y-98275000D03*
X124000000Y-96000000D03*
%TD*%
D18*
%TO.C,R24*%
X119912500Y-103000000D03*
X118087500Y-103000000D03*
%TD*%
D10*
%TO.C,R13*%
X142146000Y-110934000D03*
X142146000Y-109109000D03*
%TD*%
D22*
%TO.C,C31*%
X118050000Y-74350000D03*
X119950000Y-74350000D03*
%TD*%
D13*
%TO.C,C3*%
X128740000Y-60330000D03*
X128740000Y-62230000D03*
%TD*%
%TO.C,C14*%
X138275000Y-55437500D03*
X138275000Y-57337500D03*
%TD*%
D15*
%TO.C,C10*%
X120052500Y-61350000D03*
X118152500Y-61350000D03*
%TD*%
D16*
%TO.C,J9*%
X138435000Y-50800000D03*
D17*
X140975000Y-50800000D03*
X143515000Y-50800000D03*
X146055000Y-50800000D03*
X148595000Y-50800000D03*
%TD*%
D12*
%TO.C,R14*%
X153087500Y-96000000D03*
X154912500Y-96000000D03*
%TD*%
D19*
%TO.C,J4*%
X158750000Y-114300000D03*
%TD*%
D20*
%TO.C,R43*%
X151130000Y-60047500D03*
X151130000Y-61872500D03*
%TD*%
D22*
%TO.C,C35*%
X157000000Y-108000000D03*
X158900000Y-108000000D03*
%TD*%
D29*
%TO.C,Q2*%
X146260000Y-64770000D03*
X144360000Y-64770000D03*
X145310000Y-66645000D03*
%TD*%
D18*
%TO.C,R57*%
X131000000Y-68000000D03*
X129175000Y-68000000D03*
%TD*%
D11*
%TO.C,D37*%
X143725000Y-76050000D03*
X143725000Y-77950000D03*
X146000000Y-77000000D03*
%TD*%
D10*
%TO.C,R2*%
X134500000Y-85750000D03*
X134500000Y-83925000D03*
%TD*%
D30*
%TO.C,U1*%
X135200000Y-89150000D03*
X135200000Y-89800000D03*
X135200000Y-90450000D03*
X135200000Y-91100000D03*
X135200000Y-91750000D03*
X135200000Y-92400000D03*
X135200000Y-93050000D03*
X135200000Y-93700000D03*
X135200000Y-94350000D03*
X135200000Y-95000000D03*
X141000000Y-95000000D03*
X141000000Y-94350000D03*
X141000000Y-93700000D03*
X141000000Y-93050000D03*
X141000000Y-92400000D03*
X141000000Y-91750000D03*
X141000000Y-91100000D03*
X141000000Y-90450000D03*
X141000000Y-89800000D03*
X141000000Y-89150000D03*
%TD*%
D12*
%TO.C,R17*%
X127327500Y-57230000D03*
X129152500Y-57230000D03*
%TD*%
%TO.C,R5*%
X129087500Y-97000000D03*
X130912500Y-97000000D03*
%TD*%
D18*
%TO.C,R15*%
X139462500Y-65000000D03*
X137637500Y-65000000D03*
%TD*%
D16*
%TO.C,J6*%
X158750000Y-101600000D03*
D17*
X158750000Y-99060000D03*
X158750000Y-96520000D03*
%TD*%
M02*
