M48
; DRILL file {KiCad 7.0.5} date Sat Sep 16 15:28:59 2023
; FORMAT={-:-/ absolute / inch / decimal}
; #@! TF.CreationDate,2023-09-16T15:28:59-07:00
; #@! TF.GenerationSoftware,Kicad,Pcbnew,7.0.5
; #@! TF.FileFunction,Plated,1,2,PTH
FMAT,2
INCH
; #@! TA.AperFunction,Plated,PTH,ViaDrill
T1C0.0118
; #@! TA.AperFunction,Plated,PTH,ComponentDrill
T2C0.0394
; #@! TA.AperFunction,Plated,PTH,ComponentDrill
T3C0.0598
; #@! TA.AperFunction,Plated,PTH,ComponentDrill
T4C0.1260
%
G90
G05
T1
X4.4291Y-4.252
X4.5276Y-3.563
X4.5669Y-2.8543
X4.5866Y-4.2126
X4.9016Y-2.6575
X4.9016Y-3.0709
X4.9606Y-3.002
X4.9606Y-3.4055
X4.9705Y-3.1988
X5.0197Y-3.2677
X5.0197Y-3.6024
X5.0197Y-3.6713
X5.0394Y-3.75
X5.0492Y-3.0709
X5.0886Y-2.8642
X5.0984Y-3.2972
X5.1058Y-2.596
X5.1378Y-3.1988
X5.1673Y-3.4252
X5.1772Y-4.1732
X5.187Y-2.4606
X5.2165Y-2.7362
X5.2165Y-3.6614
X5.2362Y-3.563
X5.2461Y-3.7795
X5.2657Y-2.9232
X5.2953Y-3.4744
X5.3051Y-3.2382
X5.315Y-4.4291
X5.3346Y-3.8583
X5.374Y-3.0709
X5.3839Y-2.9331
X5.4134Y-2.7559
X5.4134Y-3.9764
X5.4134Y-4.2224
X5.4331Y-3.7205
X5.4626Y-2.4902
X5.4774Y-2.7707
X5.5118Y-2.3425
X5.5118Y-2.815
X5.5118Y-3.4449
X5.5251Y-2.1983
X5.5709Y-3.0709
X5.5709Y-3.4449
X5.5807Y-2.2933
X5.5906Y-2.3622
X5.5906Y-2.6575
X5.5906Y-2.8937
X5.6004Y-3.3957
X5.6004Y-3.8681
X5.6102Y-2.5394
X5.6102Y-3.9764
X5.6398Y-3.6319
X5.6496Y-3.189
X5.6693Y-3.4547
X5.689Y-2.4902
X5.6988Y-2.2736
X5.7087Y-4.2224
X5.7185Y-3.2382
X5.7283Y-2.3819
X5.7382Y-2.1358
X5.7382Y-2.9626
X5.7677Y-2.8051
X5.7874Y-3.7992
X5.7874Y-3.9764
X5.8071Y-3.2963
X5.8268Y-2.6378
X5.8268Y-2.9724
X5.8366Y-2.5
X5.8366Y-4.2224
X5.9154Y-2.126
X5.9252Y-3.9173
X5.9547Y-2.7362
X5.9843Y-4.1142
X5.9976Y-2.3165
X6.0335Y-2.0571
X6.0433Y-2.5197
X6.0827Y-4.1142
X6.2795Y-3.0118
X6.3976Y-3.1299
T2
X4.5Y-2.5506
X4.5Y-2.6506
X4.5Y-2.7506
X4.5Y-3.2506
X4.5Y-3.3506
X4.5Y-3.4506
X4.5Y-3.9006
X4.5Y-4.0006
X4.5Y-4.1006
X5.0144Y-4.5
X5.1144Y-4.5
X5.2144Y-4.5
X5.4502Y-2.0
X5.5502Y-2.0
X5.6502Y-2.0
X5.688Y-4.5
X5.7502Y-2.0
X5.788Y-4.5
X5.8502Y-2.0
X5.888Y-4.5
X6.25Y-2.55
X6.25Y-2.65
X6.25Y-2.75
X6.25Y-3.15
X6.25Y-3.25
X6.25Y-3.35
X6.25Y-3.8
X6.25Y-3.9
X6.25Y-4.0
T3
X4.85Y-2.0
X5.05Y-2.0
T4
X4.5Y-2.0
X4.5Y-4.5
X6.25Y-2.0
X6.25Y-4.5
T0
M30
